<svg width="258" height="48" viewBox="0 0 258 48" fill="none" xmlns="http://www.w3.org/2000/svg">
<rect width="258" height="48" rx="8" fill="#E5C680"/>
<path d="M42.391 22.326H40.0004C39.9322 21.9339 39.8065 21.5866 39.6232 21.2841C39.44 20.9773 39.212 20.7173 38.9393 20.5043C38.6665 20.2912 38.3555 20.1314 38.006 20.0249C37.6609 19.9141 37.288 19.8587 36.8874 19.8587C36.1758 19.8587 35.5451 20.0376 34.9954 20.3956C34.4457 20.7493 34.0153 21.2692 33.7042 21.9553C33.3931 22.6371 33.2376 23.4702 33.2376 24.4545C33.2376 25.456 33.3931 26.2997 33.7042 26.9858C34.0195 27.6676 34.4499 28.1832 34.9954 28.5327C35.5451 28.8778 36.1737 29.0504 36.881 29.0504C37.2731 29.0504 37.6396 28.9993 37.9805 28.897C38.3256 28.7905 38.6346 28.6349 38.9073 28.4304C39.1843 28.2259 39.4165 27.9744 39.604 27.6761C39.7958 27.3778 39.9279 27.0369 40.0004 26.6534L42.391 26.6662C42.3015 27.2884 42.1076 27.8722 41.8093 28.4176C41.5153 28.9631 41.1296 29.4446 40.6523 29.8622C40.1751 30.2756 39.6168 30.5994 38.9776 30.8338C38.3384 31.0639 37.6289 31.179 36.8491 31.179C35.6985 31.179 34.6715 30.9126 33.7681 30.38C32.8647 29.8473 32.1531 29.0781 31.6332 28.0724C31.1133 27.0668 30.8533 25.8608 30.8533 24.4545C30.8533 23.044 31.1154 21.8381 31.6396 20.8366C32.1637 19.831 32.8775 19.0618 33.7809 18.5291C34.6843 17.9964 35.707 17.7301 36.8491 17.7301C37.5778 17.7301 38.2553 17.8324 38.8817 18.0369C39.5082 18.2415 40.0664 18.5419 40.5565 18.9382C41.0465 19.3303 41.4492 19.8118 41.7646 20.3828C42.0842 20.9496 42.293 21.5973 42.391 22.326ZM48.7431 31.1918C47.7843 31.1918 46.9533 30.9808 46.2502 30.5589C45.5471 30.1371 45.0016 29.5469 44.6138 28.7884C44.2303 28.0298 44.0385 27.1435 44.0385 26.1293C44.0385 25.1151 44.2303 24.2266 44.6138 23.4638C45.0016 22.701 45.5471 22.1087 46.2502 21.6868C46.9533 21.2649 47.7843 21.054 48.7431 21.054C49.7019 21.054 50.5328 21.2649 51.236 21.6868C51.9391 22.1087 52.4824 22.701 52.8659 23.4638C53.2537 24.2266 53.4476 25.1151 53.4476 26.1293C53.4476 27.1435 53.2537 28.0298 52.8659 28.7884C52.4824 29.5469 51.9391 30.1371 51.236 30.5589C50.5328 30.9808 49.7019 31.1918 48.7431 31.1918ZM48.7559 29.3381C49.2757 29.3381 49.7104 29.1953 50.0598 28.9098C50.4093 28.62 50.6692 28.2322 50.8397 27.7464C51.0144 27.2607 51.1017 26.7195 51.1017 26.1229C51.1017 25.522 51.0144 24.9787 50.8397 24.4929C50.6692 24.0028 50.4093 23.6129 50.0598 23.3232C49.7104 23.0334 49.2757 22.8885 48.7559 22.8885C48.2232 22.8885 47.78 23.0334 47.4263 23.3232C47.0769 23.6129 46.8148 24.0028 46.6401 24.4929C46.4696 24.9787 46.3844 25.522 46.3844 26.1229C46.3844 26.7195 46.4696 27.2607 46.6401 27.7464C46.8148 28.2322 47.0769 28.62 47.4263 28.9098C47.78 29.1953 48.2232 29.3381 48.7559 29.3381ZM57.7255 25.2472V31H55.4116V21.1818H57.6232V22.8501H57.7383C57.9641 22.3004 58.3242 21.8636 58.8185 21.5398C59.3171 21.2159 59.9329 21.054 60.6658 21.054C61.3434 21.054 61.9336 21.1989 62.4364 21.4886C62.9435 21.7784 63.3356 22.1982 63.6126 22.7479C63.8938 23.2976 64.0323 23.9645 64.0281 24.7486V31H61.7141V25.1065C61.7141 24.4503 61.5437 23.9368 61.2028 23.5661C60.8661 23.1953 60.3995 23.0099 59.8029 23.0099C59.3981 23.0099 59.038 23.0994 58.7227 23.2784C58.4116 23.4531 58.1665 23.7067 57.9876 24.0391C57.8129 24.3714 57.7255 24.7741 57.7255 25.2472ZM68.6942 25.2472V31H66.3803V17.9091H68.6431V22.8501H68.7582C68.9883 22.2962 69.3441 21.8594 69.8256 21.5398C70.3114 21.2159 70.9293 21.054 71.6793 21.054C72.3612 21.054 72.9556 21.1967 73.4627 21.4822C73.9698 21.7678 74.3619 22.1854 74.6389 22.7351C74.9201 23.2848 75.0607 23.956 75.0607 24.7486V31H72.7468V25.1065C72.7468 24.446 72.5763 23.9325 72.2354 23.5661C71.8988 23.1953 71.4258 23.0099 70.8164 23.0099C70.4073 23.0099 70.0408 23.0994 69.717 23.2784C69.3974 23.4531 69.146 23.7067 68.9627 24.0391C68.7837 24.3714 68.6942 24.7741 68.6942 25.2472ZM81.766 31.1918C80.7816 31.1918 79.9315 30.9872 79.2156 30.5781C78.5039 30.1648 77.9563 29.581 77.5728 28.8267C77.1893 28.0682 76.9975 27.1754 76.9975 26.1484C76.9975 25.1385 77.1893 24.2521 77.5728 23.4893C77.9606 22.7223 78.5018 22.1257 79.1964 21.6996C79.891 21.2692 80.707 21.054 81.6445 21.054C82.2496 21.054 82.8207 21.152 83.3576 21.348C83.8988 21.5398 84.3761 21.8381 84.7894 22.2429C85.207 22.6477 85.5352 23.1634 85.7738 23.7898C86.0124 24.4119 86.1317 25.1534 86.1317 26.0142V26.7237H78.0842V25.1641H83.9137C83.9094 24.7209 83.8136 24.3267 83.6261 23.9815C83.4386 23.6321 83.1765 23.3572 82.8398 23.157C82.5075 22.9567 82.1197 22.8565 81.6765 22.8565C81.2035 22.8565 80.788 22.9716 80.43 23.2017C80.0721 23.4276 79.793 23.7259 79.5927 24.0966C79.3967 24.4631 79.2965 24.8658 79.2923 25.3047V26.6662C79.2923 27.2372 79.3967 27.7273 79.6055 28.1364C79.8143 28.5412 80.1062 28.8523 80.4812 29.0696C80.8562 29.2827 81.2951 29.3892 81.7979 29.3892C82.1346 29.3892 82.4393 29.3423 82.712 29.2486C82.9847 29.1506 83.2212 29.0078 83.4215 28.8203C83.6218 28.6328 83.7731 28.4006 83.8754 28.1236L86.0359 28.3665C85.8995 28.9375 85.6396 29.4361 85.256 29.8622C84.8768 30.2841 84.391 30.6122 83.7987 30.8466C83.2063 31.0767 82.5288 31.1918 81.766 31.1918ZM92.372 31.1918C91.3919 31.1918 90.5502 30.9766 89.8471 30.5462C89.1483 30.1158 88.6092 29.5213 88.2299 28.7628C87.8549 28 87.6674 27.1222 87.6674 26.1293C87.6674 25.1321 87.8592 24.2521 88.2427 23.4893C88.6262 22.7223 89.1674 22.1257 89.8663 21.6996C90.5694 21.2692 91.4004 21.054 92.3592 21.054C93.1561 21.054 93.8613 21.201 94.475 21.495C95.0929 21.7848 95.5851 22.196 95.9515 22.7287C96.318 23.2571 96.5268 23.875 96.5779 24.5824H94.3663C94.2768 24.1094 94.0637 23.7152 93.7271 23.3999C93.3947 23.0803 92.9494 22.9205 92.3912 22.9205C91.9181 22.9205 91.5027 23.0483 91.1447 23.304C90.7868 23.5554 90.5076 23.9176 90.3074 24.3906C90.1113 24.8636 90.0133 25.4304 90.0133 26.0909C90.0133 26.7599 90.1113 27.3352 90.3074 27.8168C90.5034 28.294 90.7782 28.6626 91.1319 28.9226C91.4899 29.1783 91.9096 29.3061 92.3912 29.3061C92.7321 29.3061 93.0368 29.2422 93.3052 29.1143C93.5779 28.9822 93.8059 28.7926 93.9892 28.5455C94.1724 28.2983 94.2981 27.9979 94.3663 27.6442H96.5779C96.5225 28.3388 96.318 28.9545 95.9643 29.4915C95.6106 30.0241 95.1291 30.4418 94.5197 30.7443C93.9103 31.0426 93.1944 31.1918 92.372 31.1918ZM91.7072 30.9489H92.9601L92.8578 31.4922C93.2583 31.5518 93.5971 31.7053 93.8741 31.9524C94.1554 32.2038 94.296 32.5639 94.296 33.0327C94.3002 33.6378 94.0297 34.1236 93.4842 34.4901C92.9387 34.8565 92.161 35.0398 91.1511 35.0398L91.1255 33.902C91.6156 33.902 92.0055 33.8359 92.2953 33.7038C92.585 33.576 92.7321 33.3714 92.7363 33.0902C92.7449 32.8175 92.6426 32.6172 92.4295 32.4893C92.2207 32.3658 91.8883 32.2805 91.4324 32.2337L91.7072 30.9489ZM101.303 31.1982C100.681 31.1982 100.121 31.0874 99.6222 30.8658C99.1278 30.6399 98.7358 30.3075 98.446 29.8686C98.1605 29.4297 98.0178 28.8885 98.0178 28.245C98.0178 27.6911 98.12 27.233 98.3246 26.8707C98.5291 26.5085 98.8082 26.2188 99.1619 26.0014C99.5156 25.7841 99.9141 25.62 100.357 25.5092C100.805 25.3942 101.267 25.3111 101.744 25.2599C102.32 25.2003 102.786 25.147 103.144 25.1001C103.502 25.049 103.762 24.9723 103.924 24.87C104.09 24.7635 104.173 24.5994 104.173 24.3778V24.3395C104.173 23.858 104.031 23.4851 103.745 23.2209C103.46 22.9567 103.048 22.8246 102.511 22.8246C101.945 22.8246 101.495 22.9482 101.163 23.1953C100.835 23.4425 100.613 23.7344 100.498 24.071L98.3374 23.7642C98.5078 23.1676 98.7891 22.669 99.1811 22.2685C99.5732 21.8636 100.053 21.5611 100.619 21.3608C101.186 21.1562 101.813 21.054 102.499 21.054C102.972 21.054 103.442 21.1094 103.911 21.2202C104.38 21.331 104.808 21.5142 105.196 21.7699C105.584 22.0213 105.895 22.3643 106.129 22.799C106.368 23.2337 106.487 23.777 106.487 24.429V31H104.263V29.6513H104.186C104.045 29.924 103.847 30.1797 103.592 30.4183C103.34 30.6527 103.023 30.8423 102.639 30.9872C102.26 31.1278 101.815 31.1982 101.303 31.1982ZM101.904 29.4979C102.369 29.4979 102.771 29.4062 103.112 29.223C103.453 29.0355 103.715 28.7884 103.898 28.4815C104.086 28.1747 104.18 27.8402 104.18 27.478V26.321C104.107 26.3807 103.984 26.4361 103.809 26.4872C103.638 26.5384 103.447 26.5831 103.234 26.6214C103.021 26.6598 102.81 26.6939 102.601 26.7237C102.392 26.7536 102.211 26.7791 102.058 26.8004C101.712 26.8473 101.403 26.924 101.131 27.0305C100.858 27.1371 100.643 27.2862 100.485 27.478C100.327 27.6655 100.249 27.9084 100.249 28.2067C100.249 28.6328 100.404 28.9545 100.715 29.1719C101.026 29.3892 101.423 29.4979 101.904 29.4979ZM116.104 31.1982C115.482 31.1982 114.922 31.0874 114.423 30.8658C113.929 30.6399 113.537 30.3075 113.247 29.8686C112.961 29.4297 112.819 28.8885 112.819 28.245C112.819 27.6911 112.921 27.233 113.125 26.8707C113.33 26.5085 113.609 26.2188 113.963 26.0014C114.316 25.7841 114.715 25.62 115.158 25.5092C115.605 25.3942 116.068 25.3111 116.545 25.2599C117.12 25.2003 117.587 25.147 117.945 25.1001C118.303 25.049 118.563 24.9723 118.725 24.87C118.891 24.7635 118.974 24.5994 118.974 24.3778V24.3395C118.974 23.858 118.831 23.4851 118.546 23.2209C118.26 22.9567 117.849 22.8246 117.312 22.8246C116.745 22.8246 116.296 22.9482 115.963 23.1953C115.635 23.4425 115.414 23.7344 115.299 24.071L113.138 23.7642C113.309 23.1676 113.59 22.669 113.982 22.2685C114.374 21.8636 114.853 21.5611 115.42 21.3608C115.987 21.1562 116.613 21.054 117.299 21.054C117.772 21.054 118.243 21.1094 118.712 21.2202C119.181 21.331 119.609 21.5142 119.997 21.7699C120.385 22.0213 120.696 22.3643 120.93 22.799C121.169 23.2337 121.288 23.777 121.288 24.429V31H119.064V29.6513H118.987C118.846 29.924 118.648 30.1797 118.392 30.4183C118.141 30.6527 117.824 30.8423 117.44 30.9872C117.061 31.1278 116.615 31.1982 116.104 31.1982ZM116.705 29.4979C117.169 29.4979 117.572 29.4062 117.913 29.223C118.254 29.0355 118.516 28.7884 118.699 28.4815C118.887 28.1747 118.98 27.8402 118.98 27.478V26.321C118.908 26.3807 118.784 26.4361 118.61 26.4872C118.439 26.5384 118.248 26.5831 118.034 26.6214C117.821 26.6598 117.61 26.6939 117.402 26.7237C117.193 26.7536 117.012 26.7791 116.858 26.8004C116.513 26.8473 116.204 26.924 115.931 27.0305C115.659 27.1371 115.444 27.2862 115.286 27.478C115.128 27.6655 115.049 27.9084 115.049 28.2067C115.049 28.6328 115.205 28.9545 115.516 29.1719C115.827 29.3892 116.223 29.4979 116.705 29.4979ZM131.375 23.777L129.265 24.0071C129.206 23.794 129.101 23.5938 128.952 23.4062C128.807 23.2188 128.611 23.0675 128.364 22.9524C128.117 22.8374 127.814 22.7798 127.456 22.7798C126.975 22.7798 126.57 22.8842 126.242 23.093C125.918 23.3018 125.758 23.5724 125.762 23.9048C125.758 24.1903 125.863 24.4226 126.076 24.6016C126.293 24.7805 126.651 24.9276 127.15 25.0426L128.824 25.4006C129.753 25.6009 130.444 25.9183 130.895 26.353C131.351 26.7876 131.581 27.3565 131.586 28.0597C131.581 28.6776 131.4 29.223 131.042 29.696C130.689 30.1648 130.196 30.5312 129.566 30.7955C128.935 31.0597 128.211 31.1918 127.392 31.1918C126.191 31.1918 125.223 30.9403 124.49 30.4375C123.757 29.9304 123.321 29.2251 123.18 28.3217L125.436 28.1044C125.539 28.5476 125.756 28.8821 126.088 29.108C126.421 29.3338 126.853 29.4467 127.386 29.4467C127.936 29.4467 128.377 29.3338 128.709 29.108C129.046 28.8821 129.214 28.603 129.214 28.2706C129.214 27.9893 129.105 27.7571 128.888 27.5739C128.675 27.3906 128.343 27.25 127.891 27.152L126.216 26.8004C125.275 26.6044 124.578 26.2741 124.126 25.8097C123.674 25.3409 123.451 24.7486 123.455 24.0327C123.451 23.4276 123.615 22.9034 123.947 22.4602C124.284 22.0128 124.75 21.6676 125.347 21.4247C125.948 21.1776 126.64 21.054 127.424 21.054C128.575 21.054 129.48 21.299 130.141 21.7891C130.806 22.2791 131.217 22.9418 131.375 23.777ZM146.728 21.1818L143.232 31H140.675L137.179 21.1818H139.646L141.902 28.4751H142.005L144.267 21.1818H146.728ZM150.874 31.1982C150.251 31.1982 149.691 31.0874 149.192 30.8658C148.698 30.6399 148.306 30.3075 148.016 29.8686C147.731 29.4297 147.588 28.8885 147.588 28.245C147.588 27.6911 147.69 27.233 147.895 26.8707C148.099 26.5085 148.379 26.2188 148.732 26.0014C149.086 25.7841 149.484 25.62 149.928 25.5092C150.375 25.3942 150.837 25.3111 151.315 25.2599C151.89 25.2003 152.357 25.147 152.714 25.1001C153.072 25.049 153.332 24.9723 153.494 24.87C153.661 24.7635 153.744 24.5994 153.744 24.3778V24.3395C153.744 23.858 153.601 23.4851 153.315 23.2209C153.03 22.9567 152.619 22.8246 152.082 22.8246C151.515 22.8246 151.065 22.9482 150.733 23.1953C150.405 23.4425 150.183 23.7344 150.068 24.071L147.908 23.7642C148.078 23.1676 148.359 22.669 148.751 22.2685C149.143 21.8636 149.623 21.5611 150.19 21.3608C150.756 21.1562 151.383 21.054 152.069 21.054C152.542 21.054 153.013 21.1094 153.482 21.2202C153.95 21.331 154.379 21.5142 154.766 21.7699C155.154 22.0213 155.465 22.3643 155.7 22.799C155.938 23.2337 156.058 23.777 156.058 24.429V31H153.833V29.6513H153.756C153.616 29.924 153.418 30.1797 153.162 30.4183C152.911 30.6527 152.593 30.8423 152.21 30.9872C151.83 31.1278 151.385 31.1982 150.874 31.1982ZM151.474 29.4979C151.939 29.4979 152.342 29.4062 152.683 29.223C153.023 29.0355 153.286 28.7884 153.469 28.4815C153.656 28.1747 153.75 27.8402 153.75 27.478V26.321C153.678 26.3807 153.554 26.4361 153.379 26.4872C153.209 26.5384 153.017 26.5831 152.804 26.6214C152.591 26.6598 152.38 26.6939 152.171 26.7237C151.962 26.7536 151.781 26.7791 151.628 26.8004C151.283 26.8473 150.974 26.924 150.701 27.0305C150.428 27.1371 150.213 27.2862 150.055 27.478C149.898 27.6655 149.819 27.9084 149.819 28.2067C149.819 28.6328 149.974 28.9545 150.286 29.1719C150.597 29.3892 150.993 29.4979 151.474 29.4979ZM160.698 25.2472V31H158.384V21.1818H160.596V22.8501H160.711C160.937 22.3004 161.297 21.8636 161.791 21.5398C162.29 21.2159 162.906 21.054 163.638 21.054C164.316 21.054 164.906 21.1989 165.409 21.4886C165.916 21.7784 166.308 22.1982 166.585 22.7479C166.866 23.2976 167.005 23.9645 167.001 24.7486V31H164.687V25.1065C164.687 24.4503 164.516 23.9368 164.175 23.5661C163.839 23.1953 163.372 23.0099 162.776 23.0099C162.371 23.0099 162.011 23.0994 161.695 23.2784C161.384 23.4531 161.139 23.7067 160.96 24.0391C160.786 24.3714 160.698 24.7741 160.698 25.2472ZM174.256 21.1818V22.9716H168.612V21.1818H174.256ZM170.005 18.8295H172.319V28.0469C172.319 28.358 172.366 28.5966 172.46 28.7628C172.558 28.9247 172.685 29.0355 172.843 29.0952C173.001 29.1548 173.175 29.1847 173.367 29.1847C173.512 29.1847 173.644 29.174 173.763 29.1527C173.887 29.1314 173.981 29.1122 174.045 29.0952L174.435 30.9041C174.311 30.9467 174.134 30.9936 173.904 31.0447C173.678 31.0959 173.401 31.1257 173.073 31.1342C172.494 31.1513 171.972 31.0639 171.507 30.8722C171.043 30.6761 170.674 30.3736 170.401 29.9645C170.133 29.5554 170.001 29.044 170.005 28.4304V18.8295ZM179.016 31.1982C178.394 31.1982 177.834 31.0874 177.335 30.8658C176.841 30.6399 176.449 30.3075 176.159 29.8686C175.873 29.4297 175.731 28.8885 175.731 28.245C175.731 27.6911 175.833 27.233 176.037 26.8707C176.242 26.5085 176.521 26.2188 176.875 26.0014C177.229 25.7841 177.627 25.62 178.07 25.5092C178.518 25.3942 178.98 25.3111 179.457 25.2599C180.032 25.2003 180.499 25.147 180.857 25.1001C181.215 25.049 181.475 24.9723 181.637 24.87C181.803 24.7635 181.886 24.5994 181.886 24.3778V24.3395C181.886 23.858 181.743 23.4851 181.458 23.2209C181.172 22.9567 180.761 22.8246 180.224 22.8246C179.657 22.8246 179.208 22.9482 178.876 23.1953C178.547 23.4425 178.326 23.7344 178.211 24.071L176.05 23.7642C176.221 23.1676 176.502 22.669 176.894 22.2685C177.286 21.8636 177.765 21.5611 178.332 21.3608C178.899 21.1562 179.525 21.054 180.211 21.054C180.684 21.054 181.155 21.1094 181.624 21.2202C182.093 21.331 182.521 21.5142 182.909 21.7699C183.297 22.0213 183.608 22.3643 183.842 22.799C184.081 23.2337 184.2 23.777 184.2 24.429V31H181.976V29.6513H181.899C181.758 29.924 181.56 30.1797 181.305 30.4183C181.053 30.6527 180.736 30.8423 180.352 30.9872C179.973 31.1278 179.528 31.1982 179.016 31.1982ZM179.617 29.4979C180.081 29.4979 180.484 29.4062 180.825 29.223C181.166 29.0355 181.428 28.7884 181.611 28.4815C181.799 28.1747 181.893 27.8402 181.893 27.478V26.321C181.82 26.3807 181.697 26.4361 181.522 26.4872C181.351 26.5384 181.16 26.5831 180.947 26.6214C180.733 26.6598 180.523 26.6939 180.314 26.7237C180.105 26.7536 179.924 26.7791 179.77 26.8004C179.425 26.8473 179.116 26.924 178.844 27.0305C178.571 27.1371 178.356 27.2862 178.198 27.478C178.04 27.6655 177.961 27.9084 177.961 28.2067C177.961 28.6328 178.117 28.9545 178.428 29.1719C178.739 29.3892 179.135 29.4979 179.617 29.4979ZM190.797 34.8864C189.966 34.8864 189.252 34.7734 188.655 34.5476C188.059 34.326 187.579 34.0277 187.217 33.6527C186.855 33.2777 186.604 32.8622 186.463 32.4062L188.547 31.9013C188.64 32.093 188.777 32.2827 188.956 32.4702C189.135 32.6619 189.376 32.8196 189.678 32.9432C189.985 33.071 190.371 33.1349 190.835 33.1349C191.491 33.1349 192.035 32.9751 192.465 32.6555C192.895 32.3402 193.111 31.8203 193.111 31.0959V29.2358H192.996C192.876 29.4744 192.702 29.7195 192.471 29.9709C192.246 30.2223 191.945 30.4332 191.57 30.6037C191.199 30.7741 190.733 30.8594 190.17 30.8594C189.416 30.8594 188.732 30.6825 188.118 30.3288C187.509 29.9709 187.023 29.4382 186.661 28.7308C186.303 28.0192 186.124 27.1286 186.124 26.0589C186.124 24.9808 186.303 24.071 186.661 23.3295C187.023 22.5838 187.511 22.0192 188.125 21.6357C188.738 21.2479 189.422 21.054 190.177 21.054C190.752 21.054 191.225 21.152 191.596 21.348C191.971 21.5398 192.269 21.772 192.491 22.0447C192.712 22.3132 192.881 22.5668 192.996 22.8054H193.123V21.1818H195.405V31.1598C195.405 31.9993 195.205 32.6939 194.805 33.2436C194.404 33.7933 193.856 34.2045 193.162 34.4773C192.467 34.75 191.679 34.8864 190.797 34.8864ZM190.816 29.044C191.306 29.044 191.724 28.9247 192.069 28.6861C192.414 28.4474 192.676 28.1044 192.855 27.657C193.034 27.2095 193.123 26.6726 193.123 26.0462C193.123 25.4283 193.034 24.8871 192.855 24.4226C192.68 23.9581 192.42 23.598 192.075 23.3423C191.734 23.0824 191.314 22.9524 190.816 22.9524C190.3 22.9524 189.87 23.0866 189.525 23.3551C189.18 23.6236 188.92 23.9922 188.745 24.4609C188.57 24.9254 188.483 25.4538 188.483 26.0462C188.483 26.647 188.57 27.1733 188.745 27.625C188.924 28.0724 189.186 28.4219 189.531 28.6733C189.881 28.9205 190.309 29.044 190.816 29.044ZM202.123 31.1918C201.139 31.1918 200.289 30.9872 199.573 30.5781C198.861 30.1648 198.314 29.581 197.93 28.8267C197.547 28.0682 197.355 27.1754 197.355 26.1484C197.355 25.1385 197.547 24.2521 197.93 23.4893C198.318 22.7223 198.859 22.1257 199.554 21.6996C200.248 21.2692 201.064 21.054 202.002 21.054C202.607 21.054 203.178 21.152 203.715 21.348C204.256 21.5398 204.733 21.8381 205.147 22.2429C205.564 22.6477 205.893 23.1634 206.131 23.7898C206.37 24.4119 206.489 25.1534 206.489 26.0142V26.7237H198.442V25.1641H204.271C204.267 24.7209 204.171 24.3267 203.983 23.9815C203.796 23.6321 203.534 23.3572 203.197 23.157C202.865 22.9567 202.477 22.8565 202.034 22.8565C201.561 22.8565 201.145 22.9716 200.787 23.2017C200.43 23.4276 200.15 23.7259 199.95 24.0966C199.754 24.4631 199.654 24.8658 199.65 25.3047V26.6662C199.65 27.2372 199.754 27.7273 199.963 28.1364C200.172 28.5412 200.464 28.8523 200.839 29.0696C201.214 29.2827 201.653 29.3892 202.155 29.3892C202.492 29.3892 202.797 29.3423 203.069 29.2486C203.342 29.1506 203.579 29.0078 203.779 28.8203C203.979 28.6328 204.131 28.4006 204.233 28.1236L206.393 28.3665C206.257 28.9375 205.997 29.4361 205.613 29.8622C205.234 30.2841 204.748 30.6122 204.156 30.8466C203.564 31.0767 202.886 31.1918 202.123 31.1918ZM210.761 25.2472V31H208.447V21.1818H210.658V22.8501H210.773C210.999 22.3004 211.359 21.8636 211.854 21.5398C212.352 21.2159 212.968 21.054 213.701 21.054C214.379 21.054 214.969 21.1989 215.472 21.4886C215.979 21.7784 216.371 22.1982 216.648 22.7479C216.929 23.2976 217.067 23.9645 217.063 24.7486V31H214.749V25.1065C214.749 24.4503 214.579 23.9368 214.238 23.5661C213.901 23.1953 213.435 23.0099 212.838 23.0099C212.433 23.0099 212.073 23.0994 211.758 23.2784C211.447 23.4531 211.202 23.7067 211.023 24.0391C210.848 24.3714 210.761 24.7741 210.761 25.2472ZM227.175 23.777L225.066 24.0071C225.006 23.794 224.902 23.5938 224.753 23.4062C224.608 23.2188 224.412 23.0675 224.165 22.9524C223.918 22.8374 223.615 22.7798 223.257 22.7798C222.776 22.7798 222.371 22.8842 222.043 23.093C221.719 23.3018 221.559 23.5724 221.563 23.9048C221.559 24.1903 221.663 24.4226 221.876 24.6016C222.094 24.7805 222.452 24.9276 222.95 25.0426L224.625 25.4006C225.554 25.6009 226.244 25.9183 226.696 26.353C227.152 26.7876 227.382 27.3565 227.386 28.0597C227.382 28.6776 227.201 29.223 226.843 29.696C226.489 30.1648 225.997 30.5312 225.366 30.7955C224.736 31.0597 224.011 31.1918 223.193 31.1918C221.991 31.1918 221.024 30.9403 220.291 30.4375C219.558 29.9304 219.121 29.2251 218.981 28.3217L221.237 28.1044C221.339 28.5476 221.557 28.8821 221.889 29.108C222.222 29.3338 222.654 29.4467 223.187 29.4467C223.737 29.4467 224.178 29.3338 224.51 29.108C224.847 28.8821 225.015 28.603 225.015 28.2706C225.015 27.9893 224.906 27.7571 224.689 27.5739C224.476 27.3906 224.143 27.25 223.692 27.152L222.017 26.8004C221.075 26.6044 220.379 26.2741 219.927 25.8097C219.475 25.3409 219.251 24.7486 219.256 24.0327C219.251 23.4276 219.415 22.9034 219.748 22.4602C220.085 22.0128 220.551 21.6676 221.148 21.4247C221.749 21.1776 222.441 21.054 223.225 21.054C224.376 21.054 225.281 21.299 225.942 21.7891C226.607 22.2791 227.018 22.9418 227.175 23.777Z" fill="#252523"/>
</svg>
