<svg width="261" height="48" viewBox="0 0 261 48" fill="none" xmlns="http://www.w3.org/2000/svg">
<rect width="261" height="48" rx="13" fill="#171717"/>
<g clip-path="url(#clip0_2361_4043)">
<path d="M52.0005 11.3332L24.8339 21.8332C23.0005 22.4999 23.0005 23.6665 24.5005 23.9999L31.3339 26.1665L34.0005 34.1665C34.3339 34.9999 34.1672 35.3332 35.0005 35.3332C35.6672 35.3332 36.0005 34.9999 36.3339 34.6665C36.5005 34.4999 38.0005 32.9999 39.6672 31.3332L46.6672 36.4999C48.0005 37.1665 48.8339 36.8332 49.1672 35.3332L53.8339 13.4999C54.3339 11.6665 53.1672 10.6665 52.0005 11.3332ZM48.5005 16.3332L35.5005 28.1665L35.0005 33.6665L32.3339 25.6665L47.6672 15.9999C48.3339 15.4999 49.0005 15.8332 48.5005 16.3332Z" fill="white"/>
</g>
<path d="M75.7327 30.5V16.746H84.0335V18.2235H77.3983V22.8709H83.6037V24.3483H77.3983V29.0225H84.1409V30.5H75.7327ZM88.4055 24.2946V30.5H86.8205V20.1845H88.3517V21.7963H88.486C88.7278 21.2725 89.0949 20.8516 89.5874 20.5338C90.0799 20.2114 90.7157 20.0502 91.4947 20.0502C92.1932 20.0502 92.8043 20.1935 93.3281 20.48C93.852 20.7621 94.2594 21.1919 94.5504 21.7695C94.8414 22.3425 94.9869 23.0679 94.9869 23.9454V30.5H93.402V24.0528C93.402 23.2425 93.1916 22.6112 92.7707 22.159C92.3499 21.7023 91.7723 21.474 91.038 21.474C90.5321 21.474 90.0799 21.5837 89.6815 21.803C89.2875 22.0224 88.9763 22.3425 88.748 22.7634C88.5196 23.1843 88.4055 23.6947 88.4055 24.2946ZM102.369 20.1845V21.5277H97.0235V20.1845H102.369ZM98.5816 17.7131H100.166V27.545C100.166 27.9928 100.231 28.3286 100.361 28.5524C100.496 28.7718 100.666 28.9195 100.872 28.9957C101.082 29.0673 101.304 29.1031 101.537 29.1031C101.711 29.1031 101.854 29.0942 101.966 29.0763C102.078 29.0539 102.168 29.036 102.235 29.0225L102.557 30.4463C102.45 30.4866 102.3 30.5269 102.107 30.5672C101.915 30.6119 101.671 30.6343 101.375 30.6343C100.928 30.6343 100.489 30.5381 100.059 30.3455C99.6337 30.153 99.28 29.8598 98.9979 29.4658C98.7204 29.0718 98.5816 28.5748 98.5816 27.9749V17.7131ZM104.753 30.5V20.1845H106.285V21.7426H106.392C106.58 21.2322 106.92 20.8181 107.413 20.5002C107.905 20.1823 108.461 20.0234 109.078 20.0234C109.195 20.0234 109.34 20.0256 109.515 20.0301C109.689 20.0345 109.822 20.0413 109.911 20.0502V21.662C109.857 21.6486 109.734 21.6284 109.542 21.6016C109.354 21.5702 109.154 21.5546 108.944 21.5546C108.443 21.5546 107.995 21.6598 107.601 21.8702C107.211 22.0762 106.902 22.3627 106.674 22.7298C106.45 23.0925 106.338 23.5066 106.338 23.9722V30.5H104.753ZM115.801 30.7149C114.807 30.7149 113.95 30.4955 113.229 30.0568C112.512 29.6135 111.959 28.9957 111.57 28.2032C111.185 27.4063 110.992 26.4795 110.992 25.4229C110.992 24.3662 111.185 23.435 111.57 22.6291C111.959 21.8187 112.501 21.1874 113.195 20.7352C113.894 20.2786 114.708 20.0502 115.64 20.0502C116.177 20.0502 116.707 20.1398 117.231 20.3189C117.755 20.4979 118.232 20.789 118.662 21.1919C119.092 21.5904 119.434 22.1187 119.689 22.7768C119.945 23.435 120.072 24.2454 120.072 25.208V25.8795H112.121V24.5095H118.46C118.46 23.9275 118.344 23.4081 118.111 22.9514C117.883 22.4948 117.556 22.1344 117.131 21.8702C116.71 21.606 116.213 21.474 115.64 21.474C115.008 21.474 114.462 21.6307 114.001 21.9441C113.544 22.253 113.193 22.6559 112.947 23.1529C112.7 23.6499 112.577 24.1827 112.577 24.7513V25.6646C112.577 26.4437 112.712 27.104 112.98 27.6458C113.253 28.183 113.632 28.5927 114.115 28.8748C114.599 29.1524 115.161 29.2912 115.801 29.2912C116.217 29.2912 116.593 29.233 116.929 29.1165C117.269 28.9957 117.563 28.8166 117.809 28.5793C118.055 28.3375 118.245 28.0375 118.38 27.6794L119.911 28.1092C119.75 28.6285 119.479 29.0852 119.098 29.4792C118.718 29.8687 118.248 30.1732 117.688 30.3925C117.128 30.6075 116.499 30.7149 115.801 30.7149ZM129.387 24.2946V30.5H127.802V20.1845H129.333V21.7963H129.468C129.709 21.2725 130.076 20.8516 130.569 20.5338C131.061 20.2114 131.697 20.0502 132.476 20.0502C133.175 20.0502 133.786 20.1935 134.31 20.48C134.833 20.7621 135.241 21.1919 135.532 21.7695C135.823 22.3425 135.968 23.0679 135.968 23.9454V30.5H134.383V24.0528C134.383 23.2425 134.173 22.6112 133.752 22.159C133.331 21.7023 132.754 21.474 132.02 21.474C131.514 21.474 131.061 21.5837 130.663 21.803C130.269 22.0224 129.958 22.3425 129.729 22.7634C129.501 23.1843 129.387 23.6947 129.387 24.2946ZM143.055 30.7149C142.124 30.7149 141.307 30.4933 140.604 30.05C139.906 29.6068 139.359 28.9867 138.965 28.1898C138.576 27.3928 138.381 26.4616 138.381 25.396C138.381 24.3215 138.576 23.3835 138.965 22.5821C139.359 21.7807 139.906 21.1583 140.604 20.7151C141.307 20.2718 142.124 20.0502 143.055 20.0502C143.987 20.0502 144.801 20.2718 145.5 20.7151C146.203 21.1583 146.749 21.7807 147.138 22.5821C147.532 23.3835 147.729 24.3215 147.729 25.396C147.729 26.4616 147.532 27.3928 147.138 28.1898C146.749 28.9867 146.203 29.6068 145.5 30.05C144.801 30.4933 143.987 30.7149 143.055 30.7149ZM143.055 29.2912C143.763 29.2912 144.345 29.1098 144.801 28.7472C145.258 28.3845 145.596 27.9077 145.815 27.3167C146.035 26.7257 146.145 26.0855 146.145 25.396C146.145 24.7065 146.035 24.064 145.815 23.4686C145.596 22.8731 145.258 22.3918 144.801 22.0247C144.345 21.6575 143.763 21.474 143.055 21.474C142.348 21.474 141.766 21.6575 141.309 22.0247C140.852 22.3918 140.514 22.8731 140.295 23.4686C140.076 24.064 139.966 24.7065 139.966 25.396C139.966 26.0855 140.076 26.7257 140.295 27.3167C140.514 27.9077 140.852 28.3845 141.309 28.7472C141.766 29.1098 142.348 29.2912 143.055 29.2912ZM159.954 20.1845V21.5277H154.608V20.1845H159.954ZM156.166 17.7131H157.751V27.545C157.751 27.9928 157.816 28.3286 157.946 28.5524C158.08 28.7718 158.25 28.9195 158.456 28.9957C158.667 29.0673 158.888 29.1031 159.121 29.1031C159.296 29.1031 159.439 29.0942 159.551 29.0763C159.663 29.0539 159.752 29.036 159.82 29.0225L160.142 30.4463C160.034 30.4866 159.884 30.5269 159.692 30.5672C159.499 30.6119 159.255 30.6343 158.96 30.6343C158.512 30.6343 158.073 30.5381 157.644 30.3455C157.218 30.153 156.865 29.8598 156.583 29.4658C156.305 29.0718 156.166 28.5748 156.166 27.9749V17.7131ZM166.552 30.7149C165.558 30.7149 164.701 30.4955 163.98 30.0568C163.264 29.6135 162.711 28.9957 162.321 28.2032C161.936 27.4063 161.744 26.4795 161.744 25.4229C161.744 24.3662 161.936 23.435 162.321 22.6291C162.711 21.8187 163.252 21.1874 163.946 20.7352C164.645 20.2786 165.46 20.0502 166.391 20.0502C166.928 20.0502 167.459 20.1398 167.983 20.3189C168.506 20.4979 168.983 20.789 169.413 21.1919C169.843 21.5904 170.185 22.1187 170.441 22.7768C170.696 23.435 170.823 24.2454 170.823 25.208V25.8795H162.872V24.5095H169.212C169.212 23.9275 169.095 23.4081 168.862 22.9514C168.634 22.4948 168.307 22.1344 167.882 21.8702C167.461 21.606 166.964 21.474 166.391 21.474C165.76 21.474 165.213 21.6307 164.752 21.9441C164.296 22.253 163.944 22.6559 163.698 23.1529C163.452 23.6499 163.329 24.1827 163.329 24.7513V25.6646C163.329 26.4437 163.463 27.104 163.732 27.6458C164.005 28.183 164.383 28.5927 164.866 28.8748C165.35 29.1524 165.912 29.2912 166.552 29.2912C166.969 29.2912 167.345 29.233 167.68 29.1165C168.021 28.9957 168.314 28.8166 168.56 28.5793C168.806 28.3375 168.997 28.0375 169.131 27.6794L170.662 28.1092C170.501 28.6285 170.23 29.0852 169.85 29.4792C169.469 29.8687 168.999 30.1732 168.439 30.3925C167.88 30.6075 167.251 30.7149 166.552 30.7149ZM174.819 16.746V30.5H173.234V16.746H174.819ZM182.047 30.7149C181.053 30.7149 180.196 30.4955 179.475 30.0568C178.759 29.6135 178.206 28.9957 177.816 28.2032C177.431 27.4063 177.239 26.4795 177.239 25.4229C177.239 24.3662 177.431 23.435 177.816 22.6291C178.206 21.8187 178.747 21.1874 179.441 20.7352C180.14 20.2786 180.955 20.0502 181.886 20.0502C182.423 20.0502 182.954 20.1398 183.478 20.3189C184.001 20.4979 184.478 20.789 184.908 21.1919C185.338 21.5904 185.68 22.1187 185.936 22.7768C186.191 23.435 186.318 24.2454 186.318 25.208V25.8795H178.367V24.5095H184.707C184.707 23.9275 184.59 23.4081 184.357 22.9514C184.129 22.4948 183.802 22.1344 183.377 21.8702C182.956 21.606 182.459 21.474 181.886 21.474C181.255 21.474 180.708 21.6307 180.247 21.9441C179.791 22.253 179.439 22.6559 179.193 23.1529C178.947 23.6499 178.824 24.1827 178.824 24.7513V25.6646C178.824 26.4437 178.958 27.104 179.227 27.6458C179.5 28.183 179.878 28.5927 180.362 28.8748C180.845 29.1524 181.407 29.2912 182.047 29.2912C182.464 29.2912 182.84 29.233 183.175 29.1165C183.516 28.9957 183.809 28.8166 184.055 28.5793C184.301 28.3375 184.492 28.0375 184.626 27.6794L186.157 28.1092C185.996 28.6285 185.725 29.0852 185.345 29.4792C184.964 29.8687 184.494 30.1732 183.934 30.3925C183.375 30.6075 182.746 30.7149 182.047 30.7149ZM192.893 34.5832C192.128 34.5832 191.469 34.4847 190.919 34.2877C190.368 34.0952 189.909 33.84 189.542 33.5221C189.179 33.2087 188.891 32.8729 188.676 32.5147L189.938 31.6283C190.082 31.8163 190.263 32.0312 190.482 32.273C190.702 32.5192 191.002 32.7319 191.382 32.911C191.767 33.0945 192.271 33.1863 192.893 33.1863C193.726 33.1863 194.413 32.9848 194.955 32.5819C195.497 32.1789 195.768 31.5477 195.768 30.688V28.5927H195.633C195.517 28.7808 195.351 29.0136 195.136 29.2912C194.926 29.5643 194.621 29.8083 194.223 30.0232C193.829 30.2336 193.296 30.3388 192.625 30.3388C191.792 30.3388 191.044 30.1418 190.381 29.7478C189.723 29.3538 189.202 28.7808 188.817 28.0286C188.436 27.2764 188.246 26.3631 188.246 25.2885C188.246 24.2319 188.432 23.3119 188.803 22.5283C189.175 21.7404 189.692 21.1315 190.355 20.7017C191.017 20.2674 191.783 20.0502 192.651 20.0502C193.323 20.0502 193.856 20.1621 194.25 20.386C194.648 20.6054 194.953 20.8561 195.163 21.1382C195.378 21.4158 195.544 21.6441 195.66 21.8232H195.821V20.1845H197.352V30.7955C197.352 31.682 197.151 32.4028 196.748 32.958C196.35 33.5176 195.812 33.9273 195.136 34.187C194.465 34.4511 193.717 34.5832 192.893 34.5832ZM192.839 28.9151C193.475 28.9151 194.012 28.7696 194.451 28.4785C194.89 28.1875 195.224 27.7689 195.452 27.2227C195.68 26.6765 195.794 26.0228 195.794 25.2617C195.794 24.5185 195.682 23.8626 195.459 23.2939C195.235 22.7253 194.903 22.2799 194.465 21.9575C194.026 21.6351 193.484 21.474 192.839 21.474C192.168 21.474 191.608 21.6441 191.161 21.9844C190.717 22.3246 190.384 22.7813 190.16 23.3544C189.94 23.9275 189.831 24.5632 189.831 25.2617C189.831 25.978 189.943 26.6116 190.167 27.1622C190.395 27.7085 190.731 28.1383 191.174 28.4517C191.622 28.7606 192.177 28.9151 192.839 28.9151ZM200.254 30.5V20.1845H201.785V21.7426H201.892C202.08 21.2322 202.421 20.8181 202.913 20.5002C203.406 20.1823 203.961 20.0234 204.579 20.0234C204.695 20.0234 204.841 20.0256 205.015 20.0301C205.19 20.0345 205.322 20.0413 205.411 20.0502V21.662C205.358 21.6486 205.235 21.6284 205.042 21.6016C204.854 21.5702 204.655 21.5546 204.444 21.5546C203.943 21.5546 203.495 21.6598 203.101 21.8702C202.712 22.0762 202.403 22.3627 202.174 22.7298C201.951 23.0925 201.839 23.5066 201.839 23.9722V30.5H200.254ZM210.326 30.7418C209.672 30.7418 209.079 30.6186 208.546 30.3724C208.013 30.1217 207.59 29.7613 207.277 29.2912C206.963 28.8166 206.807 28.2435 206.807 27.5719C206.807 26.9809 206.923 26.5019 207.156 26.1347C207.389 25.7631 207.7 25.4721 208.089 25.2617C208.479 25.0512 208.909 24.8945 209.379 24.7916C209.853 24.6841 210.33 24.5991 210.809 24.5364C211.436 24.4558 211.944 24.3953 212.334 24.355C212.728 24.3103 213.014 24.2364 213.193 24.1334C213.377 24.0304 213.469 23.8514 213.469 23.5962V23.5424C213.469 22.8798 213.287 22.3649 212.925 21.9978C212.567 21.6307 212.023 21.4471 211.293 21.4471C210.536 21.4471 209.943 21.6128 209.513 21.9441C209.083 22.2754 208.781 22.6291 208.606 23.0052L207.102 22.4679C207.371 21.8411 207.729 21.3531 208.177 21.0039C208.629 20.6502 209.121 20.4039 209.654 20.2651C210.191 20.1219 210.72 20.0502 211.239 20.0502C211.57 20.0502 211.951 20.0905 212.381 20.1711C212.815 20.2472 213.234 20.4062 213.637 20.6479C214.044 20.8897 214.382 21.2546 214.651 21.7426C214.919 22.2306 215.054 22.8843 215.054 23.7036V30.5H213.469V29.1031H213.388C213.281 29.327 213.102 29.5665 212.851 29.8217C212.6 30.0769 212.267 30.294 211.85 30.4731C211.434 30.6522 210.926 30.7418 210.326 30.7418ZM210.567 29.318C211.194 29.318 211.723 29.1949 212.152 28.9487C212.587 28.7024 212.914 28.3845 213.133 27.995C213.357 27.6055 213.469 27.1958 213.469 26.766V25.3154C213.402 25.396 213.254 25.4699 213.025 25.537C212.802 25.5997 212.542 25.6557 212.246 25.7049C211.955 25.7497 211.671 25.79 211.394 25.8258C211.12 25.8571 210.899 25.884 210.729 25.9064C210.317 25.9601 209.932 26.0474 209.574 26.1683C209.22 26.2847 208.933 26.4616 208.714 26.6989C208.499 26.9317 208.392 27.2496 208.392 27.6525C208.392 28.2032 208.595 28.6196 209.003 28.9016C209.415 29.1792 209.936 29.318 210.567 29.318ZM217.946 30.5V20.1845H219.478V21.7963H219.612C219.827 21.2456 220.174 20.8181 220.653 20.5136C221.132 20.2047 221.707 20.0502 222.379 20.0502C223.059 20.0502 223.626 20.2047 224.078 20.5136C224.535 20.8181 224.891 21.2456 225.146 21.7963H225.253C225.517 21.2635 225.914 20.8404 226.442 20.527C226.97 20.2092 227.604 20.0502 228.343 20.0502C229.265 20.0502 230.019 20.339 230.606 20.9166C231.192 21.4896 231.486 22.3828 231.486 23.5962V30.5H229.901V23.5962C229.901 22.835 229.692 22.2911 229.276 21.9642C228.86 21.6374 228.369 21.474 227.805 21.474C227.08 21.474 226.518 21.6934 226.12 22.1321C225.721 22.5664 225.522 23.1171 225.522 23.7842V30.5H223.91V23.435C223.91 22.8485 223.72 22.3761 223.339 22.0179C222.959 21.6553 222.468 21.474 221.868 21.474C221.457 21.474 221.072 21.5837 220.713 21.803C220.36 22.0224 220.073 22.3269 219.854 22.7164C219.639 23.1014 219.531 23.5469 219.531 24.0528V30.5H217.946Z" fill="white"/>
<defs>
<clipPath id="clip0_2361_4043">
<rect width="40" height="40" fill="white" transform="translate(20 4)"/>
</clipPath>
</defs>
</svg>
