<svg width="441" height="60" viewBox="0 0 441 60" fill="none" xmlns="http://www.w3.org/2000/svg">
<rect width="441" height="60" rx="8" fill="#E5C680"/>
<path d="M155.636 37V23.9091H160.545C161.551 23.9091 162.394 24.0838 163.076 24.4332C163.762 24.7827 164.28 25.2727 164.63 25.9034C164.983 26.5298 165.16 27.2607 165.16 28.0959C165.16 28.9354 164.981 29.6641 164.623 30.282C164.269 30.8956 163.747 31.3707 163.057 31.7074C162.367 32.0398 161.519 32.206 160.513 32.206H157.017V30.2372H160.193C160.782 30.2372 161.263 30.1562 161.638 29.9943C162.013 29.8281 162.29 29.5874 162.469 29.272C162.652 28.9524 162.744 28.5604 162.744 28.0959C162.744 27.6314 162.652 27.2351 162.469 26.907C162.286 26.5746 162.007 26.3232 161.632 26.1527C161.257 25.978 160.773 25.8906 160.181 25.8906H158.007V37H155.636ZM162.399 31.0682L165.639 37H162.993L159.81 31.0682H162.399ZM171.447 37.1918C170.462 37.1918 169.612 36.9872 168.896 36.5781C168.185 36.1648 167.637 35.581 167.253 34.8267C166.87 34.0682 166.678 33.1754 166.678 32.1484C166.678 31.1385 166.87 30.2521 167.253 29.4893C167.641 28.7223 168.182 28.1257 168.877 27.6996C169.572 27.2692 170.388 27.054 171.325 27.054C171.93 27.054 172.501 27.152 173.038 27.348C173.579 27.5398 174.057 27.8381 174.47 28.2429C174.888 28.6477 175.216 29.1634 175.454 29.7898C175.693 30.4119 175.812 31.1534 175.812 32.0142V32.7237H167.765V31.1641H173.594C173.59 30.7209 173.494 30.3267 173.307 29.9815C173.119 29.6321 172.857 29.3572 172.521 29.157C172.188 28.9567 171.8 28.8565 171.357 28.8565C170.884 28.8565 170.469 28.9716 170.111 29.2017C169.753 29.4276 169.474 29.7259 169.273 30.0966C169.077 30.4631 168.977 30.8658 168.973 31.3047V32.6662C168.973 33.2372 169.077 33.7273 169.286 34.1364C169.495 34.5412 169.787 34.8523 170.162 35.0696C170.537 35.2827 170.976 35.3892 171.479 35.3892C171.815 35.3892 172.12 35.3423 172.393 35.2486C172.665 35.1506 172.902 35.0078 173.102 34.8203C173.302 34.6328 173.454 34.4006 173.556 34.1236L175.717 34.3665C175.58 34.9375 175.32 35.4361 174.937 35.8622C174.557 36.2841 174.072 36.6122 173.479 36.8466C172.887 37.0767 172.209 37.1918 171.447 37.1918ZM185.53 29.777L183.421 30.0071C183.361 29.794 183.256 29.5938 183.107 29.4062C182.962 29.2188 182.766 29.0675 182.519 28.9524C182.272 28.8374 181.97 28.7798 181.612 28.7798C181.13 28.7798 180.725 28.8842 180.397 29.093C180.073 29.3018 179.913 29.5724 179.918 29.9048C179.913 30.1903 180.018 30.4226 180.231 30.6016C180.448 30.7805 180.806 30.9276 181.305 31.0426L182.979 31.4006C183.908 31.6009 184.599 31.9183 185.051 32.353C185.506 32.7876 185.737 33.3565 185.741 34.0597C185.737 34.6776 185.555 35.223 185.198 35.696C184.844 36.1648 184.352 36.5312 183.721 36.7955C183.09 37.0597 182.366 37.1918 181.548 37.1918C180.346 37.1918 179.379 36.9403 178.646 36.4375C177.913 35.9304 177.476 35.2251 177.335 34.3217L179.592 34.1044C179.694 34.5476 179.911 34.8821 180.244 35.108C180.576 35.3338 181.009 35.4467 181.541 35.4467C182.091 35.4467 182.532 35.3338 182.864 35.108C183.201 34.8821 183.369 34.603 183.369 34.2706C183.369 33.9893 183.261 33.7571 183.043 33.5739C182.83 33.3906 182.498 33.25 182.046 33.152L180.372 32.8004C179.43 32.6044 178.733 32.2741 178.281 31.8097C177.83 31.3409 177.606 30.7486 177.61 30.0327C177.606 29.4276 177.77 28.9034 178.102 28.4602C178.439 28.0128 178.906 27.6676 179.502 27.4247C180.103 27.1776 180.796 27.054 181.58 27.054C182.73 27.054 183.636 27.299 184.296 27.7891C184.961 28.2791 185.372 28.9418 185.53 29.777ZM191.919 40.8864C191.088 40.8864 190.374 40.7734 189.777 40.5476C189.181 40.326 188.701 40.0277 188.339 39.6527C187.977 39.2777 187.726 38.8622 187.585 38.4062L189.669 37.9013C189.763 38.093 189.899 38.2827 190.078 38.4702C190.257 38.6619 190.498 38.8196 190.8 38.9432C191.107 39.071 191.493 39.1349 191.957 39.1349C192.613 39.1349 193.157 38.9751 193.587 38.6555C194.017 38.3402 194.233 37.8203 194.233 37.0959V35.2358H194.118C193.998 35.4744 193.824 35.7195 193.593 35.9709C193.368 36.2223 193.067 36.4332 192.692 36.6037C192.321 36.7741 191.855 36.8594 191.292 36.8594C190.538 36.8594 189.854 36.6825 189.241 36.3288C188.631 35.9709 188.145 35.4382 187.783 34.7308C187.425 34.0192 187.246 33.1286 187.246 32.0589C187.246 30.9808 187.425 30.071 187.783 29.3295C188.145 28.5838 188.633 28.0192 189.247 27.6357C189.861 27.2479 190.544 27.054 191.299 27.054C191.874 27.054 192.347 27.152 192.718 27.348C193.093 27.5398 193.391 27.772 193.613 28.0447C193.834 28.3132 194.003 28.5668 194.118 28.8054H194.245V27.1818H196.527V37.1598C196.527 37.9993 196.327 38.6939 195.927 39.2436C195.526 39.7933 194.978 40.2045 194.284 40.4773C193.589 40.75 192.801 40.8864 191.919 40.8864ZM191.938 35.044C192.428 35.044 192.846 34.9247 193.191 34.6861C193.536 34.4474 193.798 34.1044 193.977 33.657C194.156 33.2095 194.245 32.6726 194.245 32.0462C194.245 31.4283 194.156 30.8871 193.977 30.4226C193.802 29.9581 193.542 29.598 193.197 29.3423C192.856 29.0824 192.437 28.9524 191.938 28.9524C191.422 28.9524 190.992 29.0866 190.647 29.3551C190.302 29.6236 190.042 29.9922 189.867 30.4609C189.692 30.9254 189.605 31.4538 189.605 32.0462C189.605 32.647 189.692 33.1733 189.867 33.625C190.046 34.0724 190.308 34.4219 190.653 34.6733C191.003 34.9205 191.431 35.044 191.938 35.044ZM201.724 37.1982C201.102 37.1982 200.542 37.0874 200.043 36.8658C199.549 36.6399 199.157 36.3075 198.867 35.8686C198.581 35.4297 198.439 34.8885 198.439 34.245C198.439 33.6911 198.541 33.233 198.745 32.8707C198.95 32.5085 199.229 32.2188 199.583 32.0014C199.937 31.7841 200.335 31.62 200.778 31.5092C201.226 31.3942 201.688 31.3111 202.165 31.2599C202.741 31.2003 203.207 31.147 203.565 31.1001C203.923 31.049 204.183 30.9723 204.345 30.87C204.511 30.7635 204.594 30.5994 204.594 30.3778V30.3395C204.594 29.858 204.451 29.4851 204.166 29.2209C203.88 28.9567 203.469 28.8246 202.932 28.8246C202.366 28.8246 201.916 28.9482 201.584 29.1953C201.255 29.4425 201.034 29.7344 200.919 30.071L198.758 29.7642C198.929 29.1676 199.21 28.669 199.602 28.2685C199.994 27.8636 200.473 27.5611 201.04 27.3608C201.607 27.1562 202.233 27.054 202.919 27.054C203.392 27.054 203.863 27.1094 204.332 27.2202C204.801 27.331 205.229 27.5142 205.617 27.7699C206.005 28.0213 206.316 28.3643 206.55 28.799C206.789 29.2337 206.908 29.777 206.908 30.429V37H204.684V35.6513H204.607C204.466 35.924 204.268 36.1797 204.013 36.4183C203.761 36.6527 203.444 36.8423 203.06 36.9872C202.681 37.1278 202.236 37.1982 201.724 37.1982ZM202.325 35.4979C202.79 35.4979 203.192 35.4062 203.533 35.223C203.874 35.0355 204.136 34.7884 204.319 34.4815C204.507 34.1747 204.601 33.8402 204.601 33.478V32.321C204.528 32.3807 204.405 32.4361 204.23 32.4872C204.059 32.5384 203.868 32.5831 203.655 32.6214C203.441 32.6598 203.231 32.6939 203.022 32.7237C202.813 32.7536 202.632 32.7791 202.478 32.8004C202.133 32.8473 201.824 32.924 201.552 33.0305C201.279 33.1371 201.064 33.2862 200.906 33.478C200.748 33.6655 200.669 33.9084 200.669 34.2067C200.669 34.6328 200.825 34.9545 201.136 35.1719C201.447 35.3892 201.843 35.4979 202.325 35.4979ZM214.138 27.1818V28.9716H208.493V27.1818H214.138ZM209.887 24.8295H212.201V34.0469C212.201 34.358 212.248 34.5966 212.341 34.7628C212.439 34.9247 212.567 35.0355 212.725 35.0952C212.883 35.1548 213.057 35.1847 213.249 35.1847C213.394 35.1847 213.526 35.174 213.645 35.1527C213.769 35.1314 213.863 35.1122 213.927 35.0952L214.316 36.9041C214.193 36.9467 214.016 36.9936 213.786 37.0447C213.56 37.0959 213.283 37.1257 212.955 37.1342C212.375 37.1513 211.853 37.0639 211.389 36.8722C210.924 36.6761 210.556 36.3736 210.283 35.9645C210.015 35.5554 209.883 35.044 209.887 34.4304V24.8295ZM218.898 37.1982C218.276 37.1982 217.715 37.0874 217.217 36.8658C216.723 36.6399 216.331 36.3075 216.041 35.8686C215.755 35.4297 215.612 34.8885 215.612 34.245C215.612 33.6911 215.715 33.233 215.919 32.8707C216.124 32.5085 216.403 32.2188 216.757 32.0014C217.11 31.7841 217.509 31.62 217.952 31.5092C218.399 31.3942 218.862 31.3111 219.339 31.2599C219.914 31.2003 220.381 31.147 220.739 31.1001C221.097 31.049 221.357 30.9723 221.519 30.87C221.685 30.7635 221.768 30.5994 221.768 30.3778V30.3395C221.768 29.858 221.625 29.4851 221.34 29.2209C221.054 28.9567 220.643 28.8246 220.106 28.8246C219.539 28.8246 219.09 28.9482 218.757 29.1953C218.429 29.4425 218.208 29.7344 218.093 30.071L215.932 29.7642C216.103 29.1676 216.384 28.669 216.776 28.2685C217.168 27.8636 217.647 27.5611 218.214 27.3608C218.781 27.1562 219.407 27.054 220.093 27.054C220.566 27.054 221.037 27.1094 221.506 27.2202C221.975 27.331 222.403 27.5142 222.791 27.7699C223.179 28.0213 223.49 28.3643 223.724 28.799C223.963 29.2337 224.082 29.777 224.082 30.429V37H221.858V35.6513H221.781C221.64 35.924 221.442 36.1797 221.186 36.4183C220.935 36.6527 220.617 36.8423 220.234 36.9872C219.855 37.1278 219.409 37.1982 218.898 37.1982ZM219.499 35.4979C219.963 35.4979 220.366 35.4062 220.707 35.223C221.048 35.0355 221.31 34.7884 221.493 34.4815C221.681 34.1747 221.774 33.8402 221.774 33.478V32.321C221.702 32.3807 221.578 32.4361 221.404 32.4872C221.233 32.5384 221.041 32.5831 220.828 32.6214C220.615 32.6598 220.404 32.6939 220.196 32.7237C219.987 32.7536 219.806 32.7791 219.652 32.8004C219.307 32.8473 218.998 32.924 218.725 33.0305C218.453 33.1371 218.237 33.2862 218.08 33.478C217.922 33.6655 217.843 33.9084 217.843 34.2067C217.843 34.6328 217.999 34.9545 218.31 35.1719C218.621 35.3892 219.017 35.4979 219.499 35.4979ZM226.409 37V27.1818H228.652V28.8182H228.755C228.934 28.2514 229.24 27.8146 229.675 27.5078C230.114 27.1967 230.615 27.0412 231.177 27.0412C231.305 27.0412 231.448 27.0476 231.605 27.0604C231.767 27.0689 231.902 27.0838 232.008 27.1051V29.2337C231.91 29.1996 231.755 29.1697 231.541 29.1442C231.333 29.1143 231.13 29.0994 230.934 29.0994C230.512 29.0994 230.133 29.1911 229.796 29.3743C229.464 29.5533 229.202 29.8026 229.01 30.1222C228.818 30.4418 228.723 30.8104 228.723 31.228V37H226.409ZM240.835 37.1982C240.213 37.1982 239.653 37.0874 239.154 36.8658C238.66 36.6399 238.268 36.3075 237.978 35.8686C237.693 35.4297 237.55 34.8885 237.55 34.245C237.55 33.6911 237.652 33.233 237.857 32.8707C238.061 32.5085 238.34 32.2188 238.694 32.0014C239.048 31.7841 239.446 31.62 239.889 31.5092C240.337 31.3942 240.799 31.3111 241.277 31.2599C241.852 31.2003 242.318 31.147 242.676 31.1001C243.034 31.049 243.294 30.9723 243.456 30.87C243.622 30.7635 243.706 30.5994 243.706 30.3778V30.3395C243.706 29.858 243.563 29.4851 243.277 29.2209C242.992 28.9567 242.581 28.8246 242.044 28.8246C241.477 28.8246 241.027 28.9482 240.695 29.1953C240.367 29.4425 240.145 29.7344 240.03 30.071L237.87 29.7642C238.04 29.1676 238.321 28.669 238.713 28.2685C239.105 27.8636 239.585 27.5611 240.152 27.3608C240.718 27.1562 241.345 27.054 242.031 27.054C242.504 27.054 242.975 27.1094 243.443 27.2202C243.912 27.331 244.34 27.5142 244.728 27.7699C245.116 28.0213 245.427 28.3643 245.661 28.799C245.9 29.2337 246.019 29.777 246.019 30.429V37H243.795V35.6513H243.718C243.578 35.924 243.38 36.1797 243.124 36.4183C242.872 36.6527 242.555 36.8423 242.171 36.9872C241.792 37.1278 241.347 37.1982 240.835 37.1982ZM241.436 35.4979C241.901 35.4979 242.304 35.4062 242.644 35.223C242.985 35.0355 243.247 34.7884 243.431 34.4815C243.618 34.1747 243.712 33.8402 243.712 33.478V32.321C243.639 32.3807 243.516 32.4361 243.341 32.4872C243.171 32.5384 242.979 32.5831 242.766 32.6214C242.553 32.6598 242.342 32.6939 242.133 32.7237C241.924 32.7536 241.743 32.7791 241.59 32.8004C241.245 32.8473 240.936 32.924 240.663 33.0305C240.39 33.1371 240.175 33.2862 240.017 33.478C239.86 33.6655 239.781 33.9084 239.781 34.2067C239.781 34.6328 239.936 34.9545 240.247 35.1719C240.559 35.3892 240.955 35.4979 241.436 35.4979ZM252.616 40.8864C251.785 40.8864 251.071 40.7734 250.475 40.5476C249.878 40.326 249.399 40.0277 249.036 39.6527C248.674 39.2777 248.423 38.8622 248.282 38.4062L250.366 37.9013C250.46 38.093 250.596 38.2827 250.775 38.4702C250.954 38.6619 251.195 38.8196 251.497 38.9432C251.804 39.071 252.19 39.1349 252.654 39.1349C253.311 39.1349 253.854 38.9751 254.284 38.6555C254.715 38.3402 254.93 37.8203 254.93 37.0959V35.2358H254.815C254.696 35.4744 254.521 35.7195 254.291 35.9709C254.065 36.2223 253.764 36.4332 253.389 36.6037C253.019 36.7741 252.552 36.8594 251.99 36.8594C251.235 36.8594 250.551 36.6825 249.938 36.3288C249.328 35.9709 248.843 35.4382 248.48 34.7308C248.122 34.0192 247.943 33.1286 247.943 32.0589C247.943 30.9808 248.122 30.071 248.48 29.3295C248.843 28.5838 249.331 28.0192 249.944 27.6357C250.558 27.2479 251.242 27.054 251.996 27.054C252.571 27.054 253.044 27.152 253.415 27.348C253.79 27.5398 254.088 27.772 254.31 28.0447C254.532 28.3132 254.7 28.5668 254.815 28.8054H254.943V27.1818H257.225V37.1598C257.225 37.9993 257.024 38.6939 256.624 39.2436C256.223 39.7933 255.676 40.2045 254.981 40.4773C254.286 40.75 253.498 40.8864 252.616 40.8864ZM252.635 35.044C253.125 35.044 253.543 34.9247 253.888 34.6861C254.233 34.4474 254.495 34.1044 254.674 33.657C254.853 33.2095 254.943 32.6726 254.943 32.0462C254.943 31.4283 254.853 30.8871 254.674 30.4226C254.5 29.9581 254.24 29.598 253.894 29.3423C253.554 29.0824 253.134 28.9524 252.635 28.9524C252.12 28.9524 251.689 29.0866 251.344 29.3551C250.999 29.6236 250.739 29.9922 250.564 30.4609C250.389 30.9254 250.302 31.4538 250.302 32.0462C250.302 32.647 250.389 33.1733 250.564 33.625C250.743 34.0724 251.005 34.4219 251.35 34.6733C251.7 34.9205 252.128 35.044 252.635 35.044ZM263.879 37.1918C262.92 37.1918 262.089 36.9808 261.386 36.5589C260.683 36.1371 260.137 35.5469 259.75 34.7884C259.366 34.0298 259.174 33.1435 259.174 32.1293C259.174 31.1151 259.366 30.2266 259.75 29.4638C260.137 28.701 260.683 28.1087 261.386 27.6868C262.089 27.2649 262.92 27.054 263.879 27.054C264.838 27.054 265.669 27.2649 266.372 27.6868C267.075 28.1087 267.618 28.701 268.002 29.4638C268.389 30.2266 268.583 31.1151 268.583 32.1293C268.583 33.1435 268.389 34.0298 268.002 34.7884C267.618 35.5469 267.075 36.1371 266.372 36.5589C265.669 36.9808 264.838 37.1918 263.879 37.1918ZM263.892 35.3381C264.411 35.3381 264.846 35.1953 265.196 34.9098C265.545 34.62 265.805 34.2322 265.975 33.7464C266.15 33.2607 266.237 32.7195 266.237 32.1229C266.237 31.522 266.15 30.9787 265.975 30.4929C265.805 30.0028 265.545 29.6129 265.196 29.3232C264.846 29.0334 264.411 28.8885 263.892 28.8885C263.359 28.8885 262.916 29.0334 262.562 29.3232C262.213 29.6129 261.951 30.0028 261.776 30.4929C261.605 30.9787 261.52 31.522 261.52 32.1229C261.52 32.7195 261.605 33.2607 261.776 33.7464C261.951 34.2322 262.213 34.62 262.562 34.9098C262.916 35.1953 263.359 35.3381 263.892 35.3381ZM270.547 37V27.1818H272.791V28.8182H272.893C273.072 28.2514 273.379 27.8146 273.814 27.5078C274.253 27.1967 274.753 27.0412 275.316 27.0412C275.444 27.0412 275.586 27.0476 275.744 27.0604C275.906 27.0689 276.04 27.0838 276.147 27.1051V29.2337C276.049 29.1996 275.893 29.1697 275.68 29.1442C275.471 29.1143 275.269 29.0994 275.073 29.0994C274.651 29.0994 274.272 29.1911 273.935 29.3743C273.603 29.5533 273.341 29.8026 273.149 30.1222C272.957 30.4418 272.861 30.8104 272.861 31.228V37H270.547ZM280.334 37.1982C279.711 37.1982 279.151 37.0874 278.652 36.8658C278.158 36.6399 277.766 36.3075 277.476 35.8686C277.191 35.4297 277.048 34.8885 277.048 34.245C277.048 33.6911 277.15 33.233 277.355 32.8707C277.559 32.5085 277.839 32.2188 278.192 32.0014C278.546 31.7841 278.944 31.62 279.388 31.5092C279.835 31.3942 280.297 31.3111 280.775 31.2599C281.35 31.2003 281.816 31.147 282.174 31.1001C282.532 31.049 282.792 30.9723 282.954 30.87C283.12 30.7635 283.204 30.5994 283.204 30.3778V30.3395C283.204 29.858 283.061 29.4851 282.775 29.2209C282.49 28.9567 282.079 28.8246 281.542 28.8246C280.975 28.8246 280.525 28.9482 280.193 29.1953C279.865 29.4425 279.643 29.7344 279.528 30.071L277.368 29.7642C277.538 29.1676 277.819 28.669 278.211 28.2685C278.603 27.8636 279.083 27.5611 279.65 27.3608C280.216 27.1562 280.843 27.054 281.529 27.054C282.002 27.054 282.473 27.1094 282.941 27.2202C283.41 27.331 283.839 27.5142 284.226 27.7699C284.614 28.0213 284.925 28.3643 285.16 28.799C285.398 29.2337 285.517 29.777 285.517 30.429V37H283.293V35.6513H283.216C283.076 35.924 282.878 36.1797 282.622 36.4183C282.37 36.6527 282.053 36.8423 281.669 36.9872C281.29 37.1278 280.845 37.1982 280.334 37.1982ZM280.934 35.4979C281.399 35.4979 281.802 35.4062 282.142 35.223C282.483 35.0355 282.745 34.7884 282.929 34.4815C283.116 34.1747 283.21 33.8402 283.21 33.478V32.321C283.138 32.3807 283.014 32.4361 282.839 32.4872C282.669 32.5384 282.477 32.5831 282.264 32.6214C282.051 32.6598 281.84 32.6939 281.631 32.7237C281.422 32.7536 281.241 32.7791 281.088 32.8004C280.743 32.8473 280.434 32.924 280.161 33.0305C279.888 33.1371 279.673 33.2862 279.515 33.478C279.358 33.6655 279.279 33.9084 279.279 34.2067C279.279 34.6328 279.434 34.9545 279.745 35.1719C280.057 35.3892 280.453 35.4979 280.934 35.4979Z" fill="#252523"/>
</svg>
