<svg width="438" height="21" viewBox="0 0 438 21" fill="none" xmlns="http://www.w3.org/2000/svg">
<path d="M0.761364 16V1.45455H9.53977V3.01705H2.52273V7.93182H9.08523V9.49432H2.52273V14.4375H9.65341V16H0.761364ZM14.1634 9.4375V16H12.4872V5.09091H14.1065V6.79545H14.2486C14.5043 6.24148 14.8925 5.7964 15.4134 5.46023C15.9342 5.11932 16.6065 4.94886 17.4304 4.94886C18.169 4.94886 18.8153 5.10038 19.3693 5.40341C19.9233 5.7017 20.3542 6.15625 20.6619 6.76705C20.9697 7.37311 21.1236 8.14015 21.1236 9.06818V16H19.4474V9.18182C19.4474 8.32481 19.2249 7.6572 18.7798 7.17898C18.3348 6.69602 17.724 6.45455 16.9474 6.45455C16.4124 6.45455 15.9342 6.57055 15.5128 6.80256C15.0961 7.03456 14.767 7.37311 14.5256 7.81818C14.2841 8.26326 14.1634 8.80303 14.1634 9.4375ZM28.9308 5.09091V6.51136H23.2773V5.09091H28.9308ZM24.9251 2.47727H26.6012V12.875C26.6012 13.3485 26.6699 13.7036 26.8072 13.9403C26.9492 14.1723 27.1291 14.3286 27.3469 14.4091C27.5695 14.4848 27.8039 14.5227 28.0501 14.5227C28.2347 14.5227 28.3862 14.5133 28.5046 14.4943C28.623 14.4706 28.7177 14.4517 28.7887 14.4375L29.1296 15.9432C29.016 15.9858 28.8574 16.0284 28.6538 16.071C28.4502 16.1184 28.1921 16.142 27.8796 16.142C27.4061 16.142 26.9421 16.0402 26.4876 15.8366C26.0378 15.633 25.6637 15.3229 25.3654 14.9062C25.0719 14.4896 24.9251 13.964 24.9251 13.3295V2.47727ZM31.4521 16V5.09091H33.0714V6.73864H33.185C33.3839 6.19886 33.7437 5.76089 34.2646 5.42472C34.7854 5.08854 35.3725 4.92045 36.0259 4.92045C36.149 4.92045 36.3029 4.92282 36.4876 4.92756C36.6722 4.93229 36.8119 4.93939 36.9066 4.94886V6.65341C36.8498 6.6392 36.7196 6.6179 36.516 6.58949C36.3171 6.55634 36.1064 6.53977 35.8839 6.53977C35.3536 6.53977 34.8801 6.65104 34.4634 6.87358C34.0515 7.09138 33.7248 7.39441 33.4833 7.78267C33.2466 8.16619 33.1282 8.60417 33.1282 9.09659V16H31.4521ZM43.1353 16.2273C42.0842 16.2273 41.1774 15.9953 40.4151 15.5312C39.6576 15.0625 39.0728 14.4091 38.6609 13.571C38.2537 12.7282 38.0501 11.7481 38.0501 10.6307C38.0501 9.51326 38.2537 8.52841 38.6609 7.67614C39.0728 6.81913 39.6457 6.15152 40.3796 5.6733C41.1183 5.19034 41.98 4.94886 42.9648 4.94886C43.533 4.94886 44.0941 5.04356 44.6481 5.23295C45.2021 5.42235 45.7063 5.73011 46.1609 6.15625C46.6154 6.57765 46.9776 7.13636 47.2475 7.83239C47.5174 8.52841 47.6523 9.38542 47.6523 10.4034V11.1136H39.2433V9.66477H45.9478C45.9478 9.04924 45.8247 8.5 45.5785 8.01705C45.337 7.53409 44.9914 7.15294 44.5415 6.87358C44.0965 6.59422 43.5709 6.45455 42.9648 6.45455C42.2972 6.45455 41.7196 6.62026 41.2319 6.9517C40.7489 7.27841 40.3772 7.70455 40.1168 8.23011C39.8564 8.75568 39.7262 9.31913 39.7262 9.92045V10.8864C39.7262 11.7102 39.8683 12.4086 40.1523 12.9815C40.4412 13.5497 40.8413 13.983 41.3526 14.2812C41.864 14.5748 42.4582 14.7216 43.1353 14.7216C43.5756 14.7216 43.9734 14.66 44.3285 14.5369C44.6883 14.4091 44.9985 14.2197 45.2589 13.9688C45.5193 13.7131 45.7205 13.3958 45.8626 13.017L47.4819 13.4716C47.3114 14.0208 47.025 14.5038 46.6225 14.9205C46.2201 15.3324 45.7229 15.6544 45.131 15.8864C44.5392 16.1136 43.8739 16.2273 43.1353 16.2273ZM60.4009 16.2273C59.3498 16.2273 58.4431 15.9953 57.6808 15.5312C56.9232 15.0625 56.3384 14.4091 55.9265 13.571C55.5193 12.7282 55.3157 11.7481 55.3157 10.6307C55.3157 9.51326 55.5193 8.52841 55.9265 7.67614C56.3384 6.81913 56.9113 6.15152 57.6452 5.6733C58.3839 5.19034 59.2456 4.94886 60.2305 4.94886C60.7987 4.94886 61.3597 5.04356 61.9137 5.23295C62.4677 5.42235 62.9719 5.73011 63.4265 6.15625C63.881 6.57765 64.2433 7.13636 64.5131 7.83239C64.783 8.52841 64.918 9.38542 64.918 10.4034V11.1136H56.5089V9.66477H63.2134C63.2134 9.04924 63.0903 8.5 62.8441 8.01705C62.6026 7.53409 62.257 7.15294 61.8072 6.87358C61.3621 6.59422 60.8365 6.45455 60.2305 6.45455C59.5629 6.45455 58.9852 6.62026 58.4975 6.9517C58.0146 7.27841 57.6429 7.70455 57.3825 8.23011C57.122 8.75568 56.9918 9.31913 56.9918 9.92045V10.8864C56.9918 11.7102 57.1339 12.4086 57.418 12.9815C57.7068 13.5497 58.1069 13.983 58.6183 14.2812C59.1296 14.5748 59.7238 14.7216 60.4009 14.7216C60.8413 14.7216 61.239 14.66 61.5941 14.5369C61.954 14.4091 62.2641 14.2197 62.5245 13.9688C62.7849 13.7131 62.9862 13.3958 63.1282 13.017L64.7475 13.4716C64.5771 14.0208 64.2906 14.5038 63.8881 14.9205C63.4857 15.3324 62.9885 15.6544 62.3967 15.8864C61.8048 16.1136 61.1396 16.2273 60.4009 16.2273ZM67.4677 16V5.09091H69.087V6.79545H69.229C69.4563 6.21307 69.8233 5.76089 70.3299 5.43892C70.8365 5.11222 71.445 4.94886 72.1552 4.94886C72.8749 4.94886 73.4738 5.11222 73.9521 5.43892C74.435 5.76089 74.8114 6.21307 75.0813 6.79545H75.195C75.4743 6.23201 75.8933 5.78456 76.4521 5.45312C77.0108 5.11695 77.6808 4.94886 78.462 4.94886C79.4374 4.94886 80.2352 5.25426 80.8555 5.86506C81.4757 6.47112 81.7859 7.41572 81.7859 8.69886V16H80.1097V8.69886C80.1097 7.89394 79.8896 7.31866 79.4492 6.97301C79.0089 6.62737 78.4904 6.45455 77.8938 6.45455C77.1268 6.45455 76.5326 6.68655 76.1112 7.15057C75.6897 7.60985 75.479 8.19223 75.479 8.89773V16H73.7745V8.52841C73.7745 7.90814 73.5733 7.40862 73.1708 7.02983C72.7683 6.64631 72.2499 6.45455 71.6154 6.45455C71.1798 6.45455 70.7726 6.57055 70.3938 6.80256C70.0198 7.03456 69.7167 7.35653 69.4847 7.76847C69.2575 8.17566 69.1438 8.64678 69.1438 9.18182V16H67.4677ZM94.9073 16.2273C93.8846 16.2273 93.0039 15.9858 92.2653 15.5028C91.5266 15.0199 90.9585 14.3546 90.5607 13.5071C90.163 12.6596 89.9641 11.6913 89.9641 10.6023C89.9641 9.49432 90.1677 8.51657 90.5749 7.66903C90.9869 6.81676 91.5598 6.15152 92.2937 5.6733C93.0323 5.19034 93.8941 4.94886 94.8789 4.94886C95.646 4.94886 96.3372 5.09091 96.9528 5.375C97.5683 5.65909 98.0726 6.05682 98.4656 6.56818C98.8585 7.07955 99.1024 7.67614 99.1971 8.35795H97.521C97.3931 7.8608 97.109 7.42045 96.6687 7.03693C96.2331 6.64867 95.646 6.45455 94.9073 6.45455C94.2539 6.45455 93.681 6.625 93.1886 6.96591C92.7009 7.30208 92.3197 7.77794 92.0451 8.39347C91.7752 9.00426 91.6403 9.72159 91.6403 10.5455C91.6403 11.3883 91.7728 12.1222 92.038 12.7472C92.3079 13.3722 92.6867 13.8575 93.1744 14.2031C93.6668 14.5488 94.2444 14.7216 94.9073 14.7216C95.3429 14.7216 95.7383 14.6458 96.0934 14.4943C96.4485 14.3428 96.7492 14.125 96.9954 13.8409C97.2416 13.5568 97.4168 13.2159 97.521 12.8182H99.1971C99.1024 13.4621 98.868 14.0421 98.494 14.5582C98.1246 15.0696 97.6346 15.4768 97.0238 15.7798C96.4177 16.0781 95.7122 16.2273 94.9073 16.2273ZM106.079 16.2273C105.094 16.2273 104.23 15.9929 103.487 15.5241C102.748 15.0554 102.171 14.3996 101.754 13.5568C101.342 12.714 101.136 11.7292 101.136 10.6023C101.136 9.46591 101.342 8.47396 101.754 7.62642C102.171 6.77888 102.748 6.12074 103.487 5.65199C104.23 5.18324 105.094 4.94886 106.079 4.94886C107.064 4.94886 107.926 5.18324 108.664 5.65199C109.408 6.12074 109.985 6.77888 110.397 7.62642C110.814 8.47396 111.022 9.46591 111.022 10.6023C111.022 11.7292 110.814 12.714 110.397 13.5568C109.985 14.3996 109.408 15.0554 108.664 15.5241C107.926 15.9929 107.064 16.2273 106.079 16.2273ZM106.079 14.7216C106.827 14.7216 107.443 14.5298 107.926 14.1463C108.409 13.7628 108.766 13.2585 108.998 12.6335C109.23 12.0085 109.346 11.3314 109.346 10.6023C109.346 9.87311 109.23 9.19366 108.998 8.56392C108.766 7.93419 108.409 7.42519 107.926 7.03693C107.443 6.64867 106.827 6.45455 106.079 6.45455C105.331 6.45455 104.716 6.64867 104.233 7.03693C103.75 7.42519 103.392 7.93419 103.16 8.56392C102.928 9.19366 102.812 9.87311 102.812 10.6023C102.812 11.3314 102.928 12.0085 103.16 12.6335C103.392 13.2585 103.75 13.7628 104.233 14.1463C104.716 14.5298 105.331 14.7216 106.079 14.7216ZM115.257 9.4375V16H113.581V5.09091H115.2V6.79545H115.342C115.598 6.24148 115.986 5.7964 116.507 5.46023C117.028 5.11932 117.7 4.94886 118.524 4.94886C119.263 4.94886 119.909 5.10038 120.463 5.40341C121.017 5.7017 121.448 6.15625 121.756 6.76705C122.063 7.37311 122.217 8.14015 122.217 9.06818V16H120.541V9.18182C120.541 8.32481 120.319 7.6572 119.874 7.17898C119.429 6.69602 118.818 6.45455 118.041 6.45455C117.506 6.45455 117.028 6.57055 116.607 6.80256C116.19 7.03456 115.861 7.37311 115.619 7.81818C115.378 8.26326 115.257 8.80303 115.257 9.4375ZM130.025 5.09091V6.51136H124.371V5.09091H130.025ZM126.019 2.47727H127.695V12.875C127.695 13.3485 127.764 13.7036 127.901 13.9403C128.043 14.1723 128.223 14.3286 128.441 14.4091C128.663 14.4848 128.898 14.5227 129.144 14.5227C129.328 14.5227 129.48 14.5133 129.598 14.4943C129.717 14.4706 129.811 14.4517 129.882 14.4375L130.223 15.9432C130.11 15.9858 129.951 16.0284 129.748 16.071C129.544 16.1184 129.286 16.142 128.973 16.142C128.5 16.142 128.036 16.0402 127.581 15.8366C127.132 15.633 126.757 15.3229 126.459 14.9062C126.166 14.4896 126.019 13.964 126.019 13.3295V2.47727ZM135.756 16.2557C135.065 16.2557 134.437 16.1255 133.874 15.8651C133.31 15.5999 132.863 15.2188 132.532 14.7216C132.2 14.2197 132.034 13.6136 132.034 12.9034C132.034 12.2784 132.158 11.7718 132.404 11.3835C132.65 10.9905 132.979 10.6828 133.391 10.4602C133.803 10.2377 134.257 10.072 134.755 9.96307C135.257 9.84943 135.761 9.75947 136.267 9.69318C136.93 9.60795 137.468 9.54403 137.88 9.50142C138.296 9.45407 138.599 9.37595 138.789 9.26705C138.983 9.15814 139.08 8.96875 139.08 8.69886V8.64205C139.08 7.94129 138.888 7.39678 138.505 7.00852C138.126 6.62027 137.551 6.42614 136.779 6.42614C135.979 6.42614 135.351 6.60133 134.897 6.9517C134.442 7.30208 134.123 7.67614 133.938 8.07386L132.347 7.50568C132.631 6.8428 133.01 6.3267 133.483 5.95739C133.962 5.58333 134.482 5.32292 135.046 5.17614C135.614 5.02462 136.173 4.94886 136.722 4.94886C137.072 4.94886 137.475 4.99148 137.929 5.0767C138.389 5.1572 138.831 5.32528 139.257 5.58097C139.688 5.83665 140.046 6.22254 140.33 6.73864C140.614 7.25473 140.756 7.94602 140.756 8.8125V16H139.08V14.5227H138.995C138.881 14.7595 138.692 15.0128 138.426 15.2827C138.161 15.5526 137.809 15.7822 137.368 15.9716C136.928 16.161 136.391 16.2557 135.756 16.2557ZM136.012 14.75C136.675 14.75 137.233 14.6198 137.688 14.3594C138.147 14.099 138.493 13.7628 138.725 13.3509C138.962 12.9389 139.08 12.5057 139.08 12.0511V10.517C139.009 10.6023 138.853 10.6804 138.611 10.7514C138.374 10.8177 138.1 10.8769 137.787 10.929C137.48 10.9763 137.179 11.0189 136.885 11.0568C136.596 11.09 136.362 11.1184 136.182 11.142C135.747 11.1989 135.339 11.2912 134.961 11.419C134.587 11.5421 134.283 11.7292 134.051 11.9801C133.824 12.2263 133.711 12.5625 133.711 12.9886C133.711 13.571 133.926 14.0114 134.357 14.3097C134.792 14.6032 135.344 14.75 136.012 14.75ZM148.56 5.09091V6.51136H142.906V5.09091H148.56ZM144.554 2.47727H146.23V12.875C146.23 13.3485 146.299 13.7036 146.436 13.9403C146.578 14.1723 146.758 14.3286 146.976 14.4091C147.198 14.4848 147.433 14.5227 147.679 14.5227C147.864 14.5227 148.015 14.5133 148.134 14.4943C148.252 14.4706 148.347 14.4517 148.418 14.4375L148.759 15.9432C148.645 15.9858 148.486 16.0284 148.283 16.071C148.079 16.1184 147.821 16.142 147.509 16.142C147.035 16.142 146.571 16.0402 146.116 15.8366C145.667 15.633 145.293 15.3229 144.994 14.9062C144.701 14.4896 144.554 13.964 144.554 13.3295V2.47727ZM155.396 16.2273C154.411 16.2273 153.547 15.9929 152.803 15.5241C152.065 15.0554 151.487 14.3996 151.07 13.5568C150.658 12.714 150.452 11.7292 150.452 10.6023C150.452 9.46591 150.658 8.47396 151.07 7.62642C151.487 6.77888 152.065 6.12074 152.803 5.65199C153.547 5.18324 154.411 4.94886 155.396 4.94886C156.38 4.94886 157.242 5.18324 157.981 5.65199C158.724 6.12074 159.302 6.77888 159.714 7.62642C160.13 8.47396 160.339 9.46591 160.339 10.6023C160.339 11.7292 160.13 12.714 159.714 13.5568C159.302 14.3996 158.724 15.0554 157.981 15.5241C157.242 15.9929 156.38 16.2273 155.396 16.2273ZM155.396 14.7216C156.144 14.7216 156.759 14.5298 157.242 14.1463C157.725 13.7628 158.083 13.2585 158.315 12.6335C158.547 12.0085 158.663 11.3314 158.663 10.6023C158.663 9.87311 158.547 9.19366 158.315 8.56392C158.083 7.93419 157.725 7.42519 157.242 7.03693C156.759 6.64867 156.144 6.45455 155.396 6.45455C154.647 6.45455 154.032 6.64867 153.549 7.03693C153.066 7.42519 152.709 7.93419 152.477 8.56392C152.245 9.19366 152.129 9.87311 152.129 10.6023C152.129 11.3314 152.245 12.0085 152.477 12.6335C152.709 13.2585 153.066 13.7628 153.549 14.1463C154.032 14.5298 154.647 14.7216 155.396 14.7216ZM172.954 16.2273C171.931 16.2273 171.051 15.9858 170.312 15.5028C169.574 15.0199 169.005 14.3546 168.608 13.5071C168.21 12.6596 168.011 11.6913 168.011 10.6023C168.011 9.49432 168.215 8.51657 168.622 7.66903C169.034 6.81676 169.607 6.15152 170.341 5.6733C171.079 5.19034 171.941 4.94886 172.926 4.94886C173.693 4.94886 174.384 5.09091 175 5.375C175.615 5.65909 176.119 6.05682 176.512 6.56818C176.905 7.07955 177.149 7.67614 177.244 8.35795H175.568C175.44 7.8608 175.156 7.42045 174.716 7.03693C174.28 6.64867 173.693 6.45455 172.954 6.45455C172.301 6.45455 171.728 6.625 171.235 6.96591C170.748 7.30208 170.367 7.77794 170.092 8.39347C169.822 9.00426 169.687 9.72159 169.687 10.5455C169.687 11.3883 169.82 12.1222 170.085 12.7472C170.355 13.3722 170.734 13.8575 171.221 14.2031C171.714 14.5488 172.291 14.7216 172.954 14.7216C173.39 14.7216 173.785 14.6458 174.14 14.4943C174.495 14.3428 174.796 14.125 175.042 13.8409C175.288 13.5568 175.464 13.2159 175.568 12.8182H177.244C177.149 13.4621 176.915 14.0421 176.541 14.5582C176.172 15.0696 175.681 15.4768 175.071 15.7798C174.465 16.0781 173.759 16.2273 172.954 16.2273ZM184.126 16.2273C183.141 16.2273 182.277 15.9929 181.534 15.5241C180.795 15.0554 180.217 14.3996 179.801 13.5568C179.389 12.714 179.183 11.7292 179.183 10.6023C179.183 9.46591 179.389 8.47396 179.801 7.62642C180.217 6.77888 180.795 6.12074 181.534 5.65199C182.277 5.18324 183.141 4.94886 184.126 4.94886C185.111 4.94886 185.973 5.18324 186.711 5.65199C187.455 6.12074 188.032 6.77888 188.444 7.62642C188.861 8.47396 189.069 9.46591 189.069 10.6023C189.069 11.7292 188.861 12.714 188.444 13.5568C188.032 14.3996 187.455 15.0554 186.711 15.5241C185.973 15.9929 185.111 16.2273 184.126 16.2273ZM184.126 14.7216C184.874 14.7216 185.49 14.5298 185.973 14.1463C186.456 13.7628 186.813 13.2585 187.045 12.6335C187.277 12.0085 187.393 11.3314 187.393 10.6023C187.393 9.87311 187.277 9.19366 187.045 8.56392C186.813 7.93419 186.456 7.42519 185.973 7.03693C185.49 6.64867 184.874 6.45455 184.126 6.45455C183.378 6.45455 182.762 6.64867 182.279 7.03693C181.797 7.42519 181.439 7.93419 181.207 8.56392C180.975 9.19366 180.859 9.87311 180.859 10.6023C180.859 11.3314 180.975 12.0085 181.207 12.6335C181.439 13.2585 181.797 13.7628 182.279 14.1463C182.762 14.5298 183.378 14.7216 184.126 14.7216ZM193.304 9.4375V16H191.628V5.09091H193.247V6.79545H193.389C193.645 6.24148 194.033 5.7964 194.554 5.46023C195.075 5.11932 195.747 4.94886 196.571 4.94886C197.31 4.94886 197.956 5.10038 198.51 5.40341C199.064 5.7017 199.495 6.15625 199.803 6.76705C200.11 7.37311 200.264 8.14015 200.264 9.06818V16H198.588V9.18182C198.588 8.32481 198.366 7.6572 197.92 7.17898C197.475 6.69602 196.865 6.45455 196.088 6.45455C195.553 6.45455 195.075 6.57055 194.653 6.80256C194.237 7.03456 193.908 7.37311 193.666 7.81818C193.425 8.26326 193.304 8.80303 193.304 9.4375ZM207.759 16.2273C206.774 16.2273 205.91 15.9929 205.167 15.5241C204.428 15.0554 203.85 14.3996 203.434 13.5568C203.022 12.714 202.816 11.7292 202.816 10.6023C202.816 9.46591 203.022 8.47396 203.434 7.62642C203.85 6.77888 204.428 6.12074 205.167 5.65199C205.91 5.18324 206.774 4.94886 207.759 4.94886C208.744 4.94886 209.605 5.18324 210.344 5.65199C211.087 6.12074 211.665 6.77888 212.077 7.62642C212.494 8.47396 212.702 9.46591 212.702 10.6023C212.702 11.7292 212.494 12.714 212.077 13.5568C211.665 14.3996 211.087 15.0554 210.344 15.5241C209.605 15.9929 208.744 16.2273 207.759 16.2273ZM207.759 14.7216C208.507 14.7216 209.123 14.5298 209.605 14.1463C210.088 13.7628 210.446 13.2585 210.678 12.6335C210.91 12.0085 211.026 11.3314 211.026 10.6023C211.026 9.87311 210.91 9.19366 210.678 8.56392C210.446 7.93419 210.088 7.42519 209.605 7.03693C209.123 6.64867 208.507 6.45455 207.759 6.45455C207.011 6.45455 206.395 6.64867 205.912 7.03693C205.429 7.42519 205.072 7.93419 204.84 8.56392C204.608 9.19366 204.492 9.87311 204.492 10.6023C204.492 11.3314 204.608 12.0085 204.84 12.6335C205.072 13.2585 205.429 13.7628 205.912 14.1463C206.395 14.5298 207.011 14.7216 207.759 14.7216ZM222.988 7.53409L221.482 7.96023C221.388 7.70928 221.248 7.46544 221.063 7.22869C220.883 6.98722 220.637 6.78835 220.325 6.6321C220.012 6.47585 219.612 6.39773 219.124 6.39773C218.457 6.39773 217.9 6.55161 217.455 6.85938C217.015 7.16241 216.795 7.5483 216.795 8.01705C216.795 8.43371 216.946 8.76278 217.249 9.00426C217.552 9.24574 218.026 9.44697 218.67 9.60795L220.289 10.0057C221.264 10.2424 221.991 10.6046 222.469 11.0923C222.948 11.5753 223.187 12.1979 223.187 12.9602C223.187 13.5852 223.007 14.1439 222.647 14.6364C222.292 15.1288 221.795 15.517 221.156 15.8011C220.516 16.0852 219.773 16.2273 218.925 16.2273C217.813 16.2273 216.892 15.9858 216.163 15.5028C215.433 15.0199 214.972 14.3144 214.778 13.3864L216.369 12.9886C216.52 13.5758 216.807 14.0161 217.228 14.3097C217.654 14.6032 218.21 14.75 218.897 14.75C219.678 14.75 220.299 14.5843 220.758 14.2528C221.222 13.9167 221.454 13.5142 221.454 13.0455C221.454 12.6667 221.321 12.3494 221.056 12.0938C220.791 11.8333 220.384 11.6392 219.835 11.5114L218.016 11.0852C217.017 10.8485 216.283 10.4815 215.815 9.98438C215.351 9.48248 215.119 8.85511 215.119 8.10227C215.119 7.48674 215.291 6.94223 215.637 6.46875C215.987 5.99527 216.463 5.62358 217.065 5.35369C217.671 5.08381 218.357 4.94886 219.124 4.94886C220.204 4.94886 221.051 5.18561 221.667 5.65909C222.287 6.13258 222.728 6.75758 222.988 7.53409ZM230.142 16.2273C229.119 16.2273 228.238 15.9858 227.5 15.5028C226.761 15.0199 226.193 14.3546 225.795 13.5071C225.397 12.6596 225.199 11.6913 225.199 10.6023C225.199 9.49432 225.402 8.51657 225.809 7.66903C226.221 6.81676 226.794 6.15152 227.528 5.6733C228.267 5.19034 229.128 4.94886 230.113 4.94886C230.88 4.94886 231.572 5.09091 232.187 5.375C232.803 5.65909 233.307 6.05682 233.7 6.56818C234.093 7.07955 234.337 7.67614 234.431 8.35795H232.755C232.627 7.8608 232.343 7.42045 231.903 7.03693C231.467 6.64867 230.88 6.45455 230.142 6.45455C229.488 6.45455 228.915 6.625 228.423 6.96591C227.935 7.30208 227.554 7.77794 227.279 8.39347C227.01 9.00426 226.875 9.72159 226.875 10.5455C226.875 11.3883 227.007 12.1222 227.272 12.7472C227.542 13.3722 227.921 13.8575 228.409 14.2031C228.901 14.5488 229.479 14.7216 230.142 14.7216C230.577 14.7216 230.973 14.6458 231.328 14.4943C231.683 14.3428 231.984 14.125 232.23 13.8409C232.476 13.5568 232.651 13.2159 232.755 12.8182H234.431C234.337 13.4621 234.102 14.0421 233.728 14.5582C233.359 15.0696 232.869 15.4768 232.258 15.7798C231.652 16.0781 230.947 16.2273 230.142 16.2273ZM241.314 16.2273C240.329 16.2273 239.465 15.9929 238.721 15.5241C237.983 15.0554 237.405 14.3996 236.988 13.5568C236.576 12.714 236.37 11.7292 236.37 10.6023C236.37 9.46591 236.576 8.47396 236.988 7.62642C237.405 6.77888 237.983 6.12074 238.721 5.65199C239.465 5.18324 240.329 4.94886 241.314 4.94886C242.298 4.94886 243.16 5.18324 243.899 5.65199C244.642 6.12074 245.22 6.77888 245.632 7.62642C246.048 8.47396 246.257 9.46591 246.257 10.6023C246.257 11.7292 246.048 12.714 245.632 13.5568C245.22 14.3996 244.642 15.0554 243.899 15.5241C243.16 15.9929 242.298 16.2273 241.314 16.2273ZM241.314 14.7216C242.062 14.7216 242.677 14.5298 243.16 14.1463C243.643 13.7628 244.001 13.2585 244.233 12.6335C244.465 12.0085 244.581 11.3314 244.581 10.6023C244.581 9.87311 244.465 9.19366 244.233 8.56392C244.001 7.93419 243.643 7.42519 243.16 7.03693C242.677 6.64867 242.062 6.45455 241.314 6.45455C240.565 6.45455 239.95 6.64867 239.467 7.03693C238.984 7.42519 238.627 7.93419 238.395 8.56392C238.163 9.19366 238.047 9.87311 238.047 10.6023C238.047 11.3314 238.163 12.0085 238.395 12.6335C238.627 13.2585 238.984 13.7628 239.467 14.1463C239.95 14.5298 240.565 14.7216 241.314 14.7216ZM259.014 16.2273C257.963 16.2273 257.056 15.9953 256.294 15.5312C255.536 15.0625 254.952 14.4091 254.54 13.571C254.133 12.7282 253.929 11.7481 253.929 10.6307C253.929 9.51326 254.133 8.52841 254.54 7.67614C254.952 6.81913 255.525 6.15152 256.259 5.6733C256.997 5.19034 257.859 4.94886 258.844 4.94886C259.412 4.94886 259.973 5.04356 260.527 5.23295C261.081 5.42235 261.585 5.73011 262.04 6.15625C262.494 6.57765 262.857 7.13636 263.126 7.83239C263.396 8.52841 263.531 9.38542 263.531 10.4034V11.1136H255.122V9.66477H261.827C261.827 9.04924 261.704 8.5 261.457 8.01705C261.216 7.53409 260.87 7.15294 260.42 6.87358C259.975 6.59422 259.45 6.45455 258.844 6.45455C258.176 6.45455 257.598 6.62026 257.111 6.9517C256.628 7.27841 256.256 7.70455 255.996 8.23011C255.735 8.75568 255.605 9.31913 255.605 9.92045V10.8864C255.605 11.7102 255.747 12.4086 256.031 12.9815C256.32 13.5497 256.72 13.983 257.232 14.2812C257.743 14.5748 258.337 14.7216 259.014 14.7216C259.455 14.7216 259.852 14.66 260.207 14.5369C260.567 14.4091 260.877 14.2197 261.138 13.9688C261.398 13.7131 261.599 13.3958 261.741 13.017L263.361 13.4716C263.19 14.0208 262.904 14.5038 262.501 14.9205C262.099 15.3324 261.602 15.6544 261.01 15.8864C260.418 16.1136 259.753 16.2273 259.014 16.2273ZM271.706 16V5.09091H273.325V6.73864H273.439C273.638 6.19886 273.998 5.76089 274.518 5.42472C275.039 5.08854 275.626 4.92045 276.28 4.92045C276.403 4.92045 276.557 4.92282 276.741 4.92756C276.926 4.93229 277.066 4.93939 277.161 4.94886V6.65341C277.104 6.6392 276.973 6.6179 276.77 6.58949C276.571 6.55634 276.36 6.53977 276.138 6.53977C275.607 6.53977 275.134 6.65104 274.717 6.87358C274.305 7.09138 273.979 7.39441 273.737 7.78267C273.5 8.16619 273.382 8.60417 273.382 9.09659V16H271.706ZM283.389 16.2273C282.338 16.2273 281.431 15.9953 280.669 15.5312C279.911 15.0625 279.327 14.4091 278.915 13.571C278.508 12.7282 278.304 11.7481 278.304 10.6307C278.304 9.51326 278.508 8.52841 278.915 7.67614C279.327 6.81913 279.9 6.15152 280.634 5.6733C281.372 5.19034 282.234 4.94886 283.219 4.94886C283.787 4.94886 284.348 5.04356 284.902 5.23295C285.456 5.42235 285.96 5.73011 286.415 6.15625C286.869 6.57765 287.232 7.13636 287.501 7.83239C287.771 8.52841 287.906 9.38542 287.906 10.4034V11.1136H279.497V9.66477H286.202C286.202 9.04924 286.079 8.5 285.832 8.01705C285.591 7.53409 285.245 7.15294 284.795 6.87358C284.35 6.59422 283.825 6.45455 283.219 6.45455C282.551 6.45455 281.973 6.62026 281.486 6.9517C281.003 7.27841 280.631 7.70455 280.371 8.23011C280.11 8.75568 279.98 9.31913 279.98 9.92045V10.8864C279.98 11.7102 280.122 12.4086 280.406 12.9815C280.695 13.5497 281.095 13.983 281.607 14.2812C282.118 14.5748 282.712 14.7216 283.389 14.7216C283.83 14.7216 284.227 14.66 284.582 14.5369C284.942 14.4091 285.252 14.2197 285.513 13.9688C285.773 13.7131 285.974 13.3958 286.116 13.017L287.736 13.4716C287.565 14.0208 287.279 14.5038 286.876 14.9205C286.474 15.3324 285.977 15.6544 285.385 15.8864C284.793 16.1136 284.128 16.2273 283.389 16.2273ZM294.859 20.3182C294.05 20.3182 293.354 20.214 292.771 20.0057C292.189 19.8021 291.704 19.5322 291.315 19.196C290.932 18.8646 290.626 18.5095 290.399 18.1307L291.734 17.1932C291.886 17.392 292.078 17.6193 292.31 17.875C292.542 18.1354 292.859 18.3603 293.261 18.5497C293.669 18.7438 294.201 18.8409 294.859 18.8409C295.74 18.8409 296.467 18.6278 297.04 18.2017C297.613 17.7756 297.899 17.108 297.899 16.1989V13.983H297.757C297.634 14.1818 297.459 14.428 297.232 14.7216C297.009 15.0104 296.687 15.2685 296.266 15.4957C295.849 15.7183 295.286 15.8295 294.575 15.8295C293.695 15.8295 292.904 15.6212 292.203 15.2045C291.507 14.7879 290.955 14.1818 290.548 13.3864C290.146 12.5909 289.945 11.625 289.945 10.4886C289.945 9.37121 290.141 8.3982 290.534 7.5696C290.927 6.73627 291.474 6.09233 292.175 5.63778C292.875 5.1785 293.685 4.94886 294.604 4.94886C295.314 4.94886 295.877 5.06723 296.294 5.30398C296.715 5.53598 297.037 5.80114 297.26 6.09943C297.487 6.39299 297.662 6.63447 297.786 6.82386H297.956V5.09091H299.575V16.3125C299.575 17.25 299.362 18.0123 298.936 18.5994C298.515 19.1913 297.946 19.6245 297.232 19.8991C296.521 20.1785 295.731 20.3182 294.859 20.3182ZM294.803 14.3239C295.475 14.3239 296.043 14.17 296.507 13.8622C296.971 13.5545 297.324 13.1117 297.565 12.5341C297.807 11.9564 297.928 11.2652 297.928 10.4602C297.928 9.67424 297.809 8.98059 297.572 8.37926C297.336 7.77794 296.985 7.30682 296.521 6.96591C296.057 6.625 295.484 6.45455 294.803 6.45455C294.092 6.45455 293.5 6.63447 293.027 6.99432C292.558 7.35417 292.205 7.83712 291.969 8.44318C291.737 9.04924 291.621 9.72159 291.621 10.4602C291.621 11.2178 291.739 11.8878 291.976 12.4702C292.217 13.0478 292.572 13.5024 293.041 13.8338C293.515 14.1605 294.102 14.3239 294.803 14.3239ZM305.854 16.2557C305.162 16.2557 304.535 16.1255 303.972 15.8651C303.408 15.5999 302.961 15.2188 302.629 14.7216C302.298 14.2197 302.132 13.6136 302.132 12.9034C302.132 12.2784 302.255 11.7718 302.501 11.3835C302.748 10.9905 303.077 10.6828 303.489 10.4602C303.901 10.2377 304.355 10.072 304.852 9.96307C305.354 9.84943 305.858 9.75947 306.365 9.69318C307.028 9.60795 307.565 9.54403 307.977 9.50142C308.394 9.45407 308.697 9.37595 308.886 9.26705C309.08 9.15814 309.178 8.96875 309.178 8.69886V8.64205C309.178 7.94129 308.986 7.39678 308.602 7.00852C308.223 6.62027 307.648 6.42614 306.876 6.42614C306.076 6.42614 305.449 6.60133 304.994 6.9517C304.54 7.30208 304.22 7.67614 304.036 8.07386L302.445 7.50568C302.729 6.8428 303.107 6.3267 303.581 5.95739C304.059 5.58333 304.58 5.32292 305.143 5.17614C305.712 5.02462 306.27 4.94886 306.82 4.94886C307.17 4.94886 307.572 4.99148 308.027 5.0767C308.486 5.1572 308.929 5.32528 309.355 5.58097C309.786 5.83665 310.143 6.22254 310.428 6.73864C310.712 7.25473 310.854 7.94602 310.854 8.8125V16H309.178V14.5227H309.092C308.979 14.7595 308.789 15.0128 308.524 15.2827C308.259 15.5526 307.906 15.7822 307.466 15.9716C307.026 16.161 306.488 16.2557 305.854 16.2557ZM306.109 14.75C306.772 14.75 307.331 14.6198 307.786 14.3594C308.245 14.099 308.59 13.7628 308.822 13.3509C309.059 12.9389 309.178 12.5057 309.178 12.0511V10.517C309.107 10.6023 308.95 10.6804 308.709 10.7514C308.472 10.8177 308.197 10.8769 307.885 10.929C307.577 10.9763 307.277 11.0189 306.983 11.0568C306.694 11.09 306.46 11.1184 306.28 11.142C305.844 11.1989 305.437 11.2912 305.058 11.419C304.684 11.5421 304.381 11.7292 304.149 11.9801C303.922 12.2263 303.808 12.5625 303.808 12.9886C303.808 13.571 304.024 14.0114 304.455 14.3097C304.89 14.6032 305.442 14.75 306.109 14.75ZM318.657 5.09091V6.51136H313.004V5.09091H318.657ZM314.652 2.47727H316.328V12.875C316.328 13.3485 316.396 13.7036 316.534 13.9403C316.676 14.1723 316.856 14.3286 317.074 14.4091C317.296 14.4848 317.53 14.5227 317.777 14.5227C317.961 14.5227 318.113 14.5133 318.231 14.4943C318.35 14.4706 318.444 14.4517 318.515 14.4375L318.856 15.9432C318.743 15.9858 318.584 16.0284 318.38 16.071C318.177 16.1184 317.919 16.142 317.606 16.142C317.133 16.142 316.669 16.0402 316.214 15.8366C315.764 15.633 315.39 15.3229 315.092 14.9062C314.798 14.4896 314.652 13.964 314.652 13.3295V2.47727ZM325.635 16.2273C324.584 16.2273 323.677 15.9953 322.915 15.5312C322.158 15.0625 321.573 14.4091 321.161 13.571C320.754 12.7282 320.55 11.7481 320.55 10.6307C320.55 9.51326 320.754 8.52841 321.161 7.67614C321.573 6.81913 322.146 6.15152 322.88 5.6733C323.618 5.19034 324.48 4.94886 325.465 4.94886C326.033 4.94886 326.594 5.04356 327.148 5.23295C327.702 5.42235 328.206 5.73011 328.661 6.15625C329.115 6.57765 329.478 7.13636 329.748 7.83239C330.017 8.52841 330.152 9.38542 330.152 10.4034V11.1136H321.743V9.66477H328.448C328.448 9.04924 328.325 8.5 328.078 8.01705C327.837 7.53409 327.491 7.15294 327.042 6.87358C326.596 6.59422 326.071 6.45455 325.465 6.45455C324.797 6.45455 324.22 6.62026 323.732 6.9517C323.249 7.27841 322.877 7.70455 322.617 8.23011C322.356 8.75568 322.226 9.31913 322.226 9.92045V10.8864C322.226 11.7102 322.368 12.4086 322.652 12.9815C322.941 13.5497 323.341 13.983 323.853 14.2812C324.364 14.5748 324.958 14.7216 325.635 14.7216C326.076 14.7216 326.473 14.66 326.828 14.5369C327.188 14.4091 327.498 14.2197 327.759 13.9688C328.019 13.7131 328.221 13.3958 328.363 13.017L329.982 13.4716C329.811 14.0208 329.525 14.5038 329.123 14.9205C328.72 15.3324 328.223 15.6544 327.631 15.8864C327.039 16.1136 326.374 16.2273 325.635 16.2273ZM338.327 5.09091H340.003V16.7955C340.003 17.4678 339.887 18.0502 339.655 18.5426C339.428 19.035 339.082 19.4162 338.618 19.6861C338.159 19.956 337.579 20.0909 336.878 20.0909C336.821 20.0909 336.765 20.0909 336.708 20.0909C336.651 20.0909 336.594 20.0909 336.537 20.0909V18.5284C336.594 18.5284 336.646 18.5284 336.694 18.5284C336.741 18.5284 336.793 18.5284 336.85 18.5284C337.361 18.5284 337.735 18.3769 337.972 18.0739C338.209 17.7756 338.327 17.3494 338.327 16.7955V5.09091ZM339.151 3.27273C338.824 3.27273 338.542 3.16146 338.306 2.93892C338.074 2.71638 337.958 2.44886 337.958 2.13636C337.958 1.82386 338.074 1.55634 338.306 1.33381C338.542 1.11127 338.824 1 339.151 1C339.478 1 339.757 1.11127 339.989 1.33381C340.226 1.55634 340.344 1.82386 340.344 2.13636C340.344 2.44886 340.226 2.71638 339.989 2.93892C339.757 3.16146 339.478 3.27273 339.151 3.27273ZM346.283 16.2557C345.592 16.2557 344.965 16.1255 344.401 15.8651C343.838 15.5999 343.39 15.2188 343.059 14.7216C342.728 14.2197 342.562 13.6136 342.562 12.9034C342.562 12.2784 342.685 11.7718 342.931 11.3835C343.177 10.9905 343.506 10.6828 343.918 10.4602C344.33 10.2377 344.785 10.072 345.282 9.96307C345.784 9.84943 346.288 9.75947 346.795 9.69318C347.458 9.60795 347.995 9.54403 348.407 9.50142C348.824 9.45407 349.127 9.37595 349.316 9.26705C349.51 9.15814 349.607 8.96875 349.607 8.69886V8.64205C349.607 7.94129 349.415 7.39678 349.032 7.00852C348.653 6.62027 348.078 6.42614 347.306 6.42614C346.506 6.42614 345.879 6.60133 345.424 6.9517C344.969 7.30208 344.65 7.67614 344.465 8.07386L342.874 7.50568C343.158 6.8428 343.537 6.3267 344.011 5.95739C344.489 5.58333 345.01 5.32292 345.573 5.17614C346.141 5.02462 346.7 4.94886 347.249 4.94886C347.6 4.94886 348.002 4.99148 348.457 5.0767C348.916 5.1572 349.359 5.32528 349.785 5.58097C350.216 5.83665 350.573 6.22254 350.857 6.73864C351.141 7.25473 351.283 7.94602 351.283 8.8125V16H349.607V14.5227H349.522C349.408 14.7595 349.219 15.0128 348.954 15.2827C348.689 15.5526 348.336 15.7822 347.896 15.9716C347.455 16.161 346.918 16.2557 346.283 16.2557ZM346.539 14.75C347.202 14.75 347.761 14.6198 348.215 14.3594C348.674 14.099 349.02 13.7628 349.252 13.3509C349.489 12.9389 349.607 12.5057 349.607 12.0511V10.517C349.536 10.6023 349.38 10.6804 349.138 10.7514C348.902 10.8177 348.627 10.8769 348.315 10.929C348.007 10.9763 347.706 11.0189 347.413 11.0568C347.124 11.09 346.889 11.1184 346.71 11.142C346.274 11.1989 345.867 11.2912 345.488 11.419C345.114 11.5421 344.811 11.7292 344.579 11.9801C344.352 12.2263 344.238 12.5625 344.238 12.9886C344.238 13.571 344.453 14.0114 344.884 14.3097C345.32 14.6032 345.871 14.75 346.539 14.75ZM346.596 3.61364L348.329 0.318181H350.289L348.073 3.61364H346.596ZM364.4 16.2273C363.415 16.2273 362.551 15.9929 361.807 15.5241C361.069 15.0554 360.491 14.3996 360.074 13.5568C359.662 12.714 359.456 11.7292 359.456 10.6023C359.456 9.46591 359.662 8.47396 360.074 7.62642C360.491 6.77888 361.069 6.12074 361.807 5.65199C362.551 5.18324 363.415 4.94886 364.4 4.94886C365.384 4.94886 366.246 5.18324 366.985 5.65199C367.728 6.12074 368.306 6.77888 368.718 7.62642C369.134 8.47396 369.343 9.46591 369.343 10.6023C369.343 11.7292 369.134 12.714 368.718 13.5568C368.306 14.3996 367.728 15.0554 366.985 15.5241C366.246 15.9929 365.384 16.2273 364.4 16.2273ZM364.4 14.7216C365.148 14.7216 365.763 14.5298 366.246 14.1463C366.729 13.7628 367.087 13.2585 367.319 12.6335C367.551 12.0085 367.667 11.3314 367.667 10.6023C367.667 9.87311 367.551 9.19366 367.319 8.56392C367.087 7.93419 366.729 7.42519 366.246 7.03693C365.763 6.64867 365.148 6.45455 364.4 6.45455C363.651 6.45455 363.036 6.64867 362.553 7.03693C362.07 7.42519 361.712 7.93419 361.48 8.56392C361.248 9.19366 361.132 9.87311 361.132 10.6023C361.132 11.3314 361.248 12.0085 361.48 12.6335C361.712 13.2585 362.07 13.7628 362.553 14.1463C363.036 14.5298 363.651 14.7216 364.4 14.7216ZM385.254 7.53409L383.748 7.96023C383.653 7.70928 383.513 7.46544 383.329 7.22869C383.149 6.98722 382.903 6.78835 382.59 6.6321C382.278 6.47585 381.878 6.39773 381.39 6.39773C380.722 6.39773 380.166 6.55161 379.721 6.85938C379.281 7.16241 379.06 7.5483 379.06 8.01705C379.06 8.43371 379.212 8.76278 379.515 9.00426C379.818 9.24574 380.291 9.44697 380.935 9.60795L382.555 10.0057C383.53 10.2424 384.257 10.6046 384.735 11.0923C385.213 11.5753 385.452 12.1979 385.452 12.9602C385.452 13.5852 385.272 14.1439 384.913 14.6364C384.558 15.1288 384.06 15.517 383.421 15.8011C382.782 16.0852 382.039 16.2273 381.191 16.2273C380.078 16.2273 379.157 15.9858 378.428 15.5028C377.699 15.0199 377.237 14.3144 377.043 13.3864L378.634 12.9886C378.786 13.5758 379.072 14.0161 379.494 14.3097C379.92 14.6032 380.476 14.75 381.163 14.75C381.944 14.75 382.564 14.5843 383.023 14.2528C383.487 13.9167 383.719 13.5142 383.719 13.0455C383.719 12.6667 383.587 12.3494 383.322 12.0938C383.057 11.8333 382.649 11.6392 382.1 11.5114L380.282 11.0852C379.283 10.8485 378.549 10.4815 378.08 9.98438C377.616 9.48248 377.384 8.85511 377.384 8.10227C377.384 7.48674 377.557 6.94223 377.903 6.46875C378.253 5.99527 378.729 5.62358 379.33 5.35369C379.936 5.08381 380.623 4.94886 381.39 4.94886C382.469 4.94886 383.317 5.18561 383.933 5.65909C384.553 6.13258 384.993 6.75758 385.254 7.53409ZM392.549 16.2273C391.498 16.2273 390.592 15.9953 389.829 15.5312C389.072 15.0625 388.487 14.4091 388.075 13.571C387.668 12.7282 387.464 11.7481 387.464 10.6307C387.464 9.51326 387.668 8.52841 388.075 7.67614C388.487 6.81913 389.06 6.15152 389.794 5.6733C390.532 5.19034 391.394 4.94886 392.379 4.94886C392.947 4.94886 393.508 5.04356 394.062 5.23295C394.616 5.42235 395.12 5.73011 395.575 6.15625C396.029 6.57765 396.392 7.13636 396.662 7.83239C396.931 8.52841 397.066 9.38542 397.066 10.4034V11.1136H388.657V9.66477H395.362C395.362 9.04924 395.239 8.5 394.993 8.01705C394.751 7.53409 394.405 7.15294 393.956 6.87358C393.511 6.59422 392.985 6.45455 392.379 6.45455C391.711 6.45455 391.134 6.62026 390.646 6.9517C390.163 7.27841 389.791 7.70455 389.531 8.23011C389.27 8.75568 389.14 9.31913 389.14 9.92045V10.8864C389.14 11.7102 389.282 12.4086 389.566 12.9815C389.855 13.5497 390.255 13.983 390.767 14.2812C391.278 14.5748 391.872 14.7216 392.549 14.7216C392.99 14.7216 393.387 14.66 393.743 14.5369C394.102 14.4091 394.413 14.2197 394.673 13.9688C394.933 13.7131 395.135 13.3958 395.277 13.017L396.896 13.4716C396.725 14.0208 396.439 14.5038 396.037 14.9205C395.634 15.3324 395.137 15.6544 394.545 15.8864C393.953 16.1136 393.288 16.2273 392.549 16.2273ZM406.491 11.5398V5.09091H408.167V16H406.491V14.1534H406.377C406.122 14.7074 405.724 15.1785 405.184 15.5668C404.645 15.9503 403.963 16.142 403.139 16.142C402.457 16.142 401.851 15.9929 401.321 15.6946C400.79 15.3916 400.374 14.937 400.071 14.331C399.768 13.7202 399.616 12.9508 399.616 12.0227V5.09091H401.292V11.9091C401.292 12.7045 401.515 13.339 401.96 13.8125C402.41 14.286 402.983 14.5227 403.679 14.5227C404.095 14.5227 404.519 14.4162 404.95 14.2031C405.386 13.9901 405.75 13.6634 406.044 13.223C406.342 12.7827 406.491 12.2216 406.491 11.5398ZM418.425 12.0227L418.396 9.94886H418.737L423.51 5.09091H425.584L420.499 10.233H420.357L418.425 12.0227ZM416.862 16V1.45455H418.538V16H416.862ZM423.794 16L419.533 10.6023L420.726 9.4375L425.925 16H423.794ZM427.741 16V5.09091H429.417V16H427.741ZM428.593 3.27273C428.267 3.27273 427.985 3.16146 427.748 2.93892C427.516 2.71638 427.4 2.44886 427.4 2.13636C427.4 1.82386 427.516 1.55634 427.748 1.33381C427.985 1.11127 428.267 1 428.593 1C428.92 1 429.199 1.11127 429.431 1.33381C429.668 1.55634 429.787 1.82386 429.787 2.13636C429.787 2.44886 429.668 2.71638 429.431 2.93892C429.199 3.16146 428.92 3.27273 428.593 3.27273ZM437.232 5.09091V6.51136H431.578V5.09091H437.232ZM433.226 2.47727H434.902V12.875C434.902 13.3485 434.971 13.7036 435.108 13.9403C435.25 14.1723 435.43 14.3286 435.648 14.4091C435.87 14.4848 436.105 14.5227 436.351 14.5227C436.536 14.5227 436.687 14.5133 436.805 14.4943C436.924 14.4706 437.018 14.4517 437.089 14.4375L437.43 15.9432C437.317 15.9858 437.158 16.0284 436.955 16.071C436.751 16.1184 436.493 16.142 436.18 16.142C435.707 16.142 435.243 16.0402 434.788 15.8366C434.339 15.633 433.964 15.3229 433.666 14.9062C433.373 14.4896 433.226 13.964 433.226 13.3295V2.47727Z" fill="white"/>
</svg>
