<svg width="448" height="21" viewBox="0 0 448 21" fill="none" xmlns="http://www.w3.org/2000/svg">
<path d="M0.761364 16V1.45455H9.53977V3.01705H2.52273V7.93182H9.08523V9.49432H2.52273V14.4375H9.65341V16H0.761364ZM14.1634 9.4375V16H12.4872V5.09091H14.1065V6.79545H14.2486C14.5043 6.24148 14.8925 5.7964 15.4134 5.46023C15.9342 5.11932 16.6065 4.94886 17.4304 4.94886C18.169 4.94886 18.8153 5.10038 19.3693 5.40341C19.9233 5.7017 20.3542 6.15625 20.6619 6.76705C20.9697 7.37311 21.1236 8.14015 21.1236 9.06818V16H19.4474V9.18182C19.4474 8.32481 19.2249 7.6572 18.7798 7.17898C18.3348 6.69602 17.724 6.45455 16.9474 6.45455C16.4124 6.45455 15.9342 6.57055 15.5128 6.80256C15.0961 7.03456 14.767 7.37311 14.5256 7.81818C14.2841 8.26326 14.1634 8.80303 14.1634 9.4375ZM28.9308 5.09091V6.51136H23.2773V5.09091H28.9308ZM24.9251 2.47727H26.6012V12.875C26.6012 13.3485 26.6699 13.7036 26.8072 13.9403C26.9492 14.1723 27.1291 14.3286 27.3469 14.4091C27.5695 14.4848 27.8039 14.5227 28.0501 14.5227C28.2347 14.5227 28.3862 14.5133 28.5046 14.4943C28.623 14.4706 28.7177 14.4517 28.7887 14.4375L29.1296 15.9432C29.016 15.9858 28.8574 16.0284 28.6538 16.071C28.4502 16.1184 28.1921 16.142 27.8796 16.142C27.4061 16.142 26.9421 16.0402 26.4876 15.8366C26.0378 15.633 25.6637 15.3229 25.3654 14.9062C25.0719 14.4896 24.9251 13.964 24.9251 13.3295V2.47727ZM31.4521 16V5.09091H33.0714V6.73864H33.185C33.3839 6.19886 33.7437 5.76089 34.2646 5.42472C34.7854 5.08854 35.3725 4.92045 36.0259 4.92045C36.149 4.92045 36.3029 4.92282 36.4876 4.92756C36.6722 4.93229 36.8119 4.93939 36.9066 4.94886V6.65341C36.8498 6.6392 36.7196 6.6179 36.516 6.58949C36.3171 6.55634 36.1064 6.53977 35.8839 6.53977C35.3536 6.53977 34.8801 6.65104 34.4634 6.87358C34.0515 7.09138 33.7248 7.39441 33.4833 7.78267C33.2466 8.16619 33.1282 8.60417 33.1282 9.09659V16H31.4521ZM43.1353 16.2273C42.0842 16.2273 41.1774 15.9953 40.4151 15.5312C39.6576 15.0625 39.0728 14.4091 38.6609 13.571C38.2537 12.7282 38.0501 11.7481 38.0501 10.6307C38.0501 9.51326 38.2537 8.52841 38.6609 7.67614C39.0728 6.81913 39.6457 6.15152 40.3796 5.6733C41.1183 5.19034 41.98 4.94886 42.9648 4.94886C43.533 4.94886 44.0941 5.04356 44.6481 5.23295C45.2021 5.42235 45.7063 5.73011 46.1609 6.15625C46.6154 6.57765 46.9776 7.13636 47.2475 7.83239C47.5174 8.52841 47.6523 9.38542 47.6523 10.4034V11.1136H39.2433V9.66477H45.9478C45.9478 9.04924 45.8247 8.5 45.5785 8.01705C45.337 7.53409 44.9914 7.15294 44.5415 6.87358C44.0965 6.59422 43.5709 6.45455 42.9648 6.45455C42.2972 6.45455 41.7196 6.62026 41.2319 6.9517C40.7489 7.27841 40.3772 7.70455 40.1168 8.23011C39.8564 8.75568 39.7262 9.31913 39.7262 9.92045V10.8864C39.7262 11.7102 39.8683 12.4086 40.1523 12.9815C40.4412 13.5497 40.8413 13.983 41.3526 14.2812C41.864 14.5748 42.4582 14.7216 43.1353 14.7216C43.5756 14.7216 43.9734 14.66 44.3285 14.5369C44.6883 14.4091 44.9985 14.2197 45.2589 13.9688C45.5193 13.7131 45.7205 13.3958 45.8626 13.017L47.4819 13.4716C47.3114 14.0208 47.025 14.5038 46.6225 14.9205C46.2201 15.3324 45.7229 15.6544 45.131 15.8864C44.5392 16.1136 43.8739 16.2273 43.1353 16.2273ZM60.4009 16.2273C59.3498 16.2273 58.4431 15.9953 57.6808 15.5312C56.9232 15.0625 56.3384 14.4091 55.9265 13.571C55.5193 12.7282 55.3157 11.7481 55.3157 10.6307C55.3157 9.51326 55.5193 8.52841 55.9265 7.67614C56.3384 6.81913 56.9113 6.15152 57.6452 5.6733C58.3839 5.19034 59.2456 4.94886 60.2305 4.94886C60.7987 4.94886 61.3597 5.04356 61.9137 5.23295C62.4677 5.42235 62.9719 5.73011 63.4265 6.15625C63.881 6.57765 64.2433 7.13636 64.5131 7.83239C64.783 8.52841 64.918 9.38542 64.918 10.4034V11.1136H56.5089V9.66477H63.2134C63.2134 9.04924 63.0903 8.5 62.8441 8.01705C62.6026 7.53409 62.257 7.15294 61.8072 6.87358C61.3621 6.59422 60.8365 6.45455 60.2305 6.45455C59.5629 6.45455 58.9852 6.62026 58.4975 6.9517C58.0146 7.27841 57.6429 7.70455 57.3825 8.23011C57.122 8.75568 56.9918 9.31913 56.9918 9.92045V10.8864C56.9918 11.7102 57.1339 12.4086 57.418 12.9815C57.7068 13.5497 58.1069 13.983 58.6183 14.2812C59.1296 14.5748 59.7238 14.7216 60.4009 14.7216C60.8413 14.7216 61.239 14.66 61.5941 14.5369C61.954 14.4091 62.2641 14.2197 62.5245 13.9688C62.7849 13.7131 62.9862 13.3958 63.1282 13.017L64.7475 13.4716C64.5771 14.0208 64.2906 14.5038 63.8881 14.9205C63.4857 15.3324 62.9885 15.6544 62.3967 15.8864C61.8048 16.1136 61.1396 16.2273 60.4009 16.2273ZM67.4677 16V5.09091H69.087V6.79545H69.229C69.4563 6.21307 69.8233 5.76089 70.3299 5.43892C70.8365 5.11222 71.445 4.94886 72.1552 4.94886C72.8749 4.94886 73.4738 5.11222 73.9521 5.43892C74.435 5.76089 74.8114 6.21307 75.0813 6.79545H75.195C75.4743 6.23201 75.8933 5.78456 76.4521 5.45312C77.0108 5.11695 77.6808 4.94886 78.462 4.94886C79.4374 4.94886 80.2352 5.25426 80.8555 5.86506C81.4757 6.47112 81.7859 7.41572 81.7859 8.69886V16H80.1097V8.69886C80.1097 7.89394 79.8896 7.31866 79.4492 6.97301C79.0089 6.62737 78.4904 6.45455 77.8938 6.45455C77.1268 6.45455 76.5326 6.68655 76.1112 7.15057C75.6897 7.60985 75.479 8.19223 75.479 8.89773V16H73.7745V8.52841C73.7745 7.90814 73.5733 7.40862 73.1708 7.02983C72.7683 6.64631 72.2499 6.45455 71.6154 6.45455C71.1798 6.45455 70.7726 6.57055 70.3938 6.80256C70.0198 7.03456 69.7167 7.35653 69.4847 7.76847C69.2575 8.17566 69.1438 8.64678 69.1438 9.18182V16H67.4677ZM94.9073 16.2273C93.8846 16.2273 93.0039 15.9858 92.2653 15.5028C91.5266 15.0199 90.9585 14.3546 90.5607 13.5071C90.163 12.6596 89.9641 11.6913 89.9641 10.6023C89.9641 9.49432 90.1677 8.51657 90.5749 7.66903C90.9869 6.81676 91.5598 6.15152 92.2937 5.6733C93.0323 5.19034 93.8941 4.94886 94.8789 4.94886C95.646 4.94886 96.3372 5.09091 96.9528 5.375C97.5683 5.65909 98.0726 6.05682 98.4656 6.56818C98.8585 7.07955 99.1024 7.67614 99.1971 8.35795H97.521C97.3931 7.8608 97.109 7.42045 96.6687 7.03693C96.2331 6.64867 95.646 6.45455 94.9073 6.45455C94.2539 6.45455 93.681 6.625 93.1886 6.96591C92.7009 7.30208 92.3197 7.77794 92.0451 8.39347C91.7752 9.00426 91.6403 9.72159 91.6403 10.5455C91.6403 11.3883 91.7728 12.1222 92.038 12.7472C92.3079 13.3722 92.6867 13.8575 93.1744 14.2031C93.6668 14.5488 94.2444 14.7216 94.9073 14.7216C95.3429 14.7216 95.7383 14.6458 96.0934 14.4943C96.4485 14.3428 96.7492 14.125 96.9954 13.8409C97.2416 13.5568 97.4168 13.2159 97.521 12.8182H99.1971C99.1024 13.4621 98.868 14.0421 98.494 14.5582C98.1246 15.0696 97.6346 15.4768 97.0238 15.7798C96.4177 16.0781 95.7122 16.2273 94.9073 16.2273ZM106.079 16.2273C105.094 16.2273 104.23 15.9929 103.487 15.5241C102.748 15.0554 102.171 14.3996 101.754 13.5568C101.342 12.714 101.136 11.7292 101.136 10.6023C101.136 9.46591 101.342 8.47396 101.754 7.62642C102.171 6.77888 102.748 6.12074 103.487 5.65199C104.23 5.18324 105.094 4.94886 106.079 4.94886C107.064 4.94886 107.926 5.18324 108.664 5.65199C109.408 6.12074 109.985 6.77888 110.397 7.62642C110.814 8.47396 111.022 9.46591 111.022 10.6023C111.022 11.7292 110.814 12.714 110.397 13.5568C109.985 14.3996 109.408 15.0554 108.664 15.5241C107.926 15.9929 107.064 16.2273 106.079 16.2273ZM106.079 14.7216C106.827 14.7216 107.443 14.5298 107.926 14.1463C108.409 13.7628 108.766 13.2585 108.998 12.6335C109.23 12.0085 109.346 11.3314 109.346 10.6023C109.346 9.87311 109.23 9.19366 108.998 8.56392C108.766 7.93419 108.409 7.42519 107.926 7.03693C107.443 6.64867 106.827 6.45455 106.079 6.45455C105.331 6.45455 104.716 6.64867 104.233 7.03693C103.75 7.42519 103.392 7.93419 103.16 8.56392C102.928 9.19366 102.812 9.87311 102.812 10.6023C102.812 11.3314 102.928 12.0085 103.16 12.6335C103.392 13.2585 103.75 13.7628 104.233 14.1463C104.716 14.5298 105.331 14.7216 106.079 14.7216ZM115.257 9.4375V16H113.581V5.09091H115.2V6.79545H115.342C115.598 6.24148 115.986 5.7964 116.507 5.46023C117.028 5.11932 117.7 4.94886 118.524 4.94886C119.263 4.94886 119.909 5.10038 120.463 5.40341C121.017 5.7017 121.448 6.15625 121.756 6.76705C122.063 7.37311 122.217 8.14015 122.217 9.06818V16H120.541V9.18182C120.541 8.32481 120.319 7.6572 119.874 7.17898C119.429 6.69602 118.818 6.45455 118.041 6.45455C117.506 6.45455 117.028 6.57055 116.607 6.80256C116.19 7.03456 115.861 7.37311 115.619 7.81818C115.378 8.26326 115.257 8.80303 115.257 9.4375ZM130.025 5.09091V6.51136H124.371V5.09091H130.025ZM126.019 2.47727H127.695V12.875C127.695 13.3485 127.764 13.7036 127.901 13.9403C128.043 14.1723 128.223 14.3286 128.441 14.4091C128.663 14.4848 128.898 14.5227 129.144 14.5227C129.328 14.5227 129.48 14.5133 129.598 14.4943C129.717 14.4706 129.811 14.4517 129.882 14.4375L130.223 15.9432C130.11 15.9858 129.951 16.0284 129.748 16.071C129.544 16.1184 129.286 16.142 128.973 16.142C128.5 16.142 128.036 16.0402 127.581 15.8366C127.132 15.633 126.757 15.3229 126.459 14.9062C126.166 14.4896 126.019 13.964 126.019 13.3295V2.47727ZM135.756 16.2557C135.065 16.2557 134.437 16.1255 133.874 15.8651C133.31 15.5999 132.863 15.2188 132.532 14.7216C132.2 14.2197 132.034 13.6136 132.034 12.9034C132.034 12.2784 132.158 11.7718 132.404 11.3835C132.65 10.9905 132.979 10.6828 133.391 10.4602C133.803 10.2377 134.257 10.072 134.755 9.96307C135.257 9.84943 135.761 9.75947 136.267 9.69318C136.93 9.60795 137.468 9.54403 137.88 9.50142C138.296 9.45407 138.599 9.37595 138.789 9.26705C138.983 9.15814 139.08 8.96875 139.08 8.69886V8.64205C139.08 7.94129 138.888 7.39678 138.505 7.00852C138.126 6.62027 137.551 6.42614 136.779 6.42614C135.979 6.42614 135.351 6.60133 134.897 6.9517C134.442 7.30208 134.123 7.67614 133.938 8.07386L132.347 7.50568C132.631 6.8428 133.01 6.3267 133.483 5.95739C133.962 5.58333 134.482 5.32292 135.046 5.17614C135.614 5.02462 136.173 4.94886 136.722 4.94886C137.072 4.94886 137.475 4.99148 137.929 5.0767C138.389 5.1572 138.831 5.32528 139.257 5.58097C139.688 5.83665 140.046 6.22254 140.33 6.73864C140.614 7.25473 140.756 7.94602 140.756 8.8125V16H139.08V14.5227H138.995C138.881 14.7595 138.692 15.0128 138.426 15.2827C138.161 15.5526 137.809 15.7822 137.368 15.9716C136.928 16.161 136.391 16.2557 135.756 16.2557ZM136.012 14.75C136.675 14.75 137.233 14.6198 137.688 14.3594C138.147 14.099 138.493 13.7628 138.725 13.3509C138.962 12.9389 139.08 12.5057 139.08 12.0511V10.517C139.009 10.6023 138.853 10.6804 138.611 10.7514C138.374 10.8177 138.1 10.8769 137.787 10.929C137.48 10.9763 137.179 11.0189 136.885 11.0568C136.596 11.09 136.362 11.1184 136.182 11.142C135.747 11.1989 135.339 11.2912 134.961 11.419C134.587 11.5421 134.283 11.7292 134.051 11.9801C133.824 12.2263 133.711 12.5625 133.711 12.9886C133.711 13.571 133.926 14.0114 134.357 14.3097C134.792 14.6032 135.344 14.75 136.012 14.75ZM148.56 5.09091V6.51136H142.906V5.09091H148.56ZM144.554 2.47727H146.23V12.875C146.23 13.3485 146.299 13.7036 146.436 13.9403C146.578 14.1723 146.758 14.3286 146.976 14.4091C147.198 14.4848 147.433 14.5227 147.679 14.5227C147.864 14.5227 148.015 14.5133 148.134 14.4943C148.252 14.4706 148.347 14.4517 148.418 14.4375L148.759 15.9432C148.645 15.9858 148.486 16.0284 148.283 16.071C148.079 16.1184 147.821 16.142 147.509 16.142C147.035 16.142 146.571 16.0402 146.116 15.8366C145.667 15.633 145.293 15.3229 144.994 14.9062C144.701 14.4896 144.554 13.964 144.554 13.3295V2.47727ZM155.396 16.2273C154.411 16.2273 153.547 15.9929 152.803 15.5241C152.065 15.0554 151.487 14.3996 151.07 13.5568C150.658 12.714 150.452 11.7292 150.452 10.6023C150.452 9.46591 150.658 8.47396 151.07 7.62642C151.487 6.77888 152.065 6.12074 152.803 5.65199C153.547 5.18324 154.411 4.94886 155.396 4.94886C156.38 4.94886 157.242 5.18324 157.981 5.65199C158.724 6.12074 159.302 6.77888 159.714 7.62642C160.13 8.47396 160.339 9.46591 160.339 10.6023C160.339 11.7292 160.13 12.714 159.714 13.5568C159.302 14.3996 158.724 15.0554 157.981 15.5241C157.242 15.9929 156.38 16.2273 155.396 16.2273ZM155.396 14.7216C156.144 14.7216 156.759 14.5298 157.242 14.1463C157.725 13.7628 158.083 13.2585 158.315 12.6335C158.547 12.0085 158.663 11.3314 158.663 10.6023C158.663 9.87311 158.547 9.19366 158.315 8.56392C158.083 7.93419 157.725 7.42519 157.242 7.03693C156.759 6.64867 156.144 6.45455 155.396 6.45455C154.647 6.45455 154.032 6.64867 153.549 7.03693C153.066 7.42519 152.709 7.93419 152.477 8.56392C152.245 9.19366 152.129 9.87311 152.129 10.6023C152.129 11.3314 152.245 12.0085 152.477 12.6335C152.709 13.2585 153.066 13.7628 153.549 14.1463C154.032 14.5298 154.647 14.7216 155.396 14.7216ZM172.954 16.2273C171.931 16.2273 171.051 15.9858 170.312 15.5028C169.574 15.0199 169.005 14.3546 168.608 13.5071C168.21 12.6596 168.011 11.6913 168.011 10.6023C168.011 9.49432 168.215 8.51657 168.622 7.66903C169.034 6.81676 169.607 6.15152 170.341 5.6733C171.079 5.19034 171.941 4.94886 172.926 4.94886C173.693 4.94886 174.384 5.09091 175 5.375C175.615 5.65909 176.119 6.05682 176.512 6.56818C176.905 7.07955 177.149 7.67614 177.244 8.35795H175.568C175.44 7.8608 175.156 7.42045 174.716 7.03693C174.28 6.64867 173.693 6.45455 172.954 6.45455C172.301 6.45455 171.728 6.625 171.235 6.96591C170.748 7.30208 170.367 7.77794 170.092 8.39347C169.822 9.00426 169.687 9.72159 169.687 10.5455C169.687 11.3883 169.82 12.1222 170.085 12.7472C170.355 13.3722 170.734 13.8575 171.221 14.2031C171.714 14.5488 172.291 14.7216 172.954 14.7216C173.39 14.7216 173.785 14.6458 174.14 14.4943C174.495 14.3428 174.796 14.125 175.042 13.8409C175.288 13.5568 175.464 13.2159 175.568 12.8182H177.244C177.149 13.4621 176.915 14.0421 176.541 14.5582C176.172 15.0696 175.681 15.4768 175.071 15.7798C174.465 16.0781 173.759 16.2273 172.954 16.2273ZM184.126 16.2273C183.141 16.2273 182.277 15.9929 181.534 15.5241C180.795 15.0554 180.217 14.3996 179.801 13.5568C179.389 12.714 179.183 11.7292 179.183 10.6023C179.183 9.46591 179.389 8.47396 179.801 7.62642C180.217 6.77888 180.795 6.12074 181.534 5.65199C182.277 5.18324 183.141 4.94886 184.126 4.94886C185.111 4.94886 185.973 5.18324 186.711 5.65199C187.455 6.12074 188.032 6.77888 188.444 7.62642C188.861 8.47396 189.069 9.46591 189.069 10.6023C189.069 11.7292 188.861 12.714 188.444 13.5568C188.032 14.3996 187.455 15.0554 186.711 15.5241C185.973 15.9929 185.111 16.2273 184.126 16.2273ZM184.126 14.7216C184.874 14.7216 185.49 14.5298 185.973 14.1463C186.456 13.7628 186.813 13.2585 187.045 12.6335C187.277 12.0085 187.393 11.3314 187.393 10.6023C187.393 9.87311 187.277 9.19366 187.045 8.56392C186.813 7.93419 186.456 7.42519 185.973 7.03693C185.49 6.64867 184.874 6.45455 184.126 6.45455C183.378 6.45455 182.762 6.64867 182.279 7.03693C181.797 7.42519 181.439 7.93419 181.207 8.56392C180.975 9.19366 180.859 9.87311 180.859 10.6023C180.859 11.3314 180.975 12.0085 181.207 12.6335C181.439 13.2585 181.797 13.7628 182.279 14.1463C182.762 14.5298 183.378 14.7216 184.126 14.7216ZM193.304 9.4375V16H191.628V5.09091H193.247V6.79545H193.389C193.645 6.24148 194.033 5.7964 194.554 5.46023C195.075 5.11932 195.747 4.94886 196.571 4.94886C197.31 4.94886 197.956 5.10038 198.51 5.40341C199.064 5.7017 199.495 6.15625 199.803 6.76705C200.11 7.37311 200.264 8.14015 200.264 9.06818V16H198.588V9.18182C198.588 8.32481 198.366 7.6572 197.92 7.17898C197.475 6.69602 196.865 6.45455 196.088 6.45455C195.553 6.45455 195.075 6.57055 194.653 6.80256C194.237 7.03456 193.908 7.37311 193.666 7.81818C193.425 8.26326 193.304 8.80303 193.304 9.4375ZM207.759 16.2273C206.774 16.2273 205.91 15.9929 205.167 15.5241C204.428 15.0554 203.85 14.3996 203.434 13.5568C203.022 12.714 202.816 11.7292 202.816 10.6023C202.816 9.46591 203.022 8.47396 203.434 7.62642C203.85 6.77888 204.428 6.12074 205.167 5.65199C205.91 5.18324 206.774 4.94886 207.759 4.94886C208.744 4.94886 209.605 5.18324 210.344 5.65199C211.087 6.12074 211.665 6.77888 212.077 7.62642C212.494 8.47396 212.702 9.46591 212.702 10.6023C212.702 11.7292 212.494 12.714 212.077 13.5568C211.665 14.3996 211.087 15.0554 210.344 15.5241C209.605 15.9929 208.744 16.2273 207.759 16.2273ZM207.759 14.7216C208.507 14.7216 209.123 14.5298 209.605 14.1463C210.088 13.7628 210.446 13.2585 210.678 12.6335C210.91 12.0085 211.026 11.3314 211.026 10.6023C211.026 9.87311 210.91 9.19366 210.678 8.56392C210.446 7.93419 210.088 7.42519 209.605 7.03693C209.123 6.64867 208.507 6.45455 207.759 6.45455C207.011 6.45455 206.395 6.64867 205.912 7.03693C205.429 7.42519 205.072 7.93419 204.84 8.56392C204.608 9.19366 204.492 9.87311 204.492 10.6023C204.492 11.3314 204.608 12.0085 204.84 12.6335C205.072 13.2585 205.429 13.7628 205.912 14.1463C206.395 14.5298 207.011 14.7216 207.759 14.7216ZM222.988 7.53409L221.482 7.96023C221.388 7.70928 221.248 7.46544 221.063 7.22869C220.883 6.98722 220.637 6.78835 220.325 6.6321C220.012 6.47585 219.612 6.39773 219.124 6.39773C218.457 6.39773 217.9 6.55161 217.455 6.85938C217.015 7.16241 216.795 7.5483 216.795 8.01705C216.795 8.43371 216.946 8.76278 217.249 9.00426C217.552 9.24574 218.026 9.44697 218.67 9.60795L220.289 10.0057C221.264 10.2424 221.991 10.6046 222.469 11.0923C222.948 11.5753 223.187 12.1979 223.187 12.9602C223.187 13.5852 223.007 14.1439 222.647 14.6364C222.292 15.1288 221.795 15.517 221.156 15.8011C220.516 16.0852 219.773 16.2273 218.925 16.2273C217.813 16.2273 216.892 15.9858 216.163 15.5028C215.433 15.0199 214.972 14.3144 214.778 13.3864L216.369 12.9886C216.52 13.5758 216.807 14.0161 217.228 14.3097C217.654 14.6032 218.21 14.75 218.897 14.75C219.678 14.75 220.299 14.5843 220.758 14.2528C221.222 13.9167 221.454 13.5142 221.454 13.0455C221.454 12.6667 221.321 12.3494 221.056 12.0938C220.791 11.8333 220.384 11.6392 219.835 11.5114L218.016 11.0852C217.017 10.8485 216.283 10.4815 215.815 9.98438C215.351 9.48248 215.119 8.85511 215.119 8.10227C215.119 7.48674 215.291 6.94223 215.637 6.46875C215.987 5.99527 216.463 5.62358 217.065 5.35369C217.671 5.08381 218.357 4.94886 219.124 4.94886C220.204 4.94886 221.051 5.18561 221.667 5.65909C222.287 6.13258 222.728 6.75758 222.988 7.53409ZM230.142 16.2273C229.119 16.2273 228.238 15.9858 227.5 15.5028C226.761 15.0199 226.193 14.3546 225.795 13.5071C225.397 12.6596 225.199 11.6913 225.199 10.6023C225.199 9.49432 225.402 8.51657 225.809 7.66903C226.221 6.81676 226.794 6.15152 227.528 5.6733C228.267 5.19034 229.128 4.94886 230.113 4.94886C230.88 4.94886 231.572 5.09091 232.187 5.375C232.803 5.65909 233.307 6.05682 233.7 6.56818C234.093 7.07955 234.337 7.67614 234.431 8.35795H232.755C232.627 7.8608 232.343 7.42045 231.903 7.03693C231.467 6.64867 230.88 6.45455 230.142 6.45455C229.488 6.45455 228.915 6.625 228.423 6.96591C227.935 7.30208 227.554 7.77794 227.279 8.39347C227.01 9.00426 226.875 9.72159 226.875 10.5455C226.875 11.3883 227.007 12.1222 227.272 12.7472C227.542 13.3722 227.921 13.8575 228.409 14.2031C228.901 14.5488 229.479 14.7216 230.142 14.7216C230.577 14.7216 230.973 14.6458 231.328 14.4943C231.683 14.3428 231.984 14.125 232.23 13.8409C232.476 13.5568 232.651 13.2159 232.755 12.8182H234.431C234.337 13.4621 234.102 14.0421 233.728 14.5582C233.359 15.0696 232.869 15.4768 232.258 15.7798C231.652 16.0781 230.947 16.2273 230.142 16.2273ZM241.314 16.2273C240.329 16.2273 239.465 15.9929 238.721 15.5241C237.983 15.0554 237.405 14.3996 236.988 13.5568C236.576 12.714 236.37 11.7292 236.37 10.6023C236.37 9.46591 236.576 8.47396 236.988 7.62642C237.405 6.77888 237.983 6.12074 238.721 5.65199C239.465 5.18324 240.329 4.94886 241.314 4.94886C242.298 4.94886 243.16 5.18324 243.899 5.65199C244.642 6.12074 245.22 6.77888 245.632 7.62642C246.048 8.47396 246.257 9.46591 246.257 10.6023C246.257 11.7292 246.048 12.714 245.632 13.5568C245.22 14.3996 244.642 15.0554 243.899 15.5241C243.16 15.9929 242.298 16.2273 241.314 16.2273ZM241.314 14.7216C242.062 14.7216 242.677 14.5298 243.16 14.1463C243.643 13.7628 244.001 13.2585 244.233 12.6335C244.465 12.0085 244.581 11.3314 244.581 10.6023C244.581 9.87311 244.465 9.19366 244.233 8.56392C244.001 7.93419 243.643 7.42519 243.16 7.03693C242.677 6.64867 242.062 6.45455 241.314 6.45455C240.565 6.45455 239.95 6.64867 239.467 7.03693C238.984 7.42519 238.627 7.93419 238.395 8.56392C238.163 9.19366 238.047 9.87311 238.047 10.6023C238.047 11.3314 238.163 12.0085 238.395 12.6335C238.627 13.2585 238.984 13.7628 239.467 14.1463C239.95 14.5298 240.565 14.7216 241.314 14.7216ZM259.014 16.2273C257.963 16.2273 257.056 15.9953 256.294 15.5312C255.536 15.0625 254.952 14.4091 254.54 13.571C254.133 12.7282 253.929 11.7481 253.929 10.6307C253.929 9.51326 254.133 8.52841 254.54 7.67614C254.952 6.81913 255.525 6.15152 256.259 5.6733C256.997 5.19034 257.859 4.94886 258.844 4.94886C259.412 4.94886 259.973 5.04356 260.527 5.23295C261.081 5.42235 261.585 5.73011 262.04 6.15625C262.494 6.57765 262.857 7.13636 263.126 7.83239C263.396 8.52841 263.531 9.38542 263.531 10.4034V11.1136H255.122V9.66477H261.827C261.827 9.04924 261.704 8.5 261.457 8.01705C261.216 7.53409 260.87 7.15294 260.42 6.87358C259.975 6.59422 259.45 6.45455 258.844 6.45455C258.176 6.45455 257.598 6.62026 257.111 6.9517C256.628 7.27841 256.256 7.70455 255.996 8.23011C255.735 8.75568 255.605 9.31913 255.605 9.92045V10.8864C255.605 11.7102 255.747 12.4086 256.031 12.9815C256.32 13.5497 256.72 13.983 257.232 14.2812C257.743 14.5748 258.337 14.7216 259.014 14.7216C259.455 14.7216 259.852 14.66 260.207 14.5369C260.567 14.4091 260.877 14.2197 261.138 13.9688C261.398 13.7131 261.599 13.3958 261.741 13.017L263.361 13.4716C263.19 14.0208 262.904 14.5038 262.501 14.9205C262.099 15.3324 261.602 15.6544 261.01 15.8864C260.418 16.1136 259.753 16.2273 259.014 16.2273ZM271.706 16V5.09091H273.325V6.73864H273.439C273.638 6.19886 273.998 5.76089 274.518 5.42472C275.039 5.08854 275.626 4.92045 276.28 4.92045C276.403 4.92045 276.557 4.92282 276.741 4.92756C276.926 4.93229 277.066 4.93939 277.161 4.94886V6.65341C277.104 6.6392 276.973 6.6179 276.77 6.58949C276.571 6.55634 276.36 6.53977 276.138 6.53977C275.607 6.53977 275.134 6.65104 274.717 6.87358C274.305 7.09138 273.979 7.39441 273.737 7.78267C273.5 8.16619 273.382 8.60417 273.382 9.09659V16H271.706ZM283.389 16.2273C282.338 16.2273 281.431 15.9953 280.669 15.5312C279.911 15.0625 279.327 14.4091 278.915 13.571C278.508 12.7282 278.304 11.7481 278.304 10.6307C278.304 9.51326 278.508 8.52841 278.915 7.67614C279.327 6.81913 279.9 6.15152 280.634 5.6733C281.372 5.19034 282.234 4.94886 283.219 4.94886C283.787 4.94886 284.348 5.04356 284.902 5.23295C285.456 5.42235 285.96 5.73011 286.415 6.15625C286.869 6.57765 287.232 7.13636 287.501 7.83239C287.771 8.52841 287.906 9.38542 287.906 10.4034V11.1136H279.497V9.66477H286.202C286.202 9.04924 286.079 8.5 285.832 8.01705C285.591 7.53409 285.245 7.15294 284.795 6.87358C284.35 6.59422 283.825 6.45455 283.219 6.45455C282.551 6.45455 281.973 6.62026 281.486 6.9517C281.003 7.27841 280.631 7.70455 280.371 8.23011C280.11 8.75568 279.98 9.31913 279.98 9.92045V10.8864C279.98 11.7102 280.122 12.4086 280.406 12.9815C280.695 13.5497 281.095 13.983 281.607 14.2812C282.118 14.5748 282.712 14.7216 283.389 14.7216C283.83 14.7216 284.227 14.66 284.582 14.5369C284.942 14.4091 285.252 14.2197 285.513 13.9688C285.773 13.7131 285.974 13.3958 286.116 13.017L287.736 13.4716C287.565 14.0208 287.279 14.5038 286.876 14.9205C286.474 15.3324 285.977 15.6544 285.385 15.8864C284.793 16.1136 284.128 16.2273 283.389 16.2273ZM298.183 7.53409L296.678 7.96023C296.583 7.70928 296.443 7.46544 296.259 7.22869C296.079 6.98722 295.832 6.78835 295.52 6.6321C295.207 6.47585 294.807 6.39773 294.32 6.39773C293.652 6.39773 293.096 6.55161 292.651 6.85938C292.21 7.16241 291.99 7.5483 291.99 8.01705C291.99 8.43371 292.142 8.76278 292.445 9.00426C292.748 9.24574 293.221 9.44697 293.865 9.60795L295.484 10.0057C296.46 10.2424 297.187 10.6046 297.665 11.0923C298.143 11.5753 298.382 12.1979 298.382 12.9602C298.382 13.5852 298.202 14.1439 297.842 14.6364C297.487 15.1288 296.99 15.517 296.351 15.8011C295.712 16.0852 294.968 16.2273 294.121 16.2273C293.008 16.2273 292.087 15.9858 291.358 15.5028C290.629 15.0199 290.167 14.3144 289.973 13.3864L291.564 12.9886C291.715 13.5758 292.002 14.0161 292.423 14.3097C292.849 14.6032 293.406 14.75 294.092 14.75C294.874 14.75 295.494 14.5843 295.953 14.2528C296.417 13.9167 296.649 13.5142 296.649 13.0455C296.649 12.6667 296.517 12.3494 296.251 12.0938C295.986 11.8333 295.579 11.6392 295.03 11.5114L293.212 11.0852C292.213 10.8485 291.479 10.4815 291.01 9.98438C290.546 9.48248 290.314 8.85511 290.314 8.10227C290.314 7.48674 290.487 6.94223 290.832 6.46875C291.183 5.99527 291.659 5.62358 292.26 5.35369C292.866 5.08381 293.553 4.94886 294.32 4.94886C295.399 4.94886 296.247 5.18561 296.862 5.65909C297.482 6.13258 297.923 6.75758 298.183 7.53409ZM305.309 20.3182C304.499 20.3182 303.803 20.214 303.221 20.0057C302.638 19.8021 302.153 19.5322 301.765 19.196C301.381 18.8646 301.076 18.5095 300.848 18.1307L302.184 17.1932C302.335 17.392 302.527 17.6193 302.759 17.875C302.991 18.1354 303.308 18.3603 303.711 18.5497C304.118 18.7438 304.65 18.8409 305.309 18.8409C306.189 18.8409 306.916 18.6278 307.489 18.2017C308.062 17.7756 308.348 17.108 308.348 16.1989V13.983H308.206C308.083 14.1818 307.908 14.428 307.681 14.7216C307.458 15.0104 307.136 15.2685 306.715 15.4957C306.298 15.7183 305.735 15.8295 305.025 15.8295C304.144 15.8295 303.353 15.6212 302.652 15.2045C301.956 14.7879 301.405 14.1818 300.998 13.3864C300.595 12.5909 300.394 11.625 300.394 10.4886C300.394 9.37121 300.59 8.3982 300.983 7.5696C301.376 6.73627 301.923 6.09233 302.624 5.63778C303.325 5.1785 304.134 4.94886 305.053 4.94886C305.763 4.94886 306.327 5.06723 306.743 5.30398C307.165 5.53598 307.487 5.80114 307.709 6.09943C307.936 6.39299 308.112 6.63447 308.235 6.82386H308.405V5.09091H310.025V16.3125C310.025 17.25 309.811 18.0123 309.385 18.5994C308.964 19.1913 308.396 19.6245 307.681 19.8991C306.971 20.1785 306.18 20.3182 305.309 20.3182ZM305.252 14.3239C305.924 14.3239 306.492 14.17 306.956 13.8622C307.42 13.5545 307.773 13.1117 308.015 12.5341C308.256 11.9564 308.377 11.2652 308.377 10.4602C308.377 9.67424 308.258 8.98059 308.022 8.37926C307.785 7.77794 307.435 7.30682 306.971 6.96591C306.507 6.625 305.934 6.45455 305.252 6.45455C304.542 6.45455 303.95 6.63447 303.476 6.99432C303.007 7.35417 302.655 7.83712 302.418 8.44318C302.186 9.04924 302.07 9.72159 302.07 10.4602C302.07 11.2178 302.188 11.8878 302.425 12.4702C302.667 13.0478 303.022 13.5024 303.49 13.8338C303.964 14.1605 304.551 14.3239 305.252 14.3239ZM316.303 16.2557C315.612 16.2557 314.984 16.1255 314.421 15.8651C313.857 15.5999 313.41 15.2188 313.078 14.7216C312.747 14.2197 312.581 13.6136 312.581 12.9034C312.581 12.2784 312.704 11.7718 312.951 11.3835C313.197 10.9905 313.526 10.6828 313.938 10.4602C314.35 10.2377 314.804 10.072 315.301 9.96307C315.803 9.84943 316.308 9.75947 316.814 9.69318C317.477 9.60795 318.015 9.54403 318.426 9.50142C318.843 9.45407 319.146 9.37595 319.336 9.26705C319.53 9.15814 319.627 8.96875 319.627 8.69886V8.64205C319.627 7.94129 319.435 7.39678 319.051 7.00852C318.673 6.62027 318.097 6.42614 317.326 6.42614C316.525 6.42614 315.898 6.60133 315.444 6.9517C314.989 7.30208 314.669 7.67614 314.485 8.07386L312.894 7.50568C313.178 6.8428 313.557 6.3267 314.03 5.95739C314.508 5.58333 315.029 5.32292 315.593 5.17614C316.161 5.02462 316.72 4.94886 317.269 4.94886C317.619 4.94886 318.022 4.99148 318.476 5.0767C318.935 5.1572 319.378 5.32528 319.804 5.58097C320.235 5.83665 320.593 6.22254 320.877 6.73864C321.161 7.25473 321.303 7.94602 321.303 8.8125V16H319.627V14.5227H319.542C319.428 14.7595 319.239 15.0128 318.973 15.2827C318.708 15.5526 318.355 15.7822 317.915 15.9716C317.475 16.161 316.937 16.2557 316.303 16.2557ZM316.559 14.75C317.221 14.75 317.78 14.6198 318.235 14.3594C318.694 14.099 319.04 13.7628 319.272 13.3509C319.508 12.9389 319.627 12.5057 319.627 12.0511V10.517C319.556 10.6023 319.4 10.6804 319.158 10.7514C318.921 10.8177 318.647 10.8769 318.334 10.929C318.026 10.9763 317.726 11.0189 317.432 11.0568C317.143 11.09 316.909 11.1184 316.729 11.142C316.293 11.1989 315.886 11.2912 315.507 11.419C315.133 11.5421 314.83 11.7292 314.598 11.9801C314.371 12.2263 314.257 12.5625 314.257 12.9886C314.257 13.571 314.473 14.0114 314.904 14.3097C315.339 14.6032 315.891 14.75 316.559 14.75ZM329.107 5.09091V6.51136H323.453V5.09091H329.107ZM325.101 2.47727H326.777V12.875C326.777 13.3485 326.846 13.7036 326.983 13.9403C327.125 14.1723 327.305 14.3286 327.523 14.4091C327.745 14.4848 327.98 14.5227 328.226 14.5227C328.411 14.5227 328.562 14.5133 328.68 14.4943C328.799 14.4706 328.893 14.4517 328.964 14.4375L329.305 15.9432C329.192 15.9858 329.033 16.0284 328.83 16.071C328.626 16.1184 328.368 16.142 328.055 16.142C327.582 16.142 327.118 16.0402 326.663 15.8366C326.214 15.633 325.839 15.3229 325.541 14.9062C325.248 14.4896 325.101 13.964 325.101 13.3295V2.47727ZM336.085 16.2273C335.033 16.2273 334.127 15.9953 333.364 15.5312C332.607 15.0625 332.022 14.4091 331.61 13.571C331.203 12.7282 330.999 11.7481 330.999 10.6307C330.999 9.51326 331.203 8.52841 331.61 7.67614C332.022 6.81913 332.595 6.15152 333.329 5.6733C334.067 5.19034 334.929 4.94886 335.914 4.94886C336.482 4.94886 337.043 5.04356 337.597 5.23295C338.151 5.42235 338.656 5.73011 339.11 6.15625C339.565 6.57765 339.927 7.13636 340.197 7.83239C340.467 8.52841 340.602 9.38542 340.602 10.4034V11.1136H332.192V9.66477H338.897C338.897 9.04924 338.774 8.5 338.528 8.01705C338.286 7.53409 337.941 7.15294 337.491 6.87358C337.046 6.59422 336.52 6.45455 335.914 6.45455C335.246 6.45455 334.669 6.62026 334.181 6.9517C333.698 7.27841 333.326 7.70455 333.066 8.23011C332.806 8.75568 332.675 9.31913 332.675 9.92045V10.8864C332.675 11.7102 332.817 12.4086 333.102 12.9815C333.39 13.5497 333.79 13.983 334.302 14.2812C334.813 14.5748 335.407 14.7216 336.085 14.7216C336.525 14.7216 336.923 14.66 337.278 14.5369C337.638 14.4091 337.948 14.2197 338.208 13.9688C338.469 13.7131 338.67 13.3958 338.812 13.017L340.431 13.4716C340.261 14.0208 339.974 14.5038 339.572 14.9205C339.169 15.3324 338.672 15.6544 338.08 15.8864C337.488 16.1136 336.823 16.2273 336.085 16.2273ZM348.776 5.09091H350.452V16.7955C350.452 17.4678 350.336 18.0502 350.104 18.5426C349.877 19.035 349.531 19.4162 349.067 19.6861C348.608 19.956 348.028 20.0909 347.327 20.0909C347.271 20.0909 347.214 20.0909 347.157 20.0909C347.1 20.0909 347.043 20.0909 346.987 20.0909V18.5284C347.043 18.5284 347.095 18.5284 347.143 18.5284C347.19 18.5284 347.242 18.5284 347.299 18.5284C347.81 18.5284 348.184 18.3769 348.421 18.0739C348.658 17.7756 348.776 17.3494 348.776 16.7955V5.09091ZM349.6 3.27273C349.273 3.27273 348.992 3.16146 348.755 2.93892C348.523 2.71638 348.407 2.44886 348.407 2.13636C348.407 1.82386 348.523 1.55634 348.755 1.33381C348.992 1.11127 349.273 1 349.6 1C349.927 1 350.206 1.11127 350.438 1.33381C350.675 1.55634 350.793 1.82386 350.793 2.13636C350.793 2.44886 350.675 2.71638 350.438 2.93892C350.206 3.16146 349.927 3.27273 349.6 3.27273ZM356.733 16.2557C356.041 16.2557 355.414 16.1255 354.85 15.8651C354.287 15.5999 353.84 15.2188 353.508 14.7216C353.177 14.2197 353.011 13.6136 353.011 12.9034C353.011 12.2784 353.134 11.7718 353.38 11.3835C353.627 10.9905 353.956 10.6828 354.368 10.4602C354.779 10.2377 355.234 10.072 355.731 9.96307C356.233 9.84943 356.737 9.75947 357.244 9.69318C357.907 9.60795 358.444 9.54403 358.856 9.50142C359.273 9.45407 359.576 9.37595 359.765 9.26705C359.959 9.15814 360.056 8.96875 360.056 8.69886V8.64205C360.056 7.94129 359.865 7.39678 359.481 7.00852C359.102 6.62027 358.527 6.42614 357.755 6.42614C356.955 6.42614 356.328 6.60133 355.873 6.9517C355.419 7.30208 355.099 7.67614 354.914 8.07386L353.324 7.50568C353.608 6.8428 353.986 6.3267 354.46 5.95739C354.938 5.58333 355.459 5.32292 356.022 5.17614C356.591 5.02462 357.149 4.94886 357.699 4.94886C358.049 4.94886 358.451 4.99148 358.906 5.0767C359.365 5.1572 359.808 5.32528 360.234 5.58097C360.665 5.83665 361.022 6.22254 361.306 6.73864C361.591 7.25473 361.733 7.94602 361.733 8.8125V16H360.056V14.5227H359.971C359.858 14.7595 359.668 15.0128 359.403 15.2827C359.138 15.5526 358.785 15.7822 358.345 15.9716C357.904 16.161 357.367 16.2557 356.733 16.2557ZM356.988 14.75C357.651 14.75 358.21 14.6198 358.664 14.3594C359.124 14.099 359.469 13.7628 359.701 13.3509C359.938 12.9389 360.056 12.5057 360.056 12.0511V10.517C359.985 10.6023 359.829 10.6804 359.588 10.7514C359.351 10.8177 359.076 10.8769 358.764 10.929C358.456 10.9763 358.155 11.0189 357.862 11.0568C357.573 11.09 357.339 11.1184 357.159 11.142C356.723 11.1989 356.316 11.2912 355.937 11.419C355.563 11.5421 355.26 11.7292 355.028 11.9801C354.801 12.2263 354.687 12.5625 354.687 12.9886C354.687 13.571 354.903 14.0114 355.333 14.3097C355.769 14.6032 356.321 14.75 356.988 14.75ZM357.045 3.61364L358.778 0.318181H360.738L358.522 3.61364H357.045ZM374.849 16.2273C373.864 16.2273 373 15.9929 372.256 15.5241C371.518 15.0554 370.94 14.3996 370.523 13.5568C370.112 12.714 369.906 11.7292 369.906 10.6023C369.906 9.46591 370.112 8.47396 370.523 7.62642C370.94 6.77888 371.518 6.12074 372.256 5.65199C373 5.18324 373.864 4.94886 374.849 4.94886C375.834 4.94886 376.695 5.18324 377.434 5.65199C378.177 6.12074 378.755 6.77888 379.167 7.62642C379.584 8.47396 379.792 9.46591 379.792 10.6023C379.792 11.7292 379.584 12.714 379.167 13.5568C378.755 14.3996 378.177 15.0554 377.434 15.5241C376.695 15.9929 375.834 16.2273 374.849 16.2273ZM374.849 14.7216C375.597 14.7216 376.212 14.5298 376.695 14.1463C377.178 13.7628 377.536 13.2585 377.768 12.6335C378 12.0085 378.116 11.3314 378.116 10.6023C378.116 9.87311 378 9.19366 377.768 8.56392C377.536 7.93419 377.178 7.42519 376.695 7.03693C376.212 6.64867 375.597 6.45455 374.849 6.45455C374.101 6.45455 373.485 6.64867 373.002 7.03693C372.519 7.42519 372.162 7.93419 371.93 8.56392C371.698 9.19366 371.582 9.87311 371.582 10.6023C371.582 11.3314 371.698 12.0085 371.93 12.6335C372.162 13.2585 372.519 13.7628 373.002 14.1463C373.485 14.5298 374.101 14.7216 374.849 14.7216ZM395.703 7.53409L394.197 7.96023C394.102 7.70928 393.963 7.46544 393.778 7.22869C393.598 6.98722 393.352 6.78835 393.039 6.6321C392.727 6.47585 392.327 6.39773 391.839 6.39773C391.172 6.39773 390.615 6.55161 390.17 6.85938C389.73 7.16241 389.51 7.5483 389.51 8.01705C389.51 8.43371 389.661 8.76278 389.964 9.00426C390.267 9.24574 390.741 9.44697 391.385 9.60795L393.004 10.0057C393.979 10.2424 394.706 10.6046 395.184 11.0923C395.663 11.5753 395.902 12.1979 395.902 12.9602C395.902 13.5852 395.722 14.1439 395.362 14.6364C395.007 15.1288 394.51 15.517 393.87 15.8011C393.231 16.0852 392.488 16.2273 391.64 16.2273C390.528 16.2273 389.607 15.9858 388.877 15.5028C388.148 15.0199 387.687 14.3144 387.493 13.3864L389.083 12.9886C389.235 13.5758 389.521 14.0161 389.943 14.3097C390.369 14.6032 390.925 14.75 391.612 14.75C392.393 14.75 393.013 14.5843 393.473 14.2528C393.937 13.9167 394.169 13.5142 394.169 13.0455C394.169 12.6667 394.036 12.3494 393.771 12.0938C393.506 11.8333 393.099 11.6392 392.549 11.5114L390.731 11.0852C389.732 10.8485 388.998 10.4815 388.529 9.98438C388.065 9.48248 387.833 8.85511 387.833 8.10227C387.833 7.48674 388.006 6.94223 388.352 6.46875C388.702 5.99527 389.178 5.62358 389.779 5.35369C390.386 5.08381 391.072 4.94886 391.839 4.94886C392.919 4.94886 393.766 5.18561 394.382 5.65909C395.002 6.13258 395.442 6.75758 395.703 7.53409ZM402.999 16.2273C401.947 16.2273 401.041 15.9953 400.278 15.5312C399.521 15.0625 398.936 14.4091 398.524 13.571C398.117 12.7282 397.913 11.7481 397.913 10.6307C397.913 9.51326 398.117 8.52841 398.524 7.67614C398.936 6.81913 399.509 6.15152 400.243 5.6733C400.982 5.19034 401.843 4.94886 402.828 4.94886C403.396 4.94886 403.957 5.04356 404.511 5.23295C405.065 5.42235 405.57 5.73011 406.024 6.15625C406.479 6.57765 406.841 7.13636 407.111 7.83239C407.381 8.52841 407.516 9.38542 407.516 10.4034V11.1136H399.107V9.66477H405.811C405.811 9.04924 405.688 8.5 405.442 8.01705C405.2 7.53409 404.855 7.15294 404.405 6.87358C403.96 6.59422 403.434 6.45455 402.828 6.45455C402.161 6.45455 401.583 6.62026 401.095 6.9517C400.612 7.27841 400.241 7.70455 399.98 8.23011C399.72 8.75568 399.589 9.31913 399.589 9.92045V10.8864C399.589 11.7102 399.732 12.4086 400.016 12.9815C400.304 13.5497 400.705 13.983 401.216 14.2812C401.727 14.5748 402.321 14.7216 402.999 14.7216C403.439 14.7216 403.837 14.66 404.192 14.5369C404.552 14.4091 404.862 14.2197 405.122 13.9688C405.383 13.7131 405.584 13.3958 405.726 13.017L407.345 13.4716C407.175 14.0208 406.888 14.5038 406.486 14.9205C406.083 15.3324 405.586 15.6544 404.994 15.8864C404.402 16.1136 403.737 16.2273 402.999 16.2273ZM416.94 11.5398V5.09091H418.616V16H416.94V14.1534H416.827C416.571 14.7074 416.173 15.1785 415.634 15.5668C415.094 15.9503 414.412 16.142 413.588 16.142C412.906 16.142 412.3 15.9929 411.77 15.6946C411.24 15.3916 410.823 14.937 410.52 14.331C410.217 13.7202 410.065 12.9508 410.065 12.0227V5.09091H411.741V11.9091C411.741 12.7045 411.964 13.339 412.409 13.8125C412.859 14.286 413.432 14.5227 414.128 14.5227C414.545 14.5227 414.968 14.4162 415.399 14.2031C415.835 13.9901 416.199 13.6634 416.493 13.223C416.791 12.7827 416.94 12.2216 416.94 11.5398ZM428.874 12.0227L428.846 9.94886H429.186L433.959 5.09091H436.033L430.948 10.233H430.806L428.874 12.0227ZM427.311 16V1.45455H428.988V16H427.311ZM434.243 16L429.982 10.6023L431.175 9.4375L436.374 16H434.243ZM438.19 16V5.09091H439.866V16H438.19ZM439.043 3.27273C438.716 3.27273 438.434 3.16146 438.197 2.93892C437.965 2.71638 437.849 2.44886 437.849 2.13636C437.849 1.82386 437.965 1.55634 438.197 1.33381C438.434 1.11127 438.716 1 439.043 1C439.369 1 439.649 1.11127 439.881 1.33381C440.117 1.55634 440.236 1.82386 440.236 2.13636C440.236 2.44886 440.117 2.71638 439.881 2.93892C439.649 3.16146 439.369 3.27273 439.043 3.27273ZM447.681 5.09091V6.51136H442.027V5.09091H447.681ZM443.675 2.47727H445.351V12.875C445.351 13.3485 445.42 13.7036 445.557 13.9403C445.699 14.1723 445.879 14.3286 446.097 14.4091C446.319 14.4848 446.554 14.5227 446.8 14.5227C446.985 14.5227 447.136 14.5133 447.255 14.4943C447.373 14.4706 447.468 14.4517 447.539 14.4375L447.88 15.9432C447.766 15.9858 447.607 16.0284 447.404 16.071C447.2 16.1184 446.942 16.142 446.63 16.142C446.156 16.142 445.692 16.0402 445.238 15.8366C444.788 15.633 444.414 15.3229 444.115 14.9062C443.822 14.4896 443.675 13.964 443.675 13.3295V2.47727Z" fill="white"/>
</svg>
