<svg width="211" height="34" viewBox="0 0 211 34" fill="none" xmlns="http://www.w3.org/2000/svg">
<path d="M0.190341 12V0.363636H7.21307V1.61364H1.59943V5.54545H6.84943V6.79545H1.59943V10.75H7.30398V12H0.190341ZM10.9119 6.75V12H9.57102V3.27273H10.8665V4.63636H10.9801C11.1847 4.19318 11.4953 3.83712 11.9119 3.56818C12.3286 3.29545 12.8665 3.15909 13.5256 3.15909C14.1165 3.15909 14.6335 3.2803 15.0767 3.52273C15.5199 3.76136 15.8646 4.125 16.1108 4.61364C16.357 5.09848 16.4801 5.71212 16.4801 6.45455V12H15.1392V6.54545C15.1392 5.85985 14.9612 5.32576 14.6051 4.94318C14.2491 4.55682 13.7604 4.36364 13.1392 4.36364C12.7112 4.36364 12.3286 4.45644 11.9915 4.64205C11.6581 4.82765 11.3949 5.09848 11.2017 5.45455C11.0085 5.81061 10.9119 6.24242 10.9119 6.75ZM22.7259 3.27273V4.40909H18.2031V3.27273H22.7259ZM19.5213 1.18182H20.8622V9.5C20.8622 9.87879 20.9171 10.1629 21.027 10.3523C21.1406 10.5379 21.2846 10.6629 21.4588 10.7273C21.6368 10.7879 21.8243 10.8182 22.0213 10.8182C22.169 10.8182 22.2902 10.8106 22.3849 10.7955C22.4796 10.7765 22.5554 10.7614 22.6122 10.75L22.8849 11.9545C22.794 11.9886 22.6671 12.0227 22.5043 12.0568C22.3414 12.0947 22.1349 12.1136 21.8849 12.1136C21.5062 12.1136 21.1349 12.0322 20.7713 11.8693C20.4115 11.7064 20.1122 11.4583 19.8736 11.125C19.6387 10.7917 19.5213 10.3712 19.5213 9.86364V1.18182ZM24.7429 12V3.27273H26.0384V4.59091H26.1293C26.2884 4.15909 26.5762 3.80871 26.9929 3.53977C27.4096 3.27083 27.8793 3.13636 28.402 3.13636C28.5005 3.13636 28.6236 3.13826 28.7713 3.14205C28.919 3.14583 29.0308 3.15152 29.1065 3.15909V4.52273C29.0611 4.51136 28.9569 4.49432 28.794 4.47159C28.6349 4.44508 28.4664 4.43182 28.2884 4.43182C27.8641 4.43182 27.4853 4.52083 27.152 4.69886C26.8224 4.87311 26.5611 5.11553 26.3679 5.42614C26.1785 5.73295 26.0838 6.08333 26.0838 6.47727V12H24.7429ZM34.0895 12.1818C33.2486 12.1818 32.5232 11.9962 31.9134 11.625C31.3073 11.25 30.8395 10.7273 30.5099 10.0568C30.1842 9.38258 30.0213 8.59848 30.0213 7.70455C30.0213 6.81061 30.1842 6.02273 30.5099 5.34091C30.8395 4.6553 31.2978 4.12121 31.8849 3.73864C32.4759 3.35227 33.1652 3.15909 33.9531 3.15909C34.4077 3.15909 34.8565 3.23485 35.2997 3.38636C35.7429 3.53788 36.1463 3.78409 36.5099 4.125C36.8736 4.46212 37.1634 4.90909 37.3793 5.46591C37.5952 6.02273 37.7031 6.70833 37.7031 7.52273V8.09091H30.9759V6.93182H36.3395C36.3395 6.43939 36.241 6 36.044 5.61364C35.8509 5.22727 35.5743 4.92235 35.2145 4.69886C34.8584 4.47538 34.438 4.36364 33.9531 4.36364C33.419 4.36364 32.9569 4.49621 32.5668 4.76136C32.1804 5.02273 31.883 5.36364 31.6747 5.78409C31.4664 6.20455 31.3622 6.6553 31.3622 7.13636V7.90909C31.3622 8.56818 31.4759 9.12689 31.7031 9.58523C31.9342 10.0398 32.2543 10.3864 32.6634 10.625C33.0724 10.8598 33.5478 10.9773 34.0895 10.9773C34.4418 10.9773 34.7599 10.928 35.044 10.8295C35.3319 10.7273 35.58 10.5758 35.7884 10.375C35.9967 10.1705 36.1577 9.91667 36.2713 9.61364L37.5668 9.97727C37.4304 10.4167 37.2012 10.803 36.8793 11.1364C36.5573 11.4659 36.1596 11.7235 35.6861 11.9091C35.2126 12.0909 34.6804 12.1818 34.0895 12.1818ZM47.902 12.1818C47.0611 12.1818 46.3357 11.9962 45.7259 11.625C45.1198 11.25 44.652 10.7273 44.3224 10.0568C43.9967 9.38258 43.8338 8.59848 43.8338 7.70455C43.8338 6.81061 43.9967 6.02273 44.3224 5.34091C44.652 4.6553 45.1103 4.12121 45.6974 3.73864C46.2884 3.35227 46.9777 3.15909 47.7656 3.15909C48.2202 3.15909 48.669 3.23485 49.1122 3.38636C49.5554 3.53788 49.9588 3.78409 50.3224 4.125C50.6861 4.46212 50.9759 4.90909 51.1918 5.46591C51.4077 6.02273 51.5156 6.70833 51.5156 7.52273V8.09091H44.7884V6.93182H50.152C50.152 6.43939 50.0535 6 49.8565 5.61364C49.6634 5.22727 49.3868 4.92235 49.027 4.69886C48.6709 4.47538 48.2505 4.36364 47.7656 4.36364C47.2315 4.36364 46.7694 4.49621 46.3793 4.76136C45.9929 5.02273 45.6955 5.36364 45.4872 5.78409C45.2789 6.20455 45.1747 6.6553 45.1747 7.13636V7.90909C45.1747 8.56818 45.2884 9.12689 45.5156 9.58523C45.7467 10.0398 46.0668 10.3864 46.4759 10.625C46.8849 10.8598 47.3603 10.9773 47.902 10.9773C48.2543 10.9773 48.5724 10.928 48.8565 10.8295C49.1444 10.7273 49.3925 10.5758 49.6009 10.375C49.8092 10.1705 49.9702 9.91667 50.0838 9.61364L51.3793 9.97727C51.2429 10.4167 51.0137 10.803 50.6918 11.1364C50.3698 11.4659 49.9721 11.7235 49.4986 11.9091C49.0251 12.0909 48.4929 12.1818 47.902 12.1818ZM53.5554 12V3.27273H54.8509V4.63636H54.9645C55.1463 4.17045 55.4399 3.80871 55.8452 3.55114C56.2505 3.28977 56.7372 3.15909 57.3054 3.15909C57.8812 3.15909 58.3603 3.28977 58.7429 3.55114C59.1293 3.80871 59.4304 4.17045 59.6463 4.63636H59.7372C59.9607 4.18561 60.2959 3.82765 60.7429 3.5625C61.1899 3.29356 61.7259 3.15909 62.3509 3.15909C63.1312 3.15909 63.7694 3.40341 64.2656 3.89205C64.7618 4.37689 65.0099 5.13258 65.0099 6.15909V12H63.669V6.15909C63.669 5.51515 63.4929 5.05492 63.1406 4.77841C62.7884 4.50189 62.3736 4.36364 61.8963 4.36364C61.2827 4.36364 60.8073 4.54924 60.4702 4.92045C60.133 5.28788 59.9645 5.75379 59.9645 6.31818V12H58.6009V6.02273C58.6009 5.52652 58.4399 5.12689 58.1179 4.82386C57.7959 4.51705 57.3812 4.36364 56.8736 4.36364C56.5251 4.36364 56.1993 4.45644 55.8963 4.64205C55.5971 4.82765 55.3546 5.08523 55.169 5.41477C54.9872 5.74053 54.8963 6.11742 54.8963 6.54545V12H53.5554ZM75.5071 12.1818C74.6889 12.1818 73.9844 11.9886 73.3935 11.6023C72.8026 11.2159 72.348 10.6837 72.0298 10.0057C71.7116 9.32765 71.5526 8.55303 71.5526 7.68182C71.5526 6.79545 71.7154 6.01326 72.0412 5.33523C72.3707 4.65341 72.8291 4.12121 73.4162 3.73864C74.0071 3.35227 74.6965 3.15909 75.4844 3.15909C76.098 3.15909 76.651 3.27273 77.1435 3.5C77.6359 3.72727 78.0393 4.04545 78.3537 4.45455C78.6681 4.86364 78.8632 5.34091 78.9389 5.88636H77.598C77.4957 5.48864 77.2685 5.13636 76.9162 4.82955C76.5677 4.51894 76.098 4.36364 75.5071 4.36364C74.9844 4.36364 74.526 4.5 74.1321 4.77273C73.742 5.04167 73.437 5.42235 73.2173 5.91477C73.0014 6.40341 72.8935 6.97727 72.8935 7.63636C72.8935 8.31061 72.9995 8.89773 73.2116 9.39773C73.4276 9.89773 73.7306 10.286 74.1207 10.5625C74.5147 10.839 74.9768 10.9773 75.5071 10.9773C75.8556 10.9773 76.1719 10.9167 76.456 10.7955C76.7401 10.6742 76.9806 10.5 77.1776 10.2727C77.3745 10.0455 77.5147 9.77273 77.598 9.45455H78.9389C78.8632 9.9697 78.6757 10.4337 78.3764 10.8466C78.081 11.2557 77.6889 11.5814 77.2003 11.8239C76.7154 12.0625 76.151 12.1818 75.5071 12.1818ZM84.4446 12.1818C83.6567 12.1818 82.9654 11.9943 82.3707 11.6193C81.7798 11.2443 81.3177 10.7197 80.9844 10.0455C80.6548 9.37121 80.4901 8.58333 80.4901 7.68182C80.4901 6.77273 80.6548 5.97917 80.9844 5.30114C81.3177 4.62311 81.7798 4.09659 82.3707 3.72159C82.9654 3.34659 83.6567 3.15909 84.4446 3.15909C85.2325 3.15909 85.9219 3.34659 86.5128 3.72159C87.1075 4.09659 87.5696 4.62311 87.8991 5.30114C88.2325 5.97917 88.3991 6.77273 88.3991 7.68182C88.3991 8.58333 88.2325 9.37121 87.8991 10.0455C87.5696 10.7197 87.1075 11.2443 86.5128 11.6193C85.9219 11.9943 85.2325 12.1818 84.4446 12.1818ZM84.4446 10.9773C85.0431 10.9773 85.5355 10.8239 85.9219 10.517C86.3082 10.2102 86.5942 9.80682 86.7798 9.30682C86.9654 8.80682 87.0582 8.26515 87.0582 7.68182C87.0582 7.09848 86.9654 6.55492 86.7798 6.05114C86.5942 5.54735 86.3082 5.14015 85.9219 4.82955C85.5355 4.51894 85.0431 4.36364 84.4446 4.36364C83.8461 4.36364 83.3537 4.51894 82.9673 4.82955C82.581 5.14015 82.295 5.54735 82.1094 6.05114C81.9238 6.55492 81.831 7.09848 81.831 7.68182C81.831 8.26515 81.9238 8.80682 82.1094 9.30682C82.295 9.80682 82.581 10.2102 82.9673 10.517C83.3537 10.8239 83.8461 10.9773 84.4446 10.9773ZM91.7869 6.75V12H90.446V3.27273H91.7415V4.63636H91.8551C92.0597 4.19318 92.3703 3.83712 92.7869 3.56818C93.2036 3.29545 93.7415 3.15909 94.4006 3.15909C94.9915 3.15909 95.5085 3.2803 95.9517 3.52273C96.3949 3.76136 96.7396 4.125 96.9858 4.61364C97.232 5.09848 97.3551 5.71212 97.3551 6.45455V12H96.0142V6.54545C96.0142 5.85985 95.8362 5.32576 95.4801 4.94318C95.1241 4.55682 94.6354 4.36364 94.0142 4.36364C93.5862 4.36364 93.2036 4.45644 92.8665 4.64205C92.5331 4.82765 92.2699 5.09848 92.0767 5.45455C91.8835 5.81061 91.7869 6.24242 91.7869 6.75ZM103.601 3.27273V4.40909H99.0781V3.27273H103.601ZM100.396 1.18182H101.737V9.5C101.737 9.87879 101.792 10.1629 101.902 10.3523C102.016 10.5379 102.16 10.6629 102.334 10.7273C102.512 10.7879 102.699 10.8182 102.896 10.8182C103.044 10.8182 103.165 10.8106 103.26 10.7955C103.355 10.7765 103.43 10.7614 103.487 10.75L103.76 11.9545C103.669 11.9886 103.542 12.0227 103.379 12.0568C103.216 12.0947 103.01 12.1136 102.76 12.1136C102.381 12.1136 102.01 12.0322 101.646 11.8693C101.286 11.7064 100.987 11.4583 100.749 11.125C100.514 10.7917 100.396 10.3712 100.396 9.86364V1.18182ZM108.186 12.2045C107.633 12.2045 107.131 12.1004 106.68 11.892C106.23 11.6799 105.872 11.375 105.607 10.9773C105.341 10.5758 105.209 10.0909 105.209 9.52273C105.209 9.02273 105.307 8.61742 105.504 8.30682C105.701 7.99242 105.964 7.74621 106.294 7.56818C106.624 7.39015 106.987 7.25758 107.385 7.17045C107.786 7.07955 108.19 7.00758 108.595 6.95455C109.125 6.88636 109.555 6.83523 109.885 6.80114C110.218 6.76326 110.461 6.70076 110.612 6.61364C110.768 6.52652 110.845 6.375 110.845 6.15909V6.11364C110.845 5.55303 110.692 5.11742 110.385 4.80682C110.082 4.49621 109.622 4.34091 109.004 4.34091C108.364 4.34091 107.862 4.48106 107.499 4.76136C107.135 5.04167 106.879 5.34091 106.732 5.65909L105.459 5.20455C105.686 4.67424 105.989 4.26136 106.368 3.96591C106.75 3.66667 107.167 3.45833 107.618 3.34091C108.072 3.2197 108.519 3.15909 108.959 3.15909C109.239 3.15909 109.561 3.19318 109.925 3.26136C110.292 3.32576 110.646 3.46023 110.987 3.66477C111.332 3.86932 111.618 4.17803 111.845 4.59091C112.072 5.00379 112.186 5.55682 112.186 6.25V12H110.845V10.8182H110.777C110.686 11.0076 110.535 11.2102 110.322 11.4261C110.11 11.642 109.828 11.8258 109.476 11.9773C109.124 12.1288 108.694 12.2045 108.186 12.2045ZM108.391 11C108.921 11 109.368 10.8958 109.732 10.6875C110.099 10.4792 110.375 10.2102 110.561 9.88068C110.75 9.55114 110.845 9.20455 110.845 8.84091V7.61364C110.788 7.68182 110.663 7.74432 110.47 7.80114C110.281 7.85417 110.061 7.90151 109.811 7.94318C109.565 7.98106 109.324 8.01515 109.089 8.04545C108.858 8.07197 108.671 8.0947 108.527 8.11364C108.179 8.15909 107.853 8.23295 107.55 8.33523C107.25 8.43371 107.008 8.58333 106.822 8.78409C106.641 8.98106 106.55 9.25 106.55 9.59091C106.55 10.0568 106.722 10.4091 107.067 10.6477C107.415 10.8826 107.857 11 108.391 11ZM118.429 3.27273V4.40909H113.906V3.27273H118.429ZM115.224 1.18182H116.565V9.5C116.565 9.87879 116.62 10.1629 116.73 10.3523C116.844 10.5379 116.988 10.6629 117.162 10.7273C117.34 10.7879 117.527 10.8182 117.724 10.8182C117.872 10.8182 117.993 10.8106 118.088 10.7955C118.183 10.7765 118.259 10.7614 118.315 10.75L118.588 11.9545C118.497 11.9886 118.37 12.0227 118.207 12.0568C118.045 12.0947 117.838 12.1136 117.588 12.1136C117.209 12.1136 116.838 12.0322 116.474 11.8693C116.115 11.7064 115.815 11.4583 115.577 11.125C115.342 10.7917 115.224 10.3712 115.224 9.86364V1.18182ZM123.898 12.1818C123.11 12.1818 122.419 11.9943 121.824 11.6193C121.233 11.2443 120.771 10.7197 120.438 10.0455C120.108 9.37121 119.943 8.58333 119.943 7.68182C119.943 6.77273 120.108 5.97917 120.438 5.30114C120.771 4.62311 121.233 4.09659 121.824 3.72159C122.419 3.34659 123.11 3.15909 123.898 3.15909C124.686 3.15909 125.375 3.34659 125.966 3.72159C126.561 4.09659 127.023 4.62311 127.352 5.30114C127.686 5.97917 127.852 6.77273 127.852 7.68182C127.852 8.58333 127.686 9.37121 127.352 10.0455C127.023 10.7197 126.561 11.2443 125.966 11.6193C125.375 11.9943 124.686 12.1818 123.898 12.1818ZM123.898 10.9773C124.496 10.9773 124.989 10.8239 125.375 10.517C125.761 10.2102 126.047 9.80682 126.233 9.30682C126.419 8.80682 126.511 8.26515 126.511 7.68182C126.511 7.09848 126.419 6.55492 126.233 6.05114C126.047 5.54735 125.761 5.14015 125.375 4.82955C124.989 4.51894 124.496 4.36364 123.898 4.36364C123.299 4.36364 122.807 4.51894 122.42 4.82955C122.034 5.14015 121.748 5.54735 121.562 6.05114C121.377 6.55492 121.284 7.09848 121.284 7.68182C121.284 8.26515 121.377 8.80682 121.562 9.30682C121.748 9.80682 122.034 10.2102 122.42 10.517C122.807 10.8239 123.299 10.9773 123.898 10.9773ZM137.945 12.1818C137.126 12.1818 136.422 11.9886 135.831 11.6023C135.24 11.2159 134.786 10.6837 134.467 10.0057C134.149 9.32765 133.99 8.55303 133.99 7.68182C133.99 6.79545 134.153 6.01326 134.479 5.33523C134.808 4.65341 135.267 4.12121 135.854 3.73864C136.445 3.35227 137.134 3.15909 137.922 3.15909C138.536 3.15909 139.089 3.27273 139.581 3.5C140.073 3.72727 140.477 4.04545 140.791 4.45455C141.106 4.86364 141.301 5.34091 141.376 5.88636H140.036C139.933 5.48864 139.706 5.13636 139.354 4.82955C139.005 4.51894 138.536 4.36364 137.945 4.36364C137.422 4.36364 136.964 4.5 136.57 4.77273C136.179 5.04167 135.875 5.42235 135.655 5.91477C135.439 6.40341 135.331 6.97727 135.331 7.63636C135.331 8.31061 135.437 8.89773 135.649 9.39773C135.865 9.89773 136.168 10.286 136.558 10.5625C136.952 10.839 137.414 10.9773 137.945 10.9773C138.293 10.9773 138.609 10.9167 138.893 10.7955C139.178 10.6742 139.418 10.5 139.615 10.2727C139.812 10.0455 139.952 9.77273 140.036 9.45455H141.376C141.301 9.9697 141.113 10.4337 140.814 10.8466C140.518 11.2557 140.126 11.5814 139.638 11.8239C139.153 12.0625 138.589 12.1818 137.945 12.1818ZM146.882 12.1818C146.094 12.1818 145.403 11.9943 144.808 11.6193C144.217 11.2443 143.755 10.7197 143.422 10.0455C143.092 9.37121 142.928 8.58333 142.928 7.68182C142.928 6.77273 143.092 5.97917 143.422 5.30114C143.755 4.62311 144.217 4.09659 144.808 3.72159C145.403 3.34659 146.094 3.15909 146.882 3.15909C147.67 3.15909 148.359 3.34659 148.95 3.72159C149.545 4.09659 150.007 4.62311 150.337 5.30114C150.67 5.97917 150.837 6.77273 150.837 7.68182C150.837 8.58333 150.67 9.37121 150.337 10.0455C150.007 10.7197 149.545 11.2443 148.95 11.6193C148.359 11.9943 147.67 12.1818 146.882 12.1818ZM146.882 10.9773C147.481 10.9773 147.973 10.8239 148.359 10.517C148.746 10.2102 149.032 9.80682 149.217 9.30682C149.403 8.80682 149.496 8.26515 149.496 7.68182C149.496 7.09848 149.403 6.55492 149.217 6.05114C149.032 5.54735 148.746 5.14015 148.359 4.82955C147.973 4.51894 147.481 4.36364 146.882 4.36364C146.284 4.36364 145.791 4.51894 145.405 4.82955C145.018 5.14015 144.732 5.54735 144.547 6.05114C144.361 6.55492 144.268 7.09848 144.268 7.68182C144.268 8.26515 144.361 8.80682 144.547 9.30682C144.732 9.80682 145.018 10.2102 145.405 10.517C145.791 10.8239 146.284 10.9773 146.882 10.9773ZM154.224 6.75V12H152.884V3.27273H154.179V4.63636H154.293C154.497 4.19318 154.808 3.83712 155.224 3.56818C155.641 3.29545 156.179 3.15909 156.838 3.15909C157.429 3.15909 157.946 3.2803 158.389 3.52273C158.832 3.76136 159.177 4.125 159.423 4.61364C159.67 5.09848 159.793 5.71212 159.793 6.45455V12H158.452V6.54545C158.452 5.85985 158.274 5.32576 157.918 4.94318C157.562 4.55682 157.073 4.36364 156.452 4.36364C156.024 4.36364 155.641 4.45644 155.304 4.64205C154.971 4.82765 154.707 5.09848 154.514 5.45455C154.321 5.81061 154.224 6.24242 154.224 6.75ZM165.788 12.1818C165 12.1818 164.309 11.9943 163.714 11.6193C163.124 11.2443 162.661 10.7197 162.328 10.0455C161.999 9.37121 161.834 8.58333 161.834 7.68182C161.834 6.77273 161.999 5.97917 162.328 5.30114C162.661 4.62311 163.124 4.09659 163.714 3.72159C164.309 3.34659 165 3.15909 165.788 3.15909C166.576 3.15909 167.266 3.34659 167.857 3.72159C168.451 4.09659 168.913 4.62311 169.243 5.30114C169.576 5.97917 169.743 6.77273 169.743 7.68182C169.743 8.58333 169.576 9.37121 169.243 10.0455C168.913 10.7197 168.451 11.2443 167.857 11.6193C167.266 11.9943 166.576 12.1818 165.788 12.1818ZM165.788 10.9773C166.387 10.9773 166.879 10.8239 167.266 10.517C167.652 10.2102 167.938 9.80682 168.124 9.30682C168.309 8.80682 168.402 8.26515 168.402 7.68182C168.402 7.09848 168.309 6.55492 168.124 6.05114C167.938 5.54735 167.652 5.14015 167.266 4.82955C166.879 4.51894 166.387 4.36364 165.788 4.36364C165.19 4.36364 164.697 4.51894 164.311 4.82955C163.925 5.14015 163.639 5.54735 163.453 6.05114C163.268 6.55492 163.175 7.09848 163.175 7.68182C163.175 8.26515 163.268 8.80682 163.453 9.30682C163.639 9.80682 163.925 10.2102 164.311 10.517C164.697 10.8239 165.19 10.9773 165.788 10.9773ZM177.972 5.22727L176.767 5.56818C176.691 5.36742 176.58 5.17235 176.432 4.98295C176.288 4.78977 176.091 4.63068 175.841 4.50568C175.591 4.38068 175.271 4.31818 174.881 4.31818C174.347 4.31818 173.902 4.44129 173.545 4.6875C173.193 4.92992 173.017 5.23864 173.017 5.61364C173.017 5.94697 173.138 6.21023 173.381 6.40341C173.623 6.59659 174.002 6.75758 174.517 6.88636L175.812 7.20455C176.593 7.39394 177.174 7.68371 177.557 8.07386C177.939 8.46023 178.131 8.95833 178.131 9.56818C178.131 10.0682 177.987 10.5152 177.699 10.9091C177.415 11.303 177.017 11.6136 176.506 11.8409C175.994 12.0682 175.4 12.1818 174.722 12.1818C173.831 12.1818 173.095 11.9886 172.511 11.6023C171.928 11.2159 171.559 10.6515 171.403 9.90909L172.676 9.59091C172.797 10.0606 173.027 10.4129 173.364 10.6477C173.705 10.8826 174.15 11 174.699 11C175.324 11 175.82 10.8674 176.188 10.6023C176.559 10.3333 176.744 10.0114 176.744 9.63636C176.744 9.33333 176.638 9.07955 176.426 8.875C176.214 8.66667 175.888 8.51136 175.449 8.40909L173.994 8.06818C173.195 7.87879 172.608 7.58523 172.233 7.1875C171.862 6.78598 171.676 6.28409 171.676 5.68182C171.676 5.18939 171.814 4.75379 172.091 4.375C172.371 3.99621 172.752 3.69886 173.233 3.48295C173.718 3.26705 174.267 3.15909 174.881 3.15909C175.744 3.15909 176.422 3.34848 176.915 3.72727C177.411 4.10606 177.763 4.60606 177.972 5.22727ZM183.695 12.1818C182.876 12.1818 182.172 11.9886 181.581 11.6023C180.99 11.2159 180.536 10.6837 180.217 10.0057C179.899 9.32765 179.74 8.55303 179.74 7.68182C179.74 6.79545 179.903 6.01326 180.229 5.33523C180.558 4.65341 181.017 4.12121 181.604 3.73864C182.195 3.35227 182.884 3.15909 183.672 3.15909C184.286 3.15909 184.839 3.27273 185.331 3.5C185.823 3.72727 186.227 4.04545 186.541 4.45455C186.856 4.86364 187.051 5.34091 187.126 5.88636H185.786C185.683 5.48864 185.456 5.13636 185.104 4.82955C184.755 4.51894 184.286 4.36364 183.695 4.36364C183.172 4.36364 182.714 4.5 182.32 4.77273C181.929 5.04167 181.625 5.42235 181.405 5.91477C181.189 6.40341 181.081 6.97727 181.081 7.63636C181.081 8.31061 181.187 8.89773 181.399 9.39773C181.615 9.89773 181.918 10.286 182.308 10.5625C182.702 10.839 183.164 10.9773 183.695 10.9773C184.043 10.9773 184.359 10.9167 184.643 10.7955C184.928 10.6742 185.168 10.5 185.365 10.2727C185.562 10.0455 185.702 9.77273 185.786 9.45455H187.126C187.051 9.9697 186.863 10.4337 186.564 10.8466C186.268 11.2557 185.876 11.5814 185.388 11.8239C184.903 12.0625 184.339 12.1818 183.695 12.1818ZM192.632 12.1818C191.844 12.1818 191.153 11.9943 190.558 11.6193C189.967 11.2443 189.505 10.7197 189.172 10.0455C188.842 9.37121 188.678 8.58333 188.678 7.68182C188.678 6.77273 188.842 5.97917 189.172 5.30114C189.505 4.62311 189.967 4.09659 190.558 3.72159C191.153 3.34659 191.844 3.15909 192.632 3.15909C193.42 3.15909 194.109 3.34659 194.7 3.72159C195.295 4.09659 195.757 4.62311 196.087 5.30114C196.42 5.97917 196.587 6.77273 196.587 7.68182C196.587 8.58333 196.42 9.37121 196.087 10.0455C195.757 10.7197 195.295 11.2443 194.7 11.6193C194.109 11.9943 193.42 12.1818 192.632 12.1818ZM192.632 10.9773C193.231 10.9773 193.723 10.8239 194.109 10.517C194.496 10.2102 194.782 9.80682 194.967 9.30682C195.153 8.80682 195.246 8.26515 195.246 7.68182C195.246 7.09848 195.153 6.55492 194.967 6.05114C194.782 5.54735 194.496 5.14015 194.109 4.82955C193.723 4.51894 193.231 4.36364 192.632 4.36364C192.034 4.36364 191.541 4.51894 191.155 4.82955C190.768 5.14015 190.482 5.54735 190.297 6.05114C190.111 6.55492 190.018 7.09848 190.018 7.68182C190.018 8.26515 190.111 8.80682 190.297 9.30682C190.482 9.80682 190.768 10.2102 191.155 10.517C191.541 10.8239 192.034 10.9773 192.632 10.9773ZM206.793 12.1818C205.952 12.1818 205.226 11.9962 204.616 11.625C204.01 11.25 203.543 10.7273 203.213 10.0568C202.887 9.38258 202.724 8.59848 202.724 7.70455C202.724 6.81061 202.887 6.02273 203.213 5.34091C203.543 4.6553 204.001 4.12121 204.588 3.73864C205.179 3.35227 205.868 3.15909 206.656 3.15909C207.111 3.15909 207.56 3.23485 208.003 3.38636C208.446 3.53788 208.849 3.78409 209.213 4.125C209.577 4.46212 209.866 4.90909 210.082 5.46591C210.298 6.02273 210.406 6.70833 210.406 7.52273V8.09091H203.679V6.93182H209.043C209.043 6.43939 208.944 6 208.747 5.61364C208.554 5.22727 208.277 4.92235 207.918 4.69886C207.562 4.47538 207.141 4.36364 206.656 4.36364C206.122 4.36364 205.66 4.49621 205.27 4.76136C204.884 5.02273 204.586 5.36364 204.378 5.78409C204.17 6.20455 204.065 6.6553 204.065 7.13636V7.90909C204.065 8.56818 204.179 9.12689 204.406 9.58523C204.637 10.0398 204.957 10.3864 205.366 10.625C205.776 10.8598 206.251 10.9773 206.793 10.9773C207.145 10.9773 207.463 10.928 207.747 10.8295C208.035 10.7273 208.283 10.5758 208.491 10.375C208.7 10.1705 208.861 9.91667 208.974 9.61364L210.27 9.97727C210.134 10.4167 209.904 10.803 209.582 11.1364C209.26 11.4659 208.863 11.7235 208.389 11.9091C207.916 12.0909 207.384 12.1818 206.793 12.1818ZM39.0085 30V21.2727H40.304V22.5909H40.3949C40.554 22.1591 40.8419 21.8087 41.2585 21.5398C41.6752 21.2708 42.1449 21.1364 42.6676 21.1364C42.7661 21.1364 42.8892 21.1383 43.0369 21.142C43.1847 21.1458 43.2964 21.1515 43.3722 21.1591V22.5227C43.3267 22.5114 43.2225 22.4943 43.0597 22.4716C42.9006 22.4451 42.732 22.4318 42.554 22.4318C42.1297 22.4318 41.7509 22.5208 41.4176 22.6989C41.0881 22.8731 40.8267 23.1155 40.6335 23.4261C40.4441 23.733 40.3494 24.0833 40.3494 24.4773V30H39.0085ZM48.3551 30.1818C47.5142 30.1818 46.7888 29.9962 46.179 29.625C45.5729 29.25 45.1051 28.7273 44.7756 28.0568C44.4498 27.3826 44.2869 26.5985 44.2869 25.7045C44.2869 24.8106 44.4498 24.0227 44.7756 23.3409C45.1051 22.6553 45.5634 22.1212 46.1506 21.7386C46.7415 21.3523 47.4309 21.1591 48.2188 21.1591C48.6733 21.1591 49.1222 21.2348 49.5653 21.3864C50.0085 21.5379 50.4119 21.7841 50.7756 22.125C51.1392 22.4621 51.429 22.9091 51.6449 23.4659C51.8608 24.0227 51.9688 24.7083 51.9688 25.5227V26.0909H45.2415V24.9318H50.6051C50.6051 24.4394 50.5066 24 50.3097 23.6136C50.1165 23.2273 49.84 22.9223 49.4801 22.6989C49.1241 22.4754 48.7036 22.3636 48.2188 22.3636C47.6847 22.3636 47.2225 22.4962 46.8324 22.7614C46.446 23.0227 46.1487 23.3636 45.9403 23.7841C45.732 24.2045 45.6278 24.6553 45.6278 25.1364V25.9091C45.6278 26.5682 45.7415 27.1269 45.9688 27.5852C46.1998 28.0398 46.5199 28.3864 46.929 28.625C47.3381 28.8598 47.8134 28.9773 48.3551 28.9773C48.7074 28.9773 49.0256 28.928 49.3097 28.8295C49.5975 28.7273 49.8456 28.5758 50.054 28.375C50.2623 28.1705 50.4233 27.9167 50.5369 27.6136L51.8324 27.9773C51.696 28.4167 51.4669 28.803 51.1449 29.1364C50.8229 29.4659 50.4252 29.7235 49.9517 29.9091C49.4782 30.0909 48.946 30.1818 48.3551 30.1818ZM57.5312 33.4545C56.8835 33.4545 56.3267 33.3712 55.8608 33.2045C55.3949 33.0417 55.0066 32.8258 54.696 32.5568C54.3892 32.2917 54.1449 32.0076 53.9631 31.7045L55.0312 30.9545C55.1525 31.1136 55.3059 31.2955 55.4915 31.5C55.6771 31.7083 55.9309 31.8883 56.2528 32.0398C56.5786 32.1951 57.0047 32.2727 57.5312 32.2727C58.2358 32.2727 58.8172 32.1023 59.2756 31.7614C59.7339 31.4205 59.9631 30.8864 59.9631 30.1591V28.3864H59.8494C59.7509 28.5455 59.6108 28.7424 59.429 28.9773C59.2509 29.2083 58.9934 29.4148 58.6562 29.5966C58.3229 29.7746 57.8722 29.8636 57.304 29.8636C56.5994 29.8636 55.9669 29.697 55.4062 29.3636C54.8494 29.0303 54.4081 28.5455 54.0824 27.9091C53.7604 27.2727 53.5994 26.5 53.5994 25.5909C53.5994 24.697 53.7566 23.9186 54.071 23.2557C54.3854 22.589 54.8229 22.0739 55.3835 21.7102C55.9441 21.3428 56.5919 21.1591 57.3267 21.1591C57.8949 21.1591 58.3456 21.2538 58.679 21.4432C59.0161 21.6288 59.2737 21.8409 59.4517 22.0795C59.6335 22.3144 59.7737 22.5076 59.8722 22.6591H60.0085V21.2727H61.304V30.25C61.304 31 61.1335 31.6098 60.7926 32.0795C60.4555 32.553 60.0009 32.8996 59.429 33.1193C58.8608 33.3428 58.2282 33.4545 57.5312 33.4545ZM57.4858 28.6591C58.0237 28.6591 58.4782 28.536 58.8494 28.2898C59.2206 28.0436 59.5028 27.6894 59.696 27.2273C59.8892 26.7652 59.9858 26.2121 59.9858 25.5682C59.9858 24.9394 59.8911 24.3845 59.7017 23.9034C59.5123 23.4223 59.232 23.0455 58.8608 22.7727C58.4896 22.5 58.0313 22.3636 57.4858 22.3636C56.9176 22.3636 56.4441 22.5076 56.0653 22.7955C55.6903 23.0833 55.4081 23.4697 55.2188 23.9545C55.0331 24.4394 54.9403 24.9773 54.9403 25.5682C54.9403 26.1742 55.035 26.7102 55.2244 27.1761C55.4176 27.6383 55.7017 28.0019 56.0767 28.267C56.4555 28.5284 56.9252 28.6591 57.4858 28.6591ZM66.3267 30.2045C65.7737 30.2045 65.2718 30.1004 64.821 29.892C64.3703 29.6799 64.0123 29.375 63.7472 28.9773C63.482 28.5758 63.3494 28.0909 63.3494 27.5227C63.3494 27.0227 63.4479 26.6174 63.6449 26.3068C63.8419 25.9924 64.1051 25.7462 64.4347 25.5682C64.7642 25.3902 65.1278 25.2576 65.5256 25.1705C65.9271 25.0795 66.3305 25.0076 66.7358 24.9545C67.2661 24.8864 67.696 24.8352 68.0256 24.8011C68.3589 24.7633 68.6013 24.7008 68.7528 24.6136C68.9081 24.5265 68.9858 24.375 68.9858 24.1591V24.1136C68.9858 23.553 68.8324 23.1174 68.5256 22.8068C68.2225 22.4962 67.7623 22.3409 67.1449 22.3409C66.5047 22.3409 66.0028 22.4811 65.6392 22.7614C65.2756 23.0417 65.0199 23.3409 64.8722 23.6591L63.5994 23.2045C63.8267 22.6742 64.1297 22.2614 64.5085 21.9659C64.8911 21.6667 65.3078 21.4583 65.7585 21.3409C66.2131 21.2197 66.66 21.1591 67.0994 21.1591C67.3797 21.1591 67.7017 21.1932 68.0653 21.2614C68.4328 21.3258 68.7869 21.4602 69.1278 21.6648C69.4725 21.8693 69.7585 22.178 69.9858 22.5909C70.2131 23.0038 70.3267 23.5568 70.3267 24.25V30H68.9858V28.8182H68.9176C68.8267 29.0076 68.6752 29.2102 68.4631 29.4261C68.2509 29.642 67.9688 29.8258 67.6165 29.9773C67.2642 30.1288 66.8343 30.2045 66.3267 30.2045ZM66.5312 29C67.0616 29 67.5085 28.8958 67.8722 28.6875C68.2396 28.4792 68.5161 28.2102 68.7017 27.8807C68.8911 27.5511 68.9858 27.2045 68.9858 26.8409V25.6136C68.929 25.6818 68.804 25.7443 68.6108 25.8011C68.4214 25.8542 68.2017 25.9015 67.9517 25.9432C67.7055 25.9811 67.465 26.0152 67.2301 26.0455C66.9991 26.072 66.8116 26.0947 66.6676 26.1136C66.3191 26.1591 65.9934 26.233 65.6903 26.3352C65.3911 26.4337 65.1487 26.5833 64.9631 26.7841C64.7813 26.9811 64.6903 27.25 64.6903 27.5909C64.6903 28.0568 64.8627 28.4091 65.2074 28.6477C65.5559 28.8826 65.9972 29 66.5312 29ZM76.5696 21.2727V22.4091H72.0469V21.2727H76.5696ZM73.3651 19.1818H74.706V27.5C74.706 27.8788 74.7609 28.1629 74.8707 28.3523C74.9844 28.5379 75.1283 28.6629 75.3026 28.7273C75.4806 28.7879 75.6681 28.8182 75.8651 28.8182C76.0128 28.8182 76.134 28.8106 76.2287 28.7955C76.3234 28.7765 76.3991 28.7614 76.456 28.75L76.7287 29.9545C76.6378 29.9886 76.5109 30.0227 76.348 30.0568C76.1851 30.0947 75.9787 30.1136 75.7287 30.1136C75.3499 30.1136 74.9787 30.0322 74.6151 29.8693C74.2552 29.7064 73.956 29.4583 73.7173 29.125C73.4825 28.7917 73.3651 28.3712 73.3651 27.8636V19.1818ZM82.152 30.1818C81.3111 30.1818 80.5857 29.9962 79.9759 29.625C79.3698 29.25 78.902 28.7273 78.5724 28.0568C78.2467 27.3826 78.0838 26.5985 78.0838 25.7045C78.0838 24.8106 78.2467 24.0227 78.5724 23.3409C78.902 22.6553 79.3603 22.1212 79.9474 21.7386C80.5384 21.3523 81.2277 21.1591 82.0156 21.1591C82.4702 21.1591 82.919 21.2348 83.3622 21.3864C83.8054 21.5379 84.2088 21.7841 84.5724 22.125C84.9361 22.4621 85.2259 22.9091 85.4418 23.4659C85.6577 24.0227 85.7656 24.7083 85.7656 25.5227V26.0909H79.0384V24.9318H84.402C84.402 24.4394 84.3035 24 84.1065 23.6136C83.9134 23.2273 83.6368 22.9223 83.277 22.6989C82.9209 22.4754 82.5005 22.3636 82.0156 22.3636C81.4815 22.3636 81.0194 22.4962 80.6293 22.7614C80.2429 23.0227 79.9455 23.3636 79.7372 23.7841C79.5289 24.2045 79.4247 24.6553 79.4247 25.1364V25.9091C79.4247 26.5682 79.5384 27.1269 79.7656 27.5852C79.9967 28.0398 80.3168 28.3864 80.7259 28.625C81.1349 28.8598 81.6103 28.9773 82.152 28.9773C82.5043 28.9773 82.8224 28.928 83.1065 28.8295C83.3944 28.7273 83.6425 28.5758 83.8509 28.375C84.0592 28.1705 84.2202 27.9167 84.3338 27.6136L85.6293 27.9773C85.4929 28.4167 85.2637 28.803 84.9418 29.1364C84.6198 29.4659 84.2221 29.7235 83.7486 29.9091C83.2751 30.0909 82.7429 30.1818 82.152 30.1818ZM92.3054 21.2727H93.6463V30.6364C93.6463 31.1742 93.5535 31.6402 93.3679 32.0341C93.1861 32.428 92.9096 32.733 92.5384 32.9489C92.1709 33.1648 91.7069 33.2727 91.1463 33.2727C91.1009 33.2727 91.0554 33.2727 91.0099 33.2727C90.9645 33.2727 90.919 33.2727 90.8736 33.2727V32.0227C90.919 32.0227 90.9607 32.0227 90.9986 32.0227C91.0365 32.0227 91.0781 32.0227 91.1236 32.0227C91.5327 32.0227 91.8319 31.9015 92.0213 31.6591C92.2107 31.4205 92.3054 31.0795 92.3054 30.6364V21.2727ZM92.9645 19.8182C92.7031 19.8182 92.4777 19.7292 92.2884 19.5511C92.1027 19.3731 92.0099 19.1591 92.0099 18.9091C92.0099 18.6591 92.1027 18.4451 92.2884 18.267C92.4777 18.089 92.7031 18 92.9645 18C93.2259 18 93.4493 18.089 93.6349 18.267C93.8243 18.4451 93.919 18.6591 93.919 18.9091C93.919 19.1591 93.8243 19.3731 93.6349 19.5511C93.4493 19.7292 93.2259 19.8182 92.9645 19.8182ZM98.6705 30.2045C98.1174 30.2045 97.6155 30.1004 97.1648 29.892C96.714 29.6799 96.3561 29.375 96.0909 28.9773C95.8258 28.5758 95.6932 28.0909 95.6932 27.5227C95.6932 27.0227 95.7917 26.6174 95.9886 26.3068C96.1856 25.9924 96.4489 25.7462 96.7784 25.5682C97.108 25.3902 97.4716 25.2576 97.8693 25.1705C98.2708 25.0795 98.6742 25.0076 99.0795 24.9545C99.6098 24.8864 100.04 24.8352 100.369 24.8011C100.703 24.7633 100.945 24.7008 101.097 24.6136C101.252 24.5265 101.33 24.375 101.33 24.1591V24.1136C101.33 23.553 101.176 23.1174 100.869 22.8068C100.566 22.4962 100.106 22.3409 99.4886 22.3409C98.8485 22.3409 98.3466 22.4811 97.983 22.7614C97.6193 23.0417 97.3636 23.3409 97.2159 23.6591L95.9432 23.2045C96.1705 22.6742 96.4735 22.2614 96.8523 21.9659C97.2348 21.6667 97.6515 21.4583 98.1023 21.3409C98.5568 21.2197 99.0038 21.1591 99.4432 21.1591C99.7235 21.1591 100.045 21.1932 100.409 21.2614C100.777 21.3258 101.131 21.4602 101.472 21.6648C101.816 21.8693 102.102 22.178 102.33 22.5909C102.557 23.0038 102.67 23.5568 102.67 24.25V30H101.33V28.8182H101.261C101.17 29.0076 101.019 29.2102 100.807 29.4261C100.595 29.642 100.313 29.8258 99.9602 29.9773C99.608 30.1288 99.178 30.2045 98.6705 30.2045ZM98.875 29C99.4053 29 99.8523 28.8958 100.216 28.6875C100.583 28.4792 100.86 28.2102 101.045 27.8807C101.235 27.5511 101.33 27.2045 101.33 26.8409V25.6136C101.273 25.6818 101.148 25.7443 100.955 25.8011C100.765 25.8542 100.545 25.9015 100.295 25.9432C100.049 25.9811 99.8087 26.0152 99.5739 26.0455C99.3428 26.072 99.1553 26.0947 99.0114 26.1136C98.6629 26.1591 98.3371 26.233 98.0341 26.3352C97.7348 26.4337 97.4924 26.5833 97.3068 26.7841C97.125 26.9811 97.0341 27.25 97.0341 27.5909C97.0341 28.0568 97.2064 28.4091 97.5511 28.6477C97.8996 28.8826 98.3409 29 98.875 29ZM98.9205 20.0909L100.307 17.4545H101.875L100.102 20.0909H98.9205ZM113.163 30.1818C112.375 30.1818 111.684 29.9943 111.089 29.6193C110.499 29.2443 110.036 28.7197 109.703 28.0455C109.374 27.3712 109.209 26.5833 109.209 25.6818C109.209 24.7727 109.374 23.9792 109.703 23.3011C110.036 22.6231 110.499 22.0966 111.089 21.7216C111.684 21.3466 112.375 21.1591 113.163 21.1591C113.951 21.1591 114.641 21.3466 115.232 21.7216C115.826 22.0966 116.288 22.6231 116.618 23.3011C116.951 23.9792 117.118 24.7727 117.118 25.6818C117.118 26.5833 116.951 27.3712 116.618 28.0455C116.288 28.7197 115.826 29.2443 115.232 29.6193C114.641 29.9943 113.951 30.1818 113.163 30.1818ZM113.163 28.9773C113.762 28.9773 114.254 28.8239 114.641 28.517C115.027 28.2102 115.313 27.8068 115.499 27.3068C115.684 26.8068 115.777 26.2652 115.777 25.6818C115.777 25.0985 115.684 24.5549 115.499 24.0511C115.313 23.5473 115.027 23.1402 114.641 22.8295C114.254 22.5189 113.762 22.3636 113.163 22.3636C112.565 22.3636 112.072 22.5189 111.686 22.8295C111.3 23.1402 111.014 23.5473 110.828 24.0511C110.643 24.5549 110.55 25.0985 110.55 25.6818C110.55 26.2652 110.643 26.8068 110.828 27.3068C111.014 27.8068 111.3 28.2102 111.686 28.517C112.072 28.8239 112.565 28.9773 113.163 28.9773ZM129.847 23.2273L128.642 23.5682C128.566 23.3674 128.455 23.1723 128.307 22.983C128.163 22.7898 127.966 22.6307 127.716 22.5057C127.466 22.3807 127.146 22.3182 126.756 22.3182C126.222 22.3182 125.777 22.4413 125.42 22.6875C125.068 22.9299 124.892 23.2386 124.892 23.6136C124.892 23.947 125.013 24.2102 125.256 24.4034C125.498 24.5966 125.877 24.7576 126.392 24.8864L127.688 25.2045C128.468 25.3939 129.049 25.6837 129.432 26.0739C129.814 26.4602 130.006 26.9583 130.006 27.5682C130.006 28.0682 129.862 28.5152 129.574 28.9091C129.29 29.303 128.892 29.6136 128.381 29.8409C127.869 30.0682 127.275 30.1818 126.597 30.1818C125.706 30.1818 124.97 29.9886 124.386 29.6023C123.803 29.2159 123.434 28.6515 123.278 27.9091L124.551 27.5909C124.672 28.0606 124.902 28.4129 125.239 28.6477C125.58 28.8826 126.025 29 126.574 29C127.199 29 127.695 28.8674 128.062 28.6023C128.434 28.3333 128.619 28.0114 128.619 27.6364C128.619 27.3333 128.513 27.0795 128.301 26.875C128.089 26.6667 127.763 26.5114 127.324 26.4091L125.869 26.0682C125.07 25.8788 124.483 25.5852 124.108 25.1875C123.737 24.786 123.551 24.2841 123.551 23.6818C123.551 23.1894 123.689 22.7538 123.966 22.375C124.246 21.9962 124.627 21.6989 125.108 21.483C125.593 21.267 126.142 21.1591 126.756 21.1591C127.619 21.1591 128.297 21.3485 128.79 21.7273C129.286 22.1061 129.638 22.6061 129.847 23.2273ZM135.683 30.1818C134.842 30.1818 134.117 29.9962 133.507 29.625C132.901 29.25 132.433 28.7273 132.104 28.0568C131.778 27.3826 131.615 26.5985 131.615 25.7045C131.615 24.8106 131.778 24.0227 132.104 23.3409C132.433 22.6553 132.892 22.1212 133.479 21.7386C134.07 21.3523 134.759 21.1591 135.547 21.1591C136.001 21.1591 136.45 21.2348 136.893 21.3864C137.337 21.5379 137.74 21.7841 138.104 22.125C138.467 22.4621 138.757 22.9091 138.973 23.4659C139.189 24.0227 139.297 24.7083 139.297 25.5227V26.0909H132.57V24.9318H137.933C137.933 24.4394 137.835 24 137.638 23.6136C137.445 23.2273 137.168 22.9223 136.808 22.6989C136.452 22.4754 136.032 22.3636 135.547 22.3636C135.013 22.3636 134.551 22.4962 134.161 22.7614C133.774 23.0227 133.477 23.3636 133.268 23.7841C133.06 24.2045 132.956 24.6553 132.956 25.1364V25.9091C132.956 26.5682 133.07 27.1269 133.297 27.5852C133.528 28.0398 133.848 28.3864 134.257 28.625C134.666 28.8598 135.142 28.9773 135.683 28.9773C136.036 28.9773 136.354 28.928 136.638 28.8295C136.926 28.7273 137.174 28.5758 137.382 28.375C137.59 28.1705 137.751 27.9167 137.865 27.6136L139.161 27.9773C139.024 28.4167 138.795 28.803 138.473 29.1364C138.151 29.4659 137.753 29.7235 137.28 29.9091C136.806 30.0909 136.274 30.1818 135.683 30.1818ZM146.837 26.4318V21.2727H148.178V30H146.837V28.5227H146.746C146.541 28.9659 146.223 29.3428 145.791 29.6534C145.359 29.9602 144.814 30.1136 144.155 30.1136C143.609 30.1136 143.125 29.9943 142.7 29.7557C142.276 29.5133 141.943 29.1496 141.7 28.6648C141.458 28.1761 141.337 27.5606 141.337 26.8182V21.2727H142.678V26.7273C142.678 27.3636 142.856 27.8712 143.212 28.25C143.571 28.6288 144.03 28.8182 144.587 28.8182C144.92 28.8182 145.259 28.733 145.604 28.5625C145.952 28.392 146.244 28.1307 146.479 27.7784C146.717 27.4261 146.837 26.9773 146.837 26.4318ZM156.384 26.8182L156.361 25.1591H156.634L160.452 21.2727H162.111L158.043 25.3864H157.929L156.384 26.8182ZM155.134 30V18.3636H156.474V30H155.134ZM160.679 30L157.27 25.6818L158.224 24.75L162.384 30H160.679ZM163.837 30V21.2727H165.178V30H163.837ZM164.518 19.8182C164.257 19.8182 164.032 19.7292 163.842 19.5511C163.657 19.3731 163.564 19.1591 163.564 18.9091C163.564 18.6591 163.657 18.4451 163.842 18.267C164.032 18.089 164.257 18 164.518 18C164.78 18 165.003 18.089 165.189 18.267C165.378 18.4451 165.473 18.6591 165.473 18.9091C165.473 19.1591 165.378 19.3731 165.189 19.5511C165.003 19.7292 164.78 19.8182 164.518 19.8182ZM171.429 21.2727V22.4091H166.906V21.2727H171.429ZM168.224 19.1818H169.565V27.5C169.565 27.8788 169.62 28.1629 169.73 28.3523C169.844 28.5379 169.988 28.6629 170.162 28.7273C170.34 28.7879 170.527 28.8182 170.724 28.8182C170.872 28.8182 170.993 28.8106 171.088 28.7955C171.183 28.7765 171.259 28.7614 171.315 28.75L171.588 29.9545C171.497 29.9886 171.37 30.0227 171.207 30.0568C171.045 30.0947 170.838 30.1136 170.588 30.1136C170.209 30.1136 169.838 30.0322 169.474 29.8693C169.115 29.7064 168.815 29.4583 168.577 29.125C168.342 28.7917 168.224 28.3712 168.224 27.8636V19.1818Z" fill="white"/>
</svg>
