<svg width="537" height="167" viewBox="0 0 537 167" fill="none" xmlns="http://www.w3.org/2000/svg">
<path d="M2.64205 38V3.09091H17.0625C19.6761 3.09091 21.9318 3.60227 23.8295 4.625C25.7386 5.63636 27.2102 7.05113 28.2443 8.86932C29.2784 10.6761 29.7955 12.7784 29.7955 15.1761C29.7955 17.5852 29.267 19.6932 28.2102 21.5C27.1648 23.2955 25.6705 24.6875 23.7273 25.6761C21.7841 26.6648 19.4773 27.1591 16.8068 27.1591H7.90909V20.5114H15.2386C16.5114 20.5114 17.5739 20.2898 18.4261 19.8466C19.2898 19.4034 19.9432 18.7841 20.3864 17.9886C20.8295 17.1818 21.0511 16.2443 21.0511 15.1761C21.0511 14.0966 20.8295 13.1648 20.3864 12.3807C19.9432 11.5852 19.2898 10.9716 18.4261 10.5398C17.5625 10.108 16.5 9.89205 15.2386 9.89205H11.0795V38H2.64205ZM40.3977 38.4432C38.7273 38.4432 37.2443 38.1648 35.9489 37.608C34.6648 37.0398 33.6477 36.1875 32.8977 35.0511C32.1591 33.9034 31.7898 32.4659 31.7898 30.7386C31.7898 29.2841 32.0455 28.0568 32.5568 27.0568C33.0682 26.0568 33.7727 25.2443 34.6705 24.6193C35.5682 23.9943 36.6023 23.5227 37.7727 23.2045C38.9432 22.875 40.1932 22.6534 41.5227 22.5398C43.0114 22.4034 44.2102 22.2614 45.1193 22.1136C46.0284 21.9545 46.6875 21.733 47.0966 21.4489C47.517 21.1534 47.7273 20.7386 47.7273 20.2045V20.1193C47.7273 19.2443 47.4261 18.5682 46.8239 18.0909C46.2216 17.6136 45.4091 17.375 44.3864 17.375C43.2841 17.375 42.3977 17.6136 41.7273 18.0909C41.0568 18.5682 40.6307 19.2273 40.4489 20.0682L32.7614 19.7955C32.9886 18.2045 33.5739 16.7841 34.517 15.5341C35.4716 14.2727 36.7784 13.2841 38.4375 12.5682C40.108 11.8409 42.1136 11.4773 44.4545 11.4773C46.125 11.4773 47.6648 11.6761 49.0739 12.0739C50.483 12.4602 51.7102 13.0284 52.7557 13.7784C53.8011 14.517 54.608 15.4261 55.1761 16.5057C55.7557 17.5852 56.0455 18.8182 56.0455 20.2045V38H48.2045V34.3523H48C47.5341 35.2386 46.9375 35.9886 46.2102 36.6023C45.4943 37.2159 44.6477 37.6761 43.6705 37.983C42.7045 38.2898 41.6136 38.4432 40.3977 38.4432ZM42.9716 32.9886C43.8693 32.9886 44.6761 32.8068 45.392 32.4432C46.1193 32.0795 46.6989 31.5795 47.1307 30.9432C47.5625 30.2955 47.7784 29.5455 47.7784 28.6932V26.2045C47.5398 26.3295 47.25 26.4432 46.9091 26.5455C46.5795 26.6477 46.2159 26.7443 45.8182 26.8352C45.4205 26.9261 45.0114 27.0057 44.5909 27.0739C44.1705 27.142 43.767 27.2045 43.3807 27.2614C42.5966 27.3864 41.9261 27.5795 41.3693 27.8409C40.8239 28.1023 40.4034 28.4432 40.108 28.8636C39.8239 29.2727 39.6818 29.7614 39.6818 30.3295C39.6818 31.1932 39.9886 31.8523 40.6023 32.3068C41.2273 32.7614 42.017 32.9886 42.9716 32.9886ZM61.142 38V11.8182H69.2386V16.5909H69.5114C69.9886 14.8636 70.767 13.5795 71.8466 12.7386C72.9261 11.8864 74.1818 11.4602 75.6136 11.4602C76 11.4602 76.3977 11.4886 76.8068 11.5455C77.2159 11.5909 77.5966 11.6648 77.9489 11.767V19.0114C77.5511 18.875 77.0284 18.767 76.3807 18.6875C75.7443 18.608 75.1761 18.5682 74.6761 18.5682C73.6875 18.5682 72.7955 18.7898 72 19.233C71.2159 19.6648 70.5966 20.2727 70.142 21.0568C69.6989 21.8295 69.4773 22.7386 69.4773 23.7841V38H61.142ZM87.7415 38.4432C86.071 38.4432 84.5881 38.1648 83.2926 37.608C82.0085 37.0398 80.9915 36.1875 80.2415 35.0511C79.5028 33.9034 79.1335 32.4659 79.1335 30.7386C79.1335 29.2841 79.3892 28.0568 79.9006 27.0568C80.4119 26.0568 81.1165 25.2443 82.0142 24.6193C82.9119 23.9943 83.946 23.5227 85.1165 23.2045C86.2869 22.875 87.5369 22.6534 88.8665 22.5398C90.3551 22.4034 91.554 22.2614 92.4631 22.1136C93.3722 21.9545 94.0313 21.733 94.4403 21.4489C94.8608 21.1534 95.071 20.7386 95.071 20.2045V20.1193C95.071 19.2443 94.7699 18.5682 94.1676 18.0909C93.5653 17.6136 92.7528 17.375 91.7301 17.375C90.6278 17.375 89.7415 17.6136 89.071 18.0909C88.4006 18.5682 87.9744 19.2273 87.7926 20.0682L80.1051 19.7955C80.3324 18.2045 80.9176 16.7841 81.8608 15.5341C82.8153 14.2727 84.1222 13.2841 85.7812 12.5682C87.4517 11.8409 89.4574 11.4773 91.7983 11.4773C93.4688 11.4773 95.0085 11.6761 96.4176 12.0739C97.8267 12.4602 99.054 13.0284 100.099 13.7784C101.145 14.517 101.952 15.4261 102.52 16.5057C103.099 17.5852 103.389 18.8182 103.389 20.2045V38H95.5483V34.3523H95.3438C94.8778 35.2386 94.2813 35.9886 93.554 36.6023C92.8381 37.2159 91.9915 37.6761 91.0142 37.983C90.0483 38.2898 88.9574 38.4432 87.7415 38.4432ZM90.3153 32.9886C91.2131 32.9886 92.0199 32.8068 92.7358 32.4432C93.4631 32.0795 94.0426 31.5795 94.4744 30.9432C94.9063 30.2955 95.1222 29.5455 95.1222 28.6932V26.2045C94.8835 26.3295 94.5938 26.4432 94.2528 26.5455C93.9233 26.6477 93.5597 26.7443 93.1619 26.8352C92.7642 26.9261 92.3551 27.0057 91.9347 27.0739C91.5142 27.142 91.1108 27.2045 90.7244 27.2614C89.9403 27.3864 89.2699 27.5795 88.7131 27.8409C88.1676 28.1023 87.7472 28.4432 87.4517 28.8636C87.1676 29.2727 87.0256 29.7614 87.0256 30.3295C87.0256 31.1932 87.3324 31.8523 87.946 32.3068C88.571 32.7614 89.3608 32.9886 90.3153 32.9886ZM108.486 38V3.09091H116.821V16.3011H116.991C117.332 15.5057 117.815 14.7386 118.44 14C119.077 13.2614 119.884 12.6591 120.861 12.1932C121.849 11.7159 123.031 11.4773 124.406 11.4773C126.224 11.4773 127.923 11.9545 129.503 12.9091C131.094 13.8636 132.378 15.3352 133.355 17.3239C134.332 19.3125 134.821 21.8466 134.821 24.9261C134.821 27.892 134.349 30.375 133.406 32.375C132.474 34.375 131.213 35.875 129.622 36.875C128.043 37.875 126.287 38.375 124.355 38.375C123.037 38.375 121.895 38.1591 120.929 37.7273C119.963 37.2955 119.151 36.7273 118.491 36.0227C117.844 35.3182 117.344 34.5625 116.991 33.7557H116.736V38H108.486ZM116.651 24.9091C116.651 26.3182 116.838 27.5455 117.213 28.5909C117.599 29.6364 118.151 30.4489 118.866 31.0284C119.594 31.5966 120.463 31.8807 121.474 31.8807C122.497 31.8807 123.366 31.5966 124.082 31.0284C124.798 30.4489 125.338 29.6364 125.702 28.5909C126.077 27.5455 126.264 26.3182 126.264 24.9091C126.264 23.5 126.077 22.2784 125.702 21.2443C125.338 20.2102 124.798 19.4091 124.082 18.8409C123.378 18.2727 122.509 17.9886 121.474 17.9886C120.452 17.9886 119.582 18.267 118.866 18.8239C118.151 19.3807 117.599 20.1761 117.213 21.2102C116.838 22.2443 116.651 23.4773 116.651 24.9091ZM151.428 38.4943C148.689 38.4943 146.325 37.9545 144.337 36.875C142.359 35.7841 140.837 34.233 139.768 32.2216C138.712 30.1989 138.183 27.7955 138.183 25.0114C138.183 22.3068 138.717 19.9432 139.786 17.9205C140.854 15.8864 142.359 14.3068 144.303 13.1818C146.246 12.0455 148.536 11.4773 151.172 11.4773C153.036 11.4773 154.74 11.767 156.286 12.3466C157.831 12.9261 159.166 13.7841 160.291 14.9205C161.416 16.0568 162.291 17.4602 162.916 19.1307C163.541 20.7898 163.854 22.6932 163.854 24.8409V26.9205H141.098V22.0795H156.098C156.087 21.1932 155.876 20.4034 155.467 19.7102C155.058 19.017 154.496 18.4773 153.78 18.0909C153.075 17.6932 152.263 17.4943 151.342 17.4943C150.411 17.4943 149.575 17.7045 148.837 18.125C148.098 18.5341 147.513 19.0966 147.081 19.8125C146.649 20.517 146.422 21.3182 146.399 22.2159V27.142C146.399 28.2102 146.609 29.1477 147.03 29.9545C147.45 30.75 148.047 31.3693 148.82 31.8125C149.592 32.2557 150.513 32.4773 151.581 32.4773C152.32 32.4773 152.99 32.375 153.592 32.1705C154.195 31.9659 154.712 31.6648 155.143 31.267C155.575 30.8693 155.899 30.3807 156.115 29.8011L163.768 30.0227C163.45 31.7386 162.751 33.233 161.672 34.5057C160.604 35.767 159.2 36.75 157.462 37.4545C155.723 38.1477 153.712 38.4943 151.428 38.4943ZM148.155 8.49432L151.598 0.806816H158.979L153.831 8.49432H148.155ZM176.446 23.0682V38H168.111V11.8182H176.037V16.625H176.327C176.906 15.0227 177.895 13.767 179.293 12.858C180.69 11.9375 182.355 11.4773 184.287 11.4773C186.128 11.4773 187.724 11.892 189.077 12.7216C190.44 13.5398 191.497 14.6875 192.247 16.1648C193.009 17.6307 193.384 19.3466 193.372 21.3125V38H185.037V22.9489C185.048 21.4943 184.679 20.358 183.929 19.5398C183.19 18.7216 182.162 18.3125 180.844 18.3125C179.969 18.3125 179.196 18.5057 178.526 18.892C177.866 19.267 177.355 19.8068 176.991 20.5114C176.639 21.2159 176.457 22.0682 176.446 23.0682ZM221.391 19.8125L213.737 20.017C213.658 19.4716 213.442 18.9886 213.089 18.5682C212.737 18.1364 212.277 17.8011 211.709 17.5625C211.152 17.3125 210.504 17.1875 209.766 17.1875C208.8 17.1875 207.976 17.3807 207.294 17.767C206.624 18.1534 206.294 18.6761 206.305 19.3352C206.294 19.8466 206.499 20.2898 206.919 20.6648C207.351 21.0398 208.118 21.3409 209.22 21.5682L214.266 22.5227C216.879 23.0227 218.822 23.8523 220.095 25.0114C221.379 26.1705 222.027 27.7045 222.038 29.6136C222.027 31.4091 221.493 32.9716 220.436 34.3011C219.391 35.6307 217.959 36.6648 216.141 37.4034C214.322 38.1307 212.243 38.4943 209.902 38.4943C206.163 38.4943 203.214 37.7273 201.055 36.1932C198.908 34.6477 197.68 32.5795 197.374 29.9886L205.607 29.7841C205.788 30.7386 206.26 31.4659 207.021 31.9659C207.783 32.4659 208.754 32.7159 209.936 32.7159C211.004 32.7159 211.874 32.517 212.544 32.1193C213.214 31.7216 213.555 31.1932 213.567 30.5341C213.555 29.9432 213.294 29.4716 212.783 29.1193C212.271 28.7557 211.47 28.4716 210.379 28.267L205.811 27.3977C203.186 26.9205 201.232 26.0398 199.947 24.7557C198.663 23.4602 198.027 21.8125 198.038 19.8125C198.027 18.0625 198.493 16.5682 199.436 15.3295C200.379 14.0795 201.72 13.125 203.459 12.4659C205.197 11.8068 207.249 11.4773 209.612 11.4773C213.158 11.4773 215.953 12.2216 217.999 13.7102C220.044 15.1875 221.175 17.2216 221.391 19.8125ZM234.648 33.2273L234.494 35.1193C234.358 36.6875 234.08 38.2159 233.659 39.7045C233.25 41.2045 232.813 42.5511 232.347 43.7443C231.881 44.9375 231.511 45.8636 231.239 46.5227H225.989C226.17 45.8636 226.415 44.9375 226.722 43.7443C227.04 42.5511 227.335 41.2045 227.608 39.7045C227.881 38.2045 228.034 36.6818 228.068 35.1364L228.102 33.2273H234.648ZM256.538 38.4432C254.868 38.4432 253.385 38.1648 252.089 37.608C250.805 37.0398 249.788 36.1875 249.038 35.0511C248.3 33.9034 247.93 32.4659 247.93 30.7386C247.93 29.2841 248.186 28.0568 248.697 27.0568C249.209 26.0568 249.913 25.2443 250.811 24.6193C251.709 23.9943 252.743 23.5227 253.913 23.2045C255.084 22.875 256.334 22.6534 257.663 22.5398C259.152 22.4034 260.351 22.2614 261.26 22.1136C262.169 21.9545 262.828 21.733 263.237 21.4489C263.658 21.1534 263.868 20.7386 263.868 20.2045V20.1193C263.868 19.2443 263.567 18.5682 262.964 18.0909C262.362 17.6136 261.55 17.375 260.527 17.375C259.425 17.375 258.538 17.6136 257.868 18.0909C257.197 18.5682 256.771 19.2273 256.589 20.0682L248.902 19.7955C249.129 18.2045 249.714 16.7841 250.658 15.5341C251.612 14.2727 252.919 13.2841 254.578 12.5682C256.249 11.8409 258.254 11.4773 260.595 11.4773C262.266 11.4773 263.805 11.6761 265.214 12.0739C266.624 12.4602 267.851 13.0284 268.896 13.7784C269.942 14.517 270.749 15.4261 271.317 16.5057C271.896 17.5852 272.186 18.8182 272.186 20.2045V38H264.345V34.3523H264.141C263.675 35.2386 263.078 35.9886 262.351 36.6023C261.635 37.2159 260.788 37.6761 259.811 37.983C258.845 38.2898 257.754 38.4432 256.538 38.4432ZM259.112 32.9886C260.01 32.9886 260.817 32.8068 261.533 32.4432C262.26 32.0795 262.839 31.5795 263.271 30.9432C263.703 30.2955 263.919 29.5455 263.919 28.6932V26.2045C263.68 26.3295 263.391 26.4432 263.05 26.5455C262.72 26.6477 262.357 26.7443 261.959 26.8352C261.561 26.9261 261.152 27.0057 260.732 27.0739C260.311 27.142 259.908 27.2045 259.521 27.2614C258.737 27.3864 258.067 27.5795 257.51 27.8409C256.964 28.1023 256.544 28.4432 256.249 28.8636C255.964 29.2727 255.822 29.7614 255.822 30.3295C255.822 31.1932 256.129 31.8523 256.743 32.3068C257.368 32.7614 258.158 32.9886 259.112 32.9886ZM289.487 48.3636C286.999 48.3636 284.868 48.017 283.095 47.3239C281.322 46.6307 279.93 45.6818 278.919 44.4773C277.908 43.2727 277.3 41.9091 277.095 40.3864L284.987 39.9432C285.135 40.4773 285.408 40.9432 285.805 41.3409C286.214 41.7386 286.743 42.0455 287.391 42.2614C288.05 42.4773 288.822 42.5852 289.709 42.5852C291.107 42.5852 292.26 42.2443 293.169 41.5625C294.089 40.892 294.55 39.7159 294.55 38.0341V33.4318H294.26C293.93 34.2386 293.43 34.9602 292.76 35.5966C292.089 36.233 291.254 36.733 290.254 37.0966C289.266 37.4602 288.129 37.642 286.845 37.642C284.936 37.642 283.186 37.1989 281.595 36.3125C280.016 35.4148 278.749 34.0284 277.794 32.1534C276.851 30.267 276.379 27.8409 276.379 24.875C276.379 21.8182 276.868 19.3011 277.845 17.3239C278.822 15.3352 280.101 13.8636 281.68 12.9091C283.271 11.9545 284.982 11.4773 286.811 11.4773C288.186 11.4773 289.362 11.7159 290.339 12.1932C291.328 12.6591 292.141 13.2614 292.777 14C293.413 14.7386 293.896 15.5057 294.226 16.3011H294.464V11.8182H302.766V38.1023C302.766 40.3182 302.209 42.1875 301.095 43.7102C299.982 45.233 298.425 46.3864 296.425 47.1705C294.425 47.9659 292.112 48.3636 289.487 48.3636ZM289.743 31.5739C290.754 31.5739 291.618 31.3068 292.334 30.7727C293.05 30.2386 293.601 29.4716 293.987 28.4716C294.374 27.4716 294.567 26.2727 294.567 24.875C294.567 23.4545 294.374 22.233 293.987 21.2102C293.612 20.1761 293.061 19.3807 292.334 18.8239C291.618 18.267 290.754 17.9886 289.743 17.9886C288.709 17.9886 287.834 18.2727 287.118 18.8409C286.402 19.4091 285.857 20.2102 285.482 21.2443C285.118 22.267 284.936 23.4773 284.936 24.875C284.936 26.2727 285.124 27.4716 285.499 28.4716C285.874 29.4716 286.413 30.2386 287.118 30.7727C287.834 31.3068 288.709 31.5739 289.743 31.5739ZM320.301 38.4943C317.551 38.4943 315.188 37.9318 313.21 36.8068C311.244 35.6705 309.727 34.0909 308.659 32.0682C307.602 30.0341 307.074 27.6761 307.074 24.9943C307.074 22.3011 307.602 19.9432 308.659 17.9205C309.727 15.8864 311.244 14.3068 313.21 13.1818C315.188 12.0455 317.551 11.4773 320.301 11.4773C323.051 11.4773 325.409 12.0455 327.375 13.1818C329.352 14.3068 330.869 15.8864 331.926 17.9205C332.994 19.9432 333.528 22.3011 333.528 24.9943C333.528 27.6761 332.994 30.0341 331.926 32.0682C330.869 34.0909 329.352 35.6705 327.375 36.8068C325.409 37.9318 323.051 38.4943 320.301 38.4943ZM320.352 32.2045C321.352 32.2045 322.199 31.8977 322.892 31.2841C323.585 30.6705 324.114 29.8182 324.477 28.7273C324.852 27.6364 325.04 26.375 325.04 24.9432C325.04 23.4886 324.852 22.2159 324.477 21.125C324.114 20.0341 323.585 19.1818 322.892 18.5682C322.199 17.9545 321.352 17.6477 320.352 17.6477C319.318 17.6477 318.443 17.9545 317.727 18.5682C317.023 19.1818 316.483 20.0341 316.108 21.125C315.744 22.2159 315.562 23.4886 315.562 24.9432C315.562 26.375 315.744 27.6364 316.108 28.7273C316.483 29.8182 317.023 30.6705 317.727 31.2841C318.443 31.8977 319.318 32.2045 320.352 32.2045ZM337.798 38V11.8182H345.895V16.5909H346.168C346.645 14.8636 347.423 13.5795 348.503 12.7386C349.582 11.8864 350.838 11.4602 352.27 11.4602C352.656 11.4602 353.054 11.4886 353.463 11.5455C353.872 11.5909 354.253 11.6648 354.605 11.767V19.0114C354.207 18.875 353.685 18.767 353.037 18.6875C352.401 18.608 351.832 18.5682 351.332 18.5682C350.344 18.5682 349.452 18.7898 348.656 19.233C347.872 19.6648 347.253 20.2727 346.798 21.0568C346.355 21.8295 346.134 22.7386 346.134 23.7841V38H337.798ZM364.398 38.4432C362.727 38.4432 361.244 38.1648 359.949 37.608C358.665 37.0398 357.648 36.1875 356.898 35.0511C356.159 33.9034 355.79 32.4659 355.79 30.7386C355.79 29.2841 356.045 28.0568 356.557 27.0568C357.068 26.0568 357.773 25.2443 358.67 24.6193C359.568 23.9943 360.602 23.5227 361.773 23.2045C362.943 22.875 364.193 22.6534 365.523 22.5398C367.011 22.4034 368.21 22.2614 369.119 22.1136C370.028 21.9545 370.688 21.733 371.097 21.4489C371.517 21.1534 371.727 20.7386 371.727 20.2045V20.1193C371.727 19.2443 371.426 18.5682 370.824 18.0909C370.222 17.6136 369.409 17.375 368.386 17.375C367.284 17.375 366.398 17.6136 365.727 18.0909C365.057 18.5682 364.631 19.2273 364.449 20.0682L356.761 19.7955C356.989 18.2045 357.574 16.7841 358.517 15.5341C359.472 14.2727 360.778 13.2841 362.438 12.5682C364.108 11.8409 366.114 11.4773 368.455 11.4773C370.125 11.4773 371.665 11.6761 373.074 12.0739C374.483 12.4602 375.71 13.0284 376.756 13.7784C377.801 14.517 378.608 15.4261 379.176 16.5057C379.756 17.5852 380.045 18.8182 380.045 20.2045V38H372.205V34.3523H372C371.534 35.2386 370.938 35.9886 370.21 36.6023C369.494 37.2159 368.648 37.6761 367.67 37.983C366.705 38.2898 365.614 38.4432 364.398 38.4432ZM366.972 32.9886C367.869 32.9886 368.676 32.8068 369.392 32.4432C370.119 32.0795 370.699 31.5795 371.131 30.9432C371.563 30.2955 371.778 29.5455 371.778 28.6932V26.2045C371.54 26.3295 371.25 26.4432 370.909 26.5455C370.58 26.6477 370.216 26.7443 369.818 26.8352C369.42 26.9261 369.011 27.0057 368.591 27.0739C368.17 27.142 367.767 27.2045 367.381 27.2614C366.597 27.3864 365.926 27.5795 365.369 27.8409C364.824 28.1023 364.403 28.4432 364.108 28.8636C363.824 29.2727 363.682 29.7614 363.682 30.3295C363.682 31.1932 363.989 31.8523 364.602 32.3068C365.227 32.7614 366.017 32.9886 366.972 32.9886ZM420.852 11.8182L411.869 38H402.324L393.358 11.8182H402.136L406.96 29.8523H407.233L412.074 11.8182H420.852ZM435.426 38.4943C432.676 38.4943 430.313 37.9318 428.335 36.8068C426.369 35.6705 424.852 34.0909 423.784 32.0682C422.727 30.0341 422.199 27.6761 422.199 24.9943C422.199 22.3011 422.727 19.9432 423.784 17.9205C424.852 15.8864 426.369 14.3068 428.335 13.1818C430.313 12.0455 432.676 11.4773 435.426 11.4773C438.176 11.4773 440.534 12.0455 442.5 13.1818C444.477 14.3068 445.994 15.8864 447.051 17.9205C448.119 19.9432 448.653 22.3011 448.653 24.9943C448.653 27.6761 448.119 30.0341 447.051 32.0682C445.994 34.0909 444.477 35.6705 442.5 36.8068C440.534 37.9318 438.176 38.4943 435.426 38.4943ZM435.477 32.2045C436.477 32.2045 437.324 31.8977 438.017 31.2841C438.71 30.6705 439.239 29.8182 439.602 28.7273C439.977 27.6364 440.165 26.375 440.165 24.9432C440.165 23.4886 439.977 22.2159 439.602 21.125C439.239 20.0341 438.71 19.1818 438.017 18.5682C437.324 17.9545 436.477 17.6477 435.477 17.6477C434.443 17.6477 433.568 17.9545 432.852 18.5682C432.148 19.1818 431.608 20.0341 431.233 21.125C430.869 22.2159 430.688 23.4886 430.688 24.9432C430.688 26.375 430.869 27.6364 431.233 28.7273C431.608 29.8182 432.148 30.6705 432.852 31.2841C433.568 31.8977 434.443 32.2045 435.477 32.2045ZM465.145 38.4943C462.384 38.4943 460.014 37.9261 458.037 36.7898C456.071 35.6534 454.56 34.0739 453.503 32.0511C452.446 30.017 451.918 27.6648 451.918 24.9943C451.918 22.3125 452.446 19.9602 453.503 17.9375C454.571 15.9034 456.088 14.3182 458.054 13.1818C460.031 12.0455 462.389 11.4773 465.128 11.4773C467.548 11.4773 469.656 11.9148 471.452 12.7898C473.259 13.6648 474.668 14.9034 475.679 16.5057C476.702 18.0966 477.241 19.9659 477.298 22.1136H469.509C469.349 20.7727 468.895 19.7216 468.145 18.9602C467.406 18.1989 466.44 17.8182 465.247 17.8182C464.281 17.8182 463.435 18.0909 462.707 18.6364C461.98 19.1705 461.412 19.9659 461.003 21.0227C460.605 22.0682 460.406 23.3636 460.406 24.9091C460.406 26.4545 460.605 27.7614 461.003 28.8295C461.412 29.8864 461.98 30.6875 462.707 31.233C463.435 31.767 464.281 32.0341 465.247 32.0341C466.02 32.0341 466.702 31.8693 467.293 31.5398C467.895 31.2102 468.389 30.7273 468.776 30.0909C469.162 29.4432 469.406 28.6591 469.509 27.7386H477.298C477.219 29.8977 476.679 31.7841 475.679 33.3977C474.69 35.0114 473.298 36.267 471.503 37.1648C469.719 38.0511 467.599 38.4943 465.145 38.4943ZM493.803 38.4943C491.064 38.4943 488.7 37.9545 486.712 36.875C484.734 35.7841 483.212 34.233 482.143 32.2216C481.087 30.1989 480.558 27.7955 480.558 25.0114C480.558 22.3068 481.092 19.9432 482.161 17.9205C483.229 15.8864 484.734 14.3068 486.678 13.1818C488.621 12.0455 490.911 11.4773 493.547 11.4773C495.411 11.4773 497.115 11.767 498.661 12.3466C500.206 12.9261 501.541 13.7841 502.666 14.9205C503.791 16.0568 504.666 17.4602 505.291 19.1307C505.916 20.7898 506.229 22.6932 506.229 24.8409V26.9205H483.473V22.0795H498.473C498.462 21.1932 498.251 20.4034 497.842 19.7102C497.433 19.017 496.871 18.4773 496.155 18.0909C495.45 17.6932 494.638 17.4943 493.717 17.4943C492.786 17.4943 491.95 17.7045 491.212 18.125C490.473 18.5341 489.888 19.0966 489.456 19.8125C489.024 20.517 488.797 21.3182 488.774 22.2159V27.142C488.774 28.2102 488.984 29.1477 489.405 29.9545C489.825 30.75 490.422 31.3693 491.195 31.8125C491.967 32.2557 492.888 32.4773 493.956 32.4773C494.695 32.4773 495.365 32.375 495.967 32.1705C496.57 31.9659 497.087 31.6648 497.518 31.267C497.95 30.8693 498.274 30.3807 498.49 29.8011L506.143 30.0227C505.825 31.7386 505.126 33.233 504.047 34.5057C502.979 35.767 501.575 36.75 499.837 37.4545C498.098 38.1477 496.087 38.4943 493.803 38.4943ZM496.786 8.68182L493.393 4.72727L490.018 8.68182H483.03V8.46023L490.411 0.823862H496.393L503.757 8.46023V8.68182H496.786ZM14.8807 95.4943C12.142 95.4943 9.77841 94.9545 7.78977 93.875C5.8125 92.7841 4.28977 91.233 3.22159 89.2216C2.16477 87.1989 1.63636 84.7955 1.63636 82.0114C1.63636 79.3068 2.17045 76.9432 3.23864 74.9205C4.30682 72.8864 5.8125 71.3068 7.75568 70.1818C9.69886 69.0455 11.9886 68.4773 14.625 68.4773C16.4886 68.4773 18.1932 68.767 19.7386 69.3466C21.2841 69.9261 22.6193 70.7841 23.7443 71.9205C24.8693 73.0568 25.7443 74.4602 26.3693 76.1307C26.9943 77.7898 27.3068 79.6932 27.3068 81.8409V83.9205H4.55114V79.0795H19.5511C19.5398 78.1932 19.3295 77.4034 18.9205 76.7102C18.5114 76.017 17.9489 75.4773 17.233 75.0909C16.5284 74.6932 15.7159 74.4943 14.7955 74.4943C13.8636 74.4943 13.0284 74.7045 12.2898 75.125C11.5511 75.5341 10.9659 76.0966 10.5341 76.8125C10.1023 77.517 9.875 78.3182 9.85227 79.2159V84.142C9.85227 85.2102 10.0625 86.1477 10.483 86.9545C10.9034 87.75 11.5 88.3693 12.2727 88.8125C13.0455 89.2557 13.9659 89.4773 15.0341 89.4773C15.7727 89.4773 16.4432 89.375 17.0455 89.1705C17.6477 88.9659 18.1648 88.6648 18.5966 88.267C19.0284 87.8693 19.3523 87.3807 19.5682 86.8011L27.2216 87.0227C26.9034 88.7386 26.2045 90.233 25.125 91.5057C24.0568 92.767 22.6534 93.75 20.9148 94.4545C19.1761 95.1477 17.1648 95.4943 14.8807 95.4943ZM11.608 65.4943L15.0511 57.8068H22.4318L17.2841 65.4943H11.608ZM58.7685 83.6989V68.8182H67.0866V95H59.1435V90.125H58.8707C58.2912 91.7273 57.3026 93 55.9048 93.9432C54.5185 94.875 52.8423 95.3409 50.8764 95.3409C49.0923 95.3409 47.5241 94.9318 46.1719 94.1136C44.8196 93.2955 43.7685 92.1534 43.0185 90.6875C42.2685 89.2102 41.8878 87.483 41.8764 85.5057V68.8182H50.2116V83.8693C50.223 85.2898 50.598 86.4091 51.3366 87.2273C52.0753 88.0455 53.081 88.4545 54.3537 88.4545C55.1832 88.4545 55.9276 88.2727 56.5866 87.9091C57.2571 87.5341 57.7855 86.9943 58.1719 86.2898C58.5696 85.5739 58.7685 84.7102 58.7685 83.6989ZM72.392 95V68.8182H80.3182V73.625H80.608C81.1534 72.0341 82.0739 70.7784 83.3693 69.858C84.6648 68.9375 86.2102 68.4773 88.0057 68.4773C89.8239 68.4773 91.3807 68.9432 92.6761 69.875C93.9716 70.8068 94.7955 72.0568 95.1477 73.625H95.4205C95.9091 72.0682 96.8636 70.8239 98.2841 69.892C99.7045 68.9489 101.381 68.4773 103.312 68.4773C105.79 68.4773 107.801 69.2727 109.347 70.8636C110.892 72.4432 111.665 74.6136 111.665 77.375V95H103.33V79.2841C103.33 77.9773 102.994 76.983 102.324 76.3011C101.653 75.608 100.784 75.2614 99.7159 75.2614C98.5682 75.2614 97.6648 75.6364 97.0057 76.3864C96.358 77.125 96.0341 78.1193 96.0341 79.3693V95H88.0227V79.1989C88.0227 77.983 87.6932 77.0227 87.0341 76.3182C86.375 75.6136 85.5057 75.2614 84.4261 75.2614C83.6989 75.2614 83.0568 75.4375 82.5 75.7898C81.9432 76.1307 81.5057 76.6193 81.1875 77.2557C80.8807 77.892 80.7273 78.642 80.7273 79.5057V95H72.392Z" fill="white"/>
<path d="M141.324 60.0909H149.642V84.2273C149.631 86.4886 149.091 88.4659 148.023 90.1591C146.955 91.8409 145.477 93.1477 143.591 94.0795C141.716 95.0114 139.545 95.4773 137.08 95.4773C134.898 95.4773 132.915 95.0966 131.131 94.3352C129.358 93.5739 127.943 92.392 126.886 90.7898C125.841 89.1875 125.324 87.1364 125.335 84.6364H133.739C133.773 85.5341 133.943 86.3011 134.25 86.9375C134.568 87.5625 135.006 88.0341 135.562 88.3523C136.119 88.6705 136.784 88.8295 137.557 88.8295C138.364 88.8295 139.045 88.6591 139.602 88.3182C140.159 87.9659 140.58 87.4489 140.864 86.767C141.159 86.0852 141.313 85.2386 141.324 84.2273V60.0909ZM167.161 95.4943C164.411 95.4943 162.047 94.9318 160.07 93.8068C158.104 92.6705 156.587 91.0909 155.518 89.0682C154.462 87.0341 153.933 84.6761 153.933 81.9943C153.933 79.3011 154.462 76.9432 155.518 74.9205C156.587 72.8864 158.104 71.3068 160.07 70.1818C162.047 69.0455 164.411 68.4773 167.161 68.4773C169.911 68.4773 172.268 69.0455 174.234 70.1818C176.212 71.3068 177.729 72.8864 178.786 74.9205C179.854 76.9432 180.388 79.3011 180.388 81.9943C180.388 84.6761 179.854 87.0341 178.786 89.0682C177.729 91.0909 176.212 92.6705 174.234 93.8068C172.268 94.9318 169.911 95.4943 167.161 95.4943ZM167.212 89.2045C168.212 89.2045 169.058 88.8977 169.751 88.2841C170.445 87.6705 170.973 86.8182 171.337 85.7273C171.712 84.6364 171.899 83.375 171.899 81.9432C171.899 80.4886 171.712 79.2159 171.337 78.125C170.973 77.0341 170.445 76.1818 169.751 75.5682C169.058 74.9545 168.212 74.6477 167.212 74.6477C166.178 74.6477 165.303 74.9545 164.587 75.5682C163.882 76.1818 163.342 77.0341 162.967 78.125C162.604 79.2159 162.422 80.4886 162.422 81.9432C162.422 83.375 162.604 84.6364 162.967 85.7273C163.342 86.8182 163.882 87.6705 164.587 88.2841C165.303 88.8977 166.178 89.2045 167.212 89.2045ZM196.862 105.364C194.374 105.364 192.243 105.017 190.47 104.324C188.697 103.631 187.305 102.682 186.294 101.477C185.283 100.273 184.675 98.9091 184.47 97.3864L192.362 96.9432C192.51 97.4773 192.783 97.9432 193.18 98.3409C193.589 98.7386 194.118 99.0455 194.766 99.2614C195.425 99.4773 196.197 99.5852 197.084 99.5852C198.482 99.5852 199.635 99.2443 200.544 98.5625C201.464 97.892 201.925 96.7159 201.925 95.0341V90.4318H201.635C201.305 91.2386 200.805 91.9602 200.135 92.5966C199.464 93.233 198.629 93.733 197.629 94.0966C196.641 94.4602 195.504 94.642 194.22 94.642C192.311 94.642 190.561 94.1989 188.97 93.3125C187.391 92.4148 186.124 91.0284 185.169 89.1534C184.226 87.267 183.754 84.8409 183.754 81.875C183.754 78.8182 184.243 76.3011 185.22 74.3239C186.197 72.3352 187.476 70.8636 189.055 69.9091C190.646 68.9545 192.357 68.4773 194.186 68.4773C195.561 68.4773 196.737 68.7159 197.714 69.1932C198.703 69.6591 199.516 70.2614 200.152 71C200.788 71.7386 201.271 72.5057 201.601 73.3011H201.839V68.8182H210.141V95.1023C210.141 97.3182 209.584 99.1875 208.47 100.71C207.357 102.233 205.8 103.386 203.8 104.17C201.8 104.966 199.487 105.364 196.862 105.364ZM197.118 88.5739C198.129 88.5739 198.993 88.3068 199.709 87.7727C200.425 87.2386 200.976 86.4716 201.362 85.4716C201.749 84.4716 201.942 83.2727 201.942 81.875C201.942 80.4545 201.749 79.233 201.362 78.2102C200.987 77.1761 200.436 76.3807 199.709 75.8239C198.993 75.267 198.129 74.9886 197.118 74.9886C196.084 74.9886 195.209 75.2727 194.493 75.8409C193.777 76.4091 193.232 77.2102 192.857 78.2443C192.493 79.267 192.311 80.4773 192.311 81.875C192.311 83.2727 192.499 84.4716 192.874 85.4716C193.249 86.4716 193.788 87.2386 194.493 87.7727C195.209 88.3068 196.084 88.5739 197.118 88.5739ZM222.835 95.4432C221.165 95.4432 219.682 95.1648 218.386 94.608C217.102 94.0398 216.085 93.1875 215.335 92.0511C214.597 90.9034 214.227 89.4659 214.227 87.7386C214.227 86.2841 214.483 85.0568 214.994 84.0568C215.506 83.0568 216.21 82.2443 217.108 81.6193C218.006 80.9943 219.04 80.5227 220.21 80.2045C221.381 79.875 222.631 79.6534 223.96 79.5398C225.449 79.4034 226.648 79.2614 227.557 79.1136C228.466 78.9545 229.125 78.733 229.534 78.4489C229.955 78.1534 230.165 77.7386 230.165 77.2045V77.1193C230.165 76.2443 229.864 75.5682 229.261 75.0909C228.659 74.6136 227.847 74.375 226.824 74.375C225.722 74.375 224.835 74.6136 224.165 75.0909C223.494 75.5682 223.068 76.2273 222.886 77.0682L215.199 76.7955C215.426 75.2045 216.011 73.7841 216.955 72.5341C217.909 71.2727 219.216 70.2841 220.875 69.5682C222.545 68.8409 224.551 68.4773 226.892 68.4773C228.563 68.4773 230.102 68.6761 231.511 69.0739C232.92 69.4602 234.148 70.0284 235.193 70.7784C236.239 71.517 237.045 72.4261 237.614 73.5057C238.193 74.5852 238.483 75.8182 238.483 77.2045V95H230.642V91.3523H230.438C229.972 92.2386 229.375 92.9886 228.648 93.6023C227.932 94.2159 227.085 94.6761 226.108 94.983C225.142 95.2898 224.051 95.4432 222.835 95.4432ZM225.409 89.9886C226.307 89.9886 227.114 89.8068 227.83 89.4432C228.557 89.0795 229.136 88.5795 229.568 87.9432C230 87.2955 230.216 86.5455 230.216 85.6932V83.2045C229.977 83.3295 229.688 83.4432 229.347 83.5455C229.017 83.6477 228.653 83.7443 228.256 83.8352C227.858 83.9261 227.449 84.0057 227.028 84.0739C226.608 84.142 226.205 84.2045 225.818 84.2614C225.034 84.3864 224.364 84.5795 223.807 84.8409C223.261 85.1023 222.841 85.4432 222.545 85.8636C222.261 86.2727 222.119 86.7614 222.119 87.3295C222.119 88.1932 222.426 88.8523 223.04 89.3068C223.665 89.7614 224.455 89.9886 225.409 89.9886ZM253.142 95.375C251.21 95.375 249.455 94.875 247.875 93.875C246.295 92.875 245.034 91.375 244.091 89.375C243.148 87.375 242.676 84.892 242.676 81.9261C242.676 78.8466 243.165 76.3125 244.142 74.3239C245.119 72.3352 246.398 70.8636 247.977 69.9091C249.568 68.9545 251.278 68.4773 253.108 68.4773C254.483 68.4773 255.659 68.7159 256.636 69.1932C257.614 69.6591 258.42 70.2614 259.057 71C259.693 71.7386 260.176 72.5057 260.506 73.3011H260.676V60.0909H269.011V95H260.761V90.7557H260.506C260.153 91.5625 259.653 92.3182 259.006 93.0227C258.358 93.7273 257.545 94.2955 256.568 94.7273C255.602 95.1591 254.46 95.375 253.142 95.375ZM256.04 88.8807C257.051 88.8807 257.915 88.5966 258.631 88.0284C259.347 87.4489 259.898 86.6364 260.284 85.5909C260.67 84.5455 260.864 83.3182 260.864 81.9091C260.864 80.4773 260.67 79.2443 260.284 78.2102C259.909 77.1761 259.358 76.3807 258.631 75.8239C257.915 75.267 257.051 74.9886 256.04 74.9886C255.006 74.9886 254.131 75.2727 253.415 75.8409C252.699 76.4091 252.153 77.2102 251.778 78.2443C251.415 79.2784 251.233 80.5 251.233 81.9091C251.233 83.3182 251.42 84.5455 251.795 85.5909C252.17 86.6364 252.71 87.4489 253.415 88.0284C254.131 88.5966 255.006 88.8807 256.04 88.8807ZM286.504 95.4943C283.754 95.4943 281.391 94.9318 279.413 93.8068C277.447 92.6705 275.93 91.0909 274.862 89.0682C273.805 87.0341 273.277 84.6761 273.277 81.9943C273.277 79.3011 273.805 76.9432 274.862 74.9205C275.93 72.8864 277.447 71.3068 279.413 70.1818C281.391 69.0455 283.754 68.4773 286.504 68.4773C289.254 68.4773 291.612 69.0455 293.578 70.1818C295.555 71.3068 297.072 72.8864 298.129 74.9205C299.197 76.9432 299.732 79.3011 299.732 81.9943C299.732 84.6761 299.197 87.0341 298.129 89.0682C297.072 91.0909 295.555 92.6705 293.578 93.8068C291.612 94.9318 289.254 95.4943 286.504 95.4943ZM286.555 89.2045C287.555 89.2045 288.402 88.8977 289.095 88.2841C289.788 87.6705 290.317 86.8182 290.68 85.7273C291.055 84.6364 291.243 83.375 291.243 81.9432C291.243 80.4886 291.055 79.2159 290.68 78.125C290.317 77.0341 289.788 76.1818 289.095 75.5682C288.402 74.9545 287.555 74.6477 286.555 74.6477C285.521 74.6477 284.646 74.9545 283.93 75.5682C283.226 76.1818 282.686 77.0341 282.311 78.125C281.947 79.2159 281.766 80.4886 281.766 81.9432C281.766 83.375 281.947 84.6364 282.311 85.7273C282.686 86.8182 283.226 87.6705 283.93 88.2841C284.646 88.8977 285.521 89.2045 286.555 89.2045ZM304.001 95V68.8182H312.098V73.5909H312.371C312.848 71.8636 313.626 70.5795 314.706 69.7386C315.786 68.8864 317.041 68.4602 318.473 68.4602C318.859 68.4602 319.257 68.4886 319.666 68.5455C320.075 68.5909 320.456 68.6648 320.808 68.767V76.0114C320.411 75.875 319.888 75.767 319.24 75.6875C318.604 75.608 318.036 75.5682 317.536 75.5682C316.547 75.5682 315.655 75.7898 314.859 76.233C314.075 76.6648 313.456 77.2727 313.001 78.0568C312.558 78.8295 312.337 79.7386 312.337 80.7841V95H304.001ZM334.517 95V60.0909H348.938C351.551 60.0909 353.807 60.5625 355.705 61.5057C357.614 62.4375 359.085 63.7784 360.119 65.5284C361.153 67.267 361.67 69.3295 361.67 71.7159C361.67 74.1364 361.142 76.1932 360.085 77.8864C359.028 79.5682 357.528 80.8523 355.585 81.7386C353.642 82.6136 351.341 83.0511 348.682 83.0511H339.562V76.4034H347.114C348.386 76.4034 349.449 76.2386 350.301 75.9091C351.165 75.5682 351.818 75.0568 352.261 74.375C352.705 73.6818 352.926 72.7955 352.926 71.7159C352.926 70.6364 352.705 69.7443 352.261 69.0398C351.818 68.3239 351.165 67.7898 350.301 67.4375C349.438 67.0739 348.375 66.892 347.114 66.892H342.955V95H334.517ZM354.17 79.0455L362.864 95H353.659L345.136 79.0455H354.17ZM373.679 95.4432C372.009 95.4432 370.526 95.1648 369.23 94.608C367.946 94.0398 366.929 93.1875 366.179 92.0511C365.44 90.9034 365.071 89.4659 365.071 87.7386C365.071 86.2841 365.327 85.0568 365.838 84.0568C366.349 83.0568 367.054 82.2443 367.952 81.6193C368.849 80.9943 369.884 80.5227 371.054 80.2045C372.224 79.875 373.474 79.6534 374.804 79.5398C376.293 79.4034 377.491 79.2614 378.401 79.1136C379.31 78.9545 379.969 78.733 380.378 78.4489C380.798 78.1534 381.009 77.7386 381.009 77.2045V77.1193C381.009 76.2443 380.707 75.5682 380.105 75.0909C379.503 74.6136 378.69 74.375 377.668 74.375C376.565 74.375 375.679 74.6136 375.009 75.0909C374.338 75.5682 373.912 76.2273 373.73 77.0682L366.043 76.7955C366.27 75.2045 366.855 73.7841 367.798 72.5341C368.753 71.2727 370.06 70.2841 371.719 69.5682C373.389 68.8409 375.395 68.4773 377.736 68.4773C379.406 68.4773 380.946 68.6761 382.355 69.0739C383.764 69.4602 384.991 70.0284 386.037 70.7784C387.082 71.517 387.889 72.4261 388.457 73.5057C389.037 74.5852 389.327 75.8182 389.327 77.2045V95H381.486V91.3523H381.281C380.815 92.2386 380.219 92.9886 379.491 93.6023C378.776 94.2159 377.929 94.6761 376.952 94.983C375.986 95.2898 374.895 95.4432 373.679 95.4432ZM376.253 89.9886C377.151 89.9886 377.957 89.8068 378.673 89.4432C379.401 89.0795 379.98 88.5795 380.412 87.9432C380.844 87.2955 381.06 86.5455 381.06 85.6932V83.2045C380.821 83.3295 380.531 83.4432 380.19 83.5455C379.861 83.6477 379.497 83.7443 379.099 83.8352C378.702 83.9261 378.293 84.0057 377.872 84.0739C377.452 84.142 377.048 84.2045 376.662 84.2614C375.878 84.3864 375.207 84.5795 374.651 84.8409C374.105 85.1023 373.685 85.4432 373.389 85.8636C373.105 86.2727 372.963 86.7614 372.963 87.3295C372.963 88.1932 373.27 88.8523 373.884 89.3068C374.509 89.7614 375.298 89.9886 376.253 89.9886ZM394.423 95V68.8182H402.759V95H394.423ZM398.599 65.767C397.429 65.767 396.423 65.3807 395.582 64.608C394.741 63.8239 394.321 62.8807 394.321 61.7784C394.321 60.6875 394.741 59.7557 395.582 58.983C396.423 58.1989 397.429 57.8068 398.599 57.8068C399.781 57.8068 400.787 58.1989 401.616 58.983C402.457 59.7557 402.878 60.6875 402.878 61.7784C402.878 62.8807 402.457 63.8239 401.616 64.608C400.787 65.3807 399.781 65.767 398.599 65.767ZM420.286 95.4943C417.536 95.4943 415.172 94.9318 413.195 93.8068C411.229 92.6705 409.712 91.0909 408.643 89.0682C407.587 87.0341 407.058 84.6761 407.058 81.9943C407.058 79.3011 407.587 76.9432 408.643 74.9205C409.712 72.8864 411.229 71.3068 413.195 70.1818C415.172 69.0455 417.536 68.4773 420.286 68.4773C423.036 68.4773 425.393 69.0455 427.359 70.1818C429.337 71.3068 430.854 72.8864 431.911 74.9205C432.979 76.9432 433.513 79.3011 433.513 81.9943C433.513 84.6761 432.979 87.0341 431.911 89.0682C430.854 91.0909 429.337 92.6705 427.359 93.8068C425.393 94.9318 423.036 95.4943 420.286 95.4943ZM420.337 89.2045C421.337 89.2045 422.183 88.8977 422.876 88.2841C423.57 87.6705 424.098 86.8182 424.462 85.7273C424.837 84.6364 425.024 83.375 425.024 81.9432C425.024 80.4886 424.837 79.2159 424.462 78.125C424.098 77.0341 423.57 76.1818 422.876 75.5682C422.183 74.9545 421.337 74.6477 420.337 74.6477C419.303 74.6477 418.428 74.9545 417.712 75.5682C417.007 76.1818 416.467 77.0341 416.092 78.125C415.729 79.2159 415.547 80.4886 415.547 81.9432C415.547 83.375 415.729 84.6364 416.092 85.7273C416.467 86.8182 417.007 87.6705 417.712 88.2841C418.428 88.8977 419.303 89.2045 420.337 89.2045ZM447.584 60.0909L446.8 84.3125H439.794L439.01 60.0909H447.584ZM443.288 95.4943C442.072 95.4943 441.027 95.0625 440.152 94.1989C439.288 93.3352 438.857 92.2898 438.857 91.0625C438.857 89.858 439.288 88.8295 440.152 87.9773C441.027 87.1136 442.072 86.6818 443.288 86.6818C444.459 86.6818 445.487 87.1136 446.374 87.9773C447.271 88.8295 447.72 89.858 447.72 91.0625C447.72 91.8807 447.51 92.625 447.089 93.2955C446.68 93.9659 446.141 94.5 445.47 94.8977C444.811 95.2955 444.084 95.4943 443.288 95.4943Z" fill="#E5C680"/>
<path d="M1.88636 134H0.409091L4.68182 122.364H6.13636L10.4091 134H8.93182L5.45455 124.205H5.36364L1.88636 134ZM2.43182 129.455H8.38636V130.705H2.43182V129.455ZM15.5852 134.182C14.767 134.182 14.0625 133.989 13.4716 133.602C12.8807 133.216 12.4261 132.684 12.108 132.006C11.7898 131.328 11.6307 130.553 11.6307 129.682C11.6307 128.795 11.7936 128.013 12.1193 127.335C12.4489 126.653 12.9072 126.121 13.4943 125.739C14.0852 125.352 14.7746 125.159 15.5625 125.159C16.1761 125.159 16.7292 125.273 17.2216 125.5C17.714 125.727 18.1174 126.045 18.4318 126.455C18.7462 126.864 18.9413 127.341 19.017 127.886H17.6761C17.5739 127.489 17.3466 127.136 16.9943 126.83C16.6458 126.519 16.1761 126.364 15.5852 126.364C15.0625 126.364 14.6042 126.5 14.2102 126.773C13.8201 127.042 13.5152 127.422 13.2955 127.915C13.0795 128.403 12.9716 128.977 12.9716 129.636C12.9716 130.311 13.0777 130.898 13.2898 131.398C13.5057 131.898 13.8087 132.286 14.1989 132.562C14.5928 132.839 15.0549 132.977 15.5852 132.977C15.9337 132.977 16.25 132.917 16.5341 132.795C16.8182 132.674 17.0587 132.5 17.2557 132.273C17.4527 132.045 17.5928 131.773 17.6761 131.455H19.017C18.9413 131.97 18.7538 132.434 18.4545 132.847C18.1591 133.256 17.767 133.581 17.2784 133.824C16.7936 134.062 16.2292 134.182 15.5852 134.182ZM24.6364 134.182C23.7955 134.182 23.0701 133.996 22.4602 133.625C21.8542 133.25 21.3864 132.727 21.0568 132.057C20.7311 131.383 20.5682 130.598 20.5682 129.705C20.5682 128.811 20.7311 128.023 21.0568 127.341C21.3864 126.655 21.8447 126.121 22.4318 125.739C23.0227 125.352 23.7121 125.159 24.5 125.159C24.9545 125.159 25.4034 125.235 25.8466 125.386C26.2898 125.538 26.6932 125.784 27.0568 126.125C27.4205 126.462 27.7102 126.909 27.9261 127.466C28.142 128.023 28.25 128.708 28.25 129.523V130.091H21.5227V128.932H26.8864C26.8864 128.439 26.7879 128 26.5909 127.614C26.3977 127.227 26.1212 126.922 25.7614 126.699C25.4053 126.475 24.9848 126.364 24.5 126.364C23.9659 126.364 23.5038 126.496 23.1136 126.761C22.7273 127.023 22.4299 127.364 22.2216 127.784C22.0133 128.205 21.9091 128.655 21.9091 129.136V129.909C21.9091 130.568 22.0227 131.127 22.25 131.585C22.4811 132.04 22.8011 132.386 23.2102 132.625C23.6193 132.86 24.0947 132.977 24.6364 132.977C24.9886 132.977 25.3068 132.928 25.5909 132.83C25.8788 132.727 26.1269 132.576 26.3352 132.375C26.5436 132.17 26.7045 131.917 26.8182 131.614L28.1136 131.977C27.9773 132.417 27.7481 132.803 27.4261 133.136C27.1042 133.466 26.7064 133.723 26.233 133.909C25.7595 134.091 25.2273 134.182 24.6364 134.182ZM36.4716 127.227L35.267 127.568C35.1913 127.367 35.0795 127.172 34.9318 126.983C34.7879 126.79 34.5909 126.631 34.3409 126.506C34.0909 126.381 33.7708 126.318 33.3807 126.318C32.8466 126.318 32.4015 126.441 32.0455 126.688C31.6932 126.93 31.517 127.239 31.517 127.614C31.517 127.947 31.6383 128.21 31.8807 128.403C32.1231 128.597 32.5019 128.758 33.017 128.886L34.3125 129.205C35.0928 129.394 35.6742 129.684 36.0568 130.074C36.4394 130.46 36.6307 130.958 36.6307 131.568C36.6307 132.068 36.4867 132.515 36.1989 132.909C35.9148 133.303 35.517 133.614 35.0057 133.841C34.4943 134.068 33.8996 134.182 33.2216 134.182C32.3314 134.182 31.5947 133.989 31.0114 133.602C30.428 133.216 30.0587 132.652 29.9034 131.909L31.1761 131.591C31.2973 132.061 31.5265 132.413 31.8636 132.648C32.2045 132.883 32.6496 133 33.1989 133C33.8239 133 34.3201 132.867 34.6875 132.602C35.0587 132.333 35.2443 132.011 35.2443 131.636C35.2443 131.333 35.1383 131.08 34.9261 130.875C34.714 130.667 34.3883 130.511 33.9489 130.409L32.4943 130.068C31.6951 129.879 31.108 129.585 30.733 129.188C30.3617 128.786 30.1761 128.284 30.1761 127.682C30.1761 127.189 30.3144 126.754 30.5909 126.375C30.8712 125.996 31.2519 125.699 31.733 125.483C32.2178 125.267 32.767 125.159 33.3807 125.159C34.2443 125.159 34.9223 125.348 35.4148 125.727C35.911 126.106 36.2633 126.606 36.4716 127.227ZM44.831 127.227L43.6264 127.568C43.5507 127.367 43.4389 127.172 43.2912 126.983C43.1473 126.79 42.9503 126.631 42.7003 126.506C42.4503 126.381 42.1302 126.318 41.7401 126.318C41.206 126.318 40.7609 126.441 40.4048 126.688C40.0526 126.93 39.8764 127.239 39.8764 127.614C39.8764 127.947 39.9976 128.21 40.2401 128.403C40.4825 128.597 40.8613 128.758 41.3764 128.886L42.6719 129.205C43.4522 129.394 44.0336 129.684 44.4162 130.074C44.7988 130.46 44.9901 130.958 44.9901 131.568C44.9901 132.068 44.8461 132.515 44.5582 132.909C44.2741 133.303 43.8764 133.614 43.3651 133.841C42.8537 134.068 42.259 134.182 41.581 134.182C40.6908 134.182 39.9541 133.989 39.3707 133.602C38.7874 133.216 38.4181 132.652 38.2628 131.909L39.5355 131.591C39.6567 132.061 39.8859 132.413 40.223 132.648C40.5639 132.883 41.009 133 41.5582 133C42.1832 133 42.6795 132.867 43.0469 132.602C43.4181 132.333 43.6037 132.011 43.6037 131.636C43.6037 131.333 43.4976 131.08 43.2855 130.875C43.0734 130.667 42.7476 130.511 42.3082 130.409L40.8537 130.068C40.0545 129.879 39.4673 129.585 39.0923 129.188C38.7211 128.786 38.5355 128.284 38.5355 127.682C38.5355 127.189 38.6738 126.754 38.9503 126.375C39.2306 125.996 39.6113 125.699 40.0923 125.483C40.5772 125.267 41.1264 125.159 41.7401 125.159C42.6037 125.159 43.2817 125.348 43.7741 125.727C44.2704 126.106 44.6226 126.606 44.831 127.227ZM50.6676 134.182C49.8267 134.182 49.1013 133.996 48.4915 133.625C47.8854 133.25 47.4176 132.727 47.0881 132.057C46.7623 131.383 46.5994 130.598 46.5994 129.705C46.5994 128.811 46.7623 128.023 47.0881 127.341C47.4176 126.655 47.8759 126.121 48.4631 125.739C49.054 125.352 49.7434 125.159 50.5312 125.159C50.9858 125.159 51.4347 125.235 51.8778 125.386C52.321 125.538 52.7244 125.784 53.0881 126.125C53.4517 126.462 53.7415 126.909 53.9574 127.466C54.1733 128.023 54.2812 128.708 54.2812 129.523V130.091H47.554V128.932H52.9176C52.9176 128.439 52.8191 128 52.6222 127.614C52.429 127.227 52.1525 126.922 51.7926 126.699C51.4366 126.475 51.0161 126.364 50.5312 126.364C49.9972 126.364 49.535 126.496 49.1449 126.761C48.7585 127.023 48.4612 127.364 48.2528 127.784C48.0445 128.205 47.9403 128.655 47.9403 129.136V129.909C47.9403 130.568 48.054 131.127 48.2812 131.585C48.5123 132.04 48.8324 132.386 49.2415 132.625C49.6506 132.86 50.1259 132.977 50.6676 132.977C51.0199 132.977 51.3381 132.928 51.6222 132.83C51.91 132.727 52.1581 132.576 52.3665 132.375C52.5748 132.17 52.7358 131.917 52.8494 131.614L54.1449 131.977C54.0085 132.417 53.7794 132.803 53.4574 133.136C53.1354 133.466 52.7377 133.723 52.2642 133.909C51.7907 134.091 51.2585 134.182 50.6676 134.182ZM60.821 137.273V125.273H62.1165V126.659H62.2756C62.3741 126.508 62.5104 126.314 62.6847 126.08C62.8627 125.841 63.1165 125.629 63.446 125.443C63.7794 125.254 64.2301 125.159 64.7983 125.159C65.5331 125.159 66.1809 125.343 66.7415 125.71C67.3021 126.078 67.7396 126.598 68.054 127.273C68.3684 127.947 68.5256 128.742 68.5256 129.659C68.5256 130.583 68.3684 131.384 68.054 132.062C67.7396 132.737 67.304 133.259 66.7472 133.631C66.1903 133.998 65.5483 134.182 64.821 134.182C64.2604 134.182 63.8116 134.089 63.4744 133.903C63.1373 133.714 62.8778 133.5 62.696 133.261C62.5142 133.019 62.3741 132.818 62.2756 132.659H62.1619V137.273H60.821ZM62.1392 129.636C62.1392 130.295 62.2358 130.877 62.429 131.381C62.6222 131.881 62.9044 132.273 63.2756 132.557C63.6468 132.837 64.1013 132.977 64.6392 132.977C65.1998 132.977 65.6676 132.83 66.0426 132.534C66.4214 132.235 66.7055 131.833 66.8949 131.33C67.0881 130.822 67.1847 130.258 67.1847 129.636C67.1847 129.023 67.09 128.47 66.9006 127.977C66.715 127.481 66.4328 127.089 66.054 126.801C65.679 126.509 65.2074 126.364 64.6392 126.364C64.0938 126.364 63.6354 126.502 63.2642 126.778C62.893 127.051 62.6127 127.434 62.4233 127.926C62.2339 128.415 62.1392 128.985 62.1392 129.636ZM73.1392 134.205C72.5862 134.205 72.0843 134.1 71.6335 133.892C71.1828 133.68 70.8248 133.375 70.5597 132.977C70.2945 132.576 70.1619 132.091 70.1619 131.523C70.1619 131.023 70.2604 130.617 70.4574 130.307C70.6544 129.992 70.9176 129.746 71.2472 129.568C71.5767 129.39 71.9403 129.258 72.3381 129.17C72.7396 129.08 73.143 129.008 73.5483 128.955C74.0786 128.886 74.5085 128.835 74.8381 128.801C75.1714 128.763 75.4138 128.701 75.5653 128.614C75.7206 128.527 75.7983 128.375 75.7983 128.159V128.114C75.7983 127.553 75.6449 127.117 75.3381 126.807C75.035 126.496 74.5748 126.341 73.9574 126.341C73.3172 126.341 72.8153 126.481 72.4517 126.761C72.0881 127.042 71.8324 127.341 71.6847 127.659L70.4119 127.205C70.6392 126.674 70.9422 126.261 71.321 125.966C71.7036 125.667 72.1203 125.458 72.571 125.341C73.0256 125.22 73.4725 125.159 73.9119 125.159C74.1922 125.159 74.5142 125.193 74.8778 125.261C75.2453 125.326 75.5994 125.46 75.9403 125.665C76.285 125.869 76.571 126.178 76.7983 126.591C77.0256 127.004 77.1392 127.557 77.1392 128.25V134H75.7983V132.818H75.7301C75.6392 133.008 75.4877 133.21 75.2756 133.426C75.0634 133.642 74.7813 133.826 74.429 133.977C74.0767 134.129 73.6468 134.205 73.1392 134.205ZM73.3438 133C73.8741 133 74.321 132.896 74.6847 132.688C75.0521 132.479 75.3286 132.21 75.5142 131.881C75.7036 131.551 75.7983 131.205 75.7983 130.841V129.614C75.7415 129.682 75.6165 129.744 75.4233 129.801C75.2339 129.854 75.0142 129.902 74.7642 129.943C74.518 129.981 74.2775 130.015 74.0426 130.045C73.8116 130.072 73.6241 130.095 73.4801 130.114C73.1316 130.159 72.8059 130.233 72.5028 130.335C72.2036 130.434 71.9612 130.583 71.7756 130.784C71.5938 130.981 71.5028 131.25 71.5028 131.591C71.5028 132.057 71.6752 132.409 72.0199 132.648C72.3684 132.883 72.8097 133 73.3438 133ZM79.5866 134V125.273H80.8821V126.591H80.973C81.1321 126.159 81.42 125.809 81.8366 125.54C82.2533 125.271 82.723 125.136 83.2457 125.136C83.3442 125.136 83.4673 125.138 83.6151 125.142C83.7628 125.146 83.8745 125.152 83.9503 125.159V126.523C83.9048 126.511 83.8007 126.494 83.6378 126.472C83.4787 126.445 83.3101 126.432 83.1321 126.432C82.7079 126.432 82.3291 126.521 81.9957 126.699C81.6662 126.873 81.4048 127.116 81.2116 127.426C81.0223 127.733 80.9276 128.083 80.9276 128.477V134H79.5866ZM88.108 134.205C87.5549 134.205 87.053 134.1 86.6023 133.892C86.1515 133.68 85.7936 133.375 85.5284 132.977C85.2633 132.576 85.1307 132.091 85.1307 131.523C85.1307 131.023 85.2292 130.617 85.4261 130.307C85.6231 129.992 85.8864 129.746 86.2159 129.568C86.5455 129.39 86.9091 129.258 87.3068 129.17C87.7083 129.08 88.1117 129.008 88.517 128.955C89.0473 128.886 89.4773 128.835 89.8068 128.801C90.1402 128.763 90.3826 128.701 90.5341 128.614C90.6894 128.527 90.767 128.375 90.767 128.159V128.114C90.767 127.553 90.6136 127.117 90.3068 126.807C90.0038 126.496 89.5436 126.341 88.9261 126.341C88.286 126.341 87.7841 126.481 87.4205 126.761C87.0568 127.042 86.8011 127.341 86.6534 127.659L85.3807 127.205C85.608 126.674 85.911 126.261 86.2898 125.966C86.6723 125.667 87.089 125.458 87.5398 125.341C87.9943 125.22 88.4413 125.159 88.8807 125.159C89.161 125.159 89.483 125.193 89.8466 125.261C90.214 125.326 90.5682 125.46 90.9091 125.665C91.2538 125.869 91.5398 126.178 91.767 126.591C91.9943 127.004 92.108 127.557 92.108 128.25V134H90.767V132.818H90.6989C90.608 133.008 90.4564 133.21 90.2443 133.426C90.0322 133.642 89.75 133.826 89.3977 133.977C89.0455 134.129 88.6155 134.205 88.108 134.205ZM88.3125 133C88.8428 133 89.2898 132.896 89.6534 132.688C90.0208 132.479 90.2973 132.21 90.483 131.881C90.6723 131.551 90.767 131.205 90.767 130.841V129.614C90.7102 129.682 90.5852 129.744 90.392 129.801C90.2027 129.854 89.983 129.902 89.733 129.943C89.4867 129.981 89.2462 130.015 89.0114 130.045C88.7803 130.072 88.5928 130.095 88.4489 130.114C88.1004 130.159 87.7746 130.233 87.4716 130.335C87.1723 130.434 86.9299 130.583 86.7443 130.784C86.5625 130.981 86.4716 131.25 86.4716 131.591C86.4716 132.057 86.6439 132.409 86.9886 132.648C87.3371 132.883 87.7784 133 88.3125 133ZM102.601 134.182C101.783 134.182 101.078 133.989 100.487 133.602C99.8963 133.216 99.4418 132.684 99.1236 132.006C98.8054 131.328 98.6463 130.553 98.6463 129.682C98.6463 128.795 98.8092 128.013 99.1349 127.335C99.4645 126.653 99.9228 126.121 100.51 125.739C101.101 125.352 101.79 125.159 102.578 125.159C103.192 125.159 103.745 125.273 104.237 125.5C104.73 125.727 105.133 126.045 105.447 126.455C105.762 126.864 105.957 127.341 106.033 127.886H104.692C104.589 127.489 104.362 127.136 104.01 126.83C103.661 126.519 103.192 126.364 102.601 126.364C102.078 126.364 101.62 126.5 101.226 126.773C100.836 127.042 100.531 127.422 100.311 127.915C100.095 128.403 99.9872 128.977 99.9872 129.636C99.9872 130.311 100.093 130.898 100.305 131.398C100.521 131.898 100.824 132.286 101.214 132.562C101.608 132.839 102.071 132.977 102.601 132.977C102.949 132.977 103.266 132.917 103.55 132.795C103.834 132.674 104.074 132.5 104.271 132.273C104.468 132.045 104.608 131.773 104.692 131.455H106.033C105.957 131.97 105.769 132.434 105.47 132.847C105.175 133.256 104.783 133.581 104.294 133.824C103.809 134.062 103.245 134.182 102.601 134.182ZM111.538 134.182C110.75 134.182 110.059 133.994 109.464 133.619C108.874 133.244 108.411 132.72 108.078 132.045C107.749 131.371 107.584 130.583 107.584 129.682C107.584 128.773 107.749 127.979 108.078 127.301C108.411 126.623 108.874 126.097 109.464 125.722C110.059 125.347 110.75 125.159 111.538 125.159C112.326 125.159 113.016 125.347 113.607 125.722C114.201 126.097 114.663 126.623 114.993 127.301C115.326 127.979 115.493 128.773 115.493 129.682C115.493 130.583 115.326 131.371 114.993 132.045C114.663 132.72 114.201 133.244 113.607 133.619C113.016 133.994 112.326 134.182 111.538 134.182ZM111.538 132.977C112.137 132.977 112.629 132.824 113.016 132.517C113.402 132.21 113.688 131.807 113.874 131.307C114.059 130.807 114.152 130.265 114.152 129.682C114.152 129.098 114.059 128.555 113.874 128.051C113.688 127.547 113.402 127.14 113.016 126.83C112.629 126.519 112.137 126.364 111.538 126.364C110.94 126.364 110.447 126.519 110.061 126.83C109.675 127.14 109.389 127.547 109.203 128.051C109.018 128.555 108.925 129.098 108.925 129.682C108.925 130.265 109.018 130.807 109.203 131.307C109.389 131.807 109.675 132.21 110.061 132.517C110.447 132.824 110.94 132.977 111.538 132.977ZM118.881 128.75V134H117.54V125.273H118.835V126.636H118.949C119.153 126.193 119.464 125.837 119.881 125.568C120.297 125.295 120.835 125.159 121.494 125.159C122.085 125.159 122.602 125.28 123.045 125.523C123.489 125.761 123.833 126.125 124.08 126.614C124.326 127.098 124.449 127.712 124.449 128.455V134H123.108V128.545C123.108 127.86 122.93 127.326 122.574 126.943C122.218 126.557 121.729 126.364 121.108 126.364C120.68 126.364 120.297 126.456 119.96 126.642C119.627 126.828 119.364 127.098 119.17 127.455C118.977 127.811 118.881 128.242 118.881 128.75ZM128.24 128.75V134H126.899V122.364H128.24V126.636H128.354C128.558 126.186 128.865 125.828 129.274 125.562C129.687 125.294 130.236 125.159 130.922 125.159C131.517 125.159 132.037 125.278 132.484 125.517C132.931 125.752 133.278 126.114 133.524 126.602C133.774 127.087 133.899 127.705 133.899 128.455V134H132.558V128.545C132.558 127.852 132.378 127.316 132.018 126.938C131.662 126.555 131.168 126.364 130.536 126.364C130.096 126.364 129.702 126.456 129.354 126.642C129.009 126.828 128.736 127.098 128.536 127.455C128.339 127.811 128.24 128.242 128.24 128.75ZM140.011 134.182C139.17 134.182 138.445 133.996 137.835 133.625C137.229 133.25 136.761 132.727 136.432 132.057C136.106 131.383 135.943 130.598 135.943 129.705C135.943 128.811 136.106 128.023 136.432 127.341C136.761 126.655 137.22 126.121 137.807 125.739C138.398 125.352 139.087 125.159 139.875 125.159C140.33 125.159 140.778 125.235 141.222 125.386C141.665 125.538 142.068 125.784 142.432 126.125C142.795 126.462 143.085 126.909 143.301 127.466C143.517 128.023 143.625 128.708 143.625 129.523V130.091H136.898V128.932H142.261C142.261 128.439 142.163 128 141.966 127.614C141.773 127.227 141.496 126.922 141.136 126.699C140.78 126.475 140.36 126.364 139.875 126.364C139.341 126.364 138.879 126.496 138.489 126.761C138.102 127.023 137.805 127.364 137.597 127.784C137.388 128.205 137.284 128.655 137.284 129.136V129.909C137.284 130.568 137.398 131.127 137.625 131.585C137.856 132.04 138.176 132.386 138.585 132.625C138.994 132.86 139.47 132.977 140.011 132.977C140.364 132.977 140.682 132.928 140.966 132.83C141.254 132.727 141.502 132.576 141.71 132.375C141.919 132.17 142.08 131.917 142.193 131.614L143.489 131.977C143.352 132.417 143.123 132.803 142.801 133.136C142.479 133.466 142.081 133.723 141.608 133.909C141.134 134.091 140.602 134.182 140.011 134.182ZM149.21 134.182C148.392 134.182 147.688 133.989 147.097 133.602C146.506 133.216 146.051 132.684 145.733 132.006C145.415 131.328 145.256 130.553 145.256 129.682C145.256 128.795 145.419 128.013 145.744 127.335C146.074 126.653 146.532 126.121 147.119 125.739C147.71 125.352 148.4 125.159 149.188 125.159C149.801 125.159 150.354 125.273 150.847 125.5C151.339 125.727 151.742 126.045 152.057 126.455C152.371 126.864 152.566 127.341 152.642 127.886H151.301C151.199 127.489 150.972 127.136 150.619 126.83C150.271 126.519 149.801 126.364 149.21 126.364C148.688 126.364 148.229 126.5 147.835 126.773C147.445 127.042 147.14 127.422 146.92 127.915C146.705 128.403 146.597 128.977 146.597 129.636C146.597 130.311 146.703 130.898 146.915 131.398C147.131 131.898 147.434 132.286 147.824 132.562C148.218 132.839 148.68 132.977 149.21 132.977C149.559 132.977 149.875 132.917 150.159 132.795C150.443 132.674 150.684 132.5 150.881 132.273C151.078 132.045 151.218 131.773 151.301 131.455H152.642C152.566 131.97 152.379 132.434 152.08 132.847C151.784 133.256 151.392 133.581 150.903 133.824C150.419 134.062 149.854 134.182 149.21 134.182ZM158.261 134.182C157.42 134.182 156.695 133.996 156.085 133.625C155.479 133.25 155.011 132.727 154.682 132.057C154.356 131.383 154.193 130.598 154.193 129.705C154.193 128.811 154.356 128.023 154.682 127.341C155.011 126.655 155.47 126.121 156.057 125.739C156.648 125.352 157.337 125.159 158.125 125.159C158.58 125.159 159.028 125.235 159.472 125.386C159.915 125.538 160.318 125.784 160.682 126.125C161.045 126.462 161.335 126.909 161.551 127.466C161.767 128.023 161.875 128.708 161.875 129.523V130.091H155.148V128.932H160.511C160.511 128.439 160.413 128 160.216 127.614C160.023 127.227 159.746 126.922 159.386 126.699C159.03 126.475 158.61 126.364 158.125 126.364C157.591 126.364 157.129 126.496 156.739 126.761C156.352 127.023 156.055 127.364 155.847 127.784C155.638 128.205 155.534 128.655 155.534 129.136V129.909C155.534 130.568 155.648 131.127 155.875 131.585C156.106 132.04 156.426 132.386 156.835 132.625C157.244 132.86 157.72 132.977 158.261 132.977C158.614 132.977 158.932 132.928 159.216 132.83C159.504 132.727 159.752 132.576 159.96 132.375C160.169 132.17 160.33 131.917 160.443 131.614L161.739 131.977C161.602 132.417 161.373 132.803 161.051 133.136C160.729 133.466 160.331 133.723 159.858 133.909C159.384 134.091 158.852 134.182 158.261 134.182ZM163.915 134V125.273H165.21V126.591H165.301C165.46 126.159 165.748 125.809 166.165 125.54C166.581 125.271 167.051 125.136 167.574 125.136C167.672 125.136 167.795 125.138 167.943 125.142C168.091 125.146 168.203 125.152 168.278 125.159V126.523C168.233 126.511 168.129 126.494 167.966 126.472C167.807 126.445 167.638 126.432 167.46 126.432C167.036 126.432 166.657 126.521 166.324 126.699C165.994 126.873 165.733 127.116 165.54 127.426C165.35 127.733 165.256 128.083 165.256 128.477V134H163.915ZM176.936 134.205C176.383 134.205 175.881 134.1 175.43 133.892C174.98 133.68 174.622 133.375 174.357 132.977C174.091 132.576 173.959 132.091 173.959 131.523C173.959 131.023 174.057 130.617 174.254 130.307C174.451 129.992 174.714 129.746 175.044 129.568C175.374 129.39 175.737 129.258 176.135 129.17C176.536 129.08 176.94 129.008 177.345 128.955C177.875 128.886 178.305 128.835 178.635 128.801C178.968 128.763 179.211 128.701 179.362 128.614C179.518 128.527 179.595 128.375 179.595 128.159V128.114C179.595 127.553 179.442 127.117 179.135 126.807C178.832 126.496 178.372 126.341 177.754 126.341C177.114 126.341 176.612 126.481 176.249 126.761C175.885 127.042 175.629 127.341 175.482 127.659L174.209 127.205C174.436 126.674 174.739 126.261 175.118 125.966C175.5 125.667 175.917 125.458 176.368 125.341C176.822 125.22 177.269 125.159 177.709 125.159C177.989 125.159 178.311 125.193 178.675 125.261C179.042 125.326 179.396 125.46 179.737 125.665C180.082 125.869 180.368 126.178 180.595 126.591C180.822 127.004 180.936 127.557 180.936 128.25V134H179.595V132.818H179.527C179.436 133.008 179.285 133.21 179.072 133.426C178.86 133.642 178.578 133.826 178.226 133.977C177.874 134.129 177.444 134.205 176.936 134.205ZM177.141 133C177.671 133 178.118 132.896 178.482 132.688C178.849 132.479 179.125 132.21 179.311 131.881C179.5 131.551 179.595 131.205 179.595 130.841V129.614C179.538 129.682 179.413 129.744 179.22 129.801C179.031 129.854 178.811 129.902 178.561 129.943C178.315 129.981 178.074 130.015 177.839 130.045C177.608 130.072 177.421 130.095 177.277 130.114C176.929 130.159 176.603 130.233 176.3 130.335C176 130.434 175.758 130.583 175.572 130.784C175.391 130.981 175.3 131.25 175.3 131.591C175.3 132.057 175.472 132.409 175.817 132.648C176.165 132.883 176.607 133 177.141 133ZM189.565 127.227L188.361 127.568C188.285 127.367 188.173 127.172 188.026 126.983C187.882 126.79 187.685 126.631 187.435 126.506C187.185 126.381 186.865 126.318 186.474 126.318C185.94 126.318 185.495 126.441 185.139 126.688C184.787 126.93 184.611 127.239 184.611 127.614C184.611 127.947 184.732 128.21 184.974 128.403C185.217 128.597 185.596 128.758 186.111 128.886L187.406 129.205C188.187 129.394 188.768 129.684 189.151 130.074C189.533 130.46 189.724 130.958 189.724 131.568C189.724 132.068 189.58 132.515 189.293 132.909C189.009 133.303 188.611 133.614 188.099 133.841C187.588 134.068 186.993 134.182 186.315 134.182C185.425 134.182 184.688 133.989 184.105 133.602C183.522 133.216 183.152 132.652 182.997 131.909L184.27 131.591C184.391 132.061 184.62 132.413 184.957 132.648C185.298 132.883 185.743 133 186.293 133C186.918 133 187.414 132.867 187.781 132.602C188.152 132.333 188.338 132.011 188.338 131.636C188.338 131.333 188.232 131.08 188.02 130.875C187.808 130.667 187.482 130.511 187.043 130.409L185.588 130.068C184.789 129.879 184.202 129.585 183.827 129.188C183.455 128.786 183.27 128.284 183.27 127.682C183.27 127.189 183.408 126.754 183.685 126.375C183.965 125.996 184.346 125.699 184.827 125.483C185.312 125.267 185.861 125.159 186.474 125.159C187.338 125.159 188.016 125.348 188.509 125.727C189.005 126.106 189.357 126.606 189.565 127.227ZM203.379 125.273L200.152 134H198.788L195.561 125.273H197.016L199.425 132.227H199.516L201.925 125.273H203.379ZM207.452 134.205C206.899 134.205 206.397 134.1 205.946 133.892C205.495 133.68 205.137 133.375 204.872 132.977C204.607 132.576 204.474 132.091 204.474 131.523C204.474 131.023 204.573 130.617 204.77 130.307C204.967 129.992 205.23 129.746 205.56 129.568C205.889 129.39 206.253 129.258 206.651 129.17C207.052 129.08 207.455 129.008 207.861 128.955C208.391 128.886 208.821 128.835 209.151 128.801C209.484 128.763 209.726 128.701 209.878 128.614C210.033 128.527 210.111 128.375 210.111 128.159V128.114C210.111 127.553 209.957 127.117 209.651 126.807C209.348 126.496 208.887 126.341 208.27 126.341C207.63 126.341 207.128 126.481 206.764 126.761C206.401 127.042 206.145 127.341 205.997 127.659L204.724 127.205C204.952 126.674 205.255 126.261 205.634 125.966C206.016 125.667 206.433 125.458 206.884 125.341C207.338 125.22 207.785 125.159 208.224 125.159C208.505 125.159 208.827 125.193 209.19 125.261C209.558 125.326 209.912 125.46 210.253 125.665C210.598 125.869 210.884 126.178 211.111 126.591C211.338 127.004 211.452 127.557 211.452 128.25V134H210.111V132.818H210.043C209.952 133.008 209.8 133.21 209.588 133.426C209.376 133.642 209.094 133.826 208.741 133.977C208.389 134.129 207.959 134.205 207.452 134.205ZM207.656 133C208.187 133 208.634 132.896 208.997 132.688C209.365 132.479 209.641 132.21 209.827 131.881C210.016 131.551 210.111 131.205 210.111 130.841V129.614C210.054 129.682 209.929 129.744 209.736 129.801C209.546 129.854 209.327 129.902 209.077 129.943C208.83 129.981 208.59 130.015 208.355 130.045C208.124 130.072 207.937 130.095 207.793 130.114C207.444 130.159 207.118 130.233 206.815 130.335C206.516 130.434 206.274 130.583 206.088 130.784C205.906 130.981 205.815 131.25 205.815 131.591C205.815 132.057 205.988 132.409 206.332 132.648C206.681 132.883 207.122 133 207.656 133ZM215.24 128.75V134H213.899V125.273H215.195V126.636H215.308C215.513 126.193 215.823 125.837 216.24 125.568C216.657 125.295 217.195 125.159 217.854 125.159C218.445 125.159 218.962 125.28 219.405 125.523C219.848 125.761 220.193 126.125 220.439 126.614C220.685 127.098 220.808 127.712 220.808 128.455V134H219.467V128.545C219.467 127.86 219.289 127.326 218.933 126.943C218.577 126.557 218.089 126.364 217.467 126.364C217.039 126.364 216.657 126.456 216.32 126.642C215.986 126.828 215.723 127.098 215.53 127.455C215.337 127.811 215.24 128.242 215.24 128.75ZM227.054 125.273V126.409H222.531V125.273H227.054ZM223.849 123.182H225.19V131.5C225.19 131.879 225.245 132.163 225.355 132.352C225.469 132.538 225.613 132.663 225.787 132.727C225.965 132.788 226.152 132.818 226.349 132.818C226.497 132.818 226.618 132.811 226.713 132.795C226.808 132.777 226.884 132.761 226.94 132.75L227.213 133.955C227.122 133.989 226.995 134.023 226.832 134.057C226.67 134.095 226.463 134.114 226.213 134.114C225.834 134.114 225.463 134.032 225.099 133.869C224.74 133.706 224.44 133.458 224.202 133.125C223.967 132.792 223.849 132.371 223.849 131.864V123.182ZM231.639 134.205C231.086 134.205 230.584 134.1 230.134 133.892C229.683 133.68 229.325 133.375 229.06 132.977C228.795 132.576 228.662 132.091 228.662 131.523C228.662 131.023 228.76 130.617 228.957 130.307C229.154 129.992 229.418 129.746 229.747 129.568C230.077 129.39 230.44 129.258 230.838 129.17C231.24 129.08 231.643 129.008 232.048 128.955C232.579 128.886 233.009 128.835 233.338 128.801C233.671 128.763 233.914 128.701 234.065 128.614C234.221 128.527 234.298 128.375 234.298 128.159V128.114C234.298 127.553 234.145 127.117 233.838 126.807C233.535 126.496 233.075 126.341 232.457 126.341C231.817 126.341 231.315 126.481 230.952 126.761C230.588 127.042 230.332 127.341 230.185 127.659L228.912 127.205C229.139 126.674 229.442 126.261 229.821 125.966C230.204 125.667 230.62 125.458 231.071 125.341C231.526 125.22 231.973 125.159 232.412 125.159C232.692 125.159 233.014 125.193 233.378 125.261C233.745 125.326 234.099 125.46 234.44 125.665C234.785 125.869 235.071 126.178 235.298 126.591C235.526 127.004 235.639 127.557 235.639 128.25V134H234.298V132.818H234.23C234.139 133.008 233.988 133.21 233.776 133.426C233.563 133.642 233.281 133.826 232.929 133.977C232.577 134.129 232.147 134.205 231.639 134.205ZM231.844 133C232.374 133 232.821 132.896 233.185 132.688C233.552 132.479 233.829 132.21 234.014 131.881C234.204 131.551 234.298 131.205 234.298 130.841V129.614C234.241 129.682 234.116 129.744 233.923 129.801C233.734 129.854 233.514 129.902 233.264 129.943C233.018 129.981 232.777 130.015 232.543 130.045C232.312 130.072 232.124 130.095 231.98 130.114C231.632 130.159 231.306 130.233 231.003 130.335C230.704 130.434 230.461 130.583 230.276 130.784C230.094 130.981 230.003 131.25 230.003 131.591C230.003 132.057 230.175 132.409 230.52 132.648C230.868 132.883 231.31 133 231.844 133ZM241.609 137.455C240.962 137.455 240.405 137.371 239.939 137.205C239.473 137.042 239.085 136.826 238.774 136.557C238.467 136.292 238.223 136.008 238.041 135.705L239.109 134.955C239.231 135.114 239.384 135.295 239.57 135.5C239.755 135.708 240.009 135.888 240.331 136.04C240.657 136.195 241.083 136.273 241.609 136.273C242.314 136.273 242.895 136.102 243.354 135.761C243.812 135.42 244.041 134.886 244.041 134.159V132.386H243.928C243.829 132.545 243.689 132.742 243.507 132.977C243.329 133.208 243.071 133.415 242.734 133.597C242.401 133.775 241.95 133.864 241.382 133.864C240.678 133.864 240.045 133.697 239.484 133.364C238.928 133.03 238.486 132.545 238.161 131.909C237.839 131.273 237.678 130.5 237.678 129.591C237.678 128.697 237.835 127.919 238.149 127.256C238.464 126.589 238.901 126.074 239.462 125.71C240.022 125.343 240.67 125.159 241.405 125.159C241.973 125.159 242.424 125.254 242.757 125.443C243.094 125.629 243.352 125.841 243.53 126.08C243.712 126.314 243.852 126.508 243.95 126.659H244.087V125.273H245.382V134.25C245.382 135 245.212 135.61 244.871 136.08C244.534 136.553 244.079 136.9 243.507 137.119C242.939 137.343 242.306 137.455 241.609 137.455ZM241.564 132.659C242.102 132.659 242.556 132.536 242.928 132.29C243.299 132.044 243.581 131.689 243.774 131.227C243.967 130.765 244.064 130.212 244.064 129.568C244.064 128.939 243.969 128.384 243.78 127.903C243.59 127.422 243.31 127.045 242.939 126.773C242.568 126.5 242.109 126.364 241.564 126.364C240.996 126.364 240.522 126.508 240.143 126.795C239.768 127.083 239.486 127.47 239.297 127.955C239.111 128.439 239.018 128.977 239.018 129.568C239.018 130.174 239.113 130.71 239.303 131.176C239.496 131.638 239.78 132.002 240.155 132.267C240.534 132.528 241.003 132.659 241.564 132.659ZM251.496 134.182C250.655 134.182 249.929 133.996 249.32 133.625C248.714 133.25 248.246 132.727 247.916 132.057C247.59 131.383 247.428 130.598 247.428 129.705C247.428 128.811 247.59 128.023 247.916 127.341C248.246 126.655 248.704 126.121 249.291 125.739C249.882 125.352 250.571 125.159 251.359 125.159C251.814 125.159 252.263 125.235 252.706 125.386C253.149 125.538 253.553 125.784 253.916 126.125C254.28 126.462 254.57 126.909 254.786 127.466C255.001 128.023 255.109 128.708 255.109 129.523V130.091H248.382V128.932H253.746C253.746 128.439 253.647 128 253.45 127.614C253.257 127.227 252.981 126.922 252.621 126.699C252.265 126.475 251.844 126.364 251.359 126.364C250.825 126.364 250.363 126.496 249.973 126.761C249.587 127.023 249.289 127.364 249.081 127.784C248.873 128.205 248.768 128.655 248.768 129.136V129.909C248.768 130.568 248.882 131.127 249.109 131.585C249.34 132.04 249.661 132.386 250.07 132.625C250.479 132.86 250.954 132.977 251.496 132.977C251.848 132.977 252.166 132.928 252.45 132.83C252.738 132.727 252.986 132.576 253.195 132.375C253.403 132.17 253.564 131.917 253.678 131.614L254.973 131.977C254.837 132.417 254.607 132.803 254.286 133.136C253.964 133.466 253.566 133.723 253.092 133.909C252.619 134.091 252.087 134.182 251.496 134.182ZM258.49 128.75V134H257.149V125.273H258.445V126.636H258.558C258.763 126.193 259.073 125.837 259.49 125.568C259.907 125.295 260.445 125.159 261.104 125.159C261.695 125.159 262.212 125.28 262.655 125.523C263.098 125.761 263.443 126.125 263.689 126.614C263.935 127.098 264.058 127.712 264.058 128.455V134H262.717V128.545C262.717 127.86 262.539 127.326 262.183 126.943C261.827 126.557 261.339 126.364 260.717 126.364C260.289 126.364 259.907 126.456 259.57 126.642C259.236 126.828 258.973 127.098 258.78 127.455C258.587 127.811 258.49 128.242 258.49 128.75ZM272.69 127.227L271.486 127.568C271.41 127.367 271.298 127.172 271.151 126.983C271.007 126.79 270.81 126.631 270.56 126.506C270.31 126.381 269.99 126.318 269.599 126.318C269.065 126.318 268.62 126.441 268.264 126.688C267.912 126.93 267.736 127.239 267.736 127.614C267.736 127.947 267.857 128.21 268.099 128.403C268.342 128.597 268.721 128.758 269.236 128.886L270.531 129.205C271.312 129.394 271.893 129.684 272.276 130.074C272.658 130.46 272.849 130.958 272.849 131.568C272.849 132.068 272.705 132.515 272.418 132.909C272.134 133.303 271.736 133.614 271.224 133.841C270.713 134.068 270.118 134.182 269.44 134.182C268.55 134.182 267.813 133.989 267.23 133.602C266.647 133.216 266.277 132.652 266.122 131.909L267.395 131.591C267.516 132.061 267.745 132.413 268.082 132.648C268.423 132.883 268.868 133 269.418 133C270.043 133 270.539 132.867 270.906 132.602C271.277 132.333 271.463 132.011 271.463 131.636C271.463 131.333 271.357 131.08 271.145 130.875C270.933 130.667 270.607 130.511 270.168 130.409L268.713 130.068C267.914 129.879 267.327 129.585 266.952 129.188C266.58 128.786 266.395 128.284 266.395 127.682C266.395 127.189 266.533 126.754 266.81 126.375C267.09 125.996 267.471 125.699 267.952 125.483C268.437 125.267 268.986 125.159 269.599 125.159C270.463 125.159 271.141 125.348 271.634 125.727C272.13 126.106 272.482 126.606 272.69 127.227ZM282.663 134.182C281.936 134.182 281.294 133.998 280.737 133.631C280.18 133.259 279.745 132.737 279.43 132.062C279.116 131.384 278.959 130.583 278.959 129.659C278.959 128.742 279.116 127.947 279.43 127.273C279.745 126.598 280.182 126.078 280.743 125.71C281.304 125.343 281.951 125.159 282.686 125.159C283.254 125.159 283.703 125.254 284.033 125.443C284.366 125.629 284.62 125.841 284.794 126.08C284.972 126.314 285.11 126.508 285.209 126.659H285.322V122.364H286.663V134H285.368V132.659H285.209C285.11 132.818 284.97 133.019 284.788 133.261C284.607 133.5 284.347 133.714 284.01 133.903C283.673 134.089 283.224 134.182 282.663 134.182ZM282.845 132.977C283.383 132.977 283.838 132.837 284.209 132.557C284.58 132.273 284.862 131.881 285.055 131.381C285.249 130.877 285.345 130.295 285.345 129.636C285.345 128.985 285.25 128.415 285.061 127.926C284.872 127.434 284.591 127.051 284.22 126.778C283.849 126.502 283.391 126.364 282.845 126.364C282.277 126.364 281.804 126.509 281.425 126.801C281.05 127.089 280.768 127.481 280.578 127.977C280.393 128.47 280.3 129.023 280.3 129.636C280.3 130.258 280.394 130.822 280.584 131.33C280.777 131.833 281.061 132.235 281.436 132.534C281.815 132.83 282.285 132.977 282.845 132.977ZM291.874 134.205C291.321 134.205 290.819 134.1 290.368 133.892C289.917 133.68 289.559 133.375 289.294 132.977C289.029 132.576 288.896 132.091 288.896 131.523C288.896 131.023 288.995 130.617 289.192 130.307C289.389 129.992 289.652 129.746 289.982 129.568C290.311 129.39 290.675 129.258 291.072 129.17C291.474 129.08 291.877 129.008 292.283 128.955C292.813 128.886 293.243 128.835 293.572 128.801C293.906 128.763 294.148 128.701 294.3 128.614C294.455 128.527 294.533 128.375 294.533 128.159V128.114C294.533 127.553 294.379 127.117 294.072 126.807C293.769 126.496 293.309 126.341 292.692 126.341C292.052 126.341 291.55 126.481 291.186 126.761C290.822 127.042 290.567 127.341 290.419 127.659L289.146 127.205C289.374 126.674 289.677 126.261 290.055 125.966C290.438 125.667 290.855 125.458 291.305 125.341C291.76 125.22 292.207 125.159 292.646 125.159C292.927 125.159 293.249 125.193 293.612 125.261C293.98 125.326 294.334 125.46 294.675 125.665C295.019 125.869 295.305 126.178 295.533 126.591C295.76 127.004 295.874 127.557 295.874 128.25V134H294.533V132.818H294.464C294.374 133.008 294.222 133.21 294.01 133.426C293.798 133.642 293.516 133.826 293.163 133.977C292.811 134.129 292.381 134.205 291.874 134.205ZM292.078 133C292.608 133 293.055 132.896 293.419 132.688C293.786 132.479 294.063 132.21 294.249 131.881C294.438 131.551 294.533 131.205 294.533 130.841V129.614C294.476 129.682 294.351 129.744 294.158 129.801C293.968 129.854 293.749 129.902 293.499 129.943C293.252 129.981 293.012 130.015 292.777 130.045C292.546 130.072 292.358 130.095 292.214 130.114C291.866 130.159 291.54 130.233 291.237 130.335C290.938 130.434 290.696 130.583 290.51 130.784C290.328 130.981 290.237 131.25 290.237 131.591C290.237 132.057 290.41 132.409 290.754 132.648C291.103 132.883 291.544 133 292.078 133ZM303.003 134V122.364H307.071C307.882 122.364 308.55 122.504 309.077 122.784C309.603 123.061 309.995 123.434 310.253 123.903C310.51 124.369 310.639 124.886 310.639 125.455C310.639 125.955 310.55 126.367 310.372 126.693C310.198 127.019 309.967 127.277 309.679 127.466C309.395 127.655 309.086 127.795 308.753 127.886V128C309.109 128.023 309.467 128.148 309.827 128.375C310.187 128.602 310.488 128.928 310.73 129.352C310.973 129.777 311.094 130.295 311.094 130.909C311.094 131.492 310.961 132.017 310.696 132.483C310.431 132.949 310.012 133.318 309.44 133.591C308.868 133.864 308.124 134 307.207 134H303.003ZM304.412 132.75H307.207C308.128 132.75 308.781 132.572 309.168 132.216C309.558 131.856 309.753 131.42 309.753 130.909C309.753 130.515 309.652 130.152 309.452 129.818C309.251 129.481 308.965 129.212 308.594 129.011C308.223 128.807 307.783 128.705 307.276 128.705H304.412V132.75ZM304.412 127.477H307.026C307.45 127.477 307.832 127.394 308.173 127.227C308.518 127.061 308.791 126.826 308.991 126.523C309.196 126.22 309.298 125.864 309.298 125.455C309.298 124.943 309.12 124.509 308.764 124.153C308.408 123.794 307.844 123.614 307.071 123.614H304.412V127.477ZM316.886 134.182C316.045 134.182 315.32 133.996 314.71 133.625C314.104 133.25 313.636 132.727 313.307 132.057C312.981 131.383 312.818 130.598 312.818 129.705C312.818 128.811 312.981 128.023 313.307 127.341C313.636 126.655 314.095 126.121 314.682 125.739C315.273 125.352 315.962 125.159 316.75 125.159C317.205 125.159 317.653 125.235 318.097 125.386C318.54 125.538 318.943 125.784 319.307 126.125C319.67 126.462 319.96 126.909 320.176 127.466C320.392 128.023 320.5 128.708 320.5 129.523V130.091H313.773V128.932H319.136C319.136 128.439 319.038 128 318.841 127.614C318.648 127.227 318.371 126.922 318.011 126.699C317.655 126.475 317.235 126.364 316.75 126.364C316.216 126.364 315.754 126.496 315.364 126.761C314.977 127.023 314.68 127.364 314.472 127.784C314.263 128.205 314.159 128.655 314.159 129.136V129.909C314.159 130.568 314.273 131.127 314.5 131.585C314.731 132.04 315.051 132.386 315.46 132.625C315.869 132.86 316.345 132.977 316.886 132.977C317.239 132.977 317.557 132.928 317.841 132.83C318.129 132.727 318.377 132.576 318.585 132.375C318.794 132.17 318.955 131.917 319.068 131.614L320.364 131.977C320.227 132.417 319.998 132.803 319.676 133.136C319.354 133.466 318.956 133.723 318.483 133.909C318.009 134.091 317.477 134.182 316.886 134.182ZM326.335 125.273V126.409H321.812V125.273H326.335ZM323.131 123.182H324.472V131.5C324.472 131.879 324.527 132.163 324.636 132.352C324.75 132.538 324.894 132.663 325.068 132.727C325.246 132.788 325.434 132.818 325.631 132.818C325.778 132.818 325.9 132.811 325.994 132.795C326.089 132.777 326.165 132.761 326.222 132.75L326.494 133.955C326.403 133.989 326.277 134.023 326.114 134.057C325.951 134.095 325.744 134.114 325.494 134.114C325.116 134.114 324.744 134.032 324.381 133.869C324.021 133.706 323.722 133.458 323.483 133.125C323.248 132.792 323.131 132.371 323.131 131.864V123.182ZM334.898 125.273C334.83 124.697 334.553 124.25 334.068 123.932C333.583 123.614 332.989 123.455 332.284 123.455C331.769 123.455 331.318 123.538 330.932 123.705C330.549 123.871 330.25 124.1 330.034 124.392C329.822 124.684 329.716 125.015 329.716 125.386C329.716 125.697 329.79 125.964 329.938 126.188C330.089 126.407 330.282 126.591 330.517 126.739C330.752 126.883 330.998 127.002 331.256 127.097C331.513 127.187 331.75 127.261 331.966 127.318L333.148 127.636C333.451 127.716 333.788 127.826 334.159 127.966C334.534 128.106 334.892 128.297 335.233 128.54C335.578 128.778 335.862 129.085 336.085 129.46C336.309 129.835 336.42 130.295 336.42 130.841C336.42 131.47 336.256 132.038 335.926 132.545C335.6 133.053 335.123 133.456 334.494 133.756C333.869 134.055 333.11 134.205 332.216 134.205C331.383 134.205 330.661 134.07 330.051 133.801C329.445 133.532 328.968 133.157 328.619 132.676C328.275 132.195 328.08 131.636 328.034 131H329.489C329.527 131.439 329.674 131.803 329.932 132.091C330.193 132.375 330.523 132.587 330.92 132.727C331.322 132.864 331.754 132.932 332.216 132.932C332.754 132.932 333.237 132.845 333.665 132.67C334.093 132.492 334.432 132.246 334.682 131.932C334.932 131.614 335.057 131.242 335.057 130.818C335.057 130.432 334.949 130.117 334.733 129.875C334.517 129.633 334.233 129.436 333.881 129.284C333.528 129.133 333.148 129 332.739 128.886L331.307 128.477C330.398 128.216 329.678 127.843 329.148 127.358C328.617 126.873 328.352 126.239 328.352 125.455C328.352 124.803 328.528 124.235 328.881 123.75C329.237 123.261 329.714 122.883 330.312 122.614C330.915 122.341 331.587 122.205 332.33 122.205C333.08 122.205 333.746 122.339 334.33 122.608C334.913 122.873 335.375 123.237 335.716 123.699C336.061 124.161 336.242 124.686 336.261 125.273H334.898ZM338.555 137.273V125.273H339.851V126.659H340.01C340.108 126.508 340.245 126.314 340.419 126.08C340.597 125.841 340.851 125.629 341.18 125.443C341.514 125.254 341.964 125.159 342.533 125.159C343.268 125.159 343.915 125.343 344.476 125.71C345.036 126.078 345.474 126.598 345.788 127.273C346.103 127.947 346.26 128.742 346.26 129.659C346.26 130.583 346.103 131.384 345.788 132.062C345.474 132.737 345.038 133.259 344.482 133.631C343.925 133.998 343.283 134.182 342.555 134.182C341.995 134.182 341.546 134.089 341.209 133.903C340.872 133.714 340.612 133.5 340.43 133.261C340.249 133.019 340.108 132.818 340.01 132.659H339.896V137.273H338.555ZM339.874 129.636C339.874 130.295 339.97 130.877 340.163 131.381C340.357 131.881 340.639 132.273 341.01 132.557C341.381 132.837 341.836 132.977 342.374 132.977C342.934 132.977 343.402 132.83 343.777 132.534C344.156 132.235 344.44 131.833 344.629 131.33C344.822 130.822 344.919 130.258 344.919 129.636C344.919 129.023 344.824 128.47 344.635 127.977C344.449 127.481 344.167 127.089 343.788 126.801C343.413 126.509 342.942 126.364 342.374 126.364C341.828 126.364 341.37 126.502 340.999 126.778C340.627 127.051 340.347 127.434 340.158 127.926C339.968 128.415 339.874 128.985 339.874 129.636ZM351.964 134.182C351.124 134.182 350.398 133.996 349.788 133.625C349.182 133.25 348.714 132.727 348.385 132.057C348.059 131.383 347.896 130.598 347.896 129.705C347.896 128.811 348.059 128.023 348.385 127.341C348.714 126.655 349.173 126.121 349.76 125.739C350.351 125.352 351.04 125.159 351.828 125.159C352.283 125.159 352.732 125.235 353.175 125.386C353.618 125.538 354.021 125.784 354.385 126.125C354.749 126.462 355.038 126.909 355.254 127.466C355.47 128.023 355.578 128.708 355.578 129.523V130.091H348.851V128.932H354.214C354.214 128.439 354.116 128 353.919 127.614C353.726 127.227 353.449 126.922 353.089 126.699C352.733 126.475 352.313 126.364 351.828 126.364C351.294 126.364 350.832 126.496 350.442 126.761C350.055 127.023 349.758 127.364 349.55 127.784C349.341 128.205 349.237 128.655 349.237 129.136V129.909C349.237 130.568 349.351 131.127 349.578 131.585C349.809 132.04 350.129 132.386 350.538 132.625C350.947 132.86 351.423 132.977 351.964 132.977C352.317 132.977 352.635 132.928 352.919 132.83C353.207 132.727 353.455 132.576 353.663 132.375C353.872 132.17 354.033 131.917 354.146 131.614L355.442 131.977C355.305 132.417 355.076 132.803 354.754 133.136C354.432 133.466 354.035 133.723 353.561 133.909C353.088 134.091 352.555 134.182 351.964 134.182ZM361.277 134.182C360.436 134.182 359.711 133.996 359.101 133.625C358.495 133.25 358.027 132.727 357.697 132.057C357.372 131.383 357.209 130.598 357.209 129.705C357.209 128.811 357.372 128.023 357.697 127.341C358.027 126.655 358.485 126.121 359.072 125.739C359.663 125.352 360.353 125.159 361.141 125.159C361.595 125.159 362.044 125.235 362.487 125.386C362.93 125.538 363.334 125.784 363.697 126.125C364.061 126.462 364.351 126.909 364.567 127.466C364.783 128.023 364.891 128.708 364.891 129.523V130.091H358.163V128.932H363.527C363.527 128.439 363.429 128 363.232 127.614C363.038 127.227 362.762 126.922 362.402 126.699C362.046 126.475 361.625 126.364 361.141 126.364C360.607 126.364 360.144 126.496 359.754 126.761C359.368 127.023 359.071 127.364 358.862 127.784C358.654 128.205 358.55 128.655 358.55 129.136V129.909C358.55 130.568 358.663 131.127 358.891 131.585C359.122 132.04 359.442 132.386 359.851 132.625C360.26 132.86 360.735 132.977 361.277 132.977C361.629 132.977 361.947 132.928 362.232 132.83C362.519 132.727 362.768 132.576 362.976 132.375C363.184 132.17 363.345 131.917 363.459 131.614L364.754 131.977C364.618 132.417 364.389 132.803 364.067 133.136C363.745 133.466 363.347 133.723 362.874 133.909C362.4 134.091 361.868 134.182 361.277 134.182ZM370.226 134.182C369.499 134.182 368.857 133.998 368.3 133.631C367.743 133.259 367.307 132.737 366.993 132.062C366.679 131.384 366.521 130.583 366.521 129.659C366.521 128.742 366.679 127.947 366.993 127.273C367.307 126.598 367.745 126.078 368.305 125.71C368.866 125.343 369.514 125.159 370.249 125.159C370.817 125.159 371.266 125.254 371.595 125.443C371.929 125.629 372.182 125.841 372.357 126.08C372.535 126.314 372.673 126.508 372.771 126.659H372.885V122.364H374.226V134H372.93V132.659H372.771C372.673 132.818 372.533 133.019 372.351 133.261C372.169 133.5 371.91 133.714 371.572 133.903C371.235 134.089 370.786 134.182 370.226 134.182ZM370.408 132.977C370.946 132.977 371.4 132.837 371.771 132.557C372.143 132.273 372.425 131.881 372.618 131.381C372.811 130.877 372.908 130.295 372.908 129.636C372.908 128.985 372.813 128.415 372.624 127.926C372.434 127.434 372.154 127.051 371.783 126.778C371.411 126.502 370.953 126.364 370.408 126.364C369.839 126.364 369.366 126.509 368.987 126.801C368.612 127.089 368.33 127.481 368.141 127.977C367.955 128.47 367.862 129.023 367.862 129.636C367.862 130.258 367.957 130.822 368.146 131.33C368.339 131.833 368.624 132.235 368.999 132.534C369.377 132.83 369.847 132.977 370.408 132.977ZM1.40909 160V148.364H5.34091C6.25379 148.364 7 148.528 7.57955 148.858C8.16288 149.184 8.5947 149.625 8.875 150.182C9.1553 150.739 9.29545 151.36 9.29545 152.045C9.29545 152.731 9.1553 153.354 8.875 153.915C8.59849 154.475 8.17046 154.922 7.59091 155.256C7.01136 155.585 6.26894 155.75 5.36364 155.75H2.54545V154.5H5.31818C5.94318 154.5 6.44508 154.392 6.82386 154.176C7.20265 153.96 7.47727 153.669 7.64773 153.301C7.82197 152.93 7.90909 152.511 7.90909 152.045C7.90909 151.58 7.82197 151.163 7.64773 150.795C7.47727 150.428 7.20076 150.14 6.81818 149.932C6.43561 149.72 5.92803 149.614 5.29545 149.614H2.81818V160H1.40909ZM11.3835 160V151.273H12.679V152.591H12.7699C12.929 152.159 13.2169 151.809 13.6335 151.54C14.0502 151.271 14.5199 151.136 15.0426 151.136C15.1411 151.136 15.2642 151.138 15.4119 151.142C15.5597 151.146 15.6714 151.152 15.7472 151.159V152.523C15.7017 152.511 15.5975 152.494 15.4347 152.472C15.2756 152.445 15.107 152.432 14.929 152.432C14.5047 152.432 14.1259 152.521 13.7926 152.699C13.4631 152.873 13.2017 153.116 13.0085 153.426C12.8191 153.733 12.7244 154.083 12.7244 154.477V160H11.3835ZM17.3366 160V151.273H18.6776V160H17.3366ZM18.0185 149.818C17.7571 149.818 17.5317 149.729 17.3423 149.551C17.1567 149.373 17.0639 149.159 17.0639 148.909C17.0639 148.659 17.1567 148.445 17.3423 148.267C17.5317 148.089 17.7571 148 18.0185 148C18.2798 148 18.5033 148.089 18.6889 148.267C18.8783 148.445 18.973 148.659 18.973 148.909C18.973 149.159 18.8783 149.373 18.6889 149.551C18.5033 149.729 18.2798 149.818 18.0185 149.818ZM21.1335 160V151.273H22.429V152.636H22.5426C22.7244 152.17 23.018 151.809 23.4233 151.551C23.8286 151.29 24.3153 151.159 24.8835 151.159C25.4593 151.159 25.9384 151.29 26.321 151.551C26.7074 151.809 27.0085 152.17 27.2244 152.636H27.3153C27.5388 152.186 27.8741 151.828 28.321 151.562C28.768 151.294 29.304 151.159 29.929 151.159C30.7093 151.159 31.3475 151.403 31.8438 151.892C32.34 152.377 32.5881 153.133 32.5881 154.159V160H31.2472V154.159C31.2472 153.515 31.071 153.055 30.7188 152.778C30.3665 152.502 29.9517 152.364 29.4744 152.364C28.8608 152.364 28.3854 152.549 28.0483 152.92C27.7112 153.288 27.5426 153.754 27.5426 154.318V160H26.179V154.023C26.179 153.527 26.018 153.127 25.696 152.824C25.3741 152.517 24.9593 152.364 24.4517 152.364C24.1032 152.364 23.7775 152.456 23.4744 152.642C23.1752 152.828 22.9328 153.085 22.7472 153.415C22.5653 153.741 22.4744 154.117 22.4744 154.545V160H21.1335ZM38.6989 160.182C37.858 160.182 37.1326 159.996 36.5227 159.625C35.9167 159.25 35.4489 158.727 35.1193 158.057C34.7936 157.383 34.6307 156.598 34.6307 155.705C34.6307 154.811 34.7936 154.023 35.1193 153.341C35.4489 152.655 35.9072 152.121 36.4943 151.739C37.0852 151.352 37.7746 151.159 38.5625 151.159C39.017 151.159 39.4659 151.235 39.9091 151.386C40.3523 151.538 40.7557 151.784 41.1193 152.125C41.483 152.462 41.7727 152.909 41.9886 153.466C42.2045 154.023 42.3125 154.708 42.3125 155.523V156.091H35.5852V154.932H40.9489C40.9489 154.439 40.8504 154 40.6534 153.614C40.4602 153.227 40.1837 152.922 39.8239 152.699C39.4678 152.475 39.0473 152.364 38.5625 152.364C38.0284 152.364 37.5663 152.496 37.1761 152.761C36.7898 153.023 36.4924 153.364 36.2841 153.784C36.0758 154.205 35.9716 154.655 35.9716 155.136V155.909C35.9716 156.568 36.0852 157.127 36.3125 157.585C36.5436 158.04 36.8636 158.386 37.2727 158.625C37.6818 158.86 38.1572 158.977 38.6989 158.977C39.0511 158.977 39.3693 158.928 39.6534 158.83C39.9413 158.727 40.1894 158.576 40.3977 158.375C40.6061 158.17 40.767 157.917 40.8807 157.614L42.1761 157.977C42.0398 158.417 41.8106 158.803 41.4886 159.136C41.1667 159.466 40.7689 159.723 40.2955 159.909C39.822 160.091 39.2898 160.182 38.6989 160.182ZM45.3295 160.091C45.0492 160.091 44.8087 159.991 44.608 159.79C44.4072 159.589 44.3068 159.348 44.3068 159.068C44.3068 158.788 44.4072 158.547 44.608 158.347C44.8087 158.146 45.0492 158.045 45.3295 158.045C45.6098 158.045 45.8504 158.146 46.0511 158.347C46.2519 158.547 46.3523 158.788 46.3523 159.068C46.3523 159.254 46.3049 159.424 46.2102 159.58C46.1193 159.735 45.9962 159.86 45.8409 159.955C45.6894 160.045 45.5189 160.091 45.3295 160.091Z" fill="white"/>
</svg>
