<svg width="329" height="132" viewBox="0 0 329 132" fill="none" xmlns="http://www.w3.org/2000/svg">
<path d="M28.0661 99H26.5888L30.8615 87.3636H32.3161L36.5888 99H35.1115L31.6342 89.2045H31.5433L28.0661 99ZM28.6115 94.4545H34.5661V95.7045H28.6115V94.4545ZM41.7649 99.1818C40.9467 99.1818 40.2422 98.9886 39.6513 98.6023C39.0604 98.2159 38.6058 97.6837 38.2876 97.0057C37.9695 96.3277 37.8104 95.553 37.8104 94.6818C37.8104 93.7955 37.9732 93.0133 38.299 92.3352C38.6286 91.6534 39.0869 91.1212 39.674 90.7386C40.2649 90.3523 40.9543 90.1591 41.7422 90.1591C42.3558 90.1591 42.9089 90.2727 43.4013 90.5C43.8937 90.7273 44.2971 91.0455 44.6115 91.4545C44.9259 91.8636 45.121 92.3409 45.1967 92.8864H43.8558C43.7536 92.4886 43.5263 92.1364 43.174 91.8295C42.8255 91.5189 42.3558 91.3636 41.7649 91.3636C41.2422 91.3636 40.7839 91.5 40.3899 91.7727C39.9998 92.0417 39.6948 92.4223 39.4751 92.9148C39.2592 93.4034 39.1513 93.9773 39.1513 94.6364C39.1513 95.3106 39.2573 95.8977 39.4695 96.3977C39.6854 96.8977 39.9884 97.286 40.3786 97.5625C40.7725 97.839 41.2346 97.9773 41.7649 97.9773C42.1134 97.9773 42.4297 97.9167 42.7138 97.7955C42.9979 97.6742 43.2384 97.5 43.4354 97.2727C43.6323 97.0455 43.7725 96.7727 43.8558 96.4545H45.1967C45.121 96.9697 44.9335 97.4337 44.6342 97.8466C44.3388 98.2557 43.9467 98.5814 43.4581 98.8239C42.9732 99.0625 42.4089 99.1818 41.7649 99.1818ZM50.8161 99.1818C49.9751 99.1818 49.2498 98.9962 48.6399 98.625C48.0339 98.25 47.5661 97.7273 47.2365 97.0568C46.9107 96.3826 46.7479 95.5985 46.7479 94.7045C46.7479 93.8106 46.9107 93.0227 47.2365 92.3409C47.5661 91.6553 48.0244 91.1212 48.6115 90.7386C49.2024 90.3523 49.8918 90.1591 50.6797 90.1591C51.1342 90.1591 51.5831 90.2348 52.0263 90.3864C52.4695 90.5379 52.8729 90.7841 53.2365 91.125C53.6001 91.4621 53.8899 91.9091 54.1058 92.4659C54.3217 93.0227 54.4297 93.7083 54.4297 94.5227V95.0909H47.7024V93.9318H53.0661C53.0661 93.4394 52.9676 93 52.7706 92.6136C52.5774 92.2273 52.3009 91.9223 51.9411 91.6989C51.585 91.4754 51.1645 91.3636 50.6797 91.3636C50.1456 91.3636 49.6835 91.4962 49.2933 91.7614C48.907 92.0227 48.6096 92.3636 48.4013 92.7841C48.1929 93.2045 48.0888 93.6553 48.0888 94.1364V94.9091C48.0888 95.5682 48.2024 96.1269 48.4297 96.5852C48.6607 97.0398 48.9808 97.3864 49.3899 97.625C49.799 97.8598 50.2744 97.9773 50.8161 97.9773C51.1683 97.9773 51.4865 97.928 51.7706 97.8295C52.0585 97.7273 52.3066 97.5758 52.5149 97.375C52.7232 97.1705 52.8842 96.9167 52.9979 96.6136L54.2933 96.9773C54.157 97.4167 53.9278 97.803 53.6058 98.1364C53.2839 98.4659 52.8861 98.7235 52.4126 98.9091C51.9392 99.0909 51.407 99.1818 50.8161 99.1818ZM62.6513 92.2273L61.4467 92.5682C61.371 92.3674 61.2592 92.1723 61.1115 91.983C60.9676 91.7898 60.7706 91.6307 60.5206 91.5057C60.2706 91.3807 59.9505 91.3182 59.5604 91.3182C59.0263 91.3182 58.5812 91.4413 58.2251 91.6875C57.8729 91.9299 57.6967 92.2386 57.6967 92.6136C57.6967 92.947 57.8179 93.2102 58.0604 93.4034C58.3028 93.5966 58.6816 93.7576 59.1967 93.8864L60.4922 94.2045C61.2725 94.3939 61.8539 94.6837 62.2365 95.0739C62.6191 95.4602 62.8104 95.9583 62.8104 96.5682C62.8104 97.0682 62.6664 97.5152 62.3786 97.9091C62.0945 98.303 61.6967 98.6136 61.1854 98.8409C60.674 99.0682 60.0793 99.1818 59.4013 99.1818C58.5111 99.1818 57.7744 98.9886 57.1911 98.6023C56.6077 98.2159 56.2384 97.6515 56.0831 96.9091L57.3558 96.5909C57.477 97.0606 57.7062 97.4129 58.0433 97.6477C58.3842 97.8826 58.8293 98 59.3786 98C60.0036 98 60.4998 97.8674 60.8672 97.6023C61.2384 97.3333 61.424 97.0114 61.424 96.6364C61.424 96.3333 61.3179 96.0795 61.1058 95.875C60.8937 95.6667 60.5679 95.5114 60.1286 95.4091L58.674 95.0682C57.8748 94.8788 57.2876 94.5852 56.9126 94.1875C56.5414 93.786 56.3558 93.2841 56.3558 92.6818C56.3558 92.1894 56.4941 91.7538 56.7706 91.375C57.0509 90.9962 57.4316 90.6989 57.9126 90.483C58.3975 90.267 58.9467 90.1591 59.5604 90.1591C60.424 90.1591 61.102 90.3485 61.5945 90.7273C62.0907 91.1061 62.4429 91.6061 62.6513 92.2273ZM71.0107 92.2273L69.8061 92.5682C69.7304 92.3674 69.6186 92.1723 69.4709 91.983C69.3269 91.7898 69.13 91.6307 68.88 91.5057C68.63 91.3807 68.3099 91.3182 67.9197 91.3182C67.3857 91.3182 66.9406 91.4413 66.5845 91.6875C66.2322 91.9299 66.0561 92.2386 66.0561 92.6136C66.0561 92.947 66.1773 93.2102 66.4197 93.4034C66.6622 93.5966 67.041 93.7576 67.5561 93.8864L68.8516 94.2045C69.6319 94.3939 70.2133 94.6837 70.5959 95.0739C70.9785 95.4602 71.1697 95.9583 71.1697 96.5682C71.1697 97.0682 71.0258 97.5152 70.7379 97.9091C70.4538 98.303 70.0561 98.6136 69.5447 98.8409C69.0334 99.0682 68.4387 99.1818 67.7607 99.1818C66.8705 99.1818 66.1338 98.9886 65.5504 98.6023C64.9671 98.2159 64.5978 97.6515 64.4425 96.9091L65.7152 96.5909C65.8364 97.0606 66.0656 97.4129 66.4027 97.6477C66.7436 97.8826 67.1887 98 67.7379 98C68.3629 98 68.8591 97.8674 69.2266 97.6023C69.5978 97.3333 69.7834 97.0114 69.7834 96.6364C69.7834 96.3333 69.6773 96.0795 69.4652 95.875C69.2531 95.6667 68.9273 95.5114 68.4879 95.4091L67.0334 95.0682C66.2341 94.8788 65.647 94.5852 65.272 94.1875C64.9008 93.786 64.7152 93.2841 64.7152 92.6818C64.7152 92.1894 64.8535 91.7538 65.13 91.375C65.4103 90.9962 65.791 90.6989 66.272 90.483C66.7569 90.267 67.3061 90.1591 67.9197 90.1591C68.7834 90.1591 69.4614 90.3485 69.9538 90.7273C70.45 91.1061 70.8023 91.6061 71.0107 92.2273ZM76.8473 99.1818C76.0064 99.1818 75.281 98.9962 74.6712 98.625C74.0651 98.25 73.5973 97.7273 73.2678 97.0568C72.942 96.3826 72.7791 95.5985 72.7791 94.7045C72.7791 93.8106 72.942 93.0227 73.2678 92.3409C73.5973 91.6553 74.0556 91.1212 74.6428 90.7386C75.2337 90.3523 75.9231 90.1591 76.7109 90.1591C77.1655 90.1591 77.6143 90.2348 78.0575 90.3864C78.5007 90.5379 78.9041 90.7841 79.2678 91.125C79.6314 91.4621 79.9212 91.9091 80.1371 92.4659C80.353 93.0227 80.4609 93.7083 80.4609 94.5227V95.0909H73.7337V93.9318H79.0973C79.0973 93.4394 78.9988 93 78.8018 92.6136C78.6087 92.2273 78.3321 91.9223 77.9723 91.6989C77.6162 91.4754 77.1958 91.3636 76.7109 91.3636C76.1768 91.3636 75.7147 91.4962 75.3246 91.7614C74.9382 92.0227 74.6409 92.3636 74.4325 92.7841C74.2242 93.2045 74.12 93.6553 74.12 94.1364V94.9091C74.12 95.5682 74.2337 96.1269 74.4609 96.5852C74.692 97.0398 75.0121 97.3864 75.4212 97.625C75.8303 97.8598 76.3056 97.9773 76.8473 97.9773C77.1996 97.9773 77.5178 97.928 77.8018 97.8295C78.0897 97.7273 78.3378 97.5758 78.5462 97.375C78.7545 97.1705 78.9155 96.9167 79.0291 96.6136L80.3246 96.9773C80.1882 97.4167 79.959 97.803 79.6371 98.1364C79.3151 98.4659 78.9174 98.7235 78.4439 98.9091C77.9704 99.0909 77.4382 99.1818 76.8473 99.1818ZM87.0007 102.273V90.2727H88.2962V91.6591H88.4553C88.5537 91.5076 88.6901 91.3144 88.8643 91.0795C89.0424 90.8409 89.2962 90.6288 89.6257 90.4432C89.959 90.2538 90.4098 90.1591 90.978 90.1591C91.7128 90.1591 92.3606 90.3428 92.9212 90.7102C93.4818 91.0777 93.9193 91.5985 94.2337 92.2727C94.5481 92.947 94.7053 93.7424 94.7053 94.6591C94.7053 95.5833 94.5481 96.3845 94.2337 97.0625C93.9193 97.7367 93.4837 98.2595 92.9268 98.6307C92.37 98.9981 91.728 99.1818 91.0007 99.1818C90.4401 99.1818 89.9912 99.089 89.6541 98.9034C89.317 98.714 89.0575 98.5 88.8757 98.2614C88.6939 98.0189 88.5537 97.8182 88.4553 97.6591H88.3416V102.273H87.0007ZM88.3189 94.6364C88.3189 95.2955 88.4155 95.8769 88.6087 96.3807C88.8018 96.8807 89.084 97.2727 89.4553 97.5568C89.8265 97.8371 90.281 97.9773 90.8189 97.9773C91.3795 97.9773 91.8473 97.8295 92.2223 97.5341C92.6011 97.2348 92.8852 96.8333 93.0746 96.3295C93.2678 95.822 93.3643 95.2576 93.3643 94.6364C93.3643 94.0227 93.2696 93.4697 93.0803 92.9773C92.8946 92.4811 92.6125 92.089 92.2337 91.8011C91.8587 91.5095 91.3871 91.3636 90.8189 91.3636C90.2734 91.3636 89.8151 91.5019 89.4439 91.7784C89.0727 92.0511 88.7924 92.4337 88.603 92.9261C88.4136 93.4148 88.3189 93.9848 88.3189 94.6364ZM99.3189 99.2045C98.7659 99.2045 98.264 99.1004 97.8132 98.892C97.3625 98.6799 97.0045 98.375 96.7393 97.9773C96.4742 97.5758 96.3416 97.0909 96.3416 96.5227C96.3416 96.0227 96.4401 95.6174 96.6371 95.3068C96.834 94.9924 97.0973 94.7462 97.4268 94.5682C97.7564 94.3902 98.12 94.2576 98.5178 94.1705C98.9193 94.0795 99.3227 94.0076 99.728 93.9545C100.258 93.8864 100.688 93.8352 101.018 93.8011C101.351 93.7633 101.594 93.7008 101.745 93.6136C101.9 93.5265 101.978 93.375 101.978 93.1591V93.1136C101.978 92.553 101.825 92.1174 101.518 91.8068C101.215 91.4962 100.754 91.3409 100.137 91.3409C99.4969 91.3409 98.995 91.4811 98.6314 91.7614C98.2678 92.0417 98.0121 92.3409 97.8643 92.6591L96.5916 92.2045C96.8189 91.6742 97.1219 91.2614 97.5007 90.9659C97.8833 90.6667 98.3 90.4583 98.7507 90.3409C99.2053 90.2197 99.6522 90.1591 100.092 90.1591C100.372 90.1591 100.694 90.1932 101.058 90.2614C101.425 90.3258 101.779 90.4602 102.12 90.6648C102.465 90.8693 102.751 91.178 102.978 91.5909C103.205 92.0038 103.319 92.5568 103.319 93.25V99H101.978V97.8182H101.91C101.819 98.0076 101.667 98.2102 101.455 98.4261C101.243 98.642 100.961 98.8258 100.609 98.9773C100.256 99.1288 99.8265 99.2045 99.3189 99.2045ZM99.5234 98C100.054 98 100.501 97.8958 100.864 97.6875C101.232 97.4792 101.508 97.2102 101.694 96.8807C101.883 96.5511 101.978 96.2045 101.978 95.8409V94.6136C101.921 94.6818 101.796 94.7443 101.603 94.8011C101.414 94.8542 101.194 94.9015 100.944 94.9432C100.698 94.9811 100.457 95.0152 100.222 95.0455C99.9912 95.072 99.8037 95.0947 99.6598 95.1136C99.3113 95.1591 98.9856 95.233 98.6825 95.3352C98.3833 95.4337 98.1409 95.5833 97.9553 95.7841C97.7734 95.9811 97.6825 96.25 97.6825 96.5909C97.6825 97.0568 97.8549 97.4091 98.1996 97.6477C98.5481 97.8826 98.9893 98 99.5234 98ZM105.766 99V90.2727H107.062V91.5909H107.153C107.312 91.1591 107.6 90.8087 108.016 90.5398C108.433 90.2708 108.903 90.1364 109.425 90.1364C109.524 90.1364 109.647 90.1383 109.795 90.142C109.942 90.1458 110.054 90.1515 110.13 90.1591V91.5227C110.085 91.5114 109.98 91.4943 109.817 91.4716C109.658 91.4451 109.49 91.4318 109.312 91.4318C108.888 91.4318 108.509 91.5208 108.175 91.6989C107.846 91.8731 107.585 92.1155 107.391 92.4261C107.202 92.733 107.107 93.0833 107.107 93.4773V99H105.766ZM114.288 99.2045C113.735 99.2045 113.233 99.1004 112.782 98.892C112.331 98.6799 111.973 98.375 111.708 97.9773C111.443 97.5758 111.31 97.0909 111.31 96.5227C111.31 96.0227 111.409 95.6174 111.606 95.3068C111.803 94.9924 112.066 94.7462 112.396 94.5682C112.725 94.3902 113.089 94.2576 113.487 94.1705C113.888 94.0795 114.291 94.0076 114.697 93.9545C115.227 93.8864 115.657 93.8352 115.987 93.8011C116.32 93.7633 116.562 93.7008 116.714 93.6136C116.869 93.5265 116.947 93.375 116.947 93.1591V93.1136C116.947 92.553 116.793 92.1174 116.487 91.8068C116.183 91.4962 115.723 91.3409 115.106 91.3409C114.466 91.3409 113.964 91.4811 113.6 91.7614C113.237 92.0417 112.981 92.3409 112.833 92.6591L111.56 92.2045C111.788 91.6742 112.091 91.2614 112.469 90.9659C112.852 90.6667 113.269 90.4583 113.719 90.3409C114.174 90.2197 114.621 90.1591 115.06 90.1591C115.341 90.1591 115.663 90.1932 116.026 90.2614C116.394 90.3258 116.748 90.4602 117.089 90.6648C117.433 90.8693 117.719 91.178 117.947 91.5909C118.174 92.0038 118.288 92.5568 118.288 93.25V99H116.947V97.8182H116.879C116.788 98.0076 116.636 98.2102 116.424 98.4261C116.212 98.642 115.93 98.8258 115.577 98.9773C115.225 99.1288 114.795 99.2045 114.288 99.2045ZM114.492 98C115.022 98 115.469 97.8958 115.833 97.6875C116.201 97.4792 116.477 97.2102 116.663 96.8807C116.852 96.5511 116.947 96.2045 116.947 95.8409V94.6136C116.89 94.6818 116.765 94.7443 116.572 94.8011C116.382 94.8542 116.163 94.9015 115.913 94.9432C115.666 94.9811 115.426 95.0152 115.191 95.0455C114.96 95.072 114.772 95.0947 114.629 95.1136C114.28 95.1591 113.954 95.233 113.651 95.3352C113.352 95.4337 113.11 95.5833 112.924 95.7841C112.742 95.9811 112.651 96.25 112.651 96.5909C112.651 97.0568 112.824 97.4091 113.168 97.6477C113.517 97.8826 113.958 98 114.492 98ZM128.781 99.1818C127.962 99.1818 127.258 98.9886 126.667 98.6023C126.076 98.2159 125.621 97.6837 125.303 97.0057C124.985 96.3277 124.826 95.553 124.826 94.6818C124.826 93.7955 124.989 93.0133 125.315 92.3352C125.644 91.6534 126.103 91.1212 126.69 90.7386C127.281 90.3523 127.97 90.1591 128.758 90.1591C129.371 90.1591 129.924 90.2727 130.417 90.5C130.909 90.7273 131.313 91.0455 131.627 91.4545C131.942 91.8636 132.137 92.3409 132.212 92.8864H130.871C130.769 92.4886 130.542 92.1364 130.19 91.8295C129.841 91.5189 129.371 91.3636 128.781 91.3636C128.258 91.3636 127.799 91.5 127.406 91.7727C127.015 92.0417 126.71 92.4223 126.491 92.9148C126.275 93.4034 126.167 93.9773 126.167 94.6364C126.167 95.3106 126.273 95.8977 126.485 96.3977C126.701 96.8977 127.004 97.286 127.394 97.5625C127.788 97.839 128.25 97.9773 128.781 97.9773C129.129 97.9773 129.445 97.9167 129.729 97.7955C130.013 97.6742 130.254 97.5 130.451 97.2727C130.648 97.0455 130.788 96.7727 130.871 96.4545H132.212C132.137 96.9697 131.949 97.4337 131.65 97.8466C131.354 98.2557 130.962 98.5814 130.474 98.8239C129.989 99.0625 129.424 99.1818 128.781 99.1818ZM137.718 99.1818C136.93 99.1818 136.239 98.9943 135.644 98.6193C135.053 98.2443 134.591 97.7197 134.258 97.0455C133.928 96.3712 133.763 95.5833 133.763 94.6818C133.763 93.7727 133.928 92.9792 134.258 92.3011C134.591 91.6231 135.053 91.0966 135.644 90.7216C136.239 90.3466 136.93 90.1591 137.718 90.1591C138.506 90.1591 139.195 90.3466 139.786 90.7216C140.381 91.0966 140.843 91.6231 141.173 92.3011C141.506 92.9792 141.673 93.7727 141.673 94.6818C141.673 95.5833 141.506 96.3712 141.173 97.0455C140.843 97.7197 140.381 98.2443 139.786 98.6193C139.195 98.9943 138.506 99.1818 137.718 99.1818ZM137.718 97.9773C138.317 97.9773 138.809 97.8239 139.195 97.517C139.582 97.2102 139.868 96.8068 140.053 96.3068C140.239 95.8068 140.332 95.2652 140.332 94.6818C140.332 94.0985 140.239 93.5549 140.053 93.0511C139.868 92.5473 139.582 92.1402 139.195 91.8295C138.809 91.5189 138.317 91.3636 137.718 91.3636C137.12 91.3636 136.627 91.5189 136.241 91.8295C135.854 92.1402 135.568 92.5473 135.383 93.0511C135.197 93.5549 135.104 94.0985 135.104 94.6818C135.104 95.2652 135.197 95.8068 135.383 96.3068C135.568 96.8068 135.854 97.2102 136.241 97.517C136.627 97.8239 137.12 97.9773 137.718 97.9773ZM145.06 93.75V99H143.719V90.2727H145.015V91.6364H145.129C145.333 91.1932 145.644 90.8371 146.06 90.5682C146.477 90.2955 147.015 90.1591 147.674 90.1591C148.265 90.1591 148.782 90.2803 149.225 90.5227C149.668 90.7614 150.013 91.125 150.259 91.6136C150.505 92.0985 150.629 92.7121 150.629 93.4545V99H149.288V93.5455C149.288 92.8598 149.11 92.3258 148.754 91.9432C148.397 91.5568 147.909 91.3636 147.288 91.3636C146.86 91.3636 146.477 91.4564 146.14 91.642C145.807 91.8277 145.543 92.0985 145.35 92.4545C145.157 92.8106 145.06 93.2424 145.06 93.75ZM154.42 93.75V99H153.079V87.3636H154.42V91.6364H154.533C154.738 91.1856 155.045 90.8277 155.454 90.5625C155.867 90.2936 156.416 90.1591 157.102 90.1591C157.696 90.1591 158.217 90.2784 158.664 90.517C159.111 90.7519 159.458 91.1136 159.704 91.6023C159.954 92.0871 160.079 92.7045 160.079 93.4545V99H158.738V93.5455C158.738 92.8523 158.558 92.3163 158.198 91.9375C157.842 91.5549 157.348 91.3636 156.715 91.3636C156.276 91.3636 155.882 91.4564 155.533 91.642C155.189 91.8277 154.916 92.0985 154.715 92.4545C154.518 92.8106 154.42 93.2424 154.42 93.75ZM166.191 99.1818C165.35 99.1818 164.625 98.9962 164.015 98.625C163.409 98.25 162.941 97.7273 162.612 97.0568C162.286 96.3826 162.123 95.5985 162.123 94.7045C162.123 93.8106 162.286 93.0227 162.612 92.3409C162.941 91.6553 163.399 91.1212 163.987 90.7386C164.577 90.3523 165.267 90.1591 166.055 90.1591C166.509 90.1591 166.958 90.2348 167.401 90.3864C167.844 90.5379 168.248 90.7841 168.612 91.125C168.975 91.4621 169.265 91.9091 169.481 92.4659C169.697 93.0227 169.805 93.7083 169.805 94.5227V95.0909H163.077V93.9318H168.441C168.441 93.4394 168.343 93 168.146 92.6136C167.952 92.2273 167.676 91.9223 167.316 91.6989C166.96 91.4754 166.54 91.3636 166.055 91.3636C165.521 91.3636 165.058 91.4962 164.668 91.7614C164.282 92.0227 163.985 92.3636 163.776 92.7841C163.568 93.2045 163.464 93.6553 163.464 94.1364V94.9091C163.464 95.5682 163.577 96.1269 163.805 96.5852C164.036 97.0398 164.356 97.3864 164.765 97.625C165.174 97.8598 165.649 97.9773 166.191 97.9773C166.543 97.9773 166.862 97.928 167.146 97.8295C167.433 97.7273 167.682 97.5758 167.89 97.375C168.098 97.1705 168.259 96.9167 168.373 96.6136L169.668 96.9773C169.532 97.4167 169.303 97.803 168.981 98.1364C168.659 98.4659 168.261 98.7235 167.788 98.9091C167.314 99.0909 166.782 99.1818 166.191 99.1818ZM175.39 99.1818C174.572 99.1818 173.867 98.9886 173.276 98.6023C172.685 98.2159 172.231 97.6837 171.913 97.0057C171.594 96.3277 171.435 95.553 171.435 94.6818C171.435 93.7955 171.598 93.0133 171.924 92.3352C172.254 91.6534 172.712 91.1212 173.299 90.7386C173.89 90.3523 174.579 90.1591 175.367 90.1591C175.981 90.1591 176.534 90.2727 177.026 90.5C177.519 90.7273 177.922 91.0455 178.237 91.4545C178.551 91.8636 178.746 92.3409 178.822 92.8864H177.481C177.379 92.4886 177.151 92.1364 176.799 91.8295C176.451 91.5189 175.981 91.3636 175.39 91.3636C174.867 91.3636 174.409 91.5 174.015 91.7727C173.625 92.0417 173.32 92.4223 173.1 92.9148C172.884 93.4034 172.776 93.9773 172.776 94.6364C172.776 95.3106 172.882 95.8977 173.094 96.3977C173.31 96.8977 173.613 97.286 174.004 97.5625C174.397 97.839 174.86 97.9773 175.39 97.9773C175.738 97.9773 176.055 97.9167 176.339 97.7955C176.623 97.6742 176.863 97.5 177.06 97.2727C177.257 97.0455 177.397 96.7727 177.481 96.4545H178.822C178.746 96.9697 178.558 97.4337 178.259 97.8466C177.964 98.2557 177.572 98.5814 177.083 98.8239C176.598 99.0625 176.034 99.1818 175.39 99.1818ZM184.441 99.1818C183.6 99.1818 182.875 98.9962 182.265 98.625C181.659 98.25 181.191 97.7273 180.862 97.0568C180.536 96.3826 180.373 95.5985 180.373 94.7045C180.373 93.8106 180.536 93.0227 180.862 92.3409C181.191 91.6553 181.649 91.1212 182.237 90.7386C182.827 90.3523 183.517 90.1591 184.305 90.1591C184.759 90.1591 185.208 90.2348 185.651 90.3864C186.094 90.5379 186.498 90.7841 186.862 91.125C187.225 91.4621 187.515 91.9091 187.731 92.4659C187.947 93.0227 188.055 93.7083 188.055 94.5227V95.0909H181.327V93.9318H186.691C186.691 93.4394 186.593 93 186.396 92.6136C186.202 92.2273 185.926 91.9223 185.566 91.6989C185.21 91.4754 184.79 91.3636 184.305 91.3636C183.771 91.3636 183.308 91.4962 182.918 91.7614C182.532 92.0227 182.235 92.3636 182.026 92.7841C181.818 93.2045 181.714 93.6553 181.714 94.1364V94.9091C181.714 95.5682 181.827 96.1269 182.055 96.5852C182.286 97.0398 182.606 97.3864 183.015 97.625C183.424 97.8598 183.899 97.9773 184.441 97.9773C184.793 97.9773 185.112 97.928 185.396 97.8295C185.683 97.7273 185.932 97.5758 186.14 97.375C186.348 97.1705 186.509 96.9167 186.623 96.6136L187.918 96.9773C187.782 97.4167 187.553 97.803 187.231 98.1364C186.909 98.4659 186.511 98.7235 186.038 98.9091C185.564 99.0909 185.032 99.1818 184.441 99.1818ZM190.094 99V90.2727H191.39V91.5909H191.481C191.64 91.1591 191.928 90.8087 192.344 90.5398C192.761 90.2708 193.231 90.1364 193.754 90.1364C193.852 90.1364 193.975 90.1383 194.123 90.142C194.271 90.1458 194.382 90.1515 194.458 90.1591V91.5227C194.413 91.5114 194.308 91.4943 194.146 91.4716C193.987 91.4451 193.818 91.4318 193.64 91.4318C193.216 91.4318 192.837 91.5208 192.504 91.6989C192.174 91.8731 191.913 92.1155 191.719 92.4261C191.53 92.733 191.435 93.0833 191.435 93.4773V99H190.094ZM203.116 99.2045C202.563 99.2045 202.061 99.1004 201.61 98.892C201.159 98.6799 200.801 98.375 200.536 97.9773C200.271 97.5758 200.138 97.0909 200.138 96.5227C200.138 96.0227 200.237 95.6174 200.434 95.3068C200.631 94.9924 200.894 94.7462 201.224 94.5682C201.553 94.3902 201.917 94.2576 202.315 94.1705C202.716 94.0795 203.12 94.0076 203.525 93.9545C204.055 93.8864 204.485 93.8352 204.815 93.8011C205.148 93.7633 205.39 93.7008 205.542 93.6136C205.697 93.5265 205.775 93.375 205.775 93.1591V93.1136C205.775 92.553 205.621 92.1174 205.315 91.8068C205.012 91.4962 204.551 91.3409 203.934 91.3409C203.294 91.3409 202.792 91.4811 202.428 91.7614C202.065 92.0417 201.809 92.3409 201.661 92.6591L200.388 92.2045C200.616 91.6742 200.919 91.2614 201.298 90.9659C201.68 90.6667 202.097 90.4583 202.548 90.3409C203.002 90.2197 203.449 90.1591 203.888 90.1591C204.169 90.1591 204.491 90.1932 204.854 90.2614C205.222 90.3258 205.576 90.4602 205.917 90.6648C206.262 90.8693 206.548 91.178 206.775 91.5909C207.002 92.0038 207.116 92.5568 207.116 93.25V99H205.775V97.8182H205.707C205.616 98.0076 205.464 98.2102 205.252 98.4261C205.04 98.642 204.758 98.8258 204.406 98.9773C204.053 99.1288 203.623 99.2045 203.116 99.2045ZM203.32 98C203.851 98 204.298 97.8958 204.661 97.6875C205.029 97.4792 205.305 97.2102 205.491 96.8807C205.68 96.5511 205.775 96.2045 205.775 95.8409V94.6136C205.718 94.6818 205.593 94.7443 205.4 94.8011C205.21 94.8542 204.991 94.9015 204.741 94.9432C204.495 94.9811 204.254 95.0152 204.019 95.0455C203.788 95.072 203.601 95.0947 203.457 95.1136C203.108 95.1591 202.782 95.233 202.479 95.3352C202.18 95.4337 201.938 95.5833 201.752 95.7841C201.57 95.9811 201.479 96.25 201.479 96.5909C201.479 97.0568 201.652 97.4091 201.996 97.6477C202.345 97.8826 202.786 98 203.32 98ZM215.745 92.2273L214.54 92.5682C214.465 92.3674 214.353 92.1723 214.205 91.983C214.061 91.7898 213.864 91.6307 213.614 91.5057C213.364 91.3807 213.044 91.3182 212.654 91.3182C212.12 91.3182 211.675 91.4413 211.319 91.6875C210.967 91.9299 210.79 92.2386 210.79 92.6136C210.79 92.947 210.912 93.2102 211.154 93.4034C211.397 93.5966 211.775 93.7576 212.29 93.8864L213.586 94.2045C214.366 94.3939 214.948 94.6837 215.33 95.0739C215.713 95.4602 215.904 95.9583 215.904 96.5682C215.904 97.0682 215.76 97.5152 215.472 97.9091C215.188 98.303 214.79 98.6136 214.279 98.8409C213.768 99.0682 213.173 99.1818 212.495 99.1818C211.605 99.1818 210.868 98.9886 210.285 98.6023C209.701 98.2159 209.332 97.6515 209.177 96.9091L210.45 96.5909C210.571 97.0606 210.8 97.4129 211.137 97.6477C211.478 97.8826 211.923 98 212.472 98C213.097 98 213.594 97.8674 213.961 97.6023C214.332 97.3333 214.518 97.0114 214.518 96.6364C214.518 96.3333 214.412 96.0795 214.2 95.875C213.987 95.6667 213.662 95.5114 213.222 95.4091L211.768 95.0682C210.969 94.8788 210.381 94.5852 210.006 94.1875C209.635 93.786 209.45 93.2841 209.45 92.6818C209.45 92.1894 209.588 91.7538 209.864 91.375C210.145 90.9962 210.525 90.6989 211.006 90.483C211.491 90.267 212.04 90.1591 212.654 90.1591C213.518 90.1591 214.196 90.3485 214.688 90.7273C215.184 91.1061 215.537 91.6061 215.745 92.2273ZM229.559 90.2727L226.332 99H224.968L221.741 90.2727H223.195L225.604 97.2273H225.695L228.104 90.2727H229.559ZM233.631 99.2045C233.078 99.2045 232.576 99.1004 232.126 98.892C231.675 98.6799 231.317 98.375 231.052 97.9773C230.787 97.5758 230.654 97.0909 230.654 96.5227C230.654 96.0227 230.753 95.6174 230.95 95.3068C231.147 94.9924 231.41 94.7462 231.739 94.5682C232.069 94.3902 232.433 94.2576 232.83 94.1705C233.232 94.0795 233.635 94.0076 234.04 93.9545C234.571 93.8864 235.001 93.8352 235.33 93.8011C235.664 93.7633 235.906 93.7008 236.058 93.6136C236.213 93.5265 236.29 93.375 236.29 93.1591V93.1136C236.29 92.553 236.137 92.1174 235.83 91.8068C235.527 91.4962 235.067 91.3409 234.45 91.3409C233.809 91.3409 233.308 91.4811 232.944 91.7614C232.58 92.0417 232.325 92.3409 232.177 92.6591L230.904 92.2045C231.131 91.6742 231.434 91.2614 231.813 90.9659C232.196 90.6667 232.612 90.4583 233.063 90.3409C233.518 90.2197 233.965 90.1591 234.404 90.1591C234.684 90.1591 235.006 90.1932 235.37 90.2614C235.737 90.3258 236.092 90.4602 236.433 90.6648C236.777 90.8693 237.063 91.178 237.29 91.5909C237.518 92.0038 237.631 92.5568 237.631 93.25V99H236.29V97.8182H236.222C236.131 98.0076 235.98 98.2102 235.768 98.4261C235.556 98.642 235.273 98.8258 234.921 98.9773C234.569 99.1288 234.139 99.2045 233.631 99.2045ZM233.836 98C234.366 98 234.813 97.8958 235.177 97.6875C235.544 97.4792 235.821 97.2102 236.006 96.8807C236.196 96.5511 236.29 96.2045 236.29 95.8409V94.6136C236.234 94.6818 236.109 94.7443 235.915 94.8011C235.726 94.8542 235.506 94.9015 235.256 94.9432C235.01 94.9811 234.77 95.0152 234.535 95.0455C234.304 95.072 234.116 95.0947 233.972 95.1136C233.624 95.1591 233.298 95.233 232.995 95.3352C232.696 95.4337 232.453 95.5833 232.268 95.7841C232.086 95.9811 231.995 96.25 231.995 96.5909C231.995 97.0568 232.167 97.4091 232.512 97.6477C232.861 97.8826 233.302 98 233.836 98ZM241.42 93.75V99H240.079V90.2727H241.374V91.6364H241.488C241.692 91.1932 242.003 90.8371 242.42 90.5682C242.836 90.2955 243.374 90.1591 244.033 90.1591C244.624 90.1591 245.141 90.2803 245.585 90.5227C246.028 90.7614 246.372 91.125 246.619 91.6136C246.865 92.0985 246.988 92.7121 246.988 93.4545V99H245.647V93.5455C245.647 92.8598 245.469 92.3258 245.113 91.9432C244.757 91.5568 244.268 91.3636 243.647 91.3636C243.219 91.3636 242.836 91.4564 242.499 91.642C242.166 91.8277 241.903 92.0985 241.71 92.4545C241.516 92.8106 241.42 93.2424 241.42 93.75ZM253.234 90.2727V91.4091H248.711V90.2727H253.234ZM250.029 88.1818H251.37V96.5C251.37 96.8788 251.425 97.1629 251.535 97.3523C251.648 97.5379 251.792 97.6629 251.967 97.7273C252.145 97.7879 252.332 97.8182 252.529 97.8182C252.677 97.8182 252.798 97.8106 252.893 97.7955C252.987 97.7765 253.063 97.7614 253.12 97.75L253.393 98.9545C253.302 98.9886 253.175 99.0227 253.012 99.0568C252.849 99.0947 252.643 99.1136 252.393 99.1136C252.014 99.1136 251.643 99.0322 251.279 98.8693C250.919 98.7064 250.62 98.4583 250.381 98.125C250.147 97.7917 250.029 97.3712 250.029 96.8636V88.1818ZM257.819 99.2045C257.266 99.2045 256.764 99.1004 256.313 98.892C255.862 98.6799 255.504 98.375 255.239 97.9773C254.974 97.5758 254.842 97.0909 254.842 96.5227C254.842 96.0227 254.94 95.6174 255.137 95.3068C255.334 94.9924 255.597 94.7462 255.927 94.5682C256.256 94.3902 256.62 94.2576 257.018 94.1705C257.419 94.0795 257.823 94.0076 258.228 93.9545C258.758 93.8864 259.188 93.8352 259.518 93.8011C259.851 93.7633 260.094 93.7008 260.245 93.6136C260.4 93.5265 260.478 93.375 260.478 93.1591V93.1136C260.478 92.553 260.325 92.1174 260.018 91.8068C259.715 91.4962 259.254 91.3409 258.637 91.3409C257.997 91.3409 257.495 91.4811 257.131 91.7614C256.768 92.0417 256.512 92.3409 256.364 92.6591L255.092 92.2045C255.319 91.6742 255.622 91.2614 256.001 90.9659C256.383 90.6667 256.8 90.4583 257.251 90.3409C257.705 90.2197 258.152 90.1591 258.592 90.1591C258.872 90.1591 259.194 90.1932 259.558 90.2614C259.925 90.3258 260.279 90.4602 260.62 90.6648C260.965 90.8693 261.251 91.178 261.478 91.5909C261.705 92.0038 261.819 92.5568 261.819 93.25V99H260.478V97.8182H260.41C260.319 98.0076 260.167 98.2102 259.955 98.4261C259.743 98.642 259.461 98.8258 259.109 98.9773C258.756 99.1288 258.326 99.2045 257.819 99.2045ZM258.023 98C258.554 98 259.001 97.8958 259.364 97.6875C259.732 97.4792 260.008 97.2102 260.194 96.8807C260.383 96.5511 260.478 96.2045 260.478 95.8409V94.6136C260.421 94.6818 260.296 94.7443 260.103 94.8011C259.914 94.8542 259.694 94.9015 259.444 94.9432C259.198 94.9811 258.957 95.0152 258.722 95.0455C258.491 95.072 258.304 95.0947 258.16 95.1136C257.811 95.1591 257.486 95.233 257.183 95.3352C256.883 95.4337 256.641 95.5833 256.455 95.7841C256.273 95.9811 256.183 96.25 256.183 96.5909C256.183 97.0568 256.355 97.4091 256.7 97.6477C257.048 97.8826 257.489 98 258.023 98ZM267.789 102.455C267.141 102.455 266.585 102.371 266.119 102.205C265.653 102.042 265.264 101.826 264.954 101.557C264.647 101.292 264.403 101.008 264.221 100.705L265.289 99.9545C265.41 100.114 265.564 100.295 265.749 100.5C265.935 100.708 266.189 100.888 266.511 101.04C266.836 101.195 267.263 101.273 267.789 101.273C268.494 101.273 269.075 101.102 269.533 100.761C269.992 100.42 270.221 99.8864 270.221 99.1591V97.3864H270.107C270.009 97.5455 269.869 97.7424 269.687 97.9773C269.509 98.2083 269.251 98.4148 268.914 98.5966C268.581 98.7746 268.13 98.8636 267.562 98.8636C266.857 98.8636 266.225 98.697 265.664 98.3636C265.107 98.0303 264.666 97.5455 264.34 96.9091C264.018 96.2727 263.857 95.5 263.857 94.5909C263.857 93.697 264.014 92.9186 264.329 92.2557C264.643 91.589 265.081 91.0739 265.641 90.7102C266.202 90.3428 266.85 90.1591 267.585 90.1591C268.153 90.1591 268.603 90.2538 268.937 90.4432C269.274 90.6288 269.531 90.8409 269.71 91.0795C269.891 91.3144 270.031 91.5076 270.13 91.6591H270.266V90.2727H271.562V99.25C271.562 100 271.391 100.61 271.05 101.08C270.713 101.553 270.259 101.9 269.687 102.119C269.119 102.343 268.486 102.455 267.789 102.455ZM267.744 97.6591C268.281 97.6591 268.736 97.536 269.107 97.2898C269.478 97.0436 269.761 96.6894 269.954 96.2273C270.147 95.7652 270.244 95.2121 270.244 94.5682C270.244 93.9394 270.149 93.3845 269.96 92.9034C269.77 92.4223 269.49 92.0455 269.119 91.7727C268.747 91.5 268.289 91.3636 267.744 91.3636C267.175 91.3636 266.702 91.5076 266.323 91.7955C265.948 92.0833 265.666 92.4697 265.477 92.9545C265.291 93.4394 265.198 93.9773 265.198 94.5682C265.198 95.1742 265.293 95.7102 265.482 96.1761C265.675 96.6383 265.96 97.0019 266.335 97.267C266.713 97.5284 267.183 97.6591 267.744 97.6591ZM277.675 99.1818C276.835 99.1818 276.109 98.9962 275.499 98.625C274.893 98.25 274.425 97.7273 274.096 97.0568C273.77 96.3826 273.607 95.5985 273.607 94.7045C273.607 93.8106 273.77 93.0227 274.096 92.3409C274.425 91.6553 274.884 91.1212 275.471 90.7386C276.062 90.3523 276.751 90.1591 277.539 90.1591C277.994 90.1591 278.442 90.2348 278.886 90.3864C279.329 90.5379 279.732 90.7841 280.096 91.125C280.46 91.4621 280.749 91.9091 280.965 92.4659C281.181 93.0227 281.289 93.7083 281.289 94.5227V95.0909H274.562V93.9318H279.925C279.925 93.4394 279.827 93 279.63 92.6136C279.437 92.2273 279.16 91.9223 278.8 91.6989C278.444 91.4754 278.024 91.3636 277.539 91.3636C277.005 91.3636 276.543 91.4962 276.153 91.7614C275.766 92.0227 275.469 92.3636 275.261 92.7841C275.052 93.2045 274.948 93.6553 274.948 94.1364V94.9091C274.948 95.5682 275.062 96.1269 275.289 96.5852C275.52 97.0398 275.84 97.3864 276.249 97.625C276.658 97.8598 277.134 97.9773 277.675 97.9773C278.028 97.9773 278.346 97.928 278.63 97.8295C278.918 97.7273 279.166 97.5758 279.374 97.375C279.583 97.1705 279.744 96.9167 279.857 96.6136L281.153 96.9773C281.016 97.4167 280.787 97.803 280.465 98.1364C280.143 98.4659 279.746 98.7235 279.272 98.9091C278.799 99.0909 278.266 99.1818 277.675 99.1818ZM284.67 93.75V99H283.329V90.2727H284.624V91.6364H284.738C284.942 91.1932 285.253 90.8371 285.67 90.5682C286.086 90.2955 286.624 90.1591 287.283 90.1591C287.874 90.1591 288.391 90.2803 288.835 90.5227C289.278 90.7614 289.622 91.125 289.869 91.6136C290.115 92.0985 290.238 92.7121 290.238 93.4545V99H288.897V93.5455C288.897 92.8598 288.719 92.3258 288.363 91.9432C288.007 91.5568 287.518 91.3636 286.897 91.3636C286.469 91.3636 286.086 91.4564 285.749 91.642C285.416 91.8277 285.153 92.0985 284.96 92.4545C284.766 92.8106 284.67 93.2424 284.67 93.75ZM298.87 92.2273L297.665 92.5682C297.59 92.3674 297.478 92.1723 297.33 91.983C297.186 91.7898 296.989 91.6307 296.739 91.5057C296.489 91.3807 296.169 91.3182 295.779 91.3182C295.245 91.3182 294.8 91.4413 294.444 91.6875C294.092 91.9299 293.915 92.2386 293.915 92.6136C293.915 92.947 294.037 93.2102 294.279 93.4034C294.522 93.5966 294.9 93.7576 295.415 93.8864L296.711 94.2045C297.491 94.3939 298.073 94.6837 298.455 95.0739C298.838 95.4602 299.029 95.9583 299.029 96.5682C299.029 97.0682 298.885 97.5152 298.597 97.9091C298.313 98.303 297.915 98.6136 297.404 98.8409C296.893 99.0682 296.298 99.1818 295.62 99.1818C294.73 99.1818 293.993 98.9886 293.41 98.6023C292.826 98.2159 292.457 97.6515 292.302 96.9091L293.575 96.5909C293.696 97.0606 293.925 97.4129 294.262 97.6477C294.603 97.8826 295.048 98 295.597 98C296.222 98 296.719 97.8674 297.086 97.6023C297.457 97.3333 297.643 97.0114 297.643 96.6364C297.643 96.3333 297.537 96.0795 297.325 95.875C297.112 95.6667 296.787 95.5114 296.347 95.4091L294.893 95.0682C294.094 94.8788 293.506 94.5852 293.131 94.1875C292.76 93.786 292.575 93.2841 292.575 92.6818C292.575 92.1894 292.713 91.7538 292.989 91.375C293.27 90.9962 293.65 90.6989 294.131 90.483C294.616 90.267 295.165 90.1591 295.779 90.1591C296.643 90.1591 297.321 90.3485 297.813 90.7273C298.309 91.1061 298.662 91.6061 298.87 92.2273ZM92.7571 125.182C92.0298 125.182 91.3878 124.998 90.831 124.631C90.2741 124.259 89.8385 123.737 89.5241 123.062C89.2098 122.384 89.0526 121.583 89.0526 120.659C89.0526 119.742 89.2098 118.947 89.5241 118.273C89.8385 117.598 90.276 117.078 90.8366 116.71C91.3973 116.343 92.045 116.159 92.7798 116.159C93.348 116.159 93.7969 116.254 94.1264 116.443C94.4598 116.629 94.7135 116.841 94.8878 117.08C95.0658 117.314 95.2041 117.508 95.3026 117.659H95.4162V113.364H96.7571V125H95.4616V123.659H95.3026C95.2041 123.818 95.0639 124.019 94.8821 124.261C94.7003 124.5 94.4408 124.714 94.1037 124.903C93.7666 125.089 93.3177 125.182 92.7571 125.182ZM92.9389 123.977C93.4768 123.977 93.9313 123.837 94.3026 123.557C94.6738 123.273 94.956 122.881 95.1491 122.381C95.3423 121.877 95.4389 121.295 95.4389 120.636C95.4389 119.985 95.3442 119.415 95.1548 118.926C94.9654 118.434 94.6851 118.051 94.3139 117.778C93.9427 117.502 93.4844 117.364 92.9389 117.364C92.3707 117.364 91.8973 117.509 91.5185 117.801C91.1435 118.089 90.8613 118.481 90.6719 118.977C90.4863 119.47 90.3935 120.023 90.3935 120.636C90.3935 121.258 90.4882 121.822 90.6776 122.33C90.8707 122.833 91.1548 123.235 91.5298 123.534C91.9086 123.83 92.3783 123.977 92.9389 123.977ZM101.967 125.205C101.414 125.205 100.912 125.1 100.462 124.892C100.011 124.68 99.6529 124.375 99.3878 123.977C99.1226 123.576 98.9901 123.091 98.9901 122.523C98.9901 122.023 99.0885 121.617 99.2855 121.307C99.4825 120.992 99.7457 120.746 100.075 120.568C100.405 120.39 100.768 120.258 101.166 120.17C101.568 120.08 101.971 120.008 102.376 119.955C102.907 119.886 103.337 119.835 103.666 119.801C104 119.763 104.242 119.701 104.393 119.614C104.549 119.527 104.626 119.375 104.626 119.159V119.114C104.626 118.553 104.473 118.117 104.166 117.807C103.863 117.496 103.403 117.341 102.786 117.341C102.145 117.341 101.643 117.481 101.28 117.761C100.916 118.042 100.661 118.341 100.513 118.659L99.2401 118.205C99.4673 117.674 99.7704 117.261 100.149 116.966C100.532 116.667 100.948 116.458 101.399 116.341C101.854 116.22 102.301 116.159 102.74 116.159C103.02 116.159 103.342 116.193 103.706 116.261C104.073 116.326 104.428 116.46 104.768 116.665C105.113 116.869 105.399 117.178 105.626 117.591C105.854 118.004 105.967 118.557 105.967 119.25V125H104.626V123.818H104.558C104.467 124.008 104.316 124.21 104.104 124.426C103.892 124.642 103.609 124.826 103.257 124.977C102.905 125.129 102.475 125.205 101.967 125.205ZM102.172 124C102.702 124 103.149 123.896 103.513 123.688C103.88 123.479 104.157 123.21 104.342 122.881C104.532 122.551 104.626 122.205 104.626 121.841V120.614C104.57 120.682 104.445 120.744 104.251 120.801C104.062 120.854 103.842 120.902 103.592 120.943C103.346 120.981 103.106 121.015 102.871 121.045C102.64 121.072 102.452 121.095 102.308 121.114C101.96 121.159 101.634 121.233 101.331 121.335C101.032 121.434 100.789 121.583 100.604 121.784C100.422 121.981 100.331 122.25 100.331 122.591C100.331 123.057 100.503 123.409 100.848 123.648C101.196 123.883 101.638 124 102.172 124ZM113.097 125V113.364H117.165C117.975 113.364 118.644 113.504 119.17 113.784C119.697 114.061 120.089 114.434 120.347 114.903C120.604 115.369 120.733 115.886 120.733 116.455C120.733 116.955 120.644 117.367 120.466 117.693C120.292 118.019 120.061 118.277 119.773 118.466C119.489 118.655 119.18 118.795 118.847 118.886V119C119.203 119.023 119.561 119.148 119.92 119.375C120.28 119.602 120.581 119.928 120.824 120.352C121.066 120.777 121.188 121.295 121.188 121.909C121.188 122.492 121.055 123.017 120.79 123.483C120.525 123.949 120.106 124.318 119.534 124.591C118.962 124.864 118.218 125 117.301 125H113.097ZM114.506 123.75H117.301C118.222 123.75 118.875 123.572 119.261 123.216C119.652 122.856 119.847 122.42 119.847 121.909C119.847 121.515 119.746 121.152 119.545 120.818C119.345 120.481 119.059 120.212 118.688 120.011C118.316 119.807 117.877 119.705 117.369 119.705H114.506V123.75ZM114.506 118.477H117.119C117.544 118.477 117.926 118.394 118.267 118.227C118.612 118.061 118.884 117.826 119.085 117.523C119.29 117.22 119.392 116.864 119.392 116.455C119.392 115.943 119.214 115.509 118.858 115.153C118.502 114.794 117.938 114.614 117.165 114.614H114.506V118.477ZM126.98 125.182C126.139 125.182 125.414 124.996 124.804 124.625C124.198 124.25 123.73 123.727 123.401 123.057C123.075 122.383 122.912 121.598 122.912 120.705C122.912 119.811 123.075 119.023 123.401 118.341C123.73 117.655 124.188 117.121 124.776 116.739C125.366 116.352 126.056 116.159 126.844 116.159C127.298 116.159 127.747 116.235 128.19 116.386C128.634 116.538 129.037 116.784 129.401 117.125C129.764 117.462 130.054 117.909 130.27 118.466C130.486 119.023 130.594 119.708 130.594 120.523V121.091H123.866V119.932H129.23C129.23 119.439 129.132 119 128.935 118.614C128.741 118.227 128.465 117.922 128.105 117.699C127.749 117.475 127.329 117.364 126.844 117.364C126.31 117.364 125.848 117.496 125.457 117.761C125.071 118.023 124.774 118.364 124.565 118.784C124.357 119.205 124.253 119.655 124.253 120.136V120.909C124.253 121.568 124.366 122.127 124.594 122.585C124.825 123.04 125.145 123.386 125.554 123.625C125.963 123.86 126.438 123.977 126.98 123.977C127.332 123.977 127.651 123.928 127.935 123.83C128.223 123.727 128.471 123.576 128.679 123.375C128.887 123.17 129.048 122.917 129.162 122.614L130.457 122.977C130.321 123.417 130.092 123.803 129.77 124.136C129.448 124.466 129.05 124.723 128.577 124.909C128.103 125.091 127.571 125.182 126.98 125.182ZM136.429 116.273V117.409H131.906V116.273H136.429ZM133.224 114.182H134.565V122.5C134.565 122.879 134.62 123.163 134.73 123.352C134.844 123.538 134.988 123.663 135.162 123.727C135.34 123.788 135.527 123.818 135.724 123.818C135.872 123.818 135.993 123.811 136.088 123.795C136.183 123.777 136.259 123.761 136.315 123.75L136.588 124.955C136.497 124.989 136.37 125.023 136.207 125.057C136.045 125.095 135.838 125.114 135.588 125.114C135.209 125.114 134.838 125.032 134.474 124.869C134.115 124.706 133.815 124.458 133.577 124.125C133.342 123.792 133.224 123.371 133.224 122.864V114.182ZM144.991 116.273C144.923 115.697 144.647 115.25 144.162 114.932C143.677 114.614 143.082 114.455 142.378 114.455C141.863 114.455 141.412 114.538 141.026 114.705C140.643 114.871 140.344 115.1 140.128 115.392C139.916 115.684 139.81 116.015 139.81 116.386C139.81 116.697 139.884 116.964 140.031 117.188C140.183 117.407 140.376 117.591 140.611 117.739C140.846 117.883 141.092 118.002 141.349 118.097C141.607 118.187 141.844 118.261 142.06 118.318L143.241 118.636C143.545 118.716 143.882 118.826 144.253 118.966C144.628 119.106 144.986 119.297 145.327 119.54C145.671 119.778 145.955 120.085 146.179 120.46C146.402 120.835 146.514 121.295 146.514 121.841C146.514 122.47 146.349 123.038 146.02 123.545C145.694 124.053 145.217 124.456 144.588 124.756C143.963 125.055 143.204 125.205 142.31 125.205C141.476 125.205 140.755 125.07 140.145 124.801C139.539 124.532 139.062 124.157 138.713 123.676C138.368 123.195 138.173 122.636 138.128 122H139.582C139.62 122.439 139.768 122.803 140.026 123.091C140.287 123.375 140.616 123.587 141.014 123.727C141.416 123.864 141.848 123.932 142.31 123.932C142.848 123.932 143.33 123.845 143.759 123.67C144.187 123.492 144.526 123.246 144.776 122.932C145.026 122.614 145.151 122.242 145.151 121.818C145.151 121.432 145.043 121.117 144.827 120.875C144.611 120.633 144.327 120.436 143.974 120.284C143.622 120.133 143.241 120 142.832 119.886L141.401 119.477C140.491 119.216 139.772 118.843 139.241 118.358C138.711 117.873 138.446 117.239 138.446 116.455C138.446 115.803 138.622 115.235 138.974 114.75C139.33 114.261 139.808 113.883 140.406 113.614C141.009 113.341 141.681 113.205 142.423 113.205C143.173 113.205 143.84 113.339 144.423 113.608C145.007 113.873 145.469 114.237 145.81 114.699C146.154 115.161 146.336 115.686 146.355 116.273H144.991ZM148.649 128.273V116.273H149.945V117.659H150.104C150.202 117.508 150.339 117.314 150.513 117.08C150.691 116.841 150.945 116.629 151.274 116.443C151.607 116.254 152.058 116.159 152.626 116.159C153.361 116.159 154.009 116.343 154.57 116.71C155.13 117.078 155.568 117.598 155.882 118.273C156.196 118.947 156.354 119.742 156.354 120.659C156.354 121.583 156.196 122.384 155.882 123.062C155.568 123.737 155.132 124.259 154.575 124.631C154.018 124.998 153.376 125.182 152.649 125.182C152.089 125.182 151.64 125.089 151.303 124.903C150.965 124.714 150.706 124.5 150.524 124.261C150.342 124.019 150.202 123.818 150.104 123.659H149.99V128.273H148.649ZM149.967 120.636C149.967 121.295 150.064 121.877 150.257 122.381C150.45 122.881 150.732 123.273 151.104 123.557C151.475 123.837 151.929 123.977 152.467 123.977C153.028 123.977 153.496 123.83 153.871 123.534C154.25 123.235 154.534 122.833 154.723 122.33C154.916 121.822 155.013 121.258 155.013 120.636C155.013 120.023 154.918 119.47 154.729 118.977C154.543 118.481 154.261 118.089 153.882 117.801C153.507 117.509 153.036 117.364 152.467 117.364C151.922 117.364 151.464 117.502 151.092 117.778C150.721 118.051 150.441 118.434 150.251 118.926C150.062 119.415 149.967 119.985 149.967 120.636ZM162.058 125.182C161.217 125.182 160.492 124.996 159.882 124.625C159.276 124.25 158.808 123.727 158.479 123.057C158.153 122.383 157.99 121.598 157.99 120.705C157.99 119.811 158.153 119.023 158.479 118.341C158.808 117.655 159.267 117.121 159.854 116.739C160.445 116.352 161.134 116.159 161.922 116.159C162.376 116.159 162.825 116.235 163.268 116.386C163.712 116.538 164.115 116.784 164.479 117.125C164.842 117.462 165.132 117.909 165.348 118.466C165.564 119.023 165.672 119.708 165.672 120.523V121.091H158.945V119.932H164.308C164.308 119.439 164.21 119 164.013 118.614C163.82 118.227 163.543 117.922 163.183 117.699C162.827 117.475 162.407 117.364 161.922 117.364C161.388 117.364 160.926 117.496 160.536 117.761C160.149 118.023 159.852 118.364 159.643 118.784C159.435 119.205 159.331 119.655 159.331 120.136V120.909C159.331 121.568 159.445 122.127 159.672 122.585C159.903 123.04 160.223 123.386 160.632 123.625C161.041 123.86 161.517 123.977 162.058 123.977C162.411 123.977 162.729 123.928 163.013 123.83C163.301 123.727 163.549 123.576 163.757 123.375C163.965 123.17 164.126 122.917 164.24 122.614L165.536 122.977C165.399 123.417 165.17 123.803 164.848 124.136C164.526 124.466 164.128 124.723 163.655 124.909C163.181 125.091 162.649 125.182 162.058 125.182ZM171.371 125.182C170.53 125.182 169.804 124.996 169.195 124.625C168.589 124.25 168.121 123.727 167.791 123.057C167.465 122.383 167.303 121.598 167.303 120.705C167.303 119.811 167.465 119.023 167.791 118.341C168.121 117.655 168.579 117.121 169.166 116.739C169.757 116.352 170.446 116.159 171.234 116.159C171.689 116.159 172.138 116.235 172.581 116.386C173.024 116.538 173.428 116.784 173.791 117.125C174.155 117.462 174.445 117.909 174.661 118.466C174.876 119.023 174.984 119.708 174.984 120.523V121.091H168.257V119.932H173.621C173.621 119.439 173.522 119 173.325 118.614C173.132 118.227 172.856 117.922 172.496 117.699C172.14 117.475 171.719 117.364 171.234 117.364C170.7 117.364 170.238 117.496 169.848 117.761C169.462 118.023 169.164 118.364 168.956 118.784C168.748 119.205 168.643 119.655 168.643 120.136V120.909C168.643 121.568 168.757 122.127 168.984 122.585C169.215 123.04 169.536 123.386 169.945 123.625C170.354 123.86 170.829 123.977 171.371 123.977C171.723 123.977 172.041 123.928 172.325 123.83C172.613 123.727 172.861 123.576 173.07 123.375C173.278 123.17 173.439 122.917 173.553 122.614L174.848 122.977C174.712 123.417 174.482 123.803 174.161 124.136C173.839 124.466 173.441 124.723 172.967 124.909C172.494 125.091 171.962 125.182 171.371 125.182ZM180.32 125.182C179.592 125.182 178.95 124.998 178.393 124.631C177.837 124.259 177.401 123.737 177.087 123.062C176.772 122.384 176.615 121.583 176.615 120.659C176.615 119.742 176.772 118.947 177.087 118.273C177.401 117.598 177.839 117.078 178.399 116.71C178.96 116.343 179.607 116.159 180.342 116.159C180.911 116.159 181.359 116.254 181.689 116.443C182.022 116.629 182.276 116.841 182.45 117.08C182.628 117.314 182.767 117.508 182.865 117.659H182.979V113.364H184.32V125H183.024V123.659H182.865C182.767 123.818 182.626 124.019 182.445 124.261C182.263 124.5 182.003 124.714 181.666 124.903C181.329 125.089 180.88 125.182 180.32 125.182ZM180.501 123.977C181.039 123.977 181.494 123.837 181.865 123.557C182.236 123.273 182.518 122.881 182.712 122.381C182.905 121.877 183.001 121.295 183.001 120.636C183.001 119.985 182.907 119.415 182.717 118.926C182.528 118.434 182.248 118.051 181.876 117.778C181.505 117.502 181.047 117.364 180.501 117.364C179.933 117.364 179.46 117.509 179.081 117.801C178.706 118.089 178.424 118.481 178.234 118.977C178.049 119.47 177.956 120.023 177.956 120.636C177.956 121.258 178.051 121.822 178.24 122.33C178.433 122.833 178.717 123.235 179.092 123.534C179.471 123.83 179.941 123.977 180.501 123.977ZM191.643 125V113.364H195.575C196.488 113.364 197.234 113.528 197.814 113.858C198.397 114.184 198.829 114.625 199.109 115.182C199.39 115.739 199.53 116.36 199.53 117.045C199.53 117.731 199.39 118.354 199.109 118.915C198.833 119.475 198.405 119.922 197.825 120.256C197.246 120.585 196.503 120.75 195.598 120.75H192.78V119.5H195.553C196.178 119.5 196.679 119.392 197.058 119.176C197.437 118.96 197.712 118.669 197.882 118.301C198.056 117.93 198.143 117.511 198.143 117.045C198.143 116.58 198.056 116.163 197.882 115.795C197.712 115.428 197.435 115.14 197.053 114.932C196.67 114.72 196.162 114.614 195.53 114.614H193.053V125H191.643ZM201.618 125V116.273H202.913V117.591H203.004C203.163 117.159 203.451 116.809 203.868 116.54C204.285 116.271 204.754 116.136 205.277 116.136C205.375 116.136 205.499 116.138 205.646 116.142C205.794 116.146 205.906 116.152 205.982 116.159V117.523C205.936 117.511 205.832 117.494 205.669 117.472C205.51 117.445 205.341 117.432 205.163 117.432C204.739 117.432 204.36 117.521 204.027 117.699C203.697 117.873 203.436 118.116 203.243 118.426C203.054 118.733 202.959 119.083 202.959 119.477V125H201.618ZM207.571 125V116.273H208.912V125H207.571ZM208.253 114.818C207.991 114.818 207.766 114.729 207.577 114.551C207.391 114.373 207.298 114.159 207.298 113.909C207.298 113.659 207.391 113.445 207.577 113.267C207.766 113.089 207.991 113 208.253 113C208.514 113 208.738 113.089 208.923 113.267C209.113 113.445 209.207 113.659 209.207 113.909C209.207 114.159 209.113 114.373 208.923 114.551C208.738 114.729 208.514 114.818 208.253 114.818ZM211.368 125V116.273H212.663V117.636H212.777C212.959 117.17 213.252 116.809 213.658 116.551C214.063 116.29 214.55 116.159 215.118 116.159C215.694 116.159 216.173 116.29 216.555 116.551C216.942 116.809 217.243 117.17 217.459 117.636H217.55C217.773 117.186 218.108 116.828 218.555 116.562C219.002 116.294 219.538 116.159 220.163 116.159C220.944 116.159 221.582 116.403 222.078 116.892C222.574 117.377 222.822 118.133 222.822 119.159V125H221.482V119.159C221.482 118.515 221.305 118.055 220.953 117.778C220.601 117.502 220.186 117.364 219.709 117.364C219.095 117.364 218.62 117.549 218.283 117.92C217.946 118.288 217.777 118.754 217.777 119.318V125H216.413V119.023C216.413 118.527 216.252 118.127 215.93 117.824C215.608 117.517 215.194 117.364 214.686 117.364C214.338 117.364 214.012 117.456 213.709 117.642C213.41 117.828 213.167 118.085 212.982 118.415C212.8 118.741 212.709 119.117 212.709 119.545V125H211.368ZM228.933 125.182C228.092 125.182 227.367 124.996 226.757 124.625C226.151 124.25 225.683 123.727 225.354 123.057C225.028 122.383 224.865 121.598 224.865 120.705C224.865 119.811 225.028 119.023 225.354 118.341C225.683 117.655 226.142 117.121 226.729 116.739C227.32 116.352 228.009 116.159 228.797 116.159C229.251 116.159 229.7 116.235 230.143 116.386C230.587 116.538 230.99 116.784 231.354 117.125C231.717 117.462 232.007 117.909 232.223 118.466C232.439 119.023 232.547 119.708 232.547 120.523V121.091H225.82V119.932H231.183C231.183 119.439 231.085 119 230.888 118.614C230.695 118.227 230.418 117.922 230.058 117.699C229.702 117.475 229.282 117.364 228.797 117.364C228.263 117.364 227.801 117.496 227.411 117.761C227.024 118.023 226.727 118.364 226.518 118.784C226.31 119.205 226.206 119.655 226.206 120.136V120.909C226.206 121.568 226.32 122.127 226.547 122.585C226.778 123.04 227.098 123.386 227.507 123.625C227.916 123.86 228.392 123.977 228.933 123.977C229.286 123.977 229.604 123.928 229.888 123.83C230.176 123.727 230.424 123.576 230.632 123.375C230.84 123.17 231.001 122.917 231.115 122.614L232.411 122.977C232.274 123.417 232.045 123.803 231.723 124.136C231.401 124.466 231.003 124.723 230.53 124.909C230.056 125.091 229.524 125.182 228.933 125.182ZM235.564 125.091C235.284 125.091 235.043 124.991 234.842 124.79C234.642 124.589 234.541 124.348 234.541 124.068C234.541 123.788 234.642 123.547 234.842 123.347C235.043 123.146 235.284 123.045 235.564 123.045C235.844 123.045 236.085 123.146 236.286 123.347C236.486 123.547 236.587 123.788 236.587 124.068C236.587 124.254 236.539 124.424 236.445 124.58C236.354 124.735 236.231 124.86 236.075 124.955C235.924 125.045 235.753 125.091 235.564 125.091Z" fill="white"/>
<path d="M7.73509 23V5.54545H14.9453C16.2521 5.54545 17.38 5.80114 18.3288 6.3125C19.2834 6.81818 20.0192 7.52557 20.5362 8.43466C21.0533 9.33807 21.3118 10.3892 21.3118 11.5881C21.3118 12.7926 21.0476 13.8466 20.5192 14.75C19.9964 15.6477 19.2493 16.3437 18.2777 16.8381C17.3061 17.3324 16.1527 17.5795 14.8175 17.5795H10.3686V14.2557H14.0334C14.6697 14.2557 15.201 14.1449 15.6271 13.9233C16.0589 13.7017 16.3857 13.392 16.6072 12.9943C16.8288 12.5909 16.9396 12.1222 16.9396 11.5881C16.9396 11.0483 16.8288 10.5824 16.6072 10.1903C16.3857 9.79261 16.0589 9.4858 15.6271 9.26989C15.1953 9.05398 14.6641 8.94602 14.0334 8.94602H11.9538V23H7.73509ZM26.6129 23.2216C25.7777 23.2216 25.0362 23.0824 24.3885 22.804C23.7464 22.5199 23.2379 22.0937 22.8629 21.5256C22.4936 20.9517 22.3089 20.233 22.3089 19.3693C22.3089 18.642 22.4368 18.0284 22.6925 17.5284C22.9482 17.0284 23.3004 16.6222 23.7493 16.3097C24.1982 15.9972 24.7152 15.7614 25.3004 15.6023C25.8857 15.4375 26.5107 15.3267 27.1754 15.2699C27.9197 15.2017 28.5192 15.1307 28.9737 15.0568C29.4283 14.9773 29.7578 14.8665 29.9624 14.7244C30.1726 14.5767 30.2777 14.3693 30.2777 14.1023V14.0597C30.2777 13.6222 30.1271 13.2841 29.826 13.0455C29.5249 12.8068 29.1186 12.6875 28.6072 12.6875C28.0561 12.6875 27.6129 12.8068 27.2777 13.0455C26.9425 13.2841 26.7294 13.6136 26.6385 14.0341L22.7947 13.8977C22.9084 13.1023 23.201 12.392 23.6726 11.767C24.1499 11.1364 24.8033 10.642 25.6328 10.2841C26.468 9.92045 27.4709 9.73864 28.6413 9.73864C29.4766 9.73864 30.2464 9.83807 30.951 10.0369C31.6555 10.2301 32.2692 10.5142 32.7919 10.8892C33.3146 11.2585 33.718 11.7131 34.0021 12.2528C34.2919 12.7926 34.4368 13.4091 34.4368 14.1023V23H30.5163V21.1761H30.4141C30.1811 21.6193 29.8828 21.9943 29.5192 22.3011C29.1612 22.608 28.7379 22.8381 28.2493 22.9915C27.7663 23.1449 27.2209 23.2216 26.6129 23.2216ZM27.8999 20.4943C28.3487 20.4943 28.7521 20.4034 29.1101 20.2216C29.4737 20.0398 29.7635 19.7898 29.9794 19.4716C30.1953 19.1477 30.3033 18.7727 30.3033 18.3466V17.1023C30.1839 17.1648 30.0391 17.2216 29.8686 17.2727C29.7038 17.3239 29.522 17.3722 29.3232 17.4176C29.1243 17.4631 28.9197 17.5028 28.7095 17.5369C28.4993 17.571 28.2976 17.6023 28.1044 17.6307C27.7124 17.6932 27.3771 17.7898 27.0987 17.9205C26.826 18.0511 26.6158 18.2216 26.468 18.4318C26.326 18.6364 26.255 18.8807 26.255 19.1648C26.255 19.5966 26.4084 19.9261 26.7152 20.1534C27.0277 20.3807 27.4226 20.4943 27.8999 20.4943ZM36.9851 23V9.90909H41.0334V12.2955H41.1697C41.4084 11.4318 41.7976 10.7898 42.3374 10.3693C42.8771 9.94318 43.505 9.73011 44.2209 9.73011C44.4141 9.73011 44.6129 9.74432 44.8175 9.77273C45.022 9.79545 45.2124 9.83239 45.3885 9.88352V13.5057C45.1896 13.4375 44.9283 13.3835 44.6044 13.3438C44.2862 13.304 44.0021 13.2841 43.7521 13.2841C43.2578 13.2841 42.8118 13.3949 42.4141 13.6165C42.022 13.8324 41.7124 14.1364 41.4851 14.5284C41.2635 14.9148 41.1527 15.3693 41.1527 15.892V23H36.9851ZM50.2848 23.2216C49.4496 23.2216 48.7081 23.0824 48.0604 22.804C47.4183 22.5199 46.9098 22.0937 46.5348 21.5256C46.1655 20.9517 45.9808 20.233 45.9808 19.3693C45.9808 18.642 46.1087 18.0284 46.3643 17.5284C46.62 17.0284 46.9723 16.6222 47.4212 16.3097C47.87 15.9972 48.3871 15.7614 48.9723 15.6023C49.5575 15.4375 50.1825 15.3267 50.8473 15.2699C51.5916 15.2017 52.1911 15.1307 52.6456 15.0568C53.1001 14.9773 53.4297 14.8665 53.6342 14.7244C53.8445 14.5767 53.9496 14.3693 53.9496 14.1023V14.0597C53.9496 13.6222 53.799 13.2841 53.4979 13.0455C53.1967 12.8068 52.7905 12.6875 52.2791 12.6875C51.728 12.6875 51.2848 12.8068 50.9496 13.0455C50.6143 13.2841 50.4013 13.6136 50.3104 14.0341L46.4666 13.8977C46.5803 13.1023 46.8729 12.392 47.3445 11.767C47.8217 11.1364 48.4751 10.642 49.3047 10.2841C50.1399 9.92045 51.1428 9.73864 52.3132 9.73864C53.1484 9.73864 53.9183 9.83807 54.6229 10.0369C55.3274 10.2301 55.9411 10.5142 56.4638 10.8892C56.9865 11.2585 57.3899 11.7131 57.674 12.2528C57.9638 12.7926 58.1087 13.4091 58.1087 14.1023V23H54.1882V21.1761H54.0859C53.853 21.6193 53.5547 21.9943 53.1911 22.3011C52.8331 22.608 52.4098 22.8381 51.9212 22.9915C51.4382 23.1449 50.8928 23.2216 50.2848 23.2216ZM51.5717 20.4943C52.0206 20.4943 52.424 20.4034 52.782 20.2216C53.1456 20.0398 53.4354 19.7898 53.6513 19.4716C53.8672 19.1477 53.9751 18.7727 53.9751 18.3466V17.1023C53.8558 17.1648 53.7109 17.2216 53.5405 17.2727C53.3757 17.3239 53.1939 17.3722 52.995 17.4176C52.7962 17.4631 52.5916 17.5028 52.3814 17.5369C52.1712 17.571 51.9695 17.6023 51.7763 17.6307C51.3842 17.6932 51.049 17.7898 50.7706 17.9205C50.4979 18.0511 50.2876 18.2216 50.1399 18.4318C49.9979 18.6364 49.9268 18.8807 49.9268 19.1648C49.9268 19.5966 50.0803 19.9261 50.3871 20.1534C50.6996 20.3807 51.0945 20.4943 51.5717 20.4943ZM60.657 23V5.54545H64.8246V12.1506H64.9098C65.0803 11.7528 65.3217 11.3693 65.6342 11C65.9524 10.6307 66.3558 10.3295 66.8445 10.0966C67.3388 9.85795 67.9297 9.73864 68.6172 9.73864C69.5263 9.73864 70.3757 9.97727 71.1655 10.4545C71.9609 10.9318 72.603 11.6676 73.0916 12.6619C73.5803 13.6562 73.8246 14.9233 73.8246 16.4631C73.8246 17.946 73.5888 19.1875 73.1172 20.1875C72.6513 21.1875 72.0206 21.9375 71.2251 22.4375C70.4354 22.9375 69.5575 23.1875 68.5916 23.1875C67.9325 23.1875 67.3615 23.0795 66.8786 22.8636C66.3956 22.6477 65.9893 22.3636 65.6598 22.0114C65.3359 21.6591 65.0859 21.2812 64.9098 20.8778H64.782V23H60.657ZM64.7393 16.4545C64.7393 17.1591 64.8331 17.7727 65.0206 18.2955C65.2138 18.8182 65.4893 19.2244 65.8473 19.5142C66.2109 19.7983 66.6456 19.9403 67.1513 19.9403C67.6626 19.9403 68.0973 19.7983 68.4553 19.5142C68.8132 19.2244 69.0831 18.8182 69.2649 18.2955C69.4524 17.7727 69.5462 17.1591 69.5462 16.4545C69.5462 15.75 69.4524 15.1392 69.2649 14.6222C69.0831 14.1051 68.8132 13.7045 68.4553 13.4205C68.103 13.1364 67.6683 12.9943 67.1513 12.9943C66.6399 12.9943 66.2053 13.1335 65.8473 13.4119C65.4893 13.6903 65.2138 14.0881 65.0206 14.6051C64.8331 15.1222 64.7393 15.7386 64.7393 16.4545ZM82.1278 23.2472C80.7585 23.2472 79.5767 22.9773 78.5824 22.4375C77.5938 21.892 76.8324 21.1165 76.2983 20.1108C75.7699 19.0994 75.5057 17.8977 75.5057 16.5057C75.5057 15.1534 75.7727 13.9716 76.3068 12.9602C76.8409 11.9432 77.5938 11.1534 78.5653 10.5909C79.5369 10.0227 80.6818 9.73864 82 9.73864C82.9318 9.73864 83.7841 9.88352 84.5568 10.1733C85.3295 10.4631 85.9972 10.892 86.5597 11.4602C87.1222 12.0284 87.5597 12.7301 87.8722 13.5653C88.1847 14.3949 88.3409 15.3466 88.3409 16.4205V17.4602H76.9631V15.0398H84.4631C84.4574 14.5966 84.3523 14.2017 84.1477 13.8551C83.9432 13.5085 83.6619 13.2386 83.304 13.0455C82.9517 12.8466 82.5455 12.7472 82.0852 12.7472C81.6193 12.7472 81.2017 12.8523 80.8324 13.0625C80.4631 13.267 80.1705 13.5483 79.9545 13.9062C79.7386 14.2585 79.625 14.6591 79.6136 15.108V17.571C79.6136 18.1051 79.7188 18.5739 79.929 18.9773C80.1392 19.375 80.4375 19.6847 80.8239 19.9062C81.2102 20.1278 81.6705 20.2386 82.2045 20.2386C82.5739 20.2386 82.9091 20.1875 83.2102 20.0852C83.5114 19.983 83.7699 19.8324 83.9858 19.6335C84.2017 19.4347 84.3636 19.1903 84.4716 18.9006L88.2983 19.0114C88.1392 19.8693 87.7898 20.6165 87.25 21.2528C86.7159 21.8835 86.0142 22.375 85.1449 22.7273C84.2756 23.0739 83.2699 23.2472 82.1278 23.2472ZM80.4915 8.24716L82.2131 4.40341H85.9034L83.3295 8.24716H80.4915ZM94.6371 15.5341V23H90.4695V9.90909H94.4325V12.3125H94.5774C94.8672 11.5114 95.3615 10.8835 96.0604 10.429C96.7592 9.96875 97.5916 9.73864 98.5575 9.73864C99.478 9.73864 100.276 9.94602 100.952 10.3608C101.634 10.7699 102.163 11.3437 102.538 12.0824C102.918 12.8153 103.106 13.6733 103.1 14.6562V23H98.9325V15.4744C98.9382 14.7472 98.7536 14.179 98.3786 13.7699C98.0092 13.3608 97.495 13.1562 96.8359 13.1562C96.3984 13.1562 96.0121 13.2528 95.6768 13.446C95.3473 13.6335 95.0916 13.9034 94.9098 14.2557C94.7337 14.608 94.6428 15.0341 94.6371 15.5341ZM117.109 13.9062L113.283 14.0085C113.243 13.7358 113.135 13.4943 112.959 13.2841C112.783 13.0682 112.553 12.9006 112.268 12.7812C111.99 12.6562 111.666 12.5938 111.297 12.5938C110.814 12.5938 110.402 12.6903 110.061 12.8835C109.726 13.0767 109.561 13.3381 109.567 13.6676C109.561 13.9233 109.663 14.1449 109.874 14.3324C110.089 14.5199 110.473 14.6705 111.024 14.7841L113.547 15.2614C114.854 15.5114 115.825 15.9261 116.462 16.5057C117.104 17.0852 117.428 17.8523 117.433 18.8068C117.428 19.7045 117.161 20.4858 116.632 21.1506C116.109 21.8153 115.393 22.3324 114.484 22.7017C113.575 23.0653 112.536 23.2472 111.365 23.2472C109.496 23.2472 108.021 22.8636 106.942 22.0966C105.868 21.3239 105.254 20.2898 105.101 18.9943L109.217 18.892C109.308 19.3693 109.544 19.733 109.925 19.983C110.305 20.233 110.791 20.358 111.382 20.358C111.916 20.358 112.351 20.2585 112.686 20.0597C113.021 19.8608 113.192 19.5966 113.197 19.267C113.192 18.9716 113.061 18.7358 112.805 18.5597C112.55 18.3778 112.149 18.2358 111.604 18.1335L109.32 17.6989C108.007 17.4602 107.03 17.0199 106.388 16.3778C105.746 15.7301 105.428 14.9062 105.433 13.9062C105.428 13.0312 105.661 12.2841 106.132 11.6648C106.604 11.0398 107.274 10.5625 108.143 10.233C109.013 9.90341 110.038 9.73864 111.22 9.73864C112.993 9.73864 114.391 10.1108 115.413 10.8551C116.436 11.5937 117.001 12.6108 117.109 13.9062ZM123.738 20.6136L123.661 21.5597C123.593 22.3437 123.454 23.108 123.244 23.8523C123.039 24.6023 122.82 25.2756 122.587 25.8722C122.354 26.4688 122.17 26.9318 122.033 27.2614H119.408C119.499 26.9318 119.621 26.4688 119.775 25.8722C119.934 25.2756 120.082 24.6023 120.218 23.8523C120.354 23.1023 120.431 22.3409 120.448 21.5682L120.465 20.6136H123.738ZM134.683 23.2216C133.848 23.2216 133.107 23.0824 132.459 22.804C131.817 22.5199 131.308 22.0937 130.933 21.5256C130.564 20.9517 130.379 20.233 130.379 19.3693C130.379 18.642 130.507 18.0284 130.763 17.5284C131.018 17.0284 131.371 16.6222 131.82 16.3097C132.268 15.9972 132.786 15.7614 133.371 15.6023C133.956 15.4375 134.581 15.3267 135.246 15.2699C135.99 15.2017 136.589 15.1307 137.044 15.0568C137.499 14.9773 137.828 14.8665 138.033 14.7244C138.243 14.5767 138.348 14.3693 138.348 14.1023V14.0597C138.348 13.6222 138.197 13.2841 137.896 13.0455C137.595 12.8068 137.189 12.6875 136.678 12.6875C136.126 12.6875 135.683 12.8068 135.348 13.0455C135.013 13.2841 134.8 13.6136 134.709 14.0341L130.865 13.8977C130.979 13.1023 131.271 12.392 131.743 11.767C132.22 11.1364 132.874 10.642 133.703 10.2841C134.538 9.92045 135.541 9.73864 136.712 9.73864C137.547 9.73864 138.317 9.83807 139.021 10.0369C139.726 10.2301 140.339 10.5142 140.862 10.8892C141.385 11.2585 141.788 11.7131 142.072 12.2528C142.362 12.7926 142.507 13.4091 142.507 14.1023V23H138.587V21.1761H138.484C138.251 21.6193 137.953 21.9943 137.589 22.3011C137.232 22.608 136.808 22.8381 136.32 22.9915C135.837 23.1449 135.291 23.2216 134.683 23.2216ZM135.97 20.4943C136.419 20.4943 136.822 20.4034 137.18 20.2216C137.544 20.0398 137.834 19.7898 138.05 19.4716C138.266 19.1477 138.374 18.7727 138.374 18.3466V17.1023C138.254 17.1648 138.109 17.2216 137.939 17.2727C137.774 17.3239 137.592 17.3722 137.393 17.4176C137.195 17.4631 136.99 17.5028 136.78 17.5369C136.57 17.571 136.368 17.6023 136.175 17.6307C135.783 17.6932 135.447 17.7898 135.169 17.9205C134.896 18.0511 134.686 18.2216 134.538 18.4318C134.396 18.6364 134.325 18.8807 134.325 19.1648C134.325 19.5966 134.479 19.9261 134.786 20.1534C135.098 20.3807 135.493 20.4943 135.97 20.4943ZM151.158 28.1818C149.913 28.1818 148.848 28.0085 147.962 27.6619C147.075 27.3153 146.379 26.8409 145.874 26.2386C145.368 25.6364 145.064 24.9545 144.962 24.1932L148.908 23.9716C148.982 24.2386 149.118 24.4716 149.317 24.6705C149.521 24.8693 149.786 25.0227 150.109 25.1307C150.439 25.2386 150.825 25.2926 151.268 25.2926C151.967 25.2926 152.544 25.1222 152.999 24.7812C153.459 24.446 153.689 23.858 153.689 23.017V20.7159H153.544C153.379 21.1193 153.129 21.4801 152.794 21.7983C152.459 22.1165 152.041 22.3665 151.541 22.5483C151.047 22.7301 150.479 22.821 149.837 22.821C148.882 22.821 148.007 22.5994 147.212 22.1562C146.422 21.7074 145.788 21.0142 145.311 20.0767C144.839 19.1335 144.604 17.9205 144.604 16.4375C144.604 14.9091 144.848 13.6506 145.337 12.6619C145.825 11.6676 146.464 10.9318 147.254 10.4545C148.05 9.97727 148.905 9.73864 149.82 9.73864C150.507 9.73864 151.095 9.85795 151.584 10.0966C152.078 10.3295 152.484 10.6307 152.803 11C153.121 11.3693 153.362 11.7528 153.527 12.1506H153.646V9.90909H157.797V23.0511C157.797 24.1591 157.518 25.0938 156.962 25.8551C156.405 26.6165 155.626 27.1932 154.626 27.5852C153.626 27.983 152.47 28.1818 151.158 28.1818ZM151.286 19.7869C151.791 19.7869 152.223 19.6534 152.581 19.3864C152.939 19.1193 153.214 18.7358 153.408 18.2358C153.601 17.7358 153.697 17.1364 153.697 16.4375C153.697 15.7273 153.601 15.1165 153.408 14.6051C153.22 14.0881 152.945 13.6903 152.581 13.4119C152.223 13.1335 151.791 12.9943 151.286 12.9943C150.768 12.9943 150.331 13.1364 149.973 13.4205C149.615 13.7045 149.342 14.1051 149.155 14.6222C148.973 15.1335 148.882 15.7386 148.882 16.4375C148.882 17.1364 148.976 17.7358 149.163 18.2358C149.351 18.7358 149.621 19.1193 149.973 19.3864C150.331 19.6534 150.768 19.7869 151.286 19.7869ZM166.565 23.2472C165.19 23.2472 164.008 22.9659 163.019 22.4034C162.036 21.8352 161.278 21.0455 160.744 20.0341C160.215 19.017 159.951 17.8381 159.951 16.4972C159.951 15.1506 160.215 13.9716 160.744 12.9602C161.278 11.9432 162.036 11.1534 163.019 10.5909C164.008 10.0227 165.19 9.73864 166.565 9.73864C167.94 9.73864 169.119 10.0227 170.102 10.5909C171.09 11.1534 171.849 11.9432 172.377 12.9602C172.911 13.9716 173.178 15.1506 173.178 16.4972C173.178 17.8381 172.911 19.017 172.377 20.0341C171.849 21.0455 171.09 21.8352 170.102 22.4034C169.119 22.9659 167.94 23.2472 166.565 23.2472ZM166.59 20.1023C167.09 20.1023 167.513 19.9489 167.86 19.642C168.207 19.3352 168.471 18.9091 168.653 18.3636C168.84 17.8182 168.934 17.1875 168.934 16.4716C168.934 15.7443 168.84 15.108 168.653 14.5625C168.471 14.017 168.207 13.5909 167.86 13.2841C167.513 12.9773 167.09 12.8239 166.59 12.8239C166.073 12.8239 165.636 12.9773 165.278 13.2841C164.925 13.5909 164.656 14.017 164.468 14.5625C164.286 15.108 164.195 15.7443 164.195 16.4716C164.195 17.1875 164.286 17.8182 164.468 18.3636C164.656 18.9091 164.925 19.3352 165.278 19.642C165.636 19.9489 166.073 20.1023 166.59 20.1023ZM175.313 23V9.90909H179.362V12.2955H179.498C179.737 11.4318 180.126 10.7898 180.665 10.3693C181.205 9.94318 181.833 9.73011 182.549 9.73011C182.742 9.73011 182.941 9.74432 183.146 9.77273C183.35 9.79545 183.54 9.83239 183.717 9.88352V13.5057C183.518 13.4375 183.256 13.3835 182.933 13.3438C182.614 13.304 182.33 13.2841 182.08 13.2841C181.586 13.2841 181.14 13.3949 180.742 13.6165C180.35 13.8324 180.04 14.1364 179.813 14.5284C179.592 14.9148 179.481 15.3693 179.481 15.892V23H175.313ZM188.613 23.2216C187.778 23.2216 187.036 23.0824 186.388 22.804C185.746 22.5199 185.238 22.0937 184.863 21.5256C184.494 20.9517 184.309 20.233 184.309 19.3693C184.309 18.642 184.437 18.0284 184.692 17.5284C184.948 17.0284 185.3 16.6222 185.749 16.3097C186.198 15.9972 186.715 15.7614 187.3 15.6023C187.886 15.4375 188.511 15.3267 189.175 15.2699C189.92 15.2017 190.519 15.1307 190.974 15.0568C191.428 14.9773 191.758 14.8665 191.962 14.7244C192.173 14.5767 192.278 14.3693 192.278 14.1023V14.0597C192.278 13.6222 192.127 13.2841 191.826 13.0455C191.525 12.8068 191.119 12.6875 190.607 12.6875C190.056 12.6875 189.613 12.8068 189.278 13.0455C188.942 13.2841 188.729 13.6136 188.638 14.0341L184.795 13.8977C184.908 13.1023 185.201 12.392 185.673 11.767C186.15 11.1364 186.803 10.642 187.633 10.2841C188.468 9.92045 189.471 9.73864 190.641 9.73864C191.477 9.73864 192.246 9.83807 192.951 10.0369C193.656 10.2301 194.269 10.5142 194.792 10.8892C195.315 11.2585 195.718 11.7131 196.002 12.2528C196.292 12.7926 196.437 13.4091 196.437 14.1023V23H192.516V21.1761H192.414C192.181 21.6193 191.883 21.9943 191.519 22.3011C191.161 22.608 190.738 22.8381 190.249 22.9915C189.766 23.1449 189.221 23.2216 188.613 23.2216ZM189.9 20.4943C190.349 20.4943 190.752 20.4034 191.11 20.2216C191.474 20.0398 191.763 19.7898 191.979 19.4716C192.195 19.1477 192.303 18.7727 192.303 18.3466V17.1023C192.184 17.1648 192.039 17.2216 191.869 17.2727C191.704 17.3239 191.522 17.3722 191.323 17.4176C191.124 17.4631 190.92 17.5028 190.71 17.5369C190.499 17.571 190.298 17.6023 190.104 17.6307C189.712 17.6932 189.377 17.7898 189.099 17.9205C188.826 18.0511 188.616 18.2216 188.468 18.4318C188.326 18.6364 188.255 18.8807 188.255 19.1648C188.255 19.5966 188.408 19.9261 188.715 20.1534C189.028 20.3807 189.423 20.4943 189.9 20.4943ZM216.84 9.90909L212.349 23H207.576L203.093 9.90909H207.482L209.894 18.9261H210.031L212.451 9.90909H216.84ZM224.127 23.2472C222.752 23.2472 221.57 22.9659 220.582 22.4034C219.599 21.8352 218.84 21.0455 218.306 20.0341C217.778 19.017 217.513 17.8381 217.513 16.4972C217.513 15.1506 217.778 13.9716 218.306 12.9602C218.84 11.9432 219.599 11.1534 220.582 10.5909C221.57 10.0227 222.752 9.73864 224.127 9.73864C225.502 9.73864 226.681 10.0227 227.664 10.5909C228.653 11.1534 229.411 11.9432 229.94 12.9602C230.474 13.9716 230.741 15.1506 230.741 16.4972C230.741 17.8381 230.474 19.017 229.94 20.0341C229.411 21.0455 228.653 21.8352 227.664 22.4034C226.681 22.9659 225.502 23.2472 224.127 23.2472ZM224.153 20.1023C224.653 20.1023 225.076 19.9489 225.423 19.642C225.769 19.3352 226.033 18.9091 226.215 18.3636C226.403 17.8182 226.496 17.1875 226.496 16.4716C226.496 15.7443 226.403 15.108 226.215 14.5625C226.033 14.017 225.769 13.5909 225.423 13.2841C225.076 12.9773 224.653 12.8239 224.153 12.8239C223.636 12.8239 223.198 12.9773 222.84 13.2841C222.488 13.5909 222.218 14.017 222.031 14.5625C221.849 15.108 221.758 15.7443 221.758 16.4716C221.758 17.1875 221.849 17.8182 222.031 18.3636C222.218 18.9091 222.488 19.3352 222.84 19.642C223.198 19.9489 223.636 20.1023 224.153 20.1023ZM238.987 23.2472C237.606 23.2472 236.421 22.9631 235.433 22.3949C234.45 21.8267 233.694 21.0369 233.165 20.0256C232.637 19.0085 232.373 17.8324 232.373 16.4972C232.373 15.1562 232.637 13.9801 233.165 12.9688C233.7 11.9517 234.458 11.1591 235.441 10.5909C236.43 10.0227 237.609 9.73864 238.978 9.73864C240.188 9.73864 241.242 9.95739 242.14 10.3949C243.043 10.8324 243.748 11.4517 244.254 12.2528C244.765 13.0483 245.035 13.983 245.063 15.0568H241.168C241.089 14.3864 240.862 13.8608 240.487 13.4801C240.117 13.0994 239.634 12.9091 239.038 12.9091C238.555 12.9091 238.131 13.0455 237.768 13.3182C237.404 13.5852 237.12 13.983 236.915 14.5114C236.717 15.0341 236.617 15.6818 236.617 16.4545C236.617 17.2273 236.717 17.8807 236.915 18.4148C237.12 18.9432 237.404 19.3437 237.768 19.6165C238.131 19.8835 238.555 20.017 239.038 20.017C239.424 20.017 239.765 19.9347 240.06 19.7699C240.362 19.6051 240.609 19.3636 240.802 19.0455C240.995 18.7216 241.117 18.3295 241.168 17.8693H245.063C245.023 18.9489 244.754 19.892 244.254 20.6989C243.759 21.5057 243.063 22.1335 242.165 22.5824C241.273 23.0256 240.214 23.2472 238.987 23.2472ZM253.315 23.2472C251.946 23.2472 250.764 22.9773 249.77 22.4375C248.781 21.892 248.02 21.1165 247.486 20.1108C246.957 19.0994 246.693 17.8977 246.693 16.5057C246.693 15.1534 246.96 13.9716 247.494 12.9602C248.028 11.9432 248.781 11.1534 249.753 10.5909C250.724 10.0227 251.869 9.73864 253.188 9.73864C254.119 9.73864 254.972 9.88352 255.744 10.1733C256.517 10.4631 257.185 10.892 257.747 11.4602C258.31 12.0284 258.747 12.7301 259.06 13.5653C259.372 14.3949 259.528 15.3466 259.528 16.4205V17.4602H248.151V15.0398H255.651C255.645 14.5966 255.54 14.2017 255.335 13.8551C255.131 13.5085 254.849 13.2386 254.491 13.0455C254.139 12.8466 253.733 12.7472 253.273 12.7472C252.807 12.7472 252.389 12.8523 252.02 13.0625C251.651 13.267 251.358 13.5483 251.142 13.9062C250.926 14.2585 250.813 14.6591 250.801 15.108V17.571C250.801 18.1051 250.906 18.5739 251.116 18.9773C251.327 19.375 251.625 19.6847 252.011 19.9062C252.398 20.1278 252.858 20.2386 253.392 20.2386C253.761 20.2386 254.097 20.1875 254.398 20.0852C254.699 19.983 254.957 19.8324 255.173 19.6335C255.389 19.4347 255.551 19.1903 255.659 18.9006L259.486 19.0114C259.327 19.8693 258.977 20.6165 258.438 21.2528C257.903 21.8835 257.202 22.375 256.332 22.7273C255.463 23.0739 254.457 23.2472 253.315 23.2472ZM254.807 8.34091L253.111 6.36364L251.423 8.34091H247.929V8.23011L251.619 4.41193H254.611L258.293 8.23011V8.34091H254.807ZM272.933 23.2472C271.563 23.2472 270.381 22.9773 269.387 22.4375C268.398 21.892 267.637 21.1165 267.103 20.1108C266.575 19.0994 266.31 17.8977 266.31 16.5057C266.31 15.1534 266.577 13.9716 267.112 12.9602C267.646 11.9432 268.398 11.1534 269.37 10.5909C270.342 10.0227 271.487 9.73864 272.805 9.73864C273.737 9.73864 274.589 9.88352 275.362 10.1733C276.134 10.4631 276.802 10.892 277.364 11.4602C277.927 12.0284 278.364 12.7301 278.677 13.5653C278.989 14.3949 279.146 15.3466 279.146 16.4205V17.4602H267.768V15.0398H275.268C275.262 14.5966 275.157 14.2017 274.952 13.8551C274.748 13.5085 274.467 13.2386 274.109 13.0455C273.756 12.8466 273.35 12.7472 272.89 12.7472C272.424 12.7472 272.006 12.8523 271.637 13.0625C271.268 13.267 270.975 13.5483 270.759 13.9062C270.543 14.2585 270.43 14.6591 270.418 15.108V17.571C270.418 18.1051 270.523 18.5739 270.734 18.9773C270.944 19.375 271.242 19.6847 271.629 19.9062C272.015 20.1278 272.475 20.2386 273.009 20.2386C273.379 20.2386 273.714 20.1875 274.015 20.0852C274.316 19.983 274.575 19.8324 274.79 19.6335C275.006 19.4347 275.168 19.1903 275.276 18.9006L279.103 19.0114C278.944 19.8693 278.594 20.6165 278.055 21.2528C277.521 21.8835 276.819 22.375 275.95 22.7273C275.08 23.0739 274.075 23.2472 272.933 23.2472ZM271.296 8.24716L273.018 4.40341H276.708L274.134 8.24716H271.296ZM294.876 17.3494V9.90909H299.036V23H295.064V20.5625H294.928C294.638 21.3636 294.143 22 293.445 22.4716C292.751 22.9375 291.913 23.1705 290.93 23.1705C290.038 23.1705 289.254 22.9659 288.578 22.5568C287.902 22.1477 287.376 21.5767 287.001 20.8438C286.626 20.1051 286.436 19.2415 286.43 18.2528V9.90909H290.598V17.4347C290.604 18.1449 290.791 18.7045 291.161 19.1136C291.53 19.5227 292.033 19.7273 292.669 19.7273C293.084 19.7273 293.456 19.6364 293.786 19.4545C294.121 19.267 294.385 18.9972 294.578 18.6449C294.777 18.2869 294.876 17.8551 294.876 17.3494ZM301.688 23V9.90909H305.651V12.3125H305.796C306.069 11.517 306.529 10.8892 307.177 10.429C307.825 9.96875 308.597 9.73864 309.495 9.73864C310.404 9.73864 311.183 9.97159 311.83 10.4375C312.478 10.9034 312.89 11.5284 313.066 12.3125H313.202C313.447 11.5341 313.924 10.9119 314.634 10.446C315.344 9.97443 316.183 9.73864 317.148 9.73864C318.387 9.73864 319.393 10.1364 320.165 10.9318C320.938 11.7216 321.325 12.8068 321.325 14.1875V23H317.157V15.142C317.157 14.4886 316.989 13.9915 316.654 13.6506C316.319 13.304 315.884 13.1307 315.35 13.1307C314.776 13.1307 314.325 13.3182 313.995 13.6932C313.671 14.0625 313.509 14.5597 313.509 15.1847V23H309.504V15.0994C309.504 14.4915 309.339 14.0114 309.009 13.6591C308.68 13.3068 308.245 13.1307 307.705 13.1307C307.342 13.1307 307.021 13.2187 306.742 13.3949C306.464 13.5653 306.245 13.8097 306.086 14.1278C305.933 14.446 305.856 14.821 305.856 15.2528V23H301.688Z" fill="white"/>
<path d="M17.8473 32.0909H26.1655V56.2273C26.1541 58.4886 25.6143 60.4659 24.5462 62.1591C23.478 63.8409 22.0007 65.1477 20.1143 66.0795C18.2393 67.0114 16.0689 67.4773 13.603 67.4773C11.4212 67.4773 9.43821 67.0966 7.65412 66.3352C5.88139 65.5739 4.46662 64.392 3.4098 62.7898C2.36435 61.1875 1.8473 59.1364 1.85866 56.6364H10.2621C10.2962 57.5341 10.4666 58.3011 10.7734 58.9375C11.0916 59.5625 11.5291 60.0341 12.0859 60.3523C12.6428 60.6705 13.3075 60.8295 14.0803 60.8295C14.8871 60.8295 15.5689 60.6591 16.1257 60.3182C16.6825 59.9659 17.103 59.4489 17.3871 58.767C17.6825 58.0852 17.8359 57.2386 17.8473 56.2273V32.0909ZM43.6839 67.4943C40.9339 67.4943 38.5703 66.9318 36.593 65.8068C34.6271 64.6705 33.1101 63.0909 32.0419 61.0682C30.9851 59.0341 30.4567 56.6761 30.4567 53.9943C30.4567 51.3011 30.9851 48.9432 32.0419 46.9205C33.1101 44.8864 34.6271 43.3068 36.593 42.1818C38.5703 41.0455 40.9339 40.4773 43.6839 40.4773C46.4339 40.4773 48.7919 41.0455 50.7578 42.1818C52.7351 43.3068 54.2521 44.8864 55.309 46.9205C56.3771 48.9432 56.9112 51.3011 56.9112 53.9943C56.9112 56.6761 56.3771 59.0341 55.309 61.0682C54.2521 63.0909 52.7351 64.6705 50.7578 65.8068C48.7919 66.9318 46.4339 67.4943 43.6839 67.4943ZM43.7351 61.2045C44.7351 61.2045 45.5817 60.8977 46.2749 60.2841C46.968 59.6705 47.4964 58.8182 47.8601 57.7273C48.2351 56.6364 48.4226 55.375 48.4226 53.9432C48.4226 52.4886 48.2351 51.2159 47.8601 50.125C47.4964 49.0341 46.968 48.1818 46.2749 47.5682C45.5817 46.9545 44.7351 46.6477 43.7351 46.6477C42.701 46.6477 41.826 46.9545 41.1101 47.5682C40.4055 48.1818 39.8658 49.0341 39.4908 50.125C39.1271 51.2159 38.9453 52.4886 38.9453 53.9432C38.9453 55.375 39.1271 56.6364 39.4908 57.7273C39.8658 58.8182 40.4055 59.6705 41.1101 60.2841C41.826 60.8977 42.701 61.2045 43.7351 61.2045ZM73.3857 77.3636C70.897 77.3636 68.7663 77.017 66.9936 76.3239C65.2209 75.6307 63.8288 74.6818 62.8175 73.4773C61.8061 72.2727 61.1982 70.9091 60.9936 69.3864L68.8857 68.9432C69.0334 69.4773 69.3061 69.9432 69.7038 70.3409C70.1129 70.7386 70.6413 71.0455 71.2891 71.2614C71.9482 71.4773 72.7209 71.5852 73.6072 71.5852C75.005 71.5852 76.1584 71.2443 77.0675 70.5625C77.9879 69.892 78.4482 68.7159 78.4482 67.0341V62.4318H78.1584C77.8288 63.2386 77.3288 63.9602 76.6584 64.5966C75.9879 65.233 75.1527 65.733 74.1527 66.0966C73.1641 66.4602 72.0277 66.642 70.7436 66.642C68.8345 66.642 67.0845 66.1989 65.4936 65.3125C63.9141 64.4148 62.647 63.0284 61.6925 61.1534C60.7493 59.267 60.2777 56.8409 60.2777 53.875C60.2777 50.8182 60.7663 48.3011 61.7436 46.3239C62.7209 44.3352 63.9993 42.8636 65.5788 41.9091C67.1697 40.9545 68.88 40.4773 70.7095 40.4773C72.0845 40.4773 73.2607 40.7159 74.2379 41.1932C75.2266 41.6591 76.0391 42.2614 76.6754 43C77.3118 43.7386 77.7947 44.5057 78.1243 45.3011H78.3629V40.8182H86.6641V67.1023C86.6641 69.3182 86.1072 71.1875 84.9936 72.7102C83.88 74.233 82.3232 75.3864 80.3232 76.1705C78.3232 76.9659 76.0107 77.3636 73.3857 77.3636ZM73.6413 60.5739C74.6527 60.5739 75.5163 60.3068 76.2322 59.7727C76.9482 59.2386 77.4993 58.4716 77.8857 57.4716C78.272 56.4716 78.4652 55.2727 78.4652 53.875C78.4652 52.4545 78.272 51.233 77.8857 50.2102C77.5107 49.1761 76.9595 48.3807 76.2322 47.8239C75.5163 47.267 74.6527 46.9886 73.6413 46.9886C72.6072 46.9886 71.7322 47.2727 71.0163 47.8409C70.3004 48.4091 69.755 49.2102 69.38 50.2443C69.0163 51.267 68.8345 52.4773 68.8345 53.875C68.8345 55.2727 69.022 56.4716 69.397 57.4716C69.772 58.4716 70.3118 59.2386 71.0163 59.7727C71.7322 60.3068 72.6072 60.5739 73.6413 60.5739ZM99.3587 67.4432C97.6882 67.4432 96.2053 67.1648 94.9098 66.608C93.6257 66.0398 92.6087 65.1875 91.8587 64.0511C91.12 62.9034 90.7507 61.4659 90.7507 59.7386C90.7507 58.2841 91.0064 57.0568 91.5178 56.0568C92.0291 55.0568 92.7337 54.2443 93.6314 53.6193C94.5291 52.9943 95.5632 52.5227 96.7337 52.2045C97.9041 51.875 99.1541 51.6534 100.484 51.5398C101.972 51.4034 103.171 51.2614 104.08 51.1136C104.989 50.9545 105.648 50.733 106.058 50.4489C106.478 50.1534 106.688 49.7386 106.688 49.2045V49.1193C106.688 48.2443 106.387 47.5682 105.785 47.0909C105.183 46.6136 104.37 46.375 103.347 46.375C102.245 46.375 101.359 46.6136 100.688 47.0909C100.018 47.5682 99.5916 48.2273 99.4098 49.0682L91.7223 48.7955C91.9496 47.2045 92.5348 45.7841 93.478 44.5341C94.4325 43.2727 95.7393 42.2841 97.3984 41.5682C99.0689 40.8409 101.075 40.4773 103.415 40.4773C105.086 40.4773 106.626 40.6761 108.035 41.0739C109.444 41.4602 110.671 42.0284 111.717 42.7784C112.762 43.517 113.569 44.4261 114.137 45.5057C114.717 46.5852 115.006 47.8182 115.006 49.2045V67H107.165V63.3523H106.961C106.495 64.2386 105.898 64.9886 105.171 65.6023C104.455 66.2159 103.609 66.6761 102.631 66.983C101.665 67.2898 100.575 67.4432 99.3587 67.4432ZM101.933 61.9886C102.83 61.9886 103.637 61.8068 104.353 61.4432C105.08 61.0795 105.66 60.5795 106.092 59.9432C106.523 59.2955 106.739 58.5455 106.739 57.6932V55.2045C106.501 55.3295 106.211 55.4432 105.87 55.5455C105.54 55.6477 105.177 55.7443 104.779 55.8352C104.381 55.9261 103.972 56.0057 103.552 56.0739C103.131 56.142 102.728 56.2045 102.342 56.2614C101.558 56.3864 100.887 56.5795 100.33 56.8409C99.7848 57.1023 99.3643 57.4432 99.0689 57.8636C98.7848 58.2727 98.6428 58.7614 98.6428 59.3295C98.6428 60.1932 98.9496 60.8523 99.5632 61.3068C100.188 61.7614 100.978 61.9886 101.933 61.9886ZM129.665 67.375C127.734 67.375 125.978 66.875 124.398 65.875C122.819 64.875 121.558 63.375 120.614 61.375C119.671 59.375 119.2 56.892 119.2 53.9261C119.2 50.8466 119.688 48.3125 120.665 46.3239C121.643 44.3352 122.921 42.8636 124.501 41.9091C126.092 40.9545 127.802 40.4773 129.631 40.4773C131.006 40.4773 132.183 40.7159 133.16 41.1932C134.137 41.6591 134.944 42.2614 135.58 43C136.217 43.7386 136.7 44.5057 137.029 45.3011H137.2V32.0909H145.535V67H137.285V62.7557H137.029C136.677 63.5625 136.177 64.3182 135.529 65.0227C134.881 65.7273 134.069 66.2955 133.092 66.7273C132.126 67.1591 130.984 67.375 129.665 67.375ZM132.563 60.8807C133.575 60.8807 134.438 60.5966 135.154 60.0284C135.87 59.4489 136.421 58.6364 136.808 57.5909C137.194 56.5455 137.387 55.3182 137.387 53.9091C137.387 52.4773 137.194 51.2443 136.808 50.2102C136.433 49.1761 135.881 48.3807 135.154 47.8239C134.438 47.267 133.575 46.9886 132.563 46.9886C131.529 46.9886 130.654 47.2727 129.938 47.8409C129.222 48.4091 128.677 49.2102 128.302 50.2443C127.938 51.2784 127.756 52.5 127.756 53.9091C127.756 55.3182 127.944 56.5455 128.319 57.5909C128.694 58.6364 129.234 59.4489 129.938 60.0284C130.654 60.5966 131.529 60.8807 132.563 60.8807ZM163.028 67.4943C160.278 67.4943 157.914 66.9318 155.937 65.8068C153.971 64.6705 152.454 63.0909 151.386 61.0682C150.329 59.0341 149.8 56.6761 149.8 53.9943C149.8 51.3011 150.329 48.9432 151.386 46.9205C152.454 44.8864 153.971 43.3068 155.937 42.1818C157.914 41.0455 160.278 40.4773 163.028 40.4773C165.778 40.4773 168.136 41.0455 170.102 42.1818C172.079 43.3068 173.596 44.8864 174.653 46.9205C175.721 48.9432 176.255 51.3011 176.255 53.9943C176.255 56.6761 175.721 59.0341 174.653 61.0682C173.596 63.0909 172.079 64.6705 170.102 65.8068C168.136 66.9318 165.778 67.4943 163.028 67.4943ZM163.079 61.2045C164.079 61.2045 164.925 60.8977 165.619 60.2841C166.312 59.6705 166.84 58.8182 167.204 57.7273C167.579 56.6364 167.766 55.375 167.766 53.9432C167.766 52.4886 167.579 51.2159 167.204 50.125C166.84 49.0341 166.312 48.1818 165.619 47.5682C164.925 46.9545 164.079 46.6477 163.079 46.6477C162.045 46.6477 161.17 46.9545 160.454 47.5682C159.749 48.1818 159.21 49.0341 158.835 50.125C158.471 51.2159 158.289 52.4886 158.289 53.9432C158.289 55.375 158.471 56.6364 158.835 57.7273C159.21 58.8182 159.749 59.6705 160.454 60.2841C161.17 60.8977 162.045 61.2045 163.079 61.2045ZM180.525 67V40.8182H188.621V45.5909H188.894C189.371 43.8636 190.15 42.5795 191.229 41.7386C192.309 40.8864 193.565 40.4602 194.996 40.4602C195.383 40.4602 195.781 40.4886 196.19 40.5455C196.599 40.5909 196.979 40.6648 197.332 40.767V48.0114C196.934 47.875 196.411 47.767 195.763 47.6875C195.127 47.608 194.559 47.5682 194.059 47.5682C193.07 47.5682 192.178 47.7898 191.383 48.233C190.599 48.6648 189.979 49.2727 189.525 50.0568C189.082 50.8295 188.86 51.7386 188.86 52.7841V67H180.525ZM211.04 67V32.0909H225.461C228.075 32.0909 230.33 32.5625 232.228 33.5057C234.137 34.4375 235.609 35.7784 236.643 37.5284C237.677 39.267 238.194 41.3295 238.194 43.7159C238.194 46.1364 237.665 48.1932 236.609 49.8864C235.552 51.5682 234.052 52.8523 232.109 53.7386C230.165 54.6136 227.864 55.0511 225.205 55.0511H216.086V48.4034H223.637C224.91 48.4034 225.972 48.2386 226.825 47.9091C227.688 47.5682 228.342 47.0568 228.785 46.375C229.228 45.6818 229.45 44.7955 229.45 43.7159C229.45 42.6364 229.228 41.7443 228.785 41.0398C228.342 40.3239 227.688 39.7898 226.825 39.4375C225.961 39.0739 224.898 38.892 223.637 38.892H219.478V67H211.04ZM230.694 51.0455L239.387 67H230.183L221.66 51.0455H230.694ZM250.202 67.4432C248.532 67.4432 247.049 67.1648 245.754 66.608C244.469 66.0398 243.452 65.1875 242.702 64.0511C241.964 62.9034 241.594 61.4659 241.594 59.7386C241.594 58.2841 241.85 57.0568 242.362 56.0568C242.873 55.0568 243.577 54.2443 244.475 53.6193C245.373 52.9943 246.407 52.5227 247.577 52.2045C248.748 51.875 249.998 51.6534 251.327 51.5398C252.816 51.4034 254.015 51.2614 254.924 51.1136C255.833 50.9545 256.492 50.733 256.901 50.4489C257.322 50.1534 257.532 49.7386 257.532 49.2045V49.1193C257.532 48.2443 257.231 47.5682 256.629 47.0909C256.026 46.6136 255.214 46.375 254.191 46.375C253.089 46.375 252.202 46.6136 251.532 47.0909C250.862 47.5682 250.435 48.2273 250.254 49.0682L242.566 48.7955C242.793 47.2045 243.379 45.7841 244.322 44.5341C245.276 43.2727 246.583 42.2841 248.242 41.5682C249.913 40.8409 251.918 40.4773 254.259 40.4773C255.93 40.4773 257.469 40.6761 258.879 41.0739C260.288 41.4602 261.515 42.0284 262.56 42.7784C263.606 43.517 264.413 44.4261 264.981 45.5057C265.56 46.5852 265.85 47.8182 265.85 49.2045V67H258.009V63.3523H257.805C257.339 64.2386 256.742 64.9886 256.015 65.6023C255.299 66.2159 254.452 66.6761 253.475 66.983C252.509 67.2898 251.418 67.4432 250.202 67.4432ZM252.776 61.9886C253.674 61.9886 254.481 61.8068 255.197 61.4432C255.924 61.0795 256.504 60.5795 256.935 59.9432C257.367 59.2955 257.583 58.5455 257.583 57.6932V55.2045C257.344 55.3295 257.055 55.4432 256.714 55.5455C256.384 55.6477 256.021 55.7443 255.623 55.8352C255.225 55.9261 254.816 56.0057 254.396 56.0739C253.975 56.142 253.572 56.2045 253.185 56.2614C252.401 56.3864 251.731 56.5795 251.174 56.8409C250.629 57.1023 250.208 57.4432 249.913 57.8636C249.629 58.2727 249.487 58.7614 249.487 59.3295C249.487 60.1932 249.793 60.8523 250.407 61.3068C251.032 61.7614 251.822 61.9886 252.776 61.9886ZM270.947 67V40.8182H279.282V67H270.947ZM275.123 37.767C273.952 37.767 272.947 37.3807 272.106 36.608C271.265 35.8239 270.844 34.8807 270.844 33.7784C270.844 32.6875 271.265 31.7557 272.106 30.983C272.947 30.1989 273.952 29.8068 275.123 29.8068C276.305 29.8068 277.31 30.1989 278.14 30.983C278.981 31.7557 279.401 32.6875 279.401 33.7784C279.401 34.8807 278.981 35.8239 278.14 36.608C277.31 37.3807 276.305 37.767 275.123 37.767ZM296.809 67.4943C294.059 67.4943 291.695 66.9318 289.718 65.8068C287.752 64.6705 286.235 63.0909 285.167 61.0682C284.11 59.0341 283.582 56.6761 283.582 53.9943C283.582 51.3011 284.11 48.9432 285.167 46.9205C286.235 44.8864 287.752 43.3068 289.718 42.1818C291.695 41.0455 294.059 40.4773 296.809 40.4773C299.559 40.4773 301.917 41.0455 303.883 42.1818C305.86 43.3068 307.377 44.8864 308.434 46.9205C309.502 48.9432 310.036 51.3011 310.036 53.9943C310.036 56.6761 309.502 59.0341 308.434 61.0682C307.377 63.0909 305.86 64.6705 303.883 65.8068C301.917 66.9318 299.559 67.4943 296.809 67.4943ZM296.86 61.2045C297.86 61.2045 298.707 60.8977 299.4 60.2841C300.093 59.6705 300.621 58.8182 300.985 57.7273C301.36 56.6364 301.548 55.375 301.548 53.9432C301.548 52.4886 301.36 51.2159 300.985 50.125C300.621 49.0341 300.093 48.1818 299.4 47.5682C298.707 46.9545 297.86 46.6477 296.86 46.6477C295.826 46.6477 294.951 46.9545 294.235 47.5682C293.531 48.1818 292.991 49.0341 292.616 50.125C292.252 51.2159 292.07 52.4886 292.07 53.9432C292.07 55.375 292.252 56.6364 292.616 57.7273C292.991 58.8182 293.531 59.6705 294.235 60.2841C294.951 60.8977 295.826 61.2045 296.86 61.2045ZM324.107 32.0909L323.323 56.3125H316.317L315.533 32.0909H324.107ZM319.812 67.4943C318.596 67.4943 317.55 67.0625 316.675 66.1989C315.812 65.3352 315.38 64.2898 315.38 63.0625C315.38 61.858 315.812 60.8295 316.675 59.9773C317.55 59.1136 318.596 58.6818 319.812 58.6818C320.982 58.6818 322.011 59.1136 322.897 59.9773C323.795 60.8295 324.244 61.858 324.244 63.0625C324.244 63.8807 324.033 64.625 323.613 65.2955C323.204 65.9659 322.664 66.5 321.994 66.8977C321.335 67.2955 320.607 67.4943 319.812 67.4943Z" fill="#E5C680"/>
</svg>
